<svg xmlns="http://www.w3.org/2000/svg" viewBox="0 0 750 500"><g id="freepik--background-complete--inject-15"><path d="M481.85,89.91c3.9-10.84,14.92-15.94,25.95-12.6a19.61,19.61,0,0,1,30.78-8.26c2.66-9.14,13.36-14.33,22.76-12.82s17.23,8.37,22.26,16.45a22.85,22.85,0,0,1,18.48,1.37c5.6,3,9.79,9.66,11.23,15.86Z" style="fill:#ebebeb"></path><path d="M229.74,189.89c2.37-6.59,9.07-9.7,15.78-7.66a11.93,11.93,0,0,1,18.72-5c1.62-5.55,8.13-8.71,13.84-7.79s10.48,5.09,13.54,10a13.93,13.93,0,0,1,11.23.83c3.41,1.85,6,5.88,6.83,9.65Z" style="fill:#ebebeb"></path><path d="M419.23,57.73s-.38-.1-1.07-.24a8.63,8.63,0,0,0-3-.08,8,8,0,0,0-4,1.74,8.19,8.19,0,0,0-2.79,4.44v0l-.17.66-.25-.63a9,9,0,0,0-3.35-4.05,8.68,8.68,0,0,0-4.09-1.39,11.58,11.58,0,0,0-4,.51,3.55,3.55,0,0,1,1-.44,8.56,8.56,0,0,1,3-.38,8.78,8.78,0,0,1,4.29,1.36,9.15,9.15,0,0,1,3.54,4.23l-.42,0v0a8.49,8.49,0,0,1,3-4.66,8.1,8.1,0,0,1,4.18-1.73,8.24,8.24,0,0,1,3,.22A3.45,3.45,0,0,1,419.23,57.73Z" style="fill:#e0e0e0"></path><path d="M305,55.66s-.35.41-1,1.13a23.53,23.53,0,0,0-2.41,3.27A23.83,23.83,0,0,0,298,72.75v.16l-.44,0A21.31,21.31,0,0,0,291.7,61.3a28.85,28.85,0,0,0-4.27-3.46s.13,0,.35.16a9.79,9.79,0,0,1,1,.55,19.31,19.31,0,0,1,3.18,2.53,20.44,20.44,0,0,1,3.66,4.8,20.75,20.75,0,0,1,2.4,7l-.44,0v-.16a23.36,23.36,0,0,1,3.75-12.86,20.75,20.75,0,0,1,2.55-3.22c.33-.36.62-.6.8-.77S304.94,55.64,305,55.66Z" style="fill:#e0e0e0"></path><rect x="541.72" y="297.54" width="34.21" height="144.69" transform="translate(1117.65 739.77) rotate(180)" style="fill:#ebebeb"></rect><rect x="559.16" y="307.68" width="10.4" height="20.04" transform="translate(1128.71 635.41) rotate(180)" style="fill:#fff"></rect><path d="M564.06,327.72c.08,0,.14-4.48.14-10s-.06-10-.14-10-.14,4.49-.14,10S564,327.72,564.06,327.72Z" style="fill:#e0e0e0"></path><path d="M559.16,314.65a96.46,96.46,0,0,0,10.39,0,96.46,96.46,0,0,0-10.39,0Z" style="fill:#e0e0e0"></path><path d="M559.1,321.81a98.32,98.32,0,0,0,10.49,0,98.32,98.32,0,0,0-10.49,0Z" style="fill:#e0e0e0"></path><rect x="559.16" y="333.86" width="10.4" height="20.04" transform="translate(1128.71 687.76) rotate(180)" style="fill:#fff"></rect><path d="M564.06,353.9c.08,0,.14-4.49.14-10s-.06-10-.14-10-.14,4.49-.14,10S564,353.9,564.06,353.9Z" style="fill:#e0e0e0"></path><path d="M559.16,340.82a96.46,96.46,0,0,0,10.39,0,96.46,96.46,0,0,0-10.39,0Z" style="fill:#e0e0e0"></path><path d="M559.1,348a98.32,98.32,0,0,0,10.49,0,98.32,98.32,0,0,0-10.49,0Z" style="fill:#e0e0e0"></path><rect x="559.16" y="360.04" width="10.4" height="20.04" transform="translate(1128.71 740.11) rotate(180)" style="fill:#fff"></rect><path d="M564.06,380.08c.08,0,.14-4.49.14-10s-.06-10-.14-10-.14,4.48-.14,10S564,380.08,564.06,380.08Z" style="fill:#e0e0e0"></path><path d="M559.16,367a96.46,96.46,0,0,0,10.39,0,96.46,96.46,0,0,0-10.39,0Z" style="fill:#e0e0e0"></path><path d="M559.1,374.16a98.32,98.32,0,0,0,10.49,0c0-.07-2.35-.13-5.25-.13S559.1,374.09,559.1,374.16Z" style="fill:#e0e0e0"></path><rect x="559.16" y="386.21" width="10.4" height="20.04" transform="translate(1128.71 792.46) rotate(180)" style="fill:#fff"></rect><path d="M564.06,406.25c.08,0,.14-4.49.14-10s-.06-10-.14-10-.14,4.49-.14,10S564,406.25,564.06,406.25Z" style="fill:#e0e0e0"></path><path d="M559.16,393.17a96.46,96.46,0,0,0,10.39,0,96.46,96.46,0,0,0-10.39,0Z" style="fill:#e0e0e0"></path><path d="M559.1,400.34a98.32,98.32,0,0,0,10.49,0,98.32,98.32,0,0,0-10.49,0Z" style="fill:#e0e0e0"></path><rect x="527.17" y="297.54" width="24.93" height="144.69" transform="translate(1079.26 739.77) rotate(180)" style="fill:#e0e0e0"></rect><rect x="533.96" y="307.68" width="10.4" height="20.04" transform="translate(1078.31 635.41) rotate(180)" style="fill:#fff"></rect><path d="M538.86,327.72c.08,0,.14-4.48.14-10s-.06-10-.14-10-.14,4.49-.14,10S538.79,327.72,538.86,327.72Z" style="fill:#e0e0e0"></path><path d="M534,314.65a96.46,96.46,0,0,0,10.39,0,96.46,96.46,0,0,0-10.39,0Z" style="fill:#e0e0e0"></path><path d="M533.9,321.81a98.32,98.32,0,0,0,10.49,0,98.32,98.32,0,0,0-10.49,0Z" style="fill:#e0e0e0"></path><rect x="533.96" y="334.07" width="10.4" height="20.04" transform="translate(1078.31 688.19) rotate(180)" style="fill:#fff"></rect><path d="M538.86,354.11c.08,0,.14-4.48.14-10s-.06-10-.14-10-.14,4.49-.14,10S538.79,354.11,538.86,354.11Z" style="fill:#e0e0e0"></path><path d="M534,341a96.46,96.46,0,0,0,10.39,0A96.46,96.46,0,0,0,534,341Z" style="fill:#e0e0e0"></path><path d="M533.9,348.2a98.32,98.32,0,0,0,10.49,0,98.32,98.32,0,0,0-10.49,0Z" style="fill:#e0e0e0"></path><rect x="533.96" y="360.47" width="10.4" height="20.04" transform="translate(1078.31 740.97) rotate(180)" style="fill:#fff"></rect><path d="M538.86,380.5c.08,0,.14-4.48.14-10s-.06-10-.14-10-.14,4.48-.14,10S538.79,380.5,538.86,380.5Z" style="fill:#e0e0e0"></path><path d="M534,367.43a96.46,96.46,0,0,0,10.39,0,96.46,96.46,0,0,0-10.39,0Z" style="fill:#e0e0e0"></path><path d="M533.9,374.59a98.32,98.32,0,0,0,10.49,0,98.32,98.32,0,0,0-10.49,0Z" style="fill:#e0e0e0"></path><rect x="533.96" y="386.86" width="10.4" height="20.04" transform="translate(1078.31 793.75) rotate(180)" style="fill:#fff"></rect><path d="M538.86,406.9c.08,0,.14-4.49.14-10s-.06-10-.14-10-.14,4.48-.14,10S538.79,406.9,538.86,406.9Z" style="fill:#e0e0e0"></path><path d="M534,393.82a96.46,96.46,0,0,0,10.39,0,96.46,96.46,0,0,0-10.39,0Z" style="fill:#e0e0e0"></path><path d="M533.9,401a98.32,98.32,0,0,0,10.49,0c0-.07-2.35-.13-5.25-.13S533.9,400.91,533.9,401Z" style="fill:#e0e0e0"></path><rect x="559.16" y="412.39" width="10.4" height="20.04" transform="translate(1128.71 844.81) rotate(180)" style="fill:#fff"></rect><path d="M564.06,432.43c.08,0,.14-4.49.14-10s-.06-10-.14-10-.14,4.48-.14,10S564,432.43,564.06,432.43Z" style="fill:#e0e0e0"></path><path d="M559.16,419.35a96.46,96.46,0,0,0,10.39,0,96.46,96.46,0,0,0-10.39,0Z" style="fill:#e0e0e0"></path><path d="M559.1,426.52a98.32,98.32,0,0,0,10.49,0,98.32,98.32,0,0,0-10.49,0Z" style="fill:#e0e0e0"></path><rect x="533.96" y="413.25" width="10.4" height="20.04" transform="translate(1078.31 846.53) rotate(180)" style="fill:#fff"></rect><path d="M538.86,433.29c.08,0,.14-4.49.14-10s-.06-10-.14-10-.14,4.48-.14,10S538.79,433.29,538.86,433.29Z" style="fill:#e0e0e0"></path><path d="M534,420.21a96.46,96.46,0,0,0,10.39,0,96.46,96.46,0,0,0-10.39,0Z" style="fill:#e0e0e0"></path><path d="M533.9,427.38c0,.07,2.35.13,5.24.13s5.25-.06,5.25-.13a98.32,98.32,0,0,0-10.49,0Z" style="fill:#e0e0e0"></path><rect x="675.68" y="165.6" width="42.5" height="276.66" transform="translate(1393.85 607.86) rotate(180)" style="fill:#ebebeb"></rect><rect x="697.34" y="275.13" width="12.92" height="24.89" transform="translate(1407.59 575.16) rotate(180)" style="fill:#fff"></rect><path d="M703.43,300c.1,0,.18-5.57.18-12.44s-.08-12.45-.18-12.45-.17,5.57-.17,12.45S703.34,300,703.43,300Z" style="fill:#e0e0e0"></path><path d="M697.34,283.78a122.83,122.83,0,0,0,12.92,0,122.82,122.82,0,0,0-12.92,0Z" style="fill:#e0e0e0"></path><path d="M697.27,292.68a117.81,117.81,0,0,0,13,0,124.73,124.73,0,0,0-13,0Z" style="fill:#e0e0e0"></path><rect x="697.34" y="307.65" width="12.92" height="24.89" transform="translate(1407.59 640.19) rotate(180)" style="fill:#fff"></rect><path d="M703.43,332.54c.1,0,.18-5.57.18-12.45s-.08-12.44-.18-12.44-.17,5.57-.17,12.44S703.34,332.54,703.43,332.54Z" style="fill:#e0e0e0"></path><path d="M697.34,316.3a122.83,122.83,0,0,0,12.92,0,116,116,0,0,0-12.92,0Z" style="fill:#e0e0e0"></path><path d="M697.27,325.2a124.73,124.73,0,0,0,13,0,117.81,117.81,0,0,0-13,0Z" style="fill:#e0e0e0"></path><rect x="697.34" y="340.16" width="12.92" height="24.89" transform="translate(1407.59 705.22) rotate(180)" style="fill:#fff"></rect><path d="M703.43,365.05c.1,0,.18-5.57.18-12.44s-.08-12.45-.18-12.45-.17,5.57-.17,12.45S703.34,365.05,703.43,365.05Z" style="fill:#e0e0e0"></path><path d="M697.34,348.81a122.83,122.83,0,0,0,12.92,0,122.83,122.83,0,0,0-12.92,0Z" style="fill:#e0e0e0"></path><path d="M697.27,357.71a117.81,117.81,0,0,0,13,0,124.73,124.73,0,0,0-13,0Z" style="fill:#e0e0e0"></path><rect x="697.34" y="372.68" width="12.92" height="24.89" transform="translate(1407.59 770.25) rotate(180)" style="fill:#fff"></rect><path d="M703.43,397.57c.1,0,.18-5.57.18-12.45s-.08-12.44-.18-12.44-.17,5.57-.17,12.44S703.34,397.57,703.43,397.57Z" style="fill:#e0e0e0"></path><path d="M697.34,381.32a116,116,0,0,0,12.92,0,122.83,122.83,0,0,0-12.92,0Z" style="fill:#e0e0e0"></path><path d="M697.27,390.23a124.73,124.73,0,0,0,13,0,117.81,117.81,0,0,0-13,0Z" style="fill:#e0e0e0"></path><rect x="657.6" y="165.6" width="30.97" height="276.66" transform="translate(1346.17 607.86) rotate(180)" style="fill:#e0e0e0"></rect><rect x="666.03" y="275.13" width="12.92" height="24.89" transform="translate(1344.99 575.16) rotate(180)" style="fill:#fff"></rect><path d="M672.13,300c.09,0,.17-5.57.17-12.44s-.08-12.45-.17-12.45-.17,5.57-.17,12.45S672,300,672.13,300Z" style="fill:#e0e0e0"></path><path d="M666,283.78a122.82,122.82,0,0,0,12.92,0,122.83,122.83,0,0,0-12.92,0Z" style="fill:#e0e0e0"></path><path d="M666,292.68a117.81,117.81,0,0,0,13,0,124.73,124.73,0,0,0-13,0Z" style="fill:#e0e0e0"></path><rect x="697.34" y="241.58" width="12.92" height="24.89" transform="translate(1407.59 508.05) rotate(180)" style="fill:#fff"></rect><path d="M703.43,266.47c.1,0,.18-5.57.18-12.45s-.08-12.44-.18-12.44-.17,5.57-.17,12.44S703.34,266.47,703.43,266.47Z" style="fill:#e0e0e0"></path><path d="M697.34,250.22a116,116,0,0,0,12.92,0,122.83,122.83,0,0,0-12.92,0Z" style="fill:#e0e0e0"></path><path d="M697.27,259.13a124.73,124.73,0,0,0,13,0,117.81,117.81,0,0,0-13,0Z" style="fill:#e0e0e0"></path><rect x="666.03" y="241.58" width="12.92" height="24.89" transform="translate(1344.99 508.05) rotate(180)" style="fill:#fff"></rect><path d="M672.13,266.47c.09,0,.17-5.57.17-12.45s-.08-12.44-.17-12.44S672,247.15,672,254,672,266.47,672.13,266.47Z" style="fill:#e0e0e0"></path><path d="M666,250.22a116,116,0,0,0,12.92,0,122.83,122.83,0,0,0-12.92,0Z" style="fill:#e0e0e0"></path><path d="M666,259.13a124.73,124.73,0,0,0,13,0,117.81,117.81,0,0,0-13,0Z" style="fill:#e0e0e0"></path><rect x="697.34" y="208.02" width="12.92" height="24.89" transform="translate(1407.59 440.93) rotate(180)" style="fill:#fff"></rect><path d="M703.43,232.91c.1,0,.18-5.57.18-12.44s-.08-12.45-.18-12.45-.17,5.57-.17,12.45S703.34,232.91,703.43,232.91Z" style="fill:#e0e0e0"></path><path d="M697.34,216.67a122.83,122.83,0,0,0,12.92,0,122.83,122.83,0,0,0-12.92,0Z" style="fill:#e0e0e0"></path><path d="M697.27,225.57a124.73,124.73,0,0,0,13,0,124.73,124.73,0,0,0-13,0Z" style="fill:#e0e0e0"></path><rect x="666.03" y="208.02" width="12.92" height="24.89" transform="translate(1344.99 440.93) rotate(180)" style="fill:#fff"></rect><path d="M672.13,232.91c.09,0,.17-5.57.17-12.44s-.08-12.45-.17-12.45-.17,5.57-.17,12.45S672,232.91,672.13,232.91Z" style="fill:#e0e0e0"></path><path d="M666,216.67a122.82,122.82,0,0,0,12.92,0,122.83,122.83,0,0,0-12.92,0Z" style="fill:#e0e0e0"></path><path d="M666,225.57a124.73,124.73,0,0,0,13,0,124.73,124.73,0,0,0-13,0Z" style="fill:#e0e0e0"></path><rect x="697.34" y="174.46" width="12.92" height="24.89" transform="translate(1407.59 373.82) rotate(180)" style="fill:#fff"></rect><path d="M703.43,199.36c.1,0,.18-5.58.18-12.45s-.08-12.45-.18-12.45-.17,5.58-.17,12.45S703.34,199.36,703.43,199.36Z" style="fill:#e0e0e0"></path><path d="M697.34,183.11a116,116,0,0,0,12.92,0,122.83,122.83,0,0,0-12.92,0Z" style="fill:#e0e0e0"></path><path d="M697.27,192a124.73,124.73,0,0,0,13,0,117.81,117.81,0,0,0-13,0Z" style="fill:#e0e0e0"></path><rect x="666.03" y="174.46" width="12.92" height="24.89" transform="translate(1344.99 373.82) rotate(180)" style="fill:#fff"></rect><path d="M672.13,199.36c.09,0,.17-5.58.17-12.45s-.08-12.45-.17-12.45S672,180,672,186.91,672,199.36,672.13,199.36Z" style="fill:#e0e0e0"></path><path d="M666,183.11a116,116,0,0,0,12.92,0,122.82,122.82,0,0,0-12.92,0Z" style="fill:#e0e0e0"></path><path d="M666,192a124.73,124.73,0,0,0,13,0,117.81,117.81,0,0,0-13,0Z" style="fill:#e0e0e0"></path><rect x="666.03" y="307.91" width="12.92" height="24.89" transform="translate(1344.99 640.72) rotate(180)" style="fill:#fff"></rect><path d="M672.13,332.81c.09,0,.17-5.58.17-12.45s-.08-12.45-.17-12.45-.17,5.58-.17,12.45S672,332.81,672.13,332.81Z" style="fill:#e0e0e0"></path><path d="M666,316.56a122.82,122.82,0,0,0,12.92,0,122.82,122.82,0,0,0-12.92,0Z" style="fill:#e0e0e0"></path><path d="M666,325.46a117.81,117.81,0,0,0,13,0,124.73,124.73,0,0,0-13,0Z" style="fill:#e0e0e0"></path><rect x="666.03" y="340.7" width="12.92" height="24.89" transform="translate(1344.99 706.28) rotate(180)" style="fill:#fff"></rect><path d="M672.13,365.59c.09,0,.17-5.57.17-12.45s-.08-12.44-.17-12.44-.17,5.57-.17,12.44S672,365.59,672.13,365.59Z" style="fill:#e0e0e0"></path><path d="M666,349.34a116,116,0,0,0,12.92,0,122.83,122.83,0,0,0-12.92,0Z" style="fill:#e0e0e0"></path><path d="M666,358.25a124.73,124.73,0,0,0,13,0,117.81,117.81,0,0,0-13,0Z" style="fill:#e0e0e0"></path><rect x="666.03" y="373.48" width="12.92" height="24.89" transform="translate(1344.99 771.85) rotate(180)" style="fill:#fff"></rect><path d="M672.13,398.37c.09,0,.17-5.57.17-12.45s-.08-12.44-.17-12.44-.17,5.57-.17,12.44S672,398.37,672.13,398.37Z" style="fill:#e0e0e0"></path><path d="M666,382.13a122.82,122.82,0,0,0,12.92,0,116,116,0,0,0-12.92,0Z" style="fill:#e0e0e0"></path><path d="M666,391a124.73,124.73,0,0,0,13,0,117.81,117.81,0,0,0-13,0Z" style="fill:#e0e0e0"></path><rect x="697.34" y="405.19" width="12.92" height="24.89" transform="translate(1407.59 835.28) rotate(180)" style="fill:#fff"></rect><path d="M703.43,430.08c.1,0,.18-5.57.18-12.44s-.08-12.45-.18-12.45-.17,5.57-.17,12.45S703.34,430.08,703.43,430.08Z" style="fill:#e0e0e0"></path><path d="M697.34,413.84a122.83,122.83,0,0,0,12.92,0,122.82,122.82,0,0,0-12.92,0Z" style="fill:#e0e0e0"></path><path d="M697.27,422.74a124.73,124.73,0,0,0,13,0,124.73,124.73,0,0,0-13,0Z" style="fill:#e0e0e0"></path><rect x="666.03" y="406.26" width="12.92" height="24.89" transform="translate(1344.99 837.41) rotate(180)" style="fill:#fff"></rect><path d="M672.13,431.15c.09,0,.17-5.57.17-12.44s-.08-12.45-.17-12.45-.17,5.57-.17,12.45S672,431.15,672.13,431.15Z" style="fill:#e0e0e0"></path><path d="M666,414.91a122.83,122.83,0,0,0,12.92,0,116,116,0,0,0-12.92,0Z" style="fill:#e0e0e0"></path><path d="M666,423.81a124.73,124.73,0,0,0,13,0,124.73,124.73,0,0,0-13,0Z" style="fill:#e0e0e0"></path><rect x="612.06" y="257.64" width="43.65" height="184.6" transform="translate(1267.78 699.87) rotate(180)" style="fill:#ebebeb"></rect><rect x="634.31" y="270.57" width="13.27" height="25.57" transform="translate(1281.89 566.72) rotate(180)" style="fill:#fff"></rect><path d="M640.57,296.14c.1,0,.18-5.72.18-12.78s-.08-12.79-.18-12.79-.18,5.73-.18,12.79S640.47,296.14,640.57,296.14Z" style="fill:#e0e0e0"></path><path d="M634.31,279.46a129.57,129.57,0,0,0,13.27,0,122.38,122.38,0,0,0-13.27,0Z" style="fill:#e0e0e0"></path><path d="M634.24,288.6a124.41,124.41,0,0,0,13.38,0,124.41,124.41,0,0,0-13.38,0Z" style="fill:#e0e0e0"></path><rect x="634.31" y="303.97" width="13.27" height="25.57" transform="translate(1281.89 633.51) rotate(180)" style="fill:#fff"></rect><path d="M640.57,329.54c.1,0,.18-5.73.18-12.79s-.08-12.78-.18-12.78-.18,5.72-.18,12.78S640.47,329.54,640.57,329.54Z" style="fill:#e0e0e0"></path><path d="M634.31,312.85a122.38,122.38,0,0,0,13.27,0,122.38,122.38,0,0,0-13.27,0Z" style="fill:#e0e0e0"></path><path d="M634.24,322c0,.09,3,.17,6.69.17s6.69-.08,6.69-.17a124.41,124.41,0,0,0-13.38,0Z" style="fill:#e0e0e0"></path><rect x="634.31" y="337.37" width="13.27" height="25.57" transform="translate(1281.89 700.3) rotate(180)" style="fill:#fff"></rect><path d="M640.57,362.93c.1,0,.18-5.72.18-12.78s-.08-12.78-.18-12.78-.18,5.72-.18,12.78S640.47,362.93,640.57,362.93Z" style="fill:#e0e0e0"></path><path d="M634.31,346.25a122.38,122.38,0,0,0,13.27,0,122.38,122.38,0,0,0-13.27,0Z" style="fill:#e0e0e0"></path><path d="M634.24,355.39a124.41,124.41,0,0,0,13.38,0,124.41,124.41,0,0,0-13.38,0Z" style="fill:#e0e0e0"></path><rect x="634.31" y="370.76" width="13.27" height="25.57" transform="translate(1281.89 767.09) rotate(180)" style="fill:#fff"></rect><path d="M640.57,396.33c.1,0,.18-5.73.18-12.79s-.08-12.78-.18-12.78-.18,5.72-.18,12.78S640.47,396.33,640.57,396.33Z" style="fill:#e0e0e0"></path><path d="M634.31,379.64a122.38,122.38,0,0,0,13.27,0,129.57,129.57,0,0,0-13.27,0Z" style="fill:#e0e0e0"></path><path d="M634.24,388.79c0,.09,3,.17,6.69.17s6.69-.08,6.69-.17a124.41,124.41,0,0,0-13.38,0Z" style="fill:#e0e0e0"></path><rect x="593.5" y="257.64" width="31.81" height="184.6" transform="translate(1218.8 699.87) rotate(180)" style="fill:#e0e0e0"></rect><rect x="602.16" y="270.57" width="13.27" height="25.57" transform="translate(1217.59 566.72) rotate(180)" style="fill:#fff"></rect><path d="M608.42,296.14c.1,0,.18-5.72.18-12.78s-.08-12.79-.18-12.79-.18,5.73-.18,12.79S608.32,296.14,608.42,296.14Z" style="fill:#e0e0e0"></path><path d="M602.16,279.46a129.57,129.57,0,0,0,13.27,0,122.38,122.38,0,0,0-13.27,0Z" style="fill:#e0e0e0"></path><path d="M602.09,288.6a124.41,124.41,0,0,0,13.38,0,124.41,124.41,0,0,0-13.38,0Z" style="fill:#e0e0e0"></path><rect x="602.16" y="304.24" width="13.27" height="25.57" transform="translate(1217.59 634.05) rotate(180)" style="fill:#fff"></rect><path d="M608.42,329.81c.1,0,.18-5.72.18-12.78s-.08-12.79-.18-12.79-.18,5.73-.18,12.79S608.32,329.81,608.42,329.81Z" style="fill:#e0e0e0"></path><path d="M602.16,313.13a129.57,129.57,0,0,0,13.27,0,122.38,122.38,0,0,0-13.27,0Z" style="fill:#e0e0e0"></path><path d="M602.09,322.27a124.41,124.41,0,0,0,13.38,0,124.41,124.41,0,0,0-13.38,0Z" style="fill:#e0e0e0"></path><rect x="602.16" y="337.91" width="13.27" height="25.57" transform="translate(1217.59 701.39) rotate(180)" style="fill:#fff"></rect><path d="M608.42,363.48c.1,0,.18-5.72.18-12.78s-.08-12.79-.18-12.79-.18,5.73-.18,12.79S608.32,363.48,608.42,363.48Z" style="fill:#e0e0e0"></path><path d="M602.16,346.8a129.57,129.57,0,0,0,13.27,0,122.38,122.38,0,0,0-13.27,0Z" style="fill:#e0e0e0"></path><path d="M602.09,355.94a124.41,124.41,0,0,0,13.38,0,124.41,124.41,0,0,0-13.38,0Z" style="fill:#e0e0e0"></path><rect x="602.16" y="371.58" width="13.27" height="25.57" transform="translate(1217.59 768.73) rotate(180)" style="fill:#fff"></rect><path d="M608.42,397.15c.1,0,.18-5.72.18-12.78s-.08-12.79-.18-12.79-.18,5.73-.18,12.79S608.32,397.15,608.42,397.15Z" style="fill:#e0e0e0"></path><path d="M602.16,380.46a122.38,122.38,0,0,0,13.27,0,129.57,129.57,0,0,0-13.27,0Z" style="fill:#e0e0e0"></path><path d="M602.09,389.61a124.41,124.41,0,0,0,13.38,0,124.41,124.41,0,0,0-13.38,0Z" style="fill:#e0e0e0"></path><rect x="634.31" y="404.16" width="13.27" height="25.57" transform="translate(1281.89 833.88) rotate(180)" style="fill:#fff"></rect><path d="M640.57,429.72c.1,0,.18-5.72.18-12.78s-.08-12.78-.18-12.78-.18,5.72-.18,12.78S640.47,429.72,640.57,429.72Z" style="fill:#e0e0e0"></path><path d="M634.31,413a122.38,122.38,0,0,0,13.27,0,122.38,122.38,0,0,0-13.27,0Z" style="fill:#e0e0e0"></path><path d="M634.24,422.18a124.41,124.41,0,0,0,13.38,0,124.41,124.41,0,0,0-13.38,0Z" style="fill:#e0e0e0"></path><rect x="602.16" y="405.25" width="13.27" height="25.57" transform="translate(1217.59 836.07) rotate(180)" style="fill:#fff"></rect><path d="M608.42,430.82c.1,0,.18-5.73.18-12.78s-.08-12.79-.18-12.79-.18,5.72-.18,12.79S608.32,430.82,608.42,430.82Z" style="fill:#e0e0e0"></path><path d="M602.16,414.13a122.38,122.38,0,0,0,13.27,0,129.57,129.57,0,0,0-13.27,0Z" style="fill:#e0e0e0"></path><path d="M602.09,423.28a124.41,124.41,0,0,0,13.38,0,124.41,124.41,0,0,0-13.38,0Z" style="fill:#e0e0e0"></path><path d="M66,230.5c3.62-9.24,10.07-19.37,17.66-25.76,22.44-18.91,50.9-28.29,79.91-25.44,34.05,3.34,45.7,12.93,54.82,24.26,9.75,12.1,19.94,25.62,16.75,40.82,9.39-7.13,23.83-2.56,31.29,6.56s9.76,21.29,11.81,32.9A41.34,41.34,0,0,1,332.07,332c16.34-7.82,37.66-3.39,49.53,10.3a19.16,19.16,0,0,1,13.55,31.52c11.07-2.29,22.58,9,20.45,20.15a16.7,16.7,0,0,1,29.88,3.4,15.88,15.88,0,0,1,26.14,12.89,22.6,22.6,0,0,1,37.72,16.56v15.94L66,442.18l0-189.45Z" style="fill:#f5f5f5"></path><rect x="47.97" y="102.71" width="52.16" height="339.55" transform="translate(148.09 544.97) rotate(180)" style="fill:#ebebeb"></rect><rect x="74.55" y="237.14" width="15.85" height="30.55" transform="translate(164.96 504.84) rotate(180)" style="fill:#fff"></rect><path d="M82,267.69c.12,0,.21-6.84.21-15.27s-.09-15.28-.21-15.28-.21,6.84-.21,15.28S81.91,267.69,82,267.69Z" style="fill:#e0e0e0"></path><path d="M74.55,247.76a77,77,0,0,0,7.93.21,76.74,76.74,0,0,0,7.92-.21,71.83,71.83,0,0,0-7.92-.22A72.09,72.09,0,0,0,74.55,247.76Z" style="fill:#e0e0e0"></path><path d="M74.47,258.68a74.93,74.93,0,0,0,8,.21,74.93,74.93,0,0,0,8-.21,78.24,78.24,0,0,0-8-.21A78.24,78.24,0,0,0,74.47,258.68Z" style="fill:#e0e0e0"></path><rect x="74.55" y="277.05" width="15.85" height="30.55" transform="translate(164.96 584.65) rotate(180)" style="fill:#fff"></rect><path d="M82,307.6c.12,0,.21-6.84.21-15.28s-.09-15.27-.21-15.27-.21,6.84-.21,15.27S81.91,307.6,82,307.6Z" style="fill:#e0e0e0"></path><path d="M74.55,287.66a73.77,73.77,0,0,0,7.93.21,73.5,73.5,0,0,0,7.92-.21,73.5,73.5,0,0,0-7.92-.21A73.77,73.77,0,0,0,74.55,287.66Z" style="fill:#e0e0e0"></path><path d="M74.47,298.59a78.24,78.24,0,0,0,8,.21,78.24,78.24,0,0,0,8-.21,74.93,74.93,0,0,0-8-.21A74.93,74.93,0,0,0,74.47,298.59Z" style="fill:#e0e0e0"></path><rect x="74.55" y="316.95" width="15.85" height="30.55" transform="translate(164.96 664.46) rotate(180)" style="fill:#fff"></rect><path d="M82,347.5c.12,0,.21-6.84.21-15.27S82.15,317,82,317s-.21,6.84-.21,15.28S81.91,347.5,82,347.5Z" style="fill:#e0e0e0"></path><path d="M74.55,327.57a77,77,0,0,0,7.93.21,76.74,76.74,0,0,0,7.92-.21,73.5,73.5,0,0,0-7.92-.21A73.77,73.77,0,0,0,74.55,327.57Z" style="fill:#e0e0e0"></path><path d="M74.47,338.49a73.23,73.23,0,0,0,8,.22,73.23,73.23,0,0,0,8-.22,78.24,78.24,0,0,0-8-.21A78.24,78.24,0,0,0,74.47,338.49Z" style="fill:#e0e0e0"></path><rect x="74.55" y="356.86" width="15.85" height="30.55" transform="translate(164.96 744.27) rotate(180)" style="fill:#fff"></rect><path d="M82,387.41c.12,0,.21-6.84.21-15.27s-.09-15.28-.21-15.28-.21,6.84-.21,15.28S81.91,387.41,82,387.41Z" style="fill:#e0e0e0"></path><path d="M74.55,367.47a72.09,72.09,0,0,0,7.93.22,71.83,71.83,0,0,0,7.92-.22,76.74,76.74,0,0,0-7.92-.21A77,77,0,0,0,74.55,367.47Z" style="fill:#e0e0e0"></path><path d="M74.47,378.4a74.93,74.93,0,0,0,8,.21,74.93,74.93,0,0,0,8-.21,74.93,74.93,0,0,0-8-.21A74.93,74.93,0,0,0,74.47,378.4Z" style="fill:#e0e0e0"></path><rect x="25.78" y="102.71" width="38.01" height="339.55" transform="translate(89.57 544.97) rotate(180)" style="fill:#e0e0e0"></rect><rect x="36.13" y="237.14" width="15.85" height="30.55" transform="translate(88.12 504.84) rotate(180)" style="fill:#fff"></rect><path d="M43.61,267.69c.12,0,.21-6.84.21-15.27s-.09-15.28-.21-15.28-.21,6.84-.21,15.28S43.5,267.69,43.61,267.69Z" style="fill:#e0e0e0"></path><path d="M36.13,247.76a77,77,0,0,0,7.93.21,77,77,0,0,0,7.93-.21,72.09,72.09,0,0,0-7.93-.22A72.09,72.09,0,0,0,36.13,247.76Z" style="fill:#e0e0e0"></path><path d="M36.05,258.68a74.93,74.93,0,0,0,8,.21,74.78,74.78,0,0,0,8-.21,78.08,78.08,0,0,0-8-.21A78.24,78.24,0,0,0,36.05,258.68Z" style="fill:#e0e0e0"></path><rect x="74.55" y="195.96" width="15.85" height="30.55" transform="translate(164.96 422.47) rotate(180)" style="fill:#fff"></rect><path d="M82,226.51c.12,0,.21-6.84.21-15.28S82.15,196,82,196s-.21,6.84-.21,15.27S81.91,226.51,82,226.51Z" style="fill:#e0e0e0"></path><path d="M74.55,206.57a73.77,73.77,0,0,0,7.93.21,73.5,73.5,0,0,0,7.92-.21,76.74,76.74,0,0,0-7.92-.21A77,77,0,0,0,74.55,206.57Z" style="fill:#e0e0e0"></path><path d="M74.47,217.5a74.93,74.93,0,0,0,8,.21,74.93,74.93,0,0,0,8-.21,74.93,74.93,0,0,0-8-.21A74.93,74.93,0,0,0,74.47,217.5Z" style="fill:#e0e0e0"></path><rect x="36.13" y="195.96" width="15.85" height="30.55" transform="translate(88.12 422.47) rotate(180)" style="fill:#fff"></rect><path d="M43.61,226.51c.12,0,.21-6.84.21-15.28S43.73,196,43.61,196s-.21,6.84-.21,15.27S43.5,226.51,43.61,226.51Z" style="fill:#e0e0e0"></path><path d="M36.13,206.57a73.77,73.77,0,0,0,7.93.21,73.77,73.77,0,0,0,7.93-.21,77,77,0,0,0-7.93-.21A77,77,0,0,0,36.13,206.57Z" style="fill:#e0e0e0"></path><path d="M36.05,217.5a74.93,74.93,0,0,0,8,.21,74.78,74.78,0,0,0,8-.21,74.78,74.78,0,0,0-8-.21A74.93,74.93,0,0,0,36.05,217.5Z" style="fill:#e0e0e0"></path><rect x="74.55" y="154.78" width="15.85" height="30.55" transform="translate(164.96 340.1) rotate(180)" style="fill:#fff"></rect><path d="M82,185.33c.12,0,.21-6.84.21-15.28s-.09-15.27-.21-15.27-.21,6.83-.21,15.27S81.91,185.33,82,185.33Z" style="fill:#e0e0e0"></path><path d="M74.55,165.39a73.77,73.77,0,0,0,7.93.21,73.5,73.5,0,0,0,7.92-.21,73.5,73.5,0,0,0-7.92-.21A73.77,73.77,0,0,0,74.55,165.39Z" style="fill:#e0e0e0"></path><path d="M74.47,176.31a73.23,73.23,0,0,0,8,.22,73.23,73.23,0,0,0,8-.22,78.24,78.24,0,0,0-8-.21A78.24,78.24,0,0,0,74.47,176.31Z" style="fill:#e0e0e0"></path><rect x="36.13" y="154.78" width="15.85" height="30.55" transform="translate(88.12 340.1) rotate(180)" style="fill:#fff"></rect><path d="M43.61,185.33c.12,0,.21-6.84.21-15.28s-.09-15.27-.21-15.27-.21,6.83-.21,15.27S43.5,185.33,43.61,185.33Z" style="fill:#e0e0e0"></path><path d="M36.13,165.39a73.77,73.77,0,0,0,7.93.21,73.77,73.77,0,0,0,7.93-.21,73.77,73.77,0,0,0-7.93-.21A73.77,73.77,0,0,0,36.13,165.39Z" style="fill:#e0e0e0"></path><path d="M36.05,176.31a73.23,73.23,0,0,0,8,.22,73.08,73.08,0,0,0,8-.22,78.08,78.08,0,0,0-8-.21A78.24,78.24,0,0,0,36.05,176.31Z" style="fill:#e0e0e0"></path><rect x="74.55" y="113.59" width="15.85" height="30.55" transform="translate(164.96 257.73) rotate(180)" style="fill:#fff"></rect><path d="M82,144.14c.12,0,.21-6.84.21-15.27s-.09-15.28-.21-15.28-.21,6.84-.21,15.28S81.91,144.14,82,144.14Z" style="fill:#e0e0e0"></path><path d="M74.55,124.21a77,77,0,0,0,7.93.21,76.74,76.74,0,0,0,7.92-.21,71.83,71.83,0,0,0-7.92-.22A72.09,72.09,0,0,0,74.55,124.21Z" style="fill:#e0e0e0"></path><path d="M74.47,135.13a74.93,74.93,0,0,0,8,.21,74.93,74.93,0,0,0,8-.21,74.93,74.93,0,0,0-8-.21A74.93,74.93,0,0,0,74.47,135.13Z" style="fill:#e0e0e0"></path><rect x="36.13" y="113.59" width="15.85" height="30.55" transform="translate(88.12 257.73) rotate(180)" style="fill:#fff"></rect><path d="M43.61,144.14c.12,0,.21-6.84.21-15.27s-.09-15.28-.21-15.28-.21,6.84-.21,15.28S43.5,144.14,43.61,144.14Z" style="fill:#e0e0e0"></path><path d="M36.13,124.21a77,77,0,0,0,7.93.21,77,77,0,0,0,7.93-.21,72.09,72.09,0,0,0-7.93-.22A72.09,72.09,0,0,0,36.13,124.21Z" style="fill:#e0e0e0"></path><path d="M36.05,135.13a74.93,74.93,0,0,0,8,.21,74.78,74.78,0,0,0,8-.21,74.78,74.78,0,0,0-8-.21A74.93,74.93,0,0,0,36.05,135.13Z" style="fill:#e0e0e0"></path><rect x="36.13" y="277.38" width="15.85" height="30.55" transform="translate(88.12 585.3) rotate(180)" style="fill:#fff"></rect><path d="M43.61,307.93c.12,0,.21-6.84.21-15.28s-.09-15.27-.21-15.27-.21,6.83-.21,15.27S43.5,307.93,43.61,307.93Z" style="fill:#e0e0e0"></path><path d="M36.13,288a73.77,73.77,0,0,0,7.93.21A73.77,73.77,0,0,0,52,288a73.77,73.77,0,0,0-7.93-.21A73.77,73.77,0,0,0,36.13,288Z" style="fill:#e0e0e0"></path><path d="M36.05,298.92a78.24,78.24,0,0,0,8,.21,78.08,78.08,0,0,0,8-.21,73.08,73.08,0,0,0-8-.22A73.23,73.23,0,0,0,36.05,298.92Z" style="fill:#e0e0e0"></path><rect x="36.13" y="317.61" width="15.85" height="30.55" transform="translate(88.12 665.77) rotate(180)" style="fill:#fff"></rect><path d="M43.61,348.16c.12,0,.21-6.84.21-15.28s-.09-15.27-.21-15.27-.21,6.84-.21,15.27S43.5,348.16,43.61,348.16Z" style="fill:#e0e0e0"></path><path d="M36.13,328.22a73.77,73.77,0,0,0,7.93.21,73.77,73.77,0,0,0,7.93-.21,77,77,0,0,0-7.93-.21A77,77,0,0,0,36.13,328.22Z" style="fill:#e0e0e0"></path><path d="M36.05,339.15a74.93,74.93,0,0,0,8,.21,74.78,74.78,0,0,0,8-.21,74.78,74.78,0,0,0-8-.21A74.93,74.93,0,0,0,36.05,339.15Z" style="fill:#e0e0e0"></path><rect x="36.13" y="357.84" width="15.85" height="30.55" transform="translate(88.12 746.23) rotate(180)" style="fill:#fff"></rect><path d="M43.61,388.39c.12,0,.21-6.84.21-15.27s-.09-15.28-.21-15.28-.21,6.84-.21,15.28S43.5,388.39,43.61,388.39Z" style="fill:#e0e0e0"></path><path d="M36.13,368.46a77,77,0,0,0,7.93.21,77,77,0,0,0,7.93-.21,72.09,72.09,0,0,0-7.93-.22A72.09,72.09,0,0,0,36.13,368.46Z" style="fill:#e0e0e0"></path><path d="M36.05,379.38a74.93,74.93,0,0,0,8,.21,74.78,74.78,0,0,0,8-.21,74.78,74.78,0,0,0-8-.21A74.93,74.93,0,0,0,36.05,379.38Z" style="fill:#e0e0e0"></path><rect x="74.55" y="396.76" width="15.85" height="30.55" transform="translate(164.96 824.08) rotate(180)" style="fill:#fff"></rect><path d="M82,427.32c.12,0,.21-6.84.21-15.28s-.09-15.28-.21-15.28-.21,6.84-.21,15.28S81.91,427.32,82,427.32Z" style="fill:#e0e0e0"></path><path d="M74.55,407.38a73.77,73.77,0,0,0,7.93.21,73.5,73.5,0,0,0,7.92-.21,73.5,73.5,0,0,0-7.92-.21A73.77,73.77,0,0,0,74.55,407.38Z" style="fill:#e0e0e0"></path><path d="M74.47,418.3a73.23,73.23,0,0,0,8,.22,73.23,73.23,0,0,0,8-.22,78.24,78.24,0,0,0-8-.21A78.24,78.24,0,0,0,74.47,418.3Z" style="fill:#e0e0e0"></path><rect x="36.13" y="398.07" width="15.85" height="30.55" transform="translate(88.12 826.7) rotate(180)" style="fill:#fff"></rect><path d="M43.61,428.63c.12,0,.21-6.84.21-15.28s-.09-15.28-.21-15.28-.21,6.84-.21,15.28S43.5,428.63,43.61,428.63Z" style="fill:#e0e0e0"></path><path d="M36.13,408.69a73.77,73.77,0,0,0,7.93.21,73.77,73.77,0,0,0,7.93-.21,73.77,73.77,0,0,0-7.93-.21A73.77,73.77,0,0,0,36.13,408.69Z" style="fill:#e0e0e0"></path><path d="M36.05,419.61a73.23,73.23,0,0,0,8,.22,73.08,73.08,0,0,0,8-.22,78.08,78.08,0,0,0-8-.21A78.24,78.24,0,0,0,36.05,419.61Z" style="fill:#e0e0e0"></path><rect x="115.21" y="292.32" width="35.46" height="149.94" transform="translate(265.87 734.59) rotate(180)" style="fill:#ebebeb"></rect><rect x="133.28" y="302.83" width="10.78" height="20.77" transform="translate(277.33 626.43) rotate(180)" style="fill:#fff"></rect><path d="M138.36,323.6c.08,0,.15-4.65.15-10.38s-.07-10.39-.15-10.39-.14,4.65-.14,10.39S138.28,323.6,138.36,323.6Z" style="fill:#e0e0e0"></path><path d="M133.28,310.05a51,51,0,0,0,5.38.14,51.07,51.07,0,0,0,5.39-.14,49.35,49.35,0,0,0-5.39-.15A49.23,49.23,0,0,0,133.28,310.05Z" style="fill:#e0e0e0"></path><path d="M133.22,317.47a50.11,50.11,0,0,0,5.43.15,50.11,50.11,0,0,0,5.43-.15c0-.07-2.43-.14-5.43-.14S133.22,317.4,133.22,317.47Z" style="fill:#e0e0e0"></path><rect x="133.28" y="329.96" width="10.78" height="20.77" transform="translate(277.33 680.68) rotate(180)" style="fill:#fff"></rect><path d="M138.36,350.73c.08,0,.15-4.65.15-10.39s-.07-10.38-.15-10.38-.14,4.65-.14,10.38S138.28,350.73,138.36,350.73Z" style="fill:#e0e0e0"></path><path d="M133.28,337.17a49.23,49.23,0,0,0,5.38.15,49.35,49.35,0,0,0,5.39-.15,51.07,51.07,0,0,0-5.39-.14A51,51,0,0,0,133.28,337.17Z" style="fill:#e0e0e0"></path><path d="M133.22,344.6a51.86,51.86,0,0,0,5.43.14,51.86,51.86,0,0,0,5.43-.14,51.86,51.86,0,0,0-5.43-.14A51.86,51.86,0,0,0,133.22,344.6Z" style="fill:#e0e0e0"></path><rect x="133.28" y="357.08" width="10.78" height="20.77" transform="translate(277.33 734.94) rotate(180)" style="fill:#fff"></rect><path d="M138.36,377.85c.08,0,.15-4.65.15-10.38s-.07-10.39-.15-10.39-.14,4.65-.14,10.39S138.28,377.85,138.36,377.85Z" style="fill:#e0e0e0"></path><path d="M133.28,364.3a51,51,0,0,0,5.38.14,51.07,51.07,0,0,0,5.39-.14,51.07,51.07,0,0,0-5.39-.14A51,51,0,0,0,133.28,364.3Z" style="fill:#e0e0e0"></path><path d="M133.22,371.73a51.86,51.86,0,0,0,5.43.14,51.86,51.86,0,0,0,5.43-.14,50.11,50.11,0,0,0-5.43-.15A50.11,50.11,0,0,0,133.22,371.73Z" style="fill:#e0e0e0"></path><rect x="133.28" y="384.21" width="10.78" height="20.77" transform="translate(277.33 789.19) rotate(180)" style="fill:#fff"></rect><path d="M138.36,405c.08,0,.15-4.65.15-10.39s-.07-10.38-.15-10.38-.14,4.65-.14,10.38S138.28,405,138.36,405Z" style="fill:#e0e0e0"></path><path d="M133.28,391.42a49.23,49.23,0,0,0,5.38.15,49.35,49.35,0,0,0,5.39-.15c0-.07-2.41-.14-5.39-.14S133.28,391.35,133.28,391.42Z" style="fill:#e0e0e0"></path><path d="M133.22,398.85a50.11,50.11,0,0,0,5.43.15,50.11,50.11,0,0,0,5.43-.15,51.86,51.86,0,0,0-5.43-.14A51.86,51.86,0,0,0,133.22,398.85Z" style="fill:#e0e0e0"></path><rect x="100.13" y="292.32" width="25.83" height="149.94" transform="translate(226.09 734.59) rotate(180)" style="fill:#e0e0e0"></rect><rect x="107.16" y="302.83" width="10.78" height="20.77" transform="translate(225.1 626.43) rotate(180)" style="fill:#fff"></rect><path d="M112.25,323.6c.08,0,.14-4.65.14-10.38s-.06-10.39-.14-10.39-.15,4.65-.15,10.39S112.17,323.6,112.25,323.6Z" style="fill:#e0e0e0"></path><path d="M107.16,310.05a51.07,51.07,0,0,0,5.39.14,51.07,51.07,0,0,0,5.39-.14,49.35,49.35,0,0,0-5.39-.15A49.35,49.35,0,0,0,107.16,310.05Z" style="fill:#e0e0e0"></path><path d="M107.1,317.47a50.38,50.38,0,0,0,5.44.15,50.11,50.11,0,0,0,5.43-.15c0-.07-2.43-.14-5.43-.14S107.1,317.4,107.1,317.47Z" style="fill:#e0e0e0"></path><rect x="107.16" y="330.18" width="10.78" height="20.77" transform="translate(225.1 681.13) rotate(180)" style="fill:#fff"></rect><path d="M112.25,351c.08,0,.14-4.65.14-10.38s-.06-10.39-.14-10.39-.15,4.65-.15,10.39S112.17,351,112.25,351Z" style="fill:#e0e0e0"></path><path d="M107.16,337.4a51.07,51.07,0,0,0,5.39.14,51.07,51.07,0,0,0,5.39-.14,49.35,49.35,0,0,0-5.39-.15A49.35,49.35,0,0,0,107.16,337.4Z" style="fill:#e0e0e0"></path><path d="M107.1,344.82a50.38,50.38,0,0,0,5.44.15,50.11,50.11,0,0,0,5.43-.15,51.86,51.86,0,0,0-5.43-.14A52.14,52.14,0,0,0,107.1,344.82Z" style="fill:#e0e0e0"></path><rect x="107.16" y="357.53" width="10.78" height="20.77" transform="translate(225.1 735.83) rotate(180)" style="fill:#fff"></rect><path d="M112.25,378.3c.08,0,.14-4.65.14-10.39s-.06-10.38-.14-10.38-.15,4.65-.15,10.38S112.17,378.3,112.25,378.3Z" style="fill:#e0e0e0"></path><path d="M107.16,364.74a49.35,49.35,0,0,0,5.39.15,49.35,49.35,0,0,0,5.39-.15,51.07,51.07,0,0,0-5.39-.14A51.07,51.07,0,0,0,107.16,364.74Z" style="fill:#e0e0e0"></path><path d="M107.1,372.17a50.38,50.38,0,0,0,5.44.15,50.11,50.11,0,0,0,5.43-.15,51.86,51.86,0,0,0-5.43-.14A52.14,52.14,0,0,0,107.1,372.17Z" style="fill:#e0e0e0"></path><rect x="107.16" y="384.88" width="10.78" height="20.77" transform="translate(225.1 790.52) rotate(180)" style="fill:#fff"></rect><path d="M112.25,405.64c.08,0,.14-4.64.14-10.38s-.06-10.38-.14-10.38-.15,4.65-.15,10.38S112.17,405.64,112.25,405.64Z" style="fill:#e0e0e0"></path><path d="M107.16,392.09a49.35,49.35,0,0,0,5.39.15,49.35,49.35,0,0,0,5.39-.15,51.07,51.07,0,0,0-5.39-.14A51.07,51.07,0,0,0,107.16,392.09Z" style="fill:#e0e0e0"></path><path d="M107.1,399.52a52.14,52.14,0,0,0,5.44.14,51.86,51.86,0,0,0,5.43-.14,51.86,51.86,0,0,0-5.43-.14A52.14,52.14,0,0,0,107.1,399.52Z" style="fill:#e0e0e0"></path><rect x="133.28" y="411.34" width="10.78" height="20.77" transform="translate(277.33 843.44) rotate(180)" style="fill:#fff"></rect><path d="M138.36,432.1c.08,0,.15-4.65.15-10.38s-.07-10.38-.15-10.38-.14,4.64-.14,10.38S138.28,432.1,138.36,432.1Z" style="fill:#e0e0e0"></path><path d="M133.28,418.55a51,51,0,0,0,5.38.14,51.07,51.07,0,0,0,5.39-.14,51.07,51.07,0,0,0-5.39-.14A51,51,0,0,0,133.28,418.55Z" style="fill:#e0e0e0"></path><path d="M133.22,426a51.86,51.86,0,0,0,5.43.14,51.86,51.86,0,0,0,5.43-.14,50.11,50.11,0,0,0-5.43-.15A50.11,50.11,0,0,0,133.22,426Z" style="fill:#e0e0e0"></path><rect x="107.16" y="412.23" width="10.78" height="20.77" transform="translate(225.1 845.22) rotate(180)" style="fill:#fff"></rect><path d="M112.25,433c.08,0,.14-4.65.14-10.38s-.06-10.38-.14-10.38-.15,4.64-.15,10.38S112.17,433,112.25,433Z" style="fill:#e0e0e0"></path><path d="M107.16,419.44a51.07,51.07,0,0,0,5.39.14,51.07,51.07,0,0,0,5.39-.14,51.07,51.07,0,0,0-5.39-.14A51.07,51.07,0,0,0,107.16,419.44Z" style="fill:#e0e0e0"></path><path d="M107.1,426.87a52.14,52.14,0,0,0,5.44.14,51.86,51.86,0,0,0,5.43-.14,50.11,50.11,0,0,0-5.43-.15A50.38,50.38,0,0,0,107.1,426.87Z" style="fill:#e0e0e0"></path></g><g id="freepik--Floor--inject-15"><path d="M738.31,442.79l-2.19,0-6.43,0-24.72.05L614,443l-300,.08h-2.72v-.52h18.44v.52H310.14v-.52h17.31v.52H299.21v-.51h26v.5L101.63,443l-65-.08-17.39,0-4.49,0-1.53,0s.52,0,1.53,0l4.49,0,17.39-.05,65-.07,223.56-.09v.5h-26v-.51h28.24v.52H310.14v-.52h19.64v.52H311.34v-.52h2.72l300,.08,90.93.08,24.72.05,6.43,0Z" style="fill:#263238"></path></g><g id="freepik--Bridge--inject-15"><rect x="209.27" y="337.58" width="43.19" height="105.21" style="fill:#455a64"></rect><rect x="446.32" y="333.82" width="41.93" height="108.97" style="fill:#455a64"></rect><rect x="686.22" y="333.82" width="41.93" height="108.97" style="fill:#455a64"></rect><path d="M252.46,337.58S280.65,307,350,307s96.54,30.59,96.54,30.59h41.95l1.06-54.49H209.27l0,54.49Z" style="fill:#455a64"></path><path d="M19.49,337.58S43.46,307,112.76,307s96.51,30.59,96.51,30.59h43V283.09H18.43" style="fill:#455a64"></path><path d="M488.32,337.58S520.5,307,589.61,307s96.61,30.59,96.61,30.59h42.55V283.09H445.2l1.29,54.49Z" style="fill:#455a64"></path><path d="M728.77,293.86c0,.14-158.44.26-353.85.26S21.05,294,21.05,293.86s158.4-.26,353.87-.26S728.77,293.71,728.77,293.86Z" style="fill:#263238"></path><path d="M488.25,363a5.62,5.62,0,0,1,0-.63c0-.44,0-1,0-1.72,0-1.54-.06-3.67-.1-6.33l.17.17c-6.28.06-15.69.09-26.19.09l.26-.26h0v2.21c0,.74,0,1.48,0,2.2V363l-.25-.26,18.67.12,5.49.07,1.5,0,.53,0a2.56,2.56,0,0,1-.47,0l-1.44,0-5.44.07-18.84.12h-.26v-8.9h0l.26-.26c10.5,0,19.91,0,26.19.09h.18v.17c0,2.7-.07,4.87-.09,6.43,0,.7,0,1.26,0,1.69A2.77,2.77,0,0,1,488.25,363Z" style="fill:#263238"></path><g style="opacity:0.2"><rect x="452.03" y="362.96" width="26.2" height="8.68"></rect></g><path d="M256,302.56a4,4,0,0,1,0-.62c0-.44,0-1,0-1.72,0-1.54-.05-3.68-.09-6.33l.17.17c-6.29.05-15.7.09-26.2.09l.26-.26h0v4.43c0,1.45,0,2.86,0,4.23l-.25-.25,18.67.12,5.5.07,1.49,0,.54,0a2.76,2.76,0,0,1-.48,0l-1.44,0-5.44.07-18.84.12h-.25v-.26c0-1.37,0-2.78,0-4.23V293.9h0l.26-.26c10.5,0,19.91,0,26.2.09h.17v.17c0,2.7-.07,4.87-.1,6.43,0,.69,0,1.25,0,1.69A3.59,3.59,0,0,1,256,302.56Z" style="fill:#263238"></path><g style="opacity:0.2"><rect x="219.75" y="302.56" width="26.2" height="8.68"></rect></g><path d="M712.84,363a3,3,0,0,1,0-.63c0-.44,0-1,0-1.72,0-1.54-.06-3.67-.1-6.33l.18.17c-6.29.06-15.7.09-26.2.09l.26-.26h0v4.41c0,1.45,0,2.87,0,4.24l-.25-.26,18.67.12,5.5.07,1.49,0,.54,0a2.76,2.76,0,0,1-.48,0l-1.44,0-5.44.07-18.84.12h-.25V363c0-1.37,0-2.79,0-4.24v-4.41h0l.26-.26c10.5,0,19.91,0,26.2.09H713v.17c0,2.7-.07,4.87-.1,6.43,0,.7,0,1.26,0,1.69A3.67,3.67,0,0,1,712.84,363Z" style="fill:#263238"></path><path d="M509.6,306.22s0-.23,0-.62,0-1,0-1.73c0-1.53,0-3.67-.09-6.33l.17.17c-6.28.06-15.7.09-26.2.09l.26-.26h0V302c0,1.45,0,2.87,0,4.24l-.25-.25,18.67.11,5.5.08,1.49,0,.54,0a2.62,2.62,0,0,1-.48,0l-1.43,0-5.44.07-18.85.12h-.25v-.25c0-1.37,0-2.79,0-4.24v-4.42h0c.52-.52.15-.14.26-.26,10.5,0,19.92,0,26.2.09h.17v.17c0,2.7-.07,4.87-.09,6.43,0,.7,0,1.26,0,1.69A4.31,4.31,0,0,1,509.6,306.22Z" style="fill:#263238"></path><path d="M252.82,392.06a5.31,5.31,0,0,1,0-.62c0-.44,0-1,0-1.72,0-1.54-.06-3.68-.1-6.33l.17.17c-6.28.05-15.7.09-26.19.09l.26-.26h0v2.23c0,.74,0,1.47,0,2.2v4.23l-.25-.25,18.67.12,5.49.07,1.5,0,.53,0a3,3,0,0,1-.47,0l-1.44,0-5.44.07-18.84.12h-.26V383.4h0c.52-.52.15-.15.27-.26,10.49,0,19.91,0,26.19.09H253v.17c0,2.7-.07,4.87-.09,6.43,0,.69,0,1.25,0,1.69A2.71,2.71,0,0,1,252.82,392.06Z" style="fill:#263238"></path><path d="M227.6,357.31a4.3,4.3,0,0,1,0-.64c0-.46,0-1-.05-1.74,0-1.56-.06-3.69-.1-6.29l.19.19-18.15.07.26-.26h0v4.46c0,1.45,0,2.86,0,4.2l-.25-.24c5.24,0,9.74.07,13,.12l3.79.06a13.78,13.78,0,0,1,1.4.06,10.93,10.93,0,0,1-1.29.07l-3.73.06c-3.21.05-7.79.1-13.13.12h-.25v-.25c0-1.34,0-2.75,0-4.2v-4.46h0l.26-.26,18.15.07h.2v.19c0,2.64-.08,4.81-.1,6.4,0,.69,0,1.26-.05,1.71A2.65,2.65,0,0,1,227.6,357.31Z" style="fill:#263238"></path><path d="M440.06,302.83s0-.23,0-.64,0-1,0-1.75c0-1.56-.07-3.69-.11-6.28l.19.19-18.15.07.26-.26h0v4.46c0,1.45,0,2.86,0,4.2l-.25-.24c5.24,0,9.74.07,13,.11l3.79.07a13.78,13.78,0,0,1,1.4.06,10.07,10.07,0,0,1-1.29.06L435,303c-3.21.05-7.78.1-13.13.12h-.24v-.25c0-1.34,0-2.75,0-4.2,0-.72,0-1.46,0-2.21v-2.25h0l.26-.26,18.15.06h.2v.19c-.05,2.64-.08,4.81-.11,6.4,0,.69,0,1.26,0,1.71A2,2,0,0,1,440.06,302.83Z" style="fill:#263238"></path><path d="M56.43,302.71a2.87,2.87,0,0,1,0-.62c0-.45,0-1,0-1.74,0-1.55-.05-3.68-.09-6.31l.18.18-23.28.08c-.24.23.31-.32.26-.26h0v8.66l-.25-.25,16.6.12,4.87.07,1.33,0,.48,0a1.6,1.6,0,0,1-.42,0l-1.27,0-4.82.07L33.15,303H32.9v-8.92h0c-.06,0,.49-.5.26-.26l23.28.08h.18V294c0,2.67-.07,4.85-.09,6.42,0,.69,0,1.25,0,1.69A3.51,3.51,0,0,1,56.43,302.71Z" style="fill:#263238"></path><path d="M716.72,354.28s0-.24,0-.64,0-1.05,0-1.76c0-1.57-.06-3.69-.1-6.28l.19.2-15.92.06.26-.26h0v2.25c0,.75,0,1.49,0,2.22,0,1.45,0,2.85,0,4.19l-.24-.24c4.61,0,8.55.07,11.38.11l3.31.07a10.74,10.74,0,0,1,1.23.06,7.5,7.5,0,0,1-1.12.06l-3.26.07c-2.81,0-6.83.1-11.54.11h-.25v-.24c0-1.34,0-2.74,0-4.19v-4.47h0l.26-.26,15.92.06h.2v.19c0,2.64-.08,4.81-.1,6.4,0,.69,0,1.26-.05,1.71A2.28,2.28,0,0,1,716.72,354.28Z" style="fill:#263238"></path></g><g id="freepik--Birds--inject-15"><path d="M339.49,130.61s-.76-.26-2.18-.58a17.5,17.5,0,0,0-6.11-.23,16.44,16.44,0,0,0-8.22,3.55,17,17,0,0,0-5.8,9.21l0,.1-.17.66-.25-.62a18.3,18.3,0,0,0-7-8.39,17.68,17.68,0,0,0-8.49-2.83,18.88,18.88,0,0,0-6.06.55c-1.4.37-2.14.7-2.16.66a2.42,2.42,0,0,1,.53-.26,13.11,13.11,0,0,1,1.58-.56A18.07,18.07,0,0,1,310,134a18.65,18.65,0,0,1,7.14,8.57l-.42,0,0-.11a17.3,17.3,0,0,1,6-9.43,16.91,16.91,0,0,1,14.63-3.16,12.06,12.06,0,0,1,1.61.51A3.5,3.5,0,0,1,339.49,130.61Z" style="fill:#263238"></path><path d="M400.51,97.13s-.43-.12-1.21-.28a9.73,9.73,0,0,0-3.34-.1,9,9,0,0,0-4.47,2,9.3,9.3,0,0,0-3.16,5v0l-.17.66-.25-.62a10.05,10.05,0,0,0-3.78-4.58,9.7,9.7,0,0,0-4.63-1.56,10.44,10.44,0,0,0-3.32.27c-.77.19-1.18.36-1.19.32s.09-.07.28-.16a6.57,6.57,0,0,1,.87-.33,10,10,0,0,1,8.21,1.12,10.33,10.33,0,0,1,4,4.75l-.42,0v-.05a9.56,9.56,0,0,1,3.33-5.24,9.12,9.12,0,0,1,4.69-2,9.31,9.31,0,0,1,3.42.24,7.77,7.77,0,0,1,.88.3C400.42,97.07,400.52,97.12,400.51,97.13Z" style="fill:#263238"></path><path d="M360.62,83.43s-.42.48-1.18,1.33a29.42,29.42,0,0,0-2.86,3.87,28.14,28.14,0,0,0-4.25,15v.19l-.45,0a24.49,24.49,0,0,0-2.75-8.15,25,25,0,0,0-4.19-5.66A25.45,25.45,0,0,0,341.31,87c-.92-.64-1.46-1-1.44-1a2.13,2.13,0,0,1,.41.2c.26.15.66.34,1.13.66a23,23,0,0,1,3.76,3,25,25,0,0,1,4.32,5.68,24.7,24.7,0,0,1,2.83,8.28l-.44,0v-.19a27.68,27.68,0,0,1,4.44-15.22,25.41,25.41,0,0,1,3-3.82c.38-.42.73-.71.94-.92A1.74,1.74,0,0,1,360.62,83.43Z" style="fill:#263238"></path></g><g id="freepik--Plants--inject-15"><path d="M80.77,430.29A5.86,5.86,0,0,1,82,431.86a25.7,25.7,0,0,1,3.48,8.83,6.09,6.09,0,0,1,.18,2c-.15,0-.63-2.94-2-6.36S80.64,430.38,80.77,430.29Z" style="fill:#263238"></path><path d="M89.25,422.88a18.18,18.18,0,0,1-.13,2.88c-.12,1.78-.24,4.23-.22,6.94s.17,5.15.31,6.93a18.26,18.26,0,0,1,.18,2.88,12.58,12.58,0,0,1-.54-2.85,56.55,56.55,0,0,1-.47-7,57.34,57.34,0,0,1,.37-7A13.61,13.61,0,0,1,89.25,422.88Z" style="fill:#263238"></path><path d="M96.13,433.22c.15.07-.85,2.07-1.43,4.73s-.56,4.89-.72,4.89a14.16,14.16,0,0,1,2.15-9.62Z" style="fill:#263238"></path><path d="M119.5,434.76s-.17,0-.43-.2l.16-.14a18.93,18.93,0,0,1,2.17,3.8,13.61,13.61,0,0,1,1.38,4.63c-.15,0-.78-2-1.86-4.42-.77-1.75-1.56-3.21-1.87-3.89l-.26-.57.42.42C119.42,434.6,119.53,434.73,119.5,434.76Z" style="fill:#263238"></path><path d="M126.53,425a17.71,17.71,0,0,1-.36,2.7c-.24,1.66-.52,3.95-.65,6.5s-.07,4.87,0,6.54a17.57,17.57,0,0,1,.08,2.72,12.17,12.17,0,0,1-.45-2.69,44.36,44.36,0,0,1,.64-13.14A11.44,11.44,0,0,1,126.53,425Z" style="fill:#263238"></path><path d="M133.86,434.28c.13.1-1.19,1.69-2.1,4s-1.08,4.38-1.24,4.37a8.85,8.85,0,0,1,.75-4.57A8.71,8.71,0,0,1,133.86,434.28Z" style="fill:#263238"></path><path d="M161.24,434.75a8.79,8.79,0,0,1,3,3.59,8.66,8.66,0,0,1,1.2,4.5c-.16,0-.5-2-1.67-4.27S161.12,434.87,161.24,434.75Z" style="fill:#263238"></path><path d="M171.39,424.68a20.57,20.57,0,0,1-.74,2.53,39.21,39.21,0,0,0-1.33,6.19,39.69,39.69,0,0,0-.28,6.32,21.47,21.47,0,0,1,.09,2.63,9.27,9.27,0,0,1-.45-2.61,30,30,0,0,1,1.62-12.65A9.62,9.62,0,0,1,171.39,424.68Z" style="fill:#263238"></path><path d="M307.68,430.61a5.86,5.86,0,0,1,1.21,1.57,25.17,25.17,0,0,1,2.15,4.25,24.85,24.85,0,0,1,1.33,4.59,6,6,0,0,1,.18,2c-.16,0-.63-2.94-2-6.36S307.55,430.7,307.68,430.61Z" style="fill:#263238"></path><path d="M316.16,423.2a19.82,19.82,0,0,1-.13,2.88c-.12,1.78-.24,4.23-.22,6.94s.17,5.16.31,6.93a18.3,18.3,0,0,1,.18,2.88,12.56,12.56,0,0,1-.54-2.84,56.73,56.73,0,0,1-.47-7,57.34,57.34,0,0,1,.37-7A13.79,13.79,0,0,1,316.16,423.2Z" style="fill:#263238"></path><path d="M323,433.54c.14.07-.85,2.08-1.43,4.73s-.56,4.89-.72,4.9a14.17,14.17,0,0,1,2.15-9.63Z" style="fill:#263238"></path><path d="M353.77,434.35s-.17,0-.43-.2l.16-.14a18.35,18.35,0,0,1,2.17,3.8,13.61,13.61,0,0,1,1.38,4.63c-.15,0-.78-2-1.86-4.42-.77-1.76-1.56-3.21-1.87-3.9l-.26-.56.42.42C353.69,434.19,353.8,434.32,353.77,434.35Z" style="fill:#263238"></path><path d="M360.8,424.6a17.56,17.56,0,0,1-.36,2.7c-.24,1.66-.52,4-.65,6.51s-.07,4.86,0,6.54a20.55,20.55,0,0,1,.09,2.72,11.25,11.25,0,0,1-.46-2.69,44.32,44.32,0,0,1,.64-13.14A11.87,11.87,0,0,1,360.8,424.6Z" style="fill:#263238"></path><path d="M368.13,433.87c.13.1-1.19,1.69-2.1,4s-1.08,4.39-1.24,4.38a8.84,8.84,0,0,1,.75-4.57A8.71,8.71,0,0,1,368.13,433.87Z" style="fill:#263238"></path><path d="M404.07,435.08a10.83,10.83,0,0,1,4.18,8.08,45.48,45.48,0,0,0-1.67-4.26A44.61,44.61,0,0,0,404.07,435.08Z" style="fill:#263238"></path><path d="M414.22,425a20,20,0,0,1-.74,2.53A37.86,37.86,0,0,0,411.87,440a21.61,21.61,0,0,1,.09,2.64,9.29,9.29,0,0,1-.45-2.62,29.94,29.94,0,0,1,1.62-12.64A9.59,9.59,0,0,1,414.22,425Z" style="fill:#263238"></path><path d="M418.33,434.9a24.55,24.55,0,0,0-2.1,3.64,25.82,25.82,0,0,0-1,4.09,8.27,8.27,0,0,1,3.09-7.73Z" style="fill:#263238"></path><path d="M536,434.75a10.83,10.83,0,0,1,4.18,8.08,44.85,44.85,0,0,0-1.66-4.26C537.35,436.32,535.87,434.86,536,434.75Z" style="fill:#263238"></path><path d="M546.33,430.48a48.69,48.69,0,0,0-2.33,6,49.6,49.6,0,0,0-1,6.35,5.62,5.62,0,0,1-.15-1.91,18.81,18.81,0,0,1,.65-4.57,19,19,0,0,1,1.74-4.29A5.37,5.37,0,0,1,546.33,430.48Z" style="fill:#263238"></path><path d="M560.34,436.3a8.44,8.44,0,0,1,2.82,2.75,8.21,8.21,0,0,1,1.7,3.55c-.14.06-.87-1.52-2.12-3.25S560.24,436.42,560.34,436.3Z" style="fill:#263238"></path><path d="M565.93,430.8c.16,0,.41,2.69,1,6s1.22,5.93,1.07,6a22.63,22.63,0,0,1-1.59-5.89A23,23,0,0,1,565.93,430.8Z" style="fill:#263238"></path><path d="M572.48,437.13c.12.1-.62,1.16-1,2.67s-.2,2.79-.35,2.81a4,4,0,0,1-.16-2.93A4,4,0,0,1,572.48,437.13Z" style="fill:#263238"></path><path d="M591.69,434.09a19.53,19.53,0,0,1,1.91,4.07,20.25,20.25,0,0,1,1.43,4.27,38.94,38.94,0,0,1-3.34-8.34Z" style="fill:#263238"></path><path d="M597.81,427.33c.15,0-.2,3.39-.26,7.56s.18,7.56,0,7.57a8.3,8.3,0,0,1-.35-2.2,51,51,0,0,1-.2-5.37,53.57,53.57,0,0,1,.36-5.37A8.76,8.76,0,0,1,597.81,427.33Z" style="fill:#263238"></path><path d="M629.51,442.9a37,37,0,0,1-1.93-4.18,38.89,38.89,0,0,1-1.93-4.19,14,14,0,0,1,2.4,4A14.18,14.18,0,0,1,629.51,442.9Z" style="fill:#263238"></path><path d="M632.09,427.34a10.37,10.37,0,0,1,.3,2.21c.13,1.38.31,3.27.56,5.35s.52,4,.71,5.33a11,11,0,0,1,.23,2.23,9.07,9.07,0,0,1-.59-2.17c-.29-1.35-.62-3.23-.87-5.33s-.37-4-.41-5.38A8.66,8.66,0,0,1,632.09,427.34Z" style="fill:#263238"></path><path d="M641.33,434a35.15,35.15,0,0,0-2.17,4.2,34.59,34.59,0,0,0-1.08,4.6,8.63,8.63,0,0,1,.59-4.78A8.72,8.72,0,0,1,641.33,434Z" style="fill:#263238"></path></g><g id="freepik--Clouds--inject-15"><path d="M244.81,101.55c-3.45-9.59-13.2-14.11-22.95-11.15a17.37,17.37,0,0,0-27.24-7.31C192.27,75,182.8,70.42,174.49,71.75S159.25,79.16,154.8,86.3a20.29,20.29,0,0,0-16.35,1.21c-4.95,2.69-8.66,8.56-9.94,14Z" style="fill:#fff"></path><path d="M244.81,101.55l-.56,0h-1.71l-6.61,0-24.58.07-82.84.13h-.33l.08-.32A24.2,24.2,0,0,1,131,94.68a21.28,21.28,0,0,1,4.92-5.8,18.86,18.86,0,0,1,9.21-3.82,20.5,20.5,0,0,1,9.72,1l-.31.11a36.06,36.06,0,0,1,9.11-10,24.35,24.35,0,0,1,12-4.81,20,20,0,0,1,11.93,2.74A15.72,15.72,0,0,1,194.83,83l-.35-.11A17.61,17.61,0,0,1,222,90.35l-.2-.1a19.7,19.7,0,0,1,11.86.08,17.57,17.57,0,0,1,7.4,4.83,19.19,19.19,0,0,1,3.05,4.61c.23.58.4,1,.53,1.34l.16.44L244,99.81A20.07,20.07,0,0,0,241,95.27a17.6,17.6,0,0,0-7.36-4.7,19.35,19.35,0,0,0-11.69,0l-.14,0,0-.14a17.48,17.48,0,0,0-10.38-10.11,16.93,16.93,0,0,0-8.35-.74,17.56,17.56,0,0,0-8.22,3.65l-.26.21-.09-.32a15.32,15.32,0,0,0-7-8.64,19.6,19.6,0,0,0-11.66-2.66A24,24,0,0,0,164,76.58a35.76,35.76,0,0,0-9,9.86l-.11.18-.2-.07a20,20,0,0,0-9.47-1,18.41,18.41,0,0,0-9,3.7A20.86,20.86,0,0,0,131.48,95a24.35,24.35,0,0,0-2.72,6.66l-.25-.32,82.62.13,24.65.07,6.68,0,1.74,0Z" style="fill:#263238"></path><path d="M419.5,180.24c2.53-7,9.66-10.33,16.8-8.16a12.7,12.7,0,0,1,19.93-5.35c1.72-5.92,8.65-9.28,14.73-8.3s11.16,5.42,14.41,10.65a14.8,14.8,0,0,1,12,.89c3.62,2,6.34,6.25,7.27,10.27Z" style="fill:#fff"></path><path d="M419.5,180.24H420l1.28,0,4.9,0,18.05-.07,60.43-.13-.25.32a16.82,16.82,0,0,0-5.48-9,14.29,14.29,0,0,0-13.42-2l-.19.07-.11-.17a26,26,0,0,0-6.55-7.2,17.42,17.42,0,0,0-8.55-3.45,14.34,14.34,0,0,0-8.5,1.93,11.2,11.2,0,0,0-5.12,6.29l-.09.32-.26-.21a12.52,12.52,0,0,0-19.64,5.24l-.05.14-.15-.05a14.13,14.13,0,0,0-8.53,0,12.85,12.85,0,0,0-5.38,3.42,15.05,15.05,0,0,0-2.27,3.31l-.42.94c-.09.21-.15.33-.15.33a2,2,0,0,1,.11-.32c.1-.24.22-.57.38-1a14.36,14.36,0,0,1,2.23-3.39,12.91,12.91,0,0,1,5.42-3.54,14.41,14.41,0,0,1,8.7-.07l-.19.09a12.9,12.9,0,0,1,20.22-5.46l-.35.11a11.59,11.59,0,0,1,5.31-6.57,14.73,14.73,0,0,1,8.77-2,17.8,17.8,0,0,1,8.81,3.53,26.32,26.32,0,0,1,6.68,7.32l-.3-.1a14.79,14.79,0,0,1,13.91,2.07,15.57,15.57,0,0,1,3.63,4.27,17.66,17.66,0,0,1,2,5l.08.32h-.33L444,180.37l-18-.07-4.83,0-1.24,0Z" style="fill:#263238"></path><path d="M582.9,148.92c3.79-10.51,14.46-15.46,25.15-12.22a19,19,0,0,1,29.83-8c2.58-8.86,12.94-13.89,22-12.43s16.69,8.12,21.57,16a22.18,22.18,0,0,1,17.91,1.32c5.42,2.94,9.49,9.37,10.88,15.38Z" style="fill:#fff"></path><path d="M582.9,148.92l.67,0h1.9l7.32,0,27-.08,90.5-.12L710,149a26.37,26.37,0,0,0-3-7.3,23,23,0,0,0-5.27-6.21A20.08,20.08,0,0,0,692,131.4a21.82,21.82,0,0,0-10.38,1.06l-.2.07-.11-.18a39,39,0,0,0-9.83-10.8,26.27,26.27,0,0,0-12.87-5.19,21.5,21.5,0,0,0-12.78,2.92,16.77,16.77,0,0,0-7.71,9.48l-.09.32-.26-.21a19.11,19.11,0,0,0-9-4,18.5,18.5,0,0,0-9.16.81,19.17,19.17,0,0,0-11.37,11.08l-.06.14-.14,0a21.28,21.28,0,0,0-12.81,0,19.3,19.3,0,0,0-8.06,5.15,22.19,22.19,0,0,0-3.39,5l-.84,1.91.19-.48c.13-.35.32-.83.57-1.47a21.31,21.31,0,0,1,3.34-5.05,19.38,19.38,0,0,1,8.11-5.28,21.55,21.55,0,0,1,13-.09l-.19.1a19.4,19.4,0,0,1,4.25-6.64,19.69,19.69,0,0,1,7.29-4.7,19.05,19.05,0,0,1,9.36-.85,19.49,19.49,0,0,1,9.22,4.07l-.35.1a17.24,17.24,0,0,1,7.89-9.76,22,22,0,0,1,13.07-3,26.69,26.69,0,0,1,13.12,5.26,39.6,39.6,0,0,1,10,10.94l-.31-.11A22.49,22.49,0,0,1,692,130.88a20.7,20.7,0,0,1,10.08,4.17,23.65,23.65,0,0,1,5.39,6.35,26.62,26.62,0,0,1,3,7.46l.08.31h-.33l-90.72-.12L592.64,149l-7.25,0H582.9Z" style="fill:#263238"></path></g><g id="freepik--Train--inject-15"><path d="M209.27,234.06a85.82,85.82,0,0,1-5.94-7.51,86.65,86.65,0,0,1-5.53-7.83,87,87,0,0,1,5.94,7.52A88.24,88.24,0,0,1,209.27,234.06Z" style="fill:#263238"></path><path d="M108.31,282.91a8,8,0,0,1-5.62-2.28c-1.36-1.32-2.71-2.9-2.55-3.8a91.56,91.56,0,0,1,4.32-12.66c1.93-4.48,12.32-23.25,16-26.1a16.53,16.53,0,0,1,5.15-2.36,32.39,32.39,0,0,1,9.34-1.32H239.31a26.22,26.22,0,0,1,1.92,4.48c.16,1.12.08,39.4.08,39.4v4.64Z" style="fill:#e0e0e0"></path><path d="M124.59,242.86l-13.7,23.63a3.05,3.05,0,0,0,2.75,4.54H241.31V239.9l-111.06-.24A6.52,6.52,0,0,0,124.59,242.86Z" style="fill:#455a64"></path><path d="M163.05,282.81H135.43V247.23a1.92,1.92,0,0,1,1.91-1.92h23.8a1.92,1.92,0,0,1,1.91,1.92Z" style="fill:#455a64"></path><path d="M163.05,282.81a2.73,2.73,0,0,1,0-.35c0-.25,0-.58,0-1,0-.9,0-2.17,0-3.78,0-3.29-.05-8-.09-13.78,0-2.9,0-6.07,0-9.48,0-1.7,0-3.46,0-5.28v-1.37a2.7,2.7,0,0,0-.17-1.26,1.7,1.7,0,0,0-.87-.84,1.58,1.58,0,0,0-.61-.12h-.71l-12.07,0h-9.65c-.53,0-1.13,0-1.61,0a1.65,1.65,0,0,0-1.17.74,1.78,1.78,0,0,0-.27,1.08v8.76c0,3.27,0,6.45,0,9.54,0,6.16,0,11.91,0,17.1l-.22-.22,20,.11,5.6.06,1.48,0,.53,0a4.12,4.12,0,0,1-.48,0l-1.44,0-5.55.06-20.15.11h-.21v-.21c0-5.19,0-10.94,0-17.1q0-4.63,0-9.54v-8.76a2.33,2.33,0,0,1,.35-1.36,2.2,2.2,0,0,1,1.54-1c.62,0,1.12,0,1.68,0h22.44a2.09,2.09,0,0,1,.78.16,2.19,2.19,0,0,1,1.12,1.08,3.2,3.2,0,0,1,.2,1.47v1.38c0,1.83,0,3.61,0,5.33,0,3.43,0,6.62,0,9.54,0,5.79-.07,10.49-.09,13.78,0,1.59,0,2.83,0,3.72,0,.4,0,.71,0,.95S163.05,282.81,163.05,282.81Z" style="fill:#263238"></path><rect x="136.49" y="246.32" width="11.6" height="23.01" rx="0.9" style="fill:#f5f5f5"></rect><path d="M147.19,269.36h-9.81a.92.92,0,0,1-.92-.92V247.22a.92.92,0,0,1,.92-.92h9.81a.92.92,0,0,1,.92.92v21.22A.92.92,0,0,1,147.19,269.36Zm-9.81-23a.87.87,0,0,0-.87.87v21.22a.87.87,0,0,0,.87.87h9.81a.87.87,0,0,0,.87-.87V247.22a.87.87,0,0,0-.87-.87Z" style="fill:#263238"></path><rect x="150.2" y="246.32" width="11.6" height="23.01" rx="1.27" style="fill:#f5f5f5"></rect><path d="M160.53,269.36h-9.06a1.3,1.3,0,0,1-1.3-1.29V247.59a1.3,1.3,0,0,1,1.3-1.29h9.06a1.3,1.3,0,0,1,1.3,1.29v20.48A1.3,1.3,0,0,1,160.53,269.36Zm-9.06-23a1.24,1.24,0,0,0-1.25,1.24v20.48a1.25,1.25,0,0,0,1.25,1.24h9.06a1.25,1.25,0,0,0,1.25-1.24V247.59a1.24,1.24,0,0,0-1.25-1.24Z" style="fill:#263238"></path><path d="M149.24,282.76c-.14,0-.26-8.37-.26-18.7s.12-18.7.26-18.7.26,8.37.26,18.7S149.38,282.76,149.24,282.76Z" style="fill:#263238"></path><rect x="136.49" y="265.63" width="11.6" height="3.7" style="fill:#263238"></rect><rect x="150.2" y="265.63" width="11.6" height="3.7" style="fill:#263238"></rect><path d="M123.79,244.24H241.31V239.9l-110.89-.23a7.33,7.33,0,0,0-5,2.13Z" style="fill:#20FF5F"></path><path d="M117.68,241.21s1,.55.35,1.91c-.53,1.15-6.68,9.93-9.61,15.91s-4.6,10.3-4.6,10.3h-1.36s1.79-4.65,2.83-6.92c1.16-2.53,4.59-8.83,7.83-14.21Z" style="fill:#ebebeb"></path><path d="M241.31,275.91c0,.14-30.9.26-69,.26s-69-.12-69-.26,30.88-.26,69-.26S241.31,275.76,241.31,275.91Z" style="fill:#263238"></path><path d="M241.31,282.91l-133,.29a10.55,10.55,0,0,1-7.61-4.93H241.31Z" style="fill:#20FF5F"></path><path d="M132.85,234.45a3.48,3.48,0,0,1-.6.19c-.4.11-1,.28-1.72.54a22.81,22.81,0,0,0-5.87,3,13.38,13.38,0,0,0-1.67,1.39,18.55,18.55,0,0,0-1.51,1.81c-1,1.32-2,2.78-3,4.34-2,3.13-4.11,6.63-6.24,10.34s-3.81,7.45-5.33,10.83a56.65,56.65,0,0,0-3.42,9.21,9,9,0,0,0-.15,1,1.77,1.77,0,0,0,0,.46,1.31,1.31,0,0,0,.07.44,4.58,4.58,0,0,0,.89,1.46,15.73,15.73,0,0,0,2.06,2c.6.49,1.1.85,1.43,1.09a5.12,5.12,0,0,1,.5.39,2.2,2.2,0,0,1-.56-.3c-.35-.22-.87-.55-1.5-1a15.14,15.14,0,0,1-2.15-1.92,5,5,0,0,1-1-1.56,1.64,1.64,0,0,1-.09-.5,2.35,2.35,0,0,1,0-.53c0-.33.06-.69.14-1a53.82,53.82,0,0,1,3.34-9.33c1.5-3.41,3.25-7.11,5.32-10.89s4.26-7.22,6.29-10.35c1-1.56,2-3,3-4.34a19,19,0,0,1,1.58-1.84,14.35,14.35,0,0,1,1.73-1.4,21.57,21.57,0,0,1,6-2.9,16.87,16.87,0,0,1,1.76-.46A2.15,2.15,0,0,1,132.85,234.45Z" style="fill:#263238"></path><path d="M102.46,269.33a2.55,2.55,0,0,0,1.15-.48,2.6,2.6,0,0,0,.76-1.23l.8-1.85c.61-1.41,1.33-3,2.11-4.82a50.29,50.29,0,0,1,2.91-5.76c2.3-4,4.61-7.39,6.27-9.87l1.11-1.68a2.81,2.81,0,0,0,.57-1.33,1.23,1.23,0,0,0-.25-.85c-.13-.17-.23-.24-.21-.25s.12,0,.29.18a1.28,1.28,0,0,1,.37.92,2.91,2.91,0,0,1-.52,1.48c-.3.52-.66,1.09-1,1.73-1.59,2.53-3.85,6-6.13,9.93a55.33,55.33,0,0,0-2.92,5.71l-2.21,4.75q-.48,1-.87,1.83a6.65,6.65,0,0,1-.39.75,2.33,2.33,0,0,1-.52.52,1.93,1.93,0,0,1-.93.35C102.58,269.38,102.46,269.35,102.46,269.33Z" style="fill:#263238"></path><path d="M124.59,242.86a3.23,3.23,0,0,1,.3-.49A6,6,0,0,1,126,241.1a6.68,6.68,0,0,1,2.48-1.28,15.11,15.11,0,0,1,3.81-.24l24.64,0,84.34.09h.25v.25c0,10,0,20.43,0,31.13v.26H235.1l-109.75-.08-10,0a17,17,0,0,1-2.36-.08,3.25,3.25,0,0,1-2-1.22,3.13,3.13,0,0,1-.64-2.17,4.51,4.51,0,0,1,.82-2l7.21-12.36c2-3.37,3.53-6,4.58-7.79l1.2-2,.43-.68s-.12.25-.38.71-.65,1.16-1.16,2.05l-4.49,7.85c-2,3.4-4.36,7.56-7.14,12.4a4.27,4.27,0,0,0-.77,1.88,2.86,2.86,0,0,0,.58,2,3,3,0,0,0,1.8,1.1,17.3,17.3,0,0,0,2.3.06l10,0,109.75-.08h6.21l-.26.26V239.9l.25.25L157,239.88l-24.64-.12a15,15,0,0,0-3.78.19,6.67,6.67,0,0,0-2.45,1.22A7.37,7.37,0,0,0,124.59,242.86Z" style="fill:#263238"></path><g style="opacity:0.30000000000000004"><path d="M127.91,244.24v17.64l7.52,3.58V271H113.64a3.11,3.11,0,0,1-3.16-2.75h0a2.79,2.79,0,0,1,.27-1.46l13-22.58Z"></path></g><g style="opacity:0.6000000000000001"><polygon points="137.75 269.34 146.14 269.34 148.09 266.26 148.09 253.43 137.75 269.34" style="fill:#fff"></polygon></g><g style="opacity:0.6000000000000001"><polygon points="152.7 246.32 150.2 250.18 150.2 262.94 160.72 246.32 152.7 246.32" style="fill:#fff"></polygon></g><rect x="165.9" y="246.32" width="32.5" height="23.01" rx="2.13" style="fill:#f5f5f5"></rect><path d="M196.27,269.33a2.68,2.68,0,0,0,1-.32,2,2,0,0,0,.84-.94,3.8,3.8,0,0,0,.17-1.74c0-2.76,0-6.68-.08-11.51,0-1.21,0-2.48,0-3.81v-2a4.38,4.38,0,0,0-.06-1,2,2,0,0,0-.45-.84,2.13,2.13,0,0,0-.8-.52,3,3,0,0,0-1-.1h-6.94l-20.89,0a1.88,1.88,0,0,0-1.8,1.37,4.83,4.83,0,0,0-.07,1.29v1.36c0,1.8,0,3.58,0,5.33,0,3.49,0,6.86,0,10.07v1.2a1.87,1.87,0,0,0,.28,1,1.91,1.91,0,0,0,1.75.91h4.43l7.94,0,11.51.08,3.13,0,.81,0,.28,0-.28,0-.81,0-3.13.05-11.51.08-7.94,0h-4.43a2.38,2.38,0,0,1-2.15-1.11,2.3,2.3,0,0,1-.36-1.25V266c0-3.21,0-6.58,0-10.07v-6.69a5.47,5.47,0,0,1,.09-1.43,2.4,2.4,0,0,1,2.3-1.75l20.89,0h6.94a3.14,3.14,0,0,1,1.16.13,2.33,2.33,0,0,1,1,.64,2.28,2.28,0,0,1,.54,1,4.05,4.05,0,0,1,.06,1.08c0,.69,0,1.37,0,2,0,1.33,0,2.6,0,3.81,0,4.83-.07,8.75-.08,11.51a4.17,4.17,0,0,1-.24,1.81,2.17,2.17,0,0,1-.92,1,2,2,0,0,1-.79.23A.74.74,0,0,1,196.27,269.33Z" style="fill:#263238"></path><path d="M165.9,265.63h32.5a0,0,0,0,1,0,0v2.57a1.13,1.13,0,0,1-1.13,1.13H167a1.13,1.13,0,0,1-1.13-1.13v-2.57A0,0,0,0,1,165.9,265.63Z" style="fill:#263238"></path><g style="opacity:0.6000000000000001"><polygon points="185.13 246.32 170.18 269.34 178.57 269.34 193.16 246.32 185.13 246.32" style="fill:#fff"></polygon></g><rect x="201.09" y="246.32" width="32.5" height="23.01" rx="2.23" style="fill:#f5f5f5"></rect><path d="M231.36,269.33a2.69,2.69,0,0,0,1-.3,2.27,2.27,0,0,0,.88-.91,2.09,2.09,0,0,0,.22-.77c0-.29,0-.62,0-1,0-2.76-.05-6.67-.09-11.49,0-1.21,0-2.48,0-3.8,0-.67,0-1.34,0-2a4.51,4.51,0,0,0-.06-1,2,2,0,0,0-.43-.84,2.09,2.09,0,0,0-1.78-.71h-6.92l-20.86,0a2,2,0,0,0-1.87,1.32,3.94,3.94,0,0,0-.11,1.27v6.68c0,3.49,0,6.85,0,10.06v1.19a2.06,2.06,0,0,0,.27,1,2,2,0,0,0,1.71,1l4.42,0,7.93,0,11.48.08,3.13,0,.81,0,.28,0-.28,0-.81,0-3.13.05-11.48.08-7.93,0h-4.42a2.47,2.47,0,0,1-2.11-1.21,2.37,2.37,0,0,1-.34-1.25c0-.39,0-.79,0-1.19,0-3.21,0-6.57,0-10.06,0-1.75,0-3.52,0-5.32v-2.05a2.41,2.41,0,0,1,.13-.75,2.51,2.51,0,0,1,2.36-1.67l20.86,0h6.92a2.53,2.53,0,0,1,2.11.87,2.33,2.33,0,0,1,.51,1,4.52,4.52,0,0,1,.07,1.08c0,.69,0,1.36,0,2,0,1.32,0,2.59,0,3.8,0,4.82-.06,8.73-.08,11.49,0,.34,0,.65,0,1a2.3,2.3,0,0,1-1.23,1.75,2.11,2.11,0,0,1-.79.22A.74.74,0,0,1,231.36,269.33Z" style="fill:#263238"></path><path d="M201.09,265.63h32.5a0,0,0,0,1,0,0v2.47a1.24,1.24,0,0,1-1.24,1.24h-30a1.24,1.24,0,0,1-1.24-1.24v-2.47A0,0,0,0,1,201.09,265.63Z" style="fill:#263238"></path><g style="opacity:0.6000000000000001"><polygon points="220.33 246.32 205.38 269.34 213.77 269.34 228.35 246.32 220.33 246.32" style="fill:#fff"></polygon></g><rect x="392.17" y="238.93" width="10.48" height="41.78" style="fill:#455a64"></rect><g style="opacity:0.2"><rect x="392.17" y="238.93" width="10.48" height="41.78"></rect></g><polygon points="391.6 283.18 244.59 282.9 244.59 238.93 246.89 234.37 389.11 233.74 391.6 237.47 391.6 283.18" style="fill:#e0e0e0"></polygon><rect x="244.59" y="239.65" width="147.13" height="31.38" style="fill:#455a64"></rect><path d="M315.29,282.8H287.67V247.18a1.88,1.88,0,0,1,1.88-1.87h23.86a1.88,1.88,0,0,1,1.88,1.87Z" style="fill:#455a64"></path><path d="M315.29,282.8a1.5,1.5,0,0,1,0-.35c0-.25,0-.58,0-1,0-.9,0-2.16,0-3.78,0-3.29-.06-8-.09-13.78,0-2.9,0-6.08-.05-9.48,0-1.71,0-3.47,0-5.28v-1.37a2.85,2.85,0,0,0-.16-1.27,1.7,1.7,0,0,0-.87-.84,1.78,1.78,0,0,0-.61-.11H291c-.53,0-1.12,0-1.62,0a1.6,1.6,0,0,0-1.17.73,1.78,1.78,0,0,0-.26,1.08v8.76c0,3.27,0,6.46,0,9.54,0,6.17,0,11.92,0,17.11l-.21-.21,20,.11,5.6.05,1.48,0a3.28,3.28,0,0,1,.53,0,2.49,2.49,0,0,1-.48,0l-1.44,0-5.56,0-20.14.11h-.21v-.21c0-5.19,0-10.94,0-17.11,0-3.08,0-6.27,0-9.54v-8.76a2.3,2.3,0,0,1,.34-1.36,2.14,2.14,0,0,1,1.55-1c.61,0,1.12,0,1.68,0h9.65l12.07,0h.72a2,2,0,0,1,.79.16,2.13,2.13,0,0,1,1.12,1.07,3.36,3.36,0,0,1,.19,1.47v1.39c0,1.83,0,3.6,0,5.32,0,3.43,0,6.63,0,9.55,0,5.79-.07,10.49-.09,13.78,0,1.59,0,2.84-.05,3.72,0,.4,0,.71,0,1S315.29,282.81,315.29,282.8Z" style="fill:#263238"></path><rect x="288.73" y="246.31" width="11.6" height="23.01" rx="1.5" style="fill:#f5f5f5"></rect><rect x="302.44" y="246.31" width="11.6" height="23.01" rx="1.12" style="fill:#f5f5f5"></rect><path d="M301.48,282.75c-.14,0-.26-8.37-.26-18.7s.12-18.69.26-18.69.26,8.37.26,18.69S301.62,282.75,301.48,282.75Z" style="fill:#263238"></path><rect x="288.73" y="265.62" width="11.6" height="3.7" style="fill:#263238"></rect><rect x="302.44" y="265.62" width="11.6" height="3.7" style="fill:#263238"></rect><polygon points="244.59 239.67 244.59 244.23 391.72 244.23 391.72 239.89 244.59 239.67" style="fill:#20FF5F"></polygon><path d="M391.72,275.9c0,.14-32.94.26-73.56.26s-73.57-.12-73.57-.26,32.93-.26,73.57-.26S391.72,275.75,391.72,275.9Z" style="fill:#263238"></path><path d="M391.6,283.2l-147-.3v-4.34h147Z" style="fill:#20FF5F"></path><g style="opacity:0.6000000000000001"><g style="opacity:0.5"><polygon points="289.99 269.33 298.38 269.33 300.33 266.26 300.33 253.42 289.99 269.33" style="fill:#fff"></polygon></g><g style="opacity:0.5"><polygon points="304.94 246.31 302.44 250.18 302.44 262.93 312.96 246.31 304.94 246.31" style="fill:#fff"></polygon></g></g><rect x="318.14" y="246.31" width="32.5" height="23.01" rx="1.83" style="fill:#f5f5f5"></rect><path d="M348.81,269.33a2.32,2.32,0,0,0,1-.37,1.73,1.73,0,0,0,.69-1,11.41,11.41,0,0,0,0-1.79c0-2.77,0-6.71-.08-11.56,0-1.22,0-2.5,0-3.83,0-.67,0-1.35,0-2a3.83,3.83,0,0,0-.06-1,1.58,1.58,0,0,0-1.35-1.17c-.31,0-.72,0-1.08,0h-7l-21,0a1.59,1.59,0,0,0-1.57,1.49v2.73c0,1.81,0,3.6,0,5.35,0,3.51,0,6.9,0,10.13,0,.4,0,.8,0,1.2a1.63,1.63,0,0,0,.31,1,1.67,1.67,0,0,0,.82.59,4.12,4.12,0,0,0,1.08.07H325l8,0,11.56.09,3.14,0,.82,0,.28,0a.9.9,0,0,1-.28,0l-.82,0-3.14.05-11.56.08-8,0-4.45,0H320a2.41,2.41,0,0,1-.64-.09,2.1,2.1,0,0,1-1.06-.75,2.14,2.14,0,0,1-.4-1.25v-1.2c0-3.23,0-6.62,0-10.13V248a2.1,2.1,0,0,1,2.09-2l21,0h7c.39,0,.71,0,1.13,0a2.07,2.07,0,0,1,1.71,1.49,4.25,4.25,0,0,1,.07,1.1c0,.69,0,1.37,0,2,0,1.33,0,2.61,0,3.83,0,4.85-.07,8.79-.09,11.56a11.63,11.63,0,0,1-.08,1.83,1.9,1.9,0,0,1-.78,1.09,1.84,1.84,0,0,1-.78.28A1,1,0,0,1,348.81,269.33Z" style="fill:#263238"></path><path d="M318.14,265.62h32.5a0,0,0,0,1,0,0v2.87a.83.83,0,0,1-.83.83H319a.83.83,0,0,1-.83-.83v-2.87A0,0,0,0,1,318.14,265.62Z" style="fill:#263238"></path><g style="opacity:0.6000000000000001"><polygon points="337.37 246.31 322.42 269.33 330.81 269.33 345.39 246.31 337.37 246.31" style="fill:#fff"></polygon></g><rect x="353.33" y="246.31" width="32.5" height="23.01" rx="1.55" style="fill:#f5f5f5"></rect><path d="M384.28,269.33a1.91,1.91,0,0,0,1-.42,1.49,1.49,0,0,0,.5-1.13c0-.54,0-1.15,0-1.83,0-2.78-.05-6.73-.09-11.61,0-1.22,0-2.51,0-3.84,0-.67,0-1.36,0-2.05a3.77,3.77,0,0,0-.06-1,1.41,1.41,0,0,0-.55-.72,1.52,1.52,0,0,0-.93-.22H376l-21.09,0a1.32,1.32,0,0,0-1,.49,1.47,1.47,0,0,0-.25.52,4.1,4.1,0,0,0,0,.64v8.13c0,3.52,0,6.93,0,10.17v1.21a1.31,1.31,0,0,0,.34.93,1.28,1.28,0,0,0,.87.43h5.61l8,0,11.61.09,3.16,0,.82,0,.28,0a.9.9,0,0,1-.28,0l-.82,0-3.16.05-11.61.08-8,0-4.47,0h-1.17a1.82,1.82,0,0,1-1.19-.57,1.84,1.84,0,0,1-.47-1.25v-1.21c0-3.24,0-6.65,0-10.17,0-1.77,0-3.56,0-5.38v-2.75a3.37,3.37,0,0,1,.05-.75,1.89,1.89,0,0,1,.34-.73,1.84,1.84,0,0,1,1.42-.69l21.09,0h8.11a2,2,0,0,1,1.16.3,1.76,1.76,0,0,1,.72,1,4.37,4.37,0,0,1,.08,1.11c0,.69,0,1.38,0,2.05,0,1.33,0,2.62,0,3.84,0,4.88-.06,8.83-.08,11.61,0,.68,0,1.29,0,1.83a1.62,1.62,0,0,1-.59,1.21A1.3,1.3,0,0,1,384.28,269.33Z" style="fill:#263238"></path><path d="M353.33,265.62h32.5a0,0,0,0,1,0,0v3.15a.55.55,0,0,1-.55.55H353.89a.55.55,0,0,1-.55-.55v-3.15A0,0,0,0,1,353.33,265.62Z" style="fill:#263238"></path><g style="opacity:0.6000000000000001"><polygon points="372.57 246.31 357.62 269.33 366 269.33 380.59 246.31 372.57 246.31" style="fill:#fff"></polygon></g><rect x="251.55" y="246.31" width="32.5" height="23.01" rx="2.46" style="fill:#f5f5f5"></rect><path d="M281.58,269.33a3.34,3.34,0,0,0,1-.29,2.44,2.44,0,0,0,1.33-2.51c0-2.74-.05-6.64-.08-11.44,0-1.21,0-2.47,0-3.79,0-.66,0-1.33,0-2a4.56,4.56,0,0,0-.05-1,2.14,2.14,0,0,0-.41-.86,2.18,2.18,0,0,0-1.69-.89h-6.89l-20.78,0a2.23,2.23,0,0,0-2,1.24,2.43,2.43,0,0,0-.22,1.21v1.35c0,1.79,0,3.56,0,5.3,0,3.48,0,6.83,0,10,0,.4,0,.79,0,1.19a2.45,2.45,0,0,0,.26,1,2.22,2.22,0,0,0,1.64,1.16c1.44.06,3,0,4.36,0l7.91,0,11.44.09,3.11,0,.81,0,.27,0a.8.8,0,0,1-.27,0l-.81,0-3.11.05-11.44.08-7.91,0c-1.43,0-2.85,0-4.43,0a2.71,2.71,0,0,1-2-1.39,3,3,0,0,1-.31-1.24V265.7c0-3.2,0-6.55,0-10V249a2.94,2.94,0,0,1,.27-1.44,2.75,2.75,0,0,1,2.45-1.53l20.78,0h4.67l2.24,0a2.64,2.64,0,0,1,2,1.07,2.68,2.68,0,0,1,.47,1,4.49,4.49,0,0,1,.06,1.08c0,.69,0,1.36,0,2,0,1.32,0,2.58,0,3.79,0,4.8-.07,8.7-.09,11.44a2.81,2.81,0,0,1-.45,1.76,2.6,2.6,0,0,1-1,.85A2,2,0,0,1,281.58,269.33Z" style="fill:#263238"></path><path d="M251.55,265.62H284a0,0,0,0,1,0,0v1.82a1.88,1.88,0,0,1-1.88,1.88H253.43a1.88,1.88,0,0,1-1.88-1.88v-1.82A0,0,0,0,1,251.55,265.62Z" style="fill:#263238"></path><g style="opacity:0.6000000000000001"><polygon points="270.78 246.31 255.83 269.33 264.22 269.33 278.8 246.31 270.78 246.31" style="fill:#fff"></polygon></g><rect x="541.62" y="241.41" width="10.48" height="41.78" transform="translate(1093.72 524.61) rotate(180)" style="fill:#455a64"></rect><g style="opacity:0.2"><rect x="541.62" y="241.41" width="10.48" height="41.78" transform="translate(1093.72 524.61) rotate(180)"></rect></g><path d="M680.58,282.91a8,8,0,0,0,5.62-2.28c1.36-1.32,2.71-2.9,2.55-3.8a91.92,91.92,0,0,0-4.33-12.66c-1.92-4.48-12.32-23.25-16-26.1a16.64,16.64,0,0,0-5.15-2.36,32.51,32.51,0,0,0-9.35-1.32H549.57a26.22,26.22,0,0,0-1.92,4.48c-.16,1.12-.07,39.4-.07,39.4v4.64Z" style="fill:#e0e0e0"></path><path d="M664.3,242.86,678,266.49a3.05,3.05,0,0,1-2.75,4.54H547.58V239.9l111.06-.24A6.54,6.54,0,0,1,664.3,242.86Z" style="fill:#455a64"></path><path d="M625.84,282.81h27.61v-35a2.54,2.54,0,0,0-2.53-2.54H628.37a2.54,2.54,0,0,0-2.53,2.54Z" style="fill:#455a64"></path><path d="M625.84,282.81a1,1,0,0,1,0-.31c0-.25,0-.56,0-1,0-.88,0-2.12,0-3.7,0-3.27-.06-7.95-.09-13.72,0-2.91,0-6.09,0-9.51,0-1.71,0-3.48,0-5.3v-1.38a2.76,2.76,0,0,1,2.92-2.86H651a2.74,2.74,0,0,1,.89.16,2.81,2.81,0,0,1,1.4,1.12,2.68,2.68,0,0,1,.43,1.31c0,.46,0,.85,0,1.28v7.43c0,3.24,0,6.4,0,9.46,0,6.12,0,11.83,0,17V283h-.22l-20.14-.11-5.55-.06-1.44,0a3.91,3.91,0,0,1-.48,0l.52,0,1.49,0,5.6-.06,20-.11-.21.22c0-5.16,0-10.87,0-17,0-3.06,0-6.22,0-9.46,0-1.63,0-3.27,0-4.93v-2.5c0-.41,0-.86,0-1.24a2.26,2.26,0,0,0-.35-1.07,2.33,2.33,0,0,0-1.14-.91,4.41,4.41,0,0,0-1.53-.14h-9.61l-12,0a2.32,2.32,0,0,0-2.46,2.38v1.37c0,1.8,0,3.55,0,5.25,0,3.39,0,6.55,0,9.44,0,5.77-.07,10.45-.09,13.72,0,1.61,0,2.87,0,3.76,0,.41,0,.74,0,1S625.84,282.8,625.84,282.81Z" style="fill:#263238"></path><rect x="640.8" y="246.32" width="11.6" height="23.01" rx="1.17" transform="translate(1293.19 515.66) rotate(180)" style="fill:#f5f5f5"></rect><rect x="627.08" y="246.32" width="11.6" height="23.01" rx="1.4" transform="translate(1265.77 515.66) rotate(180)" style="fill:#f5f5f5"></rect><path d="M639.65,282.76c-.15,0-.27-8.37-.27-18.7s.12-18.7.27-18.7.26,8.37.26,18.7S639.79,282.76,639.65,282.76Z" style="fill:#263238"></path><rect x="640.8" y="265.63" width="11.6" height="3.7" transform="translate(1293.19 534.97) rotate(180)" style="fill:#263238"></rect><rect x="627.09" y="265.63" width="11.6" height="3.7" transform="translate(1265.77 534.97) rotate(180)" style="fill:#263238"></rect><path d="M665.09,244.24H547.58V239.9l110.89-.23a7.33,7.33,0,0,1,5,2.13Z" style="fill:#20FF5F"></path><path d="M671.21,241.21s-1,.55-.36,1.91c.54,1.15,6.69,9.93,9.62,15.91s4.59,10.3,4.59,10.3h1.36s-1.78-4.65-2.82-6.92c-1.17-2.53-4.6-8.83-7.83-14.21Z" style="fill:#ebebeb"></path><path d="M547.58,275.91c0-.15,30.89-.26,69-.26s69,.11,69,.26-30.89.26-69,.26S547.58,276.05,547.58,275.91Z" style="fill:#263238"></path><path d="M547.58,282.91l133,.29a10.51,10.51,0,0,0,7.6-4.93H547.58Z" style="fill:#20FF5F"></path><path d="M656,234.45a2.12,2.12,0,0,1,.63.08,15.67,15.67,0,0,1,1.76.46,21.57,21.57,0,0,1,6,2.9,13.69,13.69,0,0,1,1.74,1.4,19,19,0,0,1,1.57,1.84c1,1.32,2,2.78,3,4.34,2,3.13,4.15,6.62,6.3,10.35s3.82,7.48,5.32,10.89a52.89,52.89,0,0,1,3.33,9.33,10,10,0,0,1,.15,1,2.35,2.35,0,0,1,0,.53,1.39,1.39,0,0,1-.09.5,5,5,0,0,1-1,1.56,15.16,15.16,0,0,1-2.16,1.92c-.63.47-1.14.8-1.5,1a2.27,2.27,0,0,1-.55.3,3.87,3.87,0,0,1,.5-.39c.33-.24.82-.6,1.43-1.09a16.39,16.39,0,0,0,2.06-2,4.58,4.58,0,0,0,.89-1.46,1.3,1.3,0,0,0,.06-.44,1.76,1.76,0,0,0,0-.46c-.06-.33-.07-.66-.16-1A56.52,56.52,0,0,0,682,266.9c-1.52-3.38-3.28-7.07-5.34-10.83s-4.24-7.21-6.24-10.34c-1-1.56-2-3-3-4.34a17.29,17.29,0,0,0-1.52-1.81,14.06,14.06,0,0,0-1.66-1.39,23,23,0,0,0-5.87-3c-.74-.26-1.33-.43-1.72-.54A4.45,4.45,0,0,1,656,234.45Z" style="fill:#263238"></path><path d="M686.42,269.33s-.11.05-.34,0a2,2,0,0,1-.93-.35,2.11,2.11,0,0,1-.51-.52,6.65,6.65,0,0,1-.39-.75l-.87-1.83c-.65-1.38-1.39-3-2.21-4.75a57.39,57.39,0,0,0-2.92-5.71c-2.29-3.94-4.55-7.4-6.13-9.93-.4-.64-.75-1.21-1-1.73a2.82,2.82,0,0,1-.52-1.48,1.2,1.2,0,0,1,.37-.92c.16-.16.28-.2.29-.18s-.09.08-.21.25a1.23,1.23,0,0,0-.25.85,2.72,2.72,0,0,0,.57,1.33q.49.77,1.11,1.68c1.66,2.48,4,5.91,6.27,9.87a51.81,51.81,0,0,1,2.9,5.76l2.12,4.82.79,1.85a2.61,2.61,0,0,0,.77,1.23A2.54,2.54,0,0,0,686.42,269.33Z" style="fill:#263238"></path><path d="M664.3,242.86a7.72,7.72,0,0,0-1.51-1.69,6.67,6.67,0,0,0-2.45-1.22,15,15,0,0,0-3.79-.19l-24.64.12-84.33.27.25-.25c0,10,0,20.43,0,31.13l-.26-.26h6.2l109.76.08,10,0a17.5,17.5,0,0,0,2.31-.06,3,3,0,0,0,1.79-1.1,2.87,2.87,0,0,0,.59-2,4.27,4.27,0,0,0-.77-1.88c-2.78-4.84-5.18-9-7.14-12.4l-4.5-7.85c-.5-.89-.89-1.57-1.15-2.05s-.38-.71-.38-.71.15.23.42.68l1.2,2c1.06,1.79,2.6,4.42,4.58,7.79s4.41,7.55,7.22,12.36a4.51,4.51,0,0,1,.82,2,3.18,3.18,0,0,1-.64,2.17,3.31,3.31,0,0,1-2,1.22,17.12,17.12,0,0,1-2.37.08l-10,0-109.76.08h-6.46V271c0-10.7,0-21.13,0-31.13v-.25h.25l84.33-.09,24.64,0a15.23,15.23,0,0,1,3.82.24,6.68,6.68,0,0,1,2.48,1.28,6.27,6.27,0,0,1,1.15,1.27A4.87,4.87,0,0,1,664.3,242.86Z" style="fill:#263238"></path><g style="opacity:0.30000000000000004"><path d="M661,244.24v17.64l-7.52,3.58V271h21.79a3.1,3.1,0,0,0,3.15-2.75h0a2.79,2.79,0,0,0-.27-1.46l-13-22.58Z"></path></g><g style="opacity:0.6000000000000001"><g style="opacity:0.5"><polygon points="651.13 269.34 642.75 269.34 640.8 266.26 640.8 253.43 651.13 269.34" style="fill:#fff"></polygon></g><g style="opacity:0.5"><polygon points="636.18 246.32 638.69 250.18 638.69 262.94 628.16 246.32 636.18 246.32" style="fill:#fff"></polygon></g></g><rect x="590.49" y="246.32" width="32.5" height="23.01" rx="1.95" style="fill:#f5f5f5"></rect><path d="M592.44,269.33a.77.77,0,0,1-.28,0,1.88,1.88,0,0,1-.79-.26,2,2,0,0,1-.85-1,7,7,0,0,1-.13-1.83c0-2.76,0-6.69-.08-11.53,0-1.22,0-2.5,0-3.83,0-.66,0-1.34,0-2a4.63,4.63,0,0,1,.07-1.09,2.1,2.1,0,0,1,.58-1,2.21,2.21,0,0,1,1.05-.57,6.45,6.45,0,0,1,1.14-.05h7l21,0a2.21,2.21,0,0,1,2.18,1.88c0,1,0,1.85,0,2.77,0,1.81,0,3.6,0,5.35,0,3.5,0,6.88,0,10.11,0,.4,0,.8,0,1.2a2.16,2.16,0,0,1-.38,1.25,2.21,2.21,0,0,1-1,.8,2.91,2.91,0,0,1-1.22.14h-4.44l-8,0-11.54-.08-3.14-.05-.81,0a1,1,0,0,1-.28,0l.28,0,.81,0,3.14,0,11.54-.08,8,0h4.44a2.51,2.51,0,0,0,1-.13,1.7,1.7,0,0,0,.8-.63,1.79,1.79,0,0,0,.29-1v-1.2c0-3.23,0-6.61,0-10.11v-5.35c0-.88,0-1.85,0-2.69a1.71,1.71,0,0,0-1.67-1.44l-21,0h-7a7,7,0,0,0-1,0,1.73,1.73,0,0,0-.84.45,1.81,1.81,0,0,0-.47.8,3.94,3.94,0,0,0-.06,1c0,.69,0,1.37,0,2,0,1.33,0,2.61,0,3.83,0,4.84-.07,8.77-.09,11.53a7.09,7.09,0,0,0,.08,1.78,1.92,1.92,0,0,0,.76,1A2.31,2.31,0,0,0,592.44,269.33Z" style="fill:#263238"></path><path d="M591.44,265.63H622a1,1,0,0,1,1,1v2.75a0,0,0,0,1,0,0h-32.5a0,0,0,0,1,0,0v-2.75A1,1,0,0,1,591.44,265.63Z" transform="translate(1213.48 534.97) rotate(180)" style="fill:#263238"></path><g style="opacity:0.6000000000000001"><polygon points="603.75 246.32 618.7 269.34 610.32 269.34 595.73 246.32 603.75 246.32" style="fill:#fff"></polygon></g><rect x="555.3" y="246.32" width="32.5" height="23.01" rx="1.82" style="fill:#f5f5f5"></rect><path d="M557.11,269.33a.74.74,0,0,1-.28,0,1.8,1.8,0,0,1-.78-.28,1.93,1.93,0,0,1-.78-1.1,13.08,13.08,0,0,1-.07-1.83c0-2.77-.05-6.71-.09-11.56,0-1.22,0-2.5,0-3.83,0-.67,0-1.35,0-2a4.23,4.23,0,0,1,.07-1.1,2,2,0,0,1,1.71-1.48c.42,0,.75,0,1.13,0h7l21,0a2.09,2.09,0,0,1,2.08,2v8.11c0,3.51,0,6.9,0,10.13v1.2a2.08,2.08,0,0,1-.41,1.25,2,2,0,0,1-1.06.74,4.27,4.27,0,0,1-1.21.08H580.9l-8,0-11.56-.08-3.14-.05-.82,0-.28,0,.28,0,.82,0,3.14,0,11.56-.08,8,0h4.45a4.6,4.6,0,0,0,1.08-.07,1.6,1.6,0,0,0,.82-.58,1.67,1.67,0,0,0,.31-1c0-.4,0-.8,0-1.2,0-3.23,0-6.62,0-10.13,0-1.76,0-3.55,0-5.36v-2.73a1.56,1.56,0,0,0-1.56-1.49l-21,0h-7c-.36,0-.76,0-1.07,0a1.63,1.63,0,0,0-.87.38,1.58,1.58,0,0,0-.49.78,3.52,3.52,0,0,0-.06,1c0,.69,0,1.37,0,2,0,1.33,0,2.61,0,3.83,0,4.85-.06,8.79-.08,11.56a14.73,14.73,0,0,0,0,1.79,1.76,1.76,0,0,0,.69,1.05A2.17,2.17,0,0,0,557.11,269.33Z" style="fill:#263238"></path><path d="M556.12,265.63H587a.82.82,0,0,1,.82.82v2.88a0,0,0,0,1,0,0H555.3a0,0,0,0,1,0,0v-2.88A.82.82,0,0,1,556.12,265.63Z" transform="translate(1143.09 534.97) rotate(180)" style="fill:#263238"></path><g style="opacity:0.6000000000000001"><polygon points="568.56 246.32 583.51 269.34 575.12 269.34 560.53 246.32 568.56 246.32" style="fill:#fff"></polygon></g><polygon points="544.12 283.18 397.11 282.9 397.11 238.93 399.4 234.37 541.63 233.74 544.12 237.47 544.12 283.18" style="fill:#e0e0e0"></polygon><rect x="397.11" y="239.65" width="147.13" height="31.38" style="fill:#455a64"></rect><path d="M467.8,282.8H440.19V247a1.66,1.66,0,0,1,1.66-1.66h24.3A1.65,1.65,0,0,1,467.8,247Z" style="fill:#455a64"></path><path d="M467.8,282.8s0-.13,0-.35,0-.58,0-1c0-.9,0-2.17,0-3.78,0-3.3-.06-8-.1-13.81,0-2.9,0-6.08,0-9.5,0-1.7,0-3.47,0-5.28,0-.46,0-.91,0-1.37V247a1.47,1.47,0,0,0-.11-.59,1.41,1.41,0,0,0-.86-.81,5.25,5.25,0,0,0-1.35-.07h-23.4a1.38,1.38,0,0,0-1.18.64,1.67,1.67,0,0,0-.22,1.09v3.8c0,1.68,0,3.34,0,5v9.57c0,6.19,0,12,0,17.15l-.21-.21,20,.11,5.6.05,1.48,0a3,3,0,0,1,.52,0,2.23,2.23,0,0,1-.47,0l-1.45,0-5.55,0-20.14.11H440v-.21c0-5.2,0-11,0-17.15,0-3.09,0-6.29,0-9.57V247.3a2.22,2.22,0,0,1,.3-1.37,1.92,1.92,0,0,1,1.62-.88h11.32l12.08,0H466a2.2,2.2,0,0,1,.79.1,1.93,1.93,0,0,1,1.14,1.08,2.06,2.06,0,0,1,.14.77v.7c0,.47,0,.93,0,1.39,0,1.83,0,3.61,0,5.33,0,3.44,0,6.64,0,9.56,0,5.81-.08,10.51-.1,13.8,0,1.59,0,2.84,0,3.73,0,.4,0,.71,0,1A1,1,0,0,1,467.8,282.8Z" style="fill:#263238"></path><rect x="441.24" y="246.31" width="11.6" height="23.01" rx="1.06" style="fill:#f5f5f5"></rect><rect x="454.95" y="246.31" width="11.6" height="23.01" rx="1.06" style="fill:#f5f5f5"></rect><path d="M454,282.75c-.15,0-.26-8.37-.26-18.7s.11-18.69.26-18.69.26,8.37.26,18.69S454.14,282.75,454,282.75Z" style="fill:#263238"></path><rect x="441.24" y="265.62" width="11.6" height="3.7" style="fill:#263238"></rect><rect x="454.95" y="265.62" width="11.6" height="3.7" style="fill:#263238"></rect><polygon points="397.11 239.67 397.11 244.23 544.24 244.23 544.24 239.89 397.11 239.67" style="fill:#20FF5F"></polygon><path d="M544.24,275.9c0,.14-32.94.26-73.56.26s-73.57-.12-73.57-.26,32.93-.26,73.57-.26S544.24,275.75,544.24,275.9Z" style="fill:#263238"></path><path d="M544.12,283.2l-147-.3v-4.34h147Z" style="fill:#20FF5F"></path><g style="opacity:0.6000000000000001"><g style="opacity:0.5"><polygon points="442.51 269.33 450.9 269.33 452.85 266.26 452.85 253.42 442.51 269.33" style="fill:#fff"></polygon></g><g style="opacity:0.5"><polygon points="457.46 246.31 454.95 250.18 454.95 262.93 465.48 246.31 457.46 246.31" style="fill:#fff"></polygon></g></g><rect x="470.65" y="246.31" width="32.5" height="23.01" rx="2.09" style="fill:#f5f5f5"></rect><path d="M501.06,269.33a2.67,2.67,0,0,0,1-.33,2,2,0,0,0,.82-.95,4.33,4.33,0,0,0,.15-1.75c0-2.76-.05-6.68-.08-11.51,0-1.22,0-2.49,0-3.82,0-.66,0-1.34,0-2a4.51,4.51,0,0,0-.06-1,1.8,1.8,0,0,0-.45-.82,1.87,1.87,0,0,0-.81-.51,3.33,3.33,0,0,0-1-.08h-7l-20.91,0A1.84,1.84,0,0,0,471,248a6.76,6.76,0,0,0-.06,1.3V256c0,3.49,0,6.87,0,10.08v1.2A1.87,1.87,0,0,0,473,269.1h4.43l7.95,0,11.51.09,3.13,0,.81,0a1,1,0,0,1,.28,0,.84.84,0,0,1-.28,0l-.81,0-3.13.05-11.51.08-7.95,0-4.43,0a2.38,2.38,0,0,1-2.17-1.09,2.25,2.25,0,0,1-.36-1.24c0-.4,0-.8,0-1.2,0-3.21,0-6.59,0-10.08,0-1.75,0-3.53,0-5.34v-1.36a6.38,6.38,0,0,1,.08-1.42,2.35,2.35,0,0,1,2.27-1.78l20.91,0h7a3.56,3.56,0,0,1,1.15.11,2.44,2.44,0,0,1,1,.63,2.4,2.4,0,0,1,.54,1,4.63,4.63,0,0,1,.07,1.09c0,.69,0,1.37,0,2,0,1.33,0,2.6,0,3.82,0,4.83-.06,8.75-.08,11.51a4.34,4.34,0,0,1-.21,1.81,2,2,0,0,1-.91,1,1.84,1.84,0,0,1-.79.24A1,1,0,0,1,501.06,269.33Z" style="fill:#263238"></path><path d="M470.65,265.62h32.5a0,0,0,0,1,0,0v2.61a1.09,1.09,0,0,1-1.09,1.09H471.75a1.09,1.09,0,0,1-1.09-1.09v-2.61A0,0,0,0,1,470.65,265.62Z" style="fill:#263238"></path><g style="opacity:0.6000000000000001"><polygon points="489.89 246.31 474.94 269.33 483.33 269.33 497.91 246.31 489.89 246.31" style="fill:#fff"></polygon></g><rect x="505.85" y="246.31" width="32.5" height="23.01" rx="1.61" style="fill:#f5f5f5"></rect><path d="M536.74,269.33a2,2,0,0,0,1-.41,1.53,1.53,0,0,0,.54-1.11c0-.54,0-1.14,0-1.82,0-2.78,0-6.73-.08-11.6,0-1.22,0-2.51,0-3.84V248.5a3.8,3.8,0,0,0-.07-1,1.46,1.46,0,0,0-.53-.74,1.56,1.56,0,0,0-.91-.25h-8.1l-21.07,0a1.39,1.39,0,0,0-1.35,1.61v2.75c0,1.82,0,3.61,0,5.37,0,3.53,0,6.93,0,10.16v1.21a1.38,1.38,0,0,0,1.19,1.41c.33,0,.76,0,1.13,0h4.46l8,0,11.6.09,3.16,0,.82,0,.28,0a.9.9,0,0,1-.28,0l-.82,0-3.16.05-11.6.08-8,0-4.46,0c-.4,0-.74,0-1.19,0a1.84,1.84,0,0,1-1.61-1.87v-1.21c0-3.23,0-6.63,0-10.16v-8.12a2,2,0,0,1,.44-1.47,1.91,1.91,0,0,1,1.43-.66l21.07,0h8.1a1.83,1.83,0,0,1,1.15.34,1.8,1.8,0,0,1,.7,1,3.85,3.85,0,0,1,.07,1.1v2.05c0,1.33,0,2.62,0,3.84,0,4.87-.06,8.82-.08,11.6q0,1,0,1.83a1.67,1.67,0,0,1-.64,1.19,1.69,1.69,0,0,1-.76.32A1,1,0,0,1,536.74,269.33Z" style="fill:#263238"></path><path d="M505.85,265.62h32.5a0,0,0,0,1,0,0v3.09a.61.61,0,0,1-.61.61H506.46a.61.61,0,0,1-.61-.61v-3.09A0,0,0,0,1,505.85,265.62Z" style="fill:#263238"></path><g style="opacity:0.6000000000000001"><polygon points="525.09 246.31 510.13 269.33 518.52 269.33 533.11 246.31 525.09 246.31" style="fill:#fff"></polygon></g><rect x="404.06" y="246.31" width="32.5" height="23.01" rx="2.05" style="fill:#f5f5f5"></rect><path d="M434.51,269.33a2.85,2.85,0,0,0,1-.33,2,2,0,0,0,.81-1,4.8,4.8,0,0,0,.13-1.76c0-2.76,0-6.68-.08-11.51,0-1.22,0-2.5,0-3.82,0-.67,0-1.34,0-2a3.94,3.94,0,0,0-.06-1,1.68,1.68,0,0,0-.46-.82,1.74,1.74,0,0,0-.81-.49,3.45,3.45,0,0,0-1-.07H427l-20.92,0a1.81,1.81,0,0,0-1.75,1.4,9.09,9.09,0,0,0-.05,1.31V256c0,3.5,0,6.88,0,10.09v1.2a1.85,1.85,0,0,0,.29,1,1.89,1.89,0,0,0,1.79.84h4.43l8,0,11.51.09,3.14,0,.81,0,.28,0a.9.9,0,0,1-.28,0l-.81,0-3.14.05-11.51.08-8,0-4.43,0a2.38,2.38,0,0,1-2.19-1.05,2.3,2.3,0,0,1-.36-1.25c0-.39,0-.79,0-1.2,0-3.21,0-6.59,0-10.09,0-1.75,0-3.53,0-5.33v-1.36a8.91,8.91,0,0,1,.06-1.43,2.34,2.34,0,0,1,2.26-1.8l20.92,0H434a4.25,4.25,0,0,1,1.16.09,2.35,2.35,0,0,1,1,.62,2.26,2.26,0,0,1,.55,1,4.6,4.6,0,0,1,.07,1.09c0,.69,0,1.36,0,2,0,1.32,0,2.6,0,3.82,0,4.83-.06,8.75-.08,11.51a4.58,4.58,0,0,1-.19,1.82,2.13,2.13,0,0,1-.9,1,1.8,1.8,0,0,1-.78.24A1,1,0,0,1,434.51,269.33Z" style="fill:#263238"></path><path d="M404.06,265.62h32.5a0,0,0,0,1,0,0v2.65a1.06,1.06,0,0,1-1.06,1.06H405.12a1.06,1.06,0,0,1-1.06-1.06v-2.65A0,0,0,0,1,404.06,265.62Z" style="fill:#263238"></path><g style="opacity:0.6000000000000001"><polygon points="423.3 246.31 408.35 269.33 416.74 269.33 431.32 246.31 423.3 246.31" style="fill:#fff"></polygon></g><rect x="236.79" y="241.41" width="10.48" height="41.78" style="fill:#455a64"></rect><g style="opacity:0.2"><rect x="236.79" y="241.41" width="10.48" height="41.78"></rect></g><path d="M720.79,218.72c0,.15-155.18.26-346.56.26s-346.6-.11-346.6-.26,155.15-.26,346.6-.26S720.79,218.58,720.79,218.72Z" style="fill:#263238"></path><rect x="186.66" y="215.11" width="19.08" height="6.13" style="fill:#263238"></rect></g></svg>
