<svg xmlns="http://www.w3.org/2000/svg" viewBox="0 0 750 500"><g id="freepik--background-simple--inject-101"><path d="M679,185S587,48,468,28,295,61,233,108,54,190,40,265s-2,133,62,169,110,21,236,8,142,39,252,25S713,336,708,278,679,185,679,185Z" style="fill:#46E373"></path><path d="M679,185S587,48,468,28,295,61,233,108,54,190,40,265s-2,133,62,169,110,21,236,8,142,39,252,25S713,336,708,278,679,185,679,185Z" style="fill:#fff;opacity:0.7000000000000001"></path></g><g id="freepik--Window--inject-101"><path d="M623.66,33.1a5.37,5.37,0,0,0-5.08,3.66H355.39a5.39,5.39,0,1,0,0,3.45H618.58a5.38,5.38,0,1,0,5.08-7.11Z" style="opacity:0.30000000000000004"></path><g style="opacity:0.30000000000000004"><path d="M417.64,41.18c3.75,91.24,7,183.36,11,274.28l-.39,17.82s-16.87,0-25.75.88-22.64.89-32.4.89S355,331.5,355,331.5l.64-16.07c2-90.87,4.09-183,5.48-274.25" style="fill:none;stroke:#000;stroke-linejoin:round"></path><line x1="375.58" y1="300.37" x2="375.54" y2="311.12" style="fill:none;stroke:#000;stroke-linejoin:round"></line><line x1="376.5" y1="91.04" x2="375.63" y2="290.83" style="fill:none;stroke:#000;stroke-linejoin:round"></line><line x1="376.73" y1="39.16" x2="376.53" y2="85.08" style="fill:none;stroke:#000;stroke-linejoin:round"></line><line x1="391.86" y1="144.11" x2="389.85" y2="277.12" style="fill:none;stroke:#000;stroke-linejoin:round"></line><line x1="393.43" y1="40.35" x2="391.99" y2="135.79" style="fill:none;stroke:#000;stroke-linejoin:round"></line><line x1="405.99" y1="181.1" x2="406.55" y2="304.56" style="fill:none;stroke:#000;stroke-linejoin:round"></line><line x1="405.59" y1="93.43" x2="405.94" y2="170.96" style="fill:none;stroke:#000;stroke-linejoin:round"></line><line x1="405.36" y1="41.54" x2="405.55" y2="83.89" style="fill:none;stroke:#000;stroke-linejoin:round"></line></g><g style="opacity:0.30000000000000004"><path d="M553.8,41.18c-3.6,96.61-8.2,194.19-11.65,290.29,0,0,11.48,1.74,18.88,1.74h37.7a108.67,108.67,0,0,0,17.46-1.8c-1.7-96-2.85-193.62-5.83-290.23" style="fill:none;stroke:#000;stroke-linejoin:round"></path><line x1="595.86" y1="300.37" x2="595.9" y2="311.12" style="fill:none;stroke:#000;stroke-linejoin:round"></line><line x1="594.94" y1="91.04" x2="595.82" y2="290.83" style="fill:none;stroke:#000;stroke-linejoin:round"></line><line x1="594.71" y1="39.16" x2="594.91" y2="85.08" style="fill:none;stroke:#000;stroke-linejoin:round"></line><line x1="579.58" y1="144.11" x2="581.59" y2="277.12" style="fill:none;stroke:#000;stroke-linejoin:round"></line><line x1="578.01" y1="40.35" x2="579.45" y2="135.79" style="fill:none;stroke:#000;stroke-linejoin:round"></line><line x1="565.45" y1="181.1" x2="564.89" y2="304.56" style="fill:none;stroke:#000;stroke-linejoin:round"></line><line x1="565.85" y1="93.43" x2="565.5" y2="170.96" style="fill:none;stroke:#000;stroke-linejoin:round"></line><line x1="566.08" y1="41.54" x2="565.89" y2="83.89" style="fill:none;stroke:#000;stroke-linejoin:round"></line></g><g style="opacity:0.30000000000000004"><polyline points="419.31 67.11 445.8 67.11 445.8 98.01 421.08 98.01" style="fill:none;stroke:#000;stroke-linejoin:round"></polyline><rect x="450.42" y="67.18" width="27.69" height="31" style="fill:none;stroke:#000;stroke-linejoin:round"></rect></g><g style="opacity:0.30000000000000004"><polyline points="552.49 67.11 526 67.11 526 98.01 550.72 98.01" style="fill:none;stroke:#000;stroke-linejoin:round"></polyline><rect x="493.69" y="67.18" width="27.69" height="31" transform="translate(1015.07 165.36) rotate(180)" style="fill:none;stroke:#000;stroke-linejoin:round"></rect></g><polyline points="423.69 207.53 478.81 207.53 478.81 114.88 421.26 114.88" style="fill:none;stroke:#000;stroke-linejoin:round;opacity:0.30000000000000004"></polyline><polyline points="549.7 114.1 493.35 114.1 493.35 207.53 545.45 207.53" style="fill:none;stroke:#000;stroke-linejoin:round;opacity:0.30000000000000004"></polyline><polyline points="425.5 229.51 478.81 229.51 478.81 322.65 429.54 322.65" style="fill:none;stroke:#000;stroke-linejoin:round;opacity:0.30000000000000004"></polyline><polyline points="546.06 228.73 493.35 228.73 493.35 323.51 541.41 323.51" style="fill:none;stroke:#000;stroke-linejoin:round;opacity:0.30000000000000004"></polyline><line x1="429.3" y1="329.43" x2="542.15" y2="329.43" style="fill:none;stroke:#000;stroke-linejoin:round;opacity:0.30000000000000004"></line><line x1="419.09" y1="56.38" x2="552.42" y2="56.38" style="fill:none;stroke:#000;stroke-linejoin:round;opacity:0.30000000000000004"></line><line x1="486.08" y1="57.02" x2="486.08" y2="328.15" style="fill:none;stroke:#000;stroke-linejoin:round;opacity:0.30000000000000004"></line><line x1="420.78" y1="107.72" x2="550.48" y2="107.72" style="fill:none;stroke:#000;stroke-linejoin:round;opacity:0.30000000000000004"></line></g><g id="freepik--Lamp--inject-101"><g style="opacity:0.30000000000000004"><polyline points="107.22 67.11 149.97 67.11 164.25 129.11 145.9 129.11" style="fill:none;stroke:#000;stroke-linejoin:round"></polyline><polyline points="140.88 129.11 84.69 129.11 98.97 67.11 102.92 67.11" style="fill:none;stroke:#000;stroke-linejoin:round"></polyline><line x1="127.97" y1="199.96" x2="127.97" y2="449.81" style="fill:none;stroke:#000;stroke-linejoin:round"></line><line x1="127.97" y1="188.5" x2="127.97" y2="194.23" style="fill:none;stroke:#000;stroke-linejoin:round"></line><polyline points="120.97 379.74 120.97 129.1 127.97 129.1 127.97 183.84" style="fill:none;stroke:#000;stroke-linejoin:round"></polyline><line x1="120.97" y1="449.81" x2="120.97" y2="386.54" style="fill:none;stroke:#000;stroke-linejoin:round"></line><rect x="91.49" y="449.81" width="63.37" height="7.28" style="fill:none;stroke:#000;stroke-linejoin:round"></rect></g></g><g id="freepik--plant-2--inject-101"><line x1="592.41" y1="365.94" x2="592.41" y2="255.6" style="fill:none;stroke:#5e5e5e;stroke-miterlimit:10;stroke-width:4px"></line><line x1="578.68" y1="368.17" x2="578.68" y2="215.78" style="fill:none;stroke:#5e5e5e;stroke-miterlimit:10;stroke-width:4px"></line><line x1="609.81" y1="368.91" x2="609.81" y2="315.39" style="fill:none;stroke:#5e5e5e;stroke-miterlimit:10;stroke-width:4px"></line><path d="M573.35,230.81s-2.76-5.06-11.94-16.07-47.29-40.87-47.29-40.87,21.58,11.48,28.47,17.45,16.07,13.31,16.07,13.31-25.72-28-28.47-29.84,26.17,22,26.17,22-11-22-16.53-29.38-16.07-24.8-16.07-24.8S553.6,182.6,555,184.89s7.35,12.4,7.35,12.4l-10.56-27.55,12.85,22.5s-18.36-38.11-19.28-40S558.2,170.2,558.2,170.2l-11.94-35.81,27.55,56.47-1.84-22,5,23,1.38-56.47,3.21,56s5-35.81,6-43.16S589,133,589,133s-.92,48.67-.92,50.05-.92,12.39-.92,12.39,6.89-20.66,8.72-26.17,3.68-24.33,4.6-27.09-4.6,42.24-5.06,44.08a51.19,51.19,0,0,1-3.21,8.72c-1.38,2.76,10.1-16.53,14.23-24.79s11.94-23.87,11.94-23.87-6.89,22.95-8.72,27.08-13.78,26.17-13.78,26.17,17.91-21.12,25.72-26.62,22-16.07,22-16.07-23,24.79-27.54,29.38-17.91,20.66-17.91,20.66,23-14.69,24.33-16.07,17.91-11.94,17.91-11.94-33.33,26.33-34.89,28c-13.32,14.23-17.91,21.12-20.66,23.88S577.48,234.94,573.35,230.81Z" style="fill:#46E373"></path><path d="M589.19,271.05s-2-3.57-8.44-11.36-33.45-28.91-33.45-28.91,15.26,8.12,20.13,12.34,11.37,9.42,11.37,9.42-18.19-19.81-20.13-21.11S577.18,247,577.18,247s-7.8-15.59-11.69-20.78-11.37-17.54-11.37-17.54S575.23,237,576.2,238.58s5.2,8.77,5.2,8.77l-7.47-19.49L583,243.77s-13-27-13.64-28.25,9.1,12.67,9.1,12.67L570,202.85l19.49,40-1.3-15.59,3.57,16.24,1-39.95L595,243.12s3.57-25.33,4.22-30.52,1-10.72,1-10.72-.65,34.42-.65,35.4-.65,8.77-.65,8.77l6.18-18.51c1.29-3.9,2.59-17.22,3.24-19.16s-3.24,29.87-3.57,31.17a37.1,37.1,0,0,1-2.27,6.17c-1,1.95,7.14-11.69,10.06-17.53L621,211.3s-4.87,16.24-6.17,19.16S605.11,249,605.11,249s12.66-14.94,18.18-18.84,15.59-11.36,15.59-11.36-16.24,17.53-19.49,20.78-12.66,14.62-12.66,14.62,16.24-10.4,17.21-11.37,12.67-8.44,12.67-8.44S613,253,611.93,254.17c-9.42,10.06-12.67,14.93-14.62,16.88S592.11,274,589.19,271.05Z" style="fill:#46E373"></path><path d="M605.72,317.42s-2-3.57-8.44-11.36-33.45-28.91-33.45-28.91,15.26,8.12,20.13,12.35,11.37,9.41,11.37,9.41-18.19-19.81-20.14-21.11,18.51,15.59,18.51,15.59S585.91,277.8,582,272.61s-11.36-17.54-11.36-17.54,21.11,28.26,22.08,29.88,5.2,8.77,5.2,8.77l-7.47-19.49,9.09,15.92s-13-27-13.64-28.26S595,274.56,595,274.56l-8.44-25.33,19.49,39.94-1.3-15.59,3.57,16.24,1-39.94,2.28,39.62s3.57-25.34,4.22-30.53,1-10.72,1-10.72-.65,34.43-.65,35.4-.65,8.77-.65,8.77l6.17-18.51c1.3-3.9,2.6-17.21,3.25-19.16s-3.25,29.87-3.57,31.17a37.69,37.69,0,0,1-2.27,6.17c-1,2,7.14-11.69,10.06-17.53l8.45-16.89s-4.87,16.24-6.17,19.16-9.75,18.51-9.75,18.51,12.67-14.94,18.19-18.83,15.59-11.37,15.59-11.37-16.24,17.54-19.49,20.78-12.66,14.62-12.66,14.62,16.24-10.39,17.21-11.37,12.66-8.44,12.66-8.44-23.57,18.62-24.68,19.81c-9.41,10.06-12.66,14.94-14.61,16.88S608.64,320.35,605.72,317.42Z" style="fill:#46E373"></path><path d="M626.27,404.62c0,21.68-5.7,40.82-14.41,52.38H573.22c-8.71-11.56-14.41-30.7-14.41-52.38,0-1.89,0-3.77.13-5.62a114.76,114.76,0,0,1,1.49-14c.29-1.7.61-3.37,1-5,.3-1.36.62-2.69,1-4a78.54,78.54,0,0,1,6.36-16.65h47.62A78.54,78.54,0,0,1,622.71,376c.35,1.31.67,2.64,1,4,.36,1.63.68,3.3,1,5a114.76,114.76,0,0,1,1.49,14C626.23,400.85,626.27,402.73,626.27,404.62Z" style="fill:#fff;stroke:#263238;stroke-miterlimit:10"></path><path d="M622.71,376H562.37c-.35,1.31-.67,2.64-1,4h62.28C623.38,378.64,623.06,377.31,622.71,376Zm1.94,9H560.43a114.76,114.76,0,0,0-1.49,14h67.2A114.76,114.76,0,0,0,624.65,385Z" style="fill:#263238;stroke:#263238;stroke-miterlimit:10"></path></g><g id="freepik--plants-1--inject-101"><g style="opacity:0.30000000000000004"><path d="M215.73,95.23H192.65l-22.86,39.59,22.86,39.58h45.7l22.85-39.58L238.35,95.23H222.53M235.79,170H195.2l-20.29-35.15L195.2,99.66h40.59l20.3,35.16Z" style="fill:none;stroke:#000;stroke-linejoin:round"></path><path d="M306.76,55.55H261.05L238.2,95.13l22.85,39.59h45.71l22.85-39.59Zm8,22.74,2.06,3.57m2.09,3.62,5.58,9.65-20.3,35.16H263.61l-20.3-35.16L263.61,60H304.2l8.88,15.38" style="fill:none;stroke:#000;stroke-linejoin:round"></path><path d="M251.81,197.86l9.24,16h45.71l22.85-39.58L306.76,134.7H261.05L238.2,174.28l6.31,10.92m1.53,2.66,3,5.11m55.21,16.47H263.61l-20.3-35.16,20.3-35.15H304.2l20.3,35.15Z" style="fill:none;stroke:#000;stroke-linejoin:round"></path><polygon points="225.11 169.74 202.12 169.74 199.25 141.93 227.98 141.93 225.11 169.74" style="fill:none;stroke:#000;stroke-linejoin:round"></polygon><polyline points="203.42 141.93 193.69 130.81 204.35 136.37 204.35 130.81 203.42 118.29 210.84 134.51 214.54 117.37 215.94 128.03 222.89 108.56 221.96 130.34 230.76 122.93 224.74 132.2 235.4 127.56 228.91 136.37 240.03 135.91 227.98 141.93" style="fill:none;stroke:#000;stroke-linejoin:round"></polyline><polygon points="293.7 129.88 270.71 129.88 267.84 102.07 296.58 102.07 293.7 129.88" style="fill:none;stroke:#000;stroke-linejoin:round"></polygon><path d="M267.84,102.07a30.35,30.35,0,0,1-4.32-1.52c-.75-.5,0-1.74,0-1.74l-1-1.5,2.24-.75-1-3,1.25-.25-.75-3.74,2-.5.5-2.24,2.74-.25,1-2,2,.25,1-1.74,2.74-.5,1.25.25L280,82.1l.5,1.24L284,82.1l.25,2,2-1s-.25,1.24.5,1.24a8.44,8.44,0,0,0,2.49-1l.5,1.5,2-1,.75,1.25h2v1.75l2.49-.5,2.25.5-.25,2.24.74,1.25,1.75.25-.5,2-.25,1.5,1.5.25-1.75,1.49,1.75.5-2,1.75,2.5,1-2.25.75-1.24,1.5v1l-2.6-.23" style="fill:none;stroke:#000;stroke-linejoin:round"></path><polyline points="271.74 88.83 270.25 89.83 272.74 90.83 270 93.57 272.49 93.57 271.99 95.56 273.99 95.06 274.74 96.81 278.48 95.81 279.23 99.3 281.72 97.56 282.97 98.06 284.71 98.06 286.96 98.81 288.2 97.06 289.2 97.06 289.45 95.06" style="fill:none;stroke:#000;stroke-linejoin:round"></polyline><polygon points="294.63 209.59 271.64 209.59 268.77 181.79 297.5 181.79 294.63 209.59" style="fill:none;stroke:#000;stroke-linejoin:round"></polygon><path d="M293.19,181.6s-1-1,1.75-6.49,8.23-5.73,9.72-8,3.24-9.47-3.24-9.22-7.48,5.73-9,6-2.74-3.24-3.74-.25,0,5.24,1.5,6.49.25,5.23.25,5.23a21.41,21.41,0,0,1-2-4.24c-1-2.74-5.48-3-5.48-5.48s2.74-7.73-1-10.73-8.73-.25-9.23,2.25,3.49,7.23,3.49,7.23-1.74,3.74.75,5.24l6.24,3.74s-3.74-1.25-4.74-.5.25,3-1.5,3.24-.75-2.24-1.74-5-4.24-3.74-4.24-6.23.25-6-2.75-5.24-8.72,5.74-5,9,6.73,4.74,6.48,5.73-4.49-.74-4.74,1,2,2.75,5.49,3.24,4,2.75,4,2.75" style="fill:none;stroke:#000;stroke-linejoin:round"></path><path d="M281,181.85s-2.74-2-2.74-3.25,5-2,5.73-2-1.24,2-1.24,2a3.43,3.43,0,0,0,3.74.75c2-1,2.49,2.25,2.49,2.25" style="fill:none;stroke:#000;stroke-linejoin:round"></path></g></g><g id="freepik--Couch--inject-101"><rect x="192.42" y="239.5" width="159.33" height="150.94" rx="11.67" style="fill:#46E373;stroke:#263238;stroke-miterlimit:10"></rect><polygon points="200.15 304.57 209.01 371.66 197.16 371.66 200.15 304.57" style="fill:#263238;stroke:#263238;stroke-miterlimit:10"></polygon><rect x="351.75" y="239.5" width="159.33" height="150.94" rx="11.67" style="fill:#46E373;stroke:#263238;stroke-miterlimit:10"></rect><polygon points="190.04 455.22 515.7 455.22 515.7 385.69 193.01 385.69 190.04 455.22" style="fill:#46E373;stroke:#263238;stroke-miterlimit:10"></polygon><path d="M197.63,403.43S277.3,402,306.23,402s82.51,1.9,95.79,1.9,105.75.91,105.75.91l.16-8.41L195.73,393Z" style="fill:#263238;stroke:#263238;stroke-miterlimit:10"></path><path d="M196.58,398.76s223.44,3,237.11,3,73.69-1.58,73.69-1.58V372.22S352.27,375,346.33,375s-130.14-5.94-134.89-6.53-14.86,0-14.86,0Z" style="fill:#46E373;stroke:#263238;stroke-miterlimit:10"></path><rect x="505.59" y="298.33" width="44.57" height="158.67" rx="7" style="fill:#46E373;stroke:#263238;stroke-miterlimit:10"></rect><rect x="155.58" y="298.33" width="44.57" height="158.67" rx="7" style="fill:#46E373;stroke:#263238;stroke-miterlimit:10"></rect></g><g id="freepik--Floor--inject-101"><line x1="101.5" y1="457.1" x2="94.5" y2="457.1" style="fill:none;stroke:#000;stroke-linejoin:round"></line><line x1="47" y1="457" x2="679" y2="457" style="fill:none;stroke:#263238;stroke-miterlimit:10"></line></g><g id="freepik--Table--inject-101"><path d="M411.19,372.16s-3.17-.59-4-6.42c-1.42-10.25-6.43-13.16-8.57-14.08a18.87,18.87,0,0,0-4.29-1.22l6.43-2.14s1.78-.54,6.37,3.13,5.87,9.11,8.32,9.11" style="fill:#fff;stroke:#263238;stroke-miterlimit:10"></path><path d="M448.08,349.4a25.25,25.25,0,0,0,8.12-.91c3.91-1.2,8.73-.3,9.33,7.53s-6,13.54-8.43,14.44l-2.4.9v-3s4.51-5.11,5.41-9.32.61-6.32-3-6-5.71,5.11-6.31,6.62-7.53-4.52-7.23-5.72A8,8,0,0,1,448.08,349.4Z" style="fill:#fff;stroke:#263238;stroke-miterlimit:10"></path><path d="M452.24,358.09c-3.36-4.59-2.75-10.71-2.75-10.71l-14.83-.27v0l-1.15,0-1.16,0v0l-14.83.27s.61,6.12-2.75,10.71-8.26,11.63-2.14,19.89c5.12,6.92,17.12,7.18,20.88,7.09,3.75.09,15.75-.17,20.88-7.09C460.51,369.72,455.61,362.68,452.24,358.09Z" style="fill:#fff;stroke:#263238;stroke-miterlimit:10"></path><path d="M448.76,347.84a1.53,1.53,0,0,0,1.25-2.53,5.26,5.26,0,0,0-2-1.32l-14.49-5.42L419,344a5.26,5.26,0,0,0-2,1.32,1.53,1.53,0,0,0,1.25,2.53Z" style="fill:#fff;stroke:#263238;stroke-miterlimit:10"></path><circle cx="433.51" cy="336.67" r="3.98" style="fill:#fff;stroke:#263238;stroke-miterlimit:10"></circle><path d="M417,347a1.71,1.71,0,0,0,1.24.52h30.51a1.65,1.65,0,0,0,.81-.2,1,1,0,0,0,0-.17,2.51,2.51,0,0,0-2.75-2.16,3.2,3.2,0,0,1-4.51,0,3.2,3.2,0,0,1-4.51,0,3,3,0,0,0-2.26.93,3.2,3.2,0,0,0-4.51,0,3.21,3.21,0,0,0-4.52,0,3.2,3.2,0,0,0-4.51,0,3,3,0,0,0-2.26-.93A2.57,2.57,0,0,0,417,347Z" style="fill:#46E373"></path><path d="M429.27,352.11s-2.25-6.1-5.41-2c-1.24,1.6,2,3.62,3.61,5a10.6,10.6,0,0,1,2.48,3.84A9.36,9.36,0,0,0,429.27,352.11Z" style="fill:#46E373"></path><path d="M427,356.17s-2.26-6.1-5.42-2c-1.24,1.59,2,3.61,3.61,5a10.68,10.68,0,0,1,2.48,3.84A9.39,9.39,0,0,0,427,356.17Z" style="fill:#46E373"></path><path d="M425,361.81s-3.47-5.49-5.72-.86c-.88,1.81,2.73,3.11,4.56,4.11a10.6,10.6,0,0,1,3.22,3.24A9.38,9.38,0,0,0,425,361.81Z" style="fill:#46E373"></path><path d="M423.86,367.16s-5.1-4-5.69,1.09c-.23,2,3.62,2,5.67,2.36a10.67,10.67,0,0,1,4.12,2A9.41,9.41,0,0,0,423.86,367.16Z" style="fill:#46E373"></path><path d="M430.12,364.87s1.93,3.63,4.32,1.06c.94-1-1.69-2.12-3-2.9a6.51,6.51,0,0,1-2.06-2.25A4.5,4.5,0,0,0,430.12,364.87Z" style="fill:#46E373"></path><path d="M442.4,353.55s-2.3-3.4-4.41-.6c-.82,1.1,1.91,1.94,3.26,2.57a6.58,6.58,0,0,1,2.28,2A4.53,4.53,0,0,0,442.4,353.55Z" style="fill:#46E373"></path><path d="M447.35,355.63s.86-4-2.62-3.6c-1.37.17-.08,2.72.4,4.14a6.4,6.4,0,0,1,.13,3A4.49,4.49,0,0,0,447.35,355.63Z" style="fill:#46E373"></path><path d="M429.66,370.06s1.93,3.63,4.33,1.07c.93-1-1.69-2.13-3-2.91A6.51,6.51,0,0,1,429,366,4.51,4.51,0,0,0,429.66,370.06Z" style="fill:#46E373"></path><path d="M431,376.2s2.93,2.88,4.44-.29c.59-1.24-2.25-1.52-3.71-1.87a6.44,6.44,0,0,1-2.63-1.53A4.52,4.52,0,0,0,431,376.2Z" style="fill:#46E373"></path><path d="M434.15,380.83s4.26,1.73,6.22-2.38c.77-1.61-3.24-.58-5.3-.28a7.86,7.86,0,0,1-3.78-.42A3.21,3.21,0,0,0,434.15,380.83Z" style="fill:#46E373"></path><path d="M424.37,372.91s-5.76-3-5.37,2.14c.15,2,3.93,1.31,6,1.25a10.61,10.61,0,0,1,4.41,1.17A9.39,9.39,0,0,0,424.37,372.91Z" style="fill:#46E373"></path><path d="M427,378.3s-5.49-2-3.58,1.85c.75,1.51,3.51.81,5.14.68a11.13,11.13,0,0,1,3.85.68A12.09,12.09,0,0,0,427,378.3Z" style="fill:#46E373"></path><path d="M430.34,381.45s-5.65-1.22-3,1.95c1.06,1.24,3.52.37,5,.1a12.07,12.07,0,0,1,3.81.23A14.1,14.1,0,0,0,430.34,381.45Z" style="fill:#46E373"></path><path d="M447.9,369.48s2.6-2.93.87-4.51-4.54,0-4.54,0,1.51-3.39-.43-5.87-5.41-2.93-8.22-4.51-4.75-7.22-5.19-5.64,0,2.93,1.95,5,4.75,4.51,4.75,4.51-3.24-1.8-2.37,0,4.1,2.26,4.1,2.26-4.1,1.13-2.16,2a7.9,7.9,0,0,0,2.81.9s-2.38.68-1.29,2,3.45,1.35,3.45,1.35-3.89,2-5.4-.68-3-8.35-4.54-9.48c0,0,.87,2.71,1.95,5.42s2.16,6.55,3.45,7a4,4,0,0,0,2.17.22s.21.68-1.95,1.13S433.2,368.13,433,367s1.73,5.87,3.46,5.87,6.91-2.26,6.91-2.26,1.52,1.81,2.38,2a10,10,0,0,0,3.24-.45s1.52,1.13,1.95.23a5.47,5.47,0,0,0,.43-2h1.73l.22-1.81,2.59.23a15.51,15.51,0,0,0-2.59-3.62c-1.73-1.8-2.16,2.49-3.25,2.94A10.07,10.07,0,0,0,447.9,369.48Z" style="fill:#46E373"></path><path d="M451.16,358s-2.93-.67-3.83,1.13a21.63,21.63,0,0,0-1.36,3.39s1.58-2.26,3.61-2.26a4.67,4.67,0,0,1,3.16,1.13Z" style="fill:#46E373"></path><path d="M454.55,372.64s0,1.58-3.61,2a23.82,23.82,0,0,1-8.13-.9,7.9,7.9,0,0,0,5.19,4.74C451.84,379.41,455.79,376.7,454.55,372.64Z" style="fill:#46E373"></path><path d="M442.36,376.93s.45,2.71-.68,4.06a12.15,12.15,0,0,1-3.83,2.48S441.46,380.77,442.36,376.93Z" style="fill:#46E373"></path><path d="M338.71,352.32s.08-1.33-3.46-1.73-15.41-2.61-15.58-3.9-.29-2.58-.29-2.58-3.72-1.69-1.69-2.83a8.53,8.53,0,0,1,4.24-1s-2.49-2.29.34-4,4.29-.57,4.29-.57-1.85-4.12,1.58-4.57,4.83.24,4.83.24-1.25-2.89,2.18-3.34,4.09,1.2,4.09,1.2.63-1.82,3.32-1.31a4.43,4.43,0,0,1,3.4,2.61s1-2.31,4.66-1.05,1.36,3.75,1.36,3.75,4.07-2.28,6.12.06-.06,3.13-.06,3.13,5,1.46,5.31,3.6a3.44,3.44,0,0,1-1.32,3.23h0a6.21,6.21,0,0,1-5.45,4.43l-8.79.7-16.49,3" style="fill:#46E373;stroke:#263238;stroke-miterlimit:10"></path><path d="M335.25,350.59s-9.53-1.81-8.66-5.67,5.63-.39,5.63-.39-3.9-7.36-.87-7.36,5.19,4.76,5.19,4.76-3.46-7.78.44-6.92,6.92,5.63,6.92,5.63.43-4.76,2.59-3.9,1.3,4.76,1.3,4.76,2-3.34,4.49-.37-5.35,9.89-5.35,9.89" style="fill:#46E373;stroke:#263238;stroke-miterlimit:10"></path><path d="M354.19,366.93a46.55,46.55,0,0,1-.46,6.58c-.82,5.81-2.72,10.8-5.25,14.16h-15.3c-2.53-3.36-4.42-8.35-5.24-14.16a46.55,46.55,0,0,1-.46-6.58c0-.75,0-1.5,0-2.23,0-.38,0-.76.07-1.14.08-1.18.21-2.34.37-3.46l.15-.94c.07-.41.14-.82.22-1.22l.15-.69s0-.05,0-.07q.18-.81.39-1.59c.21-.78.43-1.53.68-2.26a28.61,28.61,0,0,1,1.84-4.33h18.85a28.61,28.61,0,0,1,1.84,4.33c.25.73.47,1.48.68,2.26q.21.78.39,1.59s0,.05,0,.07l.15.69c.07.4.15.81.22,1.22l.15.94c.16,1.12.29,2.28.37,3.46,0,.38.05.76.07,1.14C354.17,365.43,354.19,366.18,354.19,366.93Z" style="fill:#263238;stroke:#263238;stroke-miterlimit:10"></path><path d="M354.19,366.93a46.55,46.55,0,0,1-.46,6.58H327.94a46.55,46.55,0,0,1-.46-6.58c0-.75,0-1.5,0-2.23,0-.38,0-.76.07-1.14h26.47c0,.38.05.76.07,1.14C354.17,365.43,354.19,366.18,354.19,366.93Z" style="fill:#fff;stroke:#263238;stroke-miterlimit:10"></path><path d="M353.18,357.25H328.49s0-.05,0-.07q.18-.81.39-1.59c.21-.78.43-1.53.68-2.26H352.1c.25.73.47,1.48.68,2.26q.21.78.39,1.59S353.18,357.23,353.18,357.25Z" style="fill:#fff;stroke:#263238;stroke-miterlimit:10"></path><polygon points="293.33 393.67 290.67 456.33 294.67 456.33 305.33 393 293.33 393.67" style="fill:#fff;stroke:#263238;stroke-miterlimit:10"></polygon><polygon points="479.66 393.67 482.32 456.33 478.32 456.33 467.66 393 479.66 393.67" style="fill:#fff;stroke:#263238;stroke-miterlimit:10"></polygon><rect x="288" y="384.69" width="194.67" height="10.98" style="fill:#263238;stroke:#263238;stroke-miterlimit:10"></rect></g></svg>
