<svg xmlns="http://www.w3.org/2000/svg" viewBox="0 0 750 500"><g id="freepik--background-complete--inject-7"><path d="M91.09,342.53c-16.76-4.38-31.42-15.4-39.57-29.77a57.38,57.38,0,0,1-4.15-47.31c4.33-12,12.65-22.62,16.23-34.87,4.05-13.9,1.64-28.64-.87-42.86s-5-28.91-1.25-42.87,15.76-27.07,31.15-28.07c14.27-.92,27.45,9,33.41,21.11s6,26.08,4.6,39.38-4.1,26.58-3.25,39.92c1.73,27,17.92,52.42,16,79.41-1,14-6.81,23-16.78,33.62-8.59,9.11-22.87,15.1-35.53,12.31" style="fill:#f5f5f5"></path><path d="M96.14,476.32c-.15,0-.27-59.82-.27-133.58s.12-133.6.27-133.6.27,59.8.27,133.6S96.29,476.32,96.14,476.32Z" style="fill:#e0e0e0"></path><path d="M95.37,295.85a19.69,19.69,0,0,1-2.47-2.17c-1.47-1.39-3.46-3.36-5.56-5.6s-4-4.24-5.45-5.69A20.79,20.79,0,0,1,79.71,280a20.13,20.13,0,0,1,2.46,2.17c1.47,1.39,3.47,3.36,5.57,5.6s4,4.24,5.44,5.69A20.43,20.43,0,0,1,95.37,295.85Z" style="fill:#e0e0e0"></path><rect x="52.23" y="465.23" width="89.34" height="10.92" style="fill:#e0e0e0"></rect><path d="M97,239.88a18.35,18.35,0,0,0,5.46-2.27,15,15,0,0,0,4.38-4.4,14.86,14.86,0,0,0,2.38-7l0-.23.31.26a11.72,11.72,0,0,0-6.58,3.62,24.35,24.35,0,0,0-3.66,4.92c-.88,1.5-1.5,2.77-1.92,3.65a8.92,8.92,0,0,1-.68,1.36,7.07,7.07,0,0,1,.49-1.43A34.05,34.05,0,0,1,99,234.62a23.62,23.62,0,0,1,3.63-5.07,12.08,12.08,0,0,1,6.87-3.8l.34-.05,0,.31,0,.25a14.79,14.79,0,0,1-2.49,7.19,15,15,0,0,1-4.59,4.46,14,14,0,0,1-4.06,1.72,10.23,10.23,0,0,1-1.19.22A1.12,1.12,0,0,1,97,239.88Z" style="fill:#e0e0e0"></path><path d="M97,239.88a34.39,34.39,0,0,1,3.74-4.65,34.79,34.79,0,0,1,4.16-4.33,34.14,34.14,0,0,1-3.74,4.65A34,34,0,0,1,97,239.88Z" style="fill:#e0e0e0"></path><path d="M637.07,334.83c-17.73-4.63-33.23-16.29-41.85-31.49a60.66,60.66,0,0,1-4.39-50c4.57-12.72,13.38-23.92,17.16-36.87,4.29-14.7,1.73-30.3-.91-45.33s-5.35-30.58-1.33-45.34,16.67-28.63,32.94-29.68c15.1-1,29,9.47,35.34,22.32s6.33,27.58,4.86,41.64-4.33,28.11-3.43,42.22c1.82,28.56,18.94,55.44,16.93,84-1,14.86-7.2,24.38-17.75,35.56-9.08,9.63-24.19,16-37.57,13" style="fill:#f5f5f5"></path><path d="M642.41,476.32c-.16,0-.29-63.26-.29-141.27s.13-141.29.29-141.29.28,63.24.28,141.29S642.57,476.32,642.41,476.32Z" style="fill:#e0e0e0"></path><path d="M641.59,285.46a21.25,21.25,0,0,1-2.61-2.3c-1.55-1.47-3.66-3.54-5.89-5.92s-4.27-4.48-5.75-6a19.71,19.71,0,0,1-2.31-2.56,23.69,23.69,0,0,1,2.61,2.3c1.55,1.48,3.66,3.55,5.88,5.93s4.28,4.48,5.76,6A22.63,22.63,0,0,1,641.59,285.46Z" style="fill:#e0e0e0"></path><rect x="595.96" y="464.59" width="94.49" height="11.54" style="fill:#e0e0e0"></rect><path d="M643.3,226.27a19.39,19.39,0,0,0,5.77-2.4,15.91,15.91,0,0,0,4.63-4.66,15.57,15.57,0,0,0,2.51-7.38l0-.25.32.27a12.4,12.4,0,0,0-6.95,3.83,26.66,26.66,0,0,0-3.88,5.2c-.93,1.6-1.58,2.94-2,3.87a10.1,10.1,0,0,1-.72,1.43,7.69,7.69,0,0,1,.51-1.51,34.45,34.45,0,0,1,1.88-4,25,25,0,0,1,3.84-5.36,12.79,12.79,0,0,1,7.26-4l.36-.06,0,.33,0,.26a16,16,0,0,1-7.49,12.32A14.39,14.39,0,0,1,645,226a12.34,12.34,0,0,1-1.26.24A1.23,1.23,0,0,1,643.3,226.27Z" style="fill:#e0e0e0"></path><path d="M643.3,226.27a36.32,36.32,0,0,1,4-4.92,37.59,37.59,0,0,1,4.4-4.58,35.74,35.74,0,0,1-4,4.92A35.43,35.43,0,0,1,643.3,226.27Z" style="fill:#e0e0e0"></path><path d="M466.2,67.31c.59-4.27-5.44-7.79-10-8.16-2.16-.17-4.41.16-6.46-.56-4.44-1.54-6.21-7.28-10.55-9.11-3.24-1.36-7-.15-10.1,1.43s-6.25,3.57-9.76,3.8c-3.05.19-6.36-.94-9,.55-2,1.11-3,3.4-4.87,4.76s-4.13,1.6-6.36,1.72-4.53.14-6.55,1.07-3.71,3.07-3.29,5.26Z" style="fill:#fafafa"></path><path d="M680.87,55.88c.59-4.27-5.45-7.79-10-8.16-2.16-.17-4.41.16-6.46-.56-4.44-1.54-6.21-7.28-10.54-9.11-3.24-1.36-7-.15-10.11,1.43s-6.24,3.57-9.75,3.8c-3,.19-6.37-.94-9,.55-2,1.11-3,3.4-4.86,4.76s-4.14,1.6-6.36,1.72-4.53.14-6.56,1.07-3.7,3.07-3.28,5.26Z" style="fill:#f5f5f5"></path><path d="M568.46,90.78c.67-4.92-6.26-9-11.48-9.38-2.49-.2-5.07.18-7.42-.64-5.11-1.78-7.15-8.38-12.13-10.48-3.72-1.57-8-.17-11.62,1.65s-7.17,4.1-11.21,4.36c-3.51.22-7.31-1.08-10.38.64-2.29,1.27-3.49,3.91-5.6,5.46s-4.75,1.85-7.31,2-5.21.17-7.54,1.24-4.25,3.53-3.77,6Z" style="fill:#ebebeb"></path><path d="M196.69,60.13c.75-5.45-6.93-9.92-12.7-10.39-2.75-.22-5.61.2-8.22-.71-5.64-2-7.9-9.26-13.41-11.59-4.12-1.74-8.87-.19-12.86,1.82s-7.94,4.54-12.41,4.83c-3.88.25-8.09-1.19-11.49.7-2.53,1.42-3.86,4.33-6.19,6.05s-5.26,2-8.09,2.2-5.76.18-8.34,1.36-4.71,3.91-4.18,6.69Z" style="fill:#f5f5f5"></path></g><g id="freepik--Building--inject-7"><rect x="127.23" y="183.73" width="417.93" height="293.69" style="fill:#455a64"></rect><rect x="111.48" y="173.15" width="446.04" height="12.35" style="fill:#263238"></rect><path d="M410.63,466H300.72V194H410.63Zm-108.91-1H409.63V195H301.72Z" style="fill:#263238"></path><rect x="305.6" y="199.18" width="99.69" height="261.15" style="fill:#fafafa"></rect><polygon points="405.29 214.39 305.6 305.26 305.6 321.67 405.29 230.11 405.29 214.39" style="fill:#fff"></polygon><path d="M410.09,359.22H397.68a10,10,0,0,1-10-10V297.85a10,10,0,0,1,10-10h12.41v3H397.68a7,7,0,0,0-7,7v51.38a7,7,0,0,0,7,7h12.41Z" style="fill:#263238"></path><rect x="309.51" y="259.34" width="92.32" height="60.3" rx="2.1" style="fill:#40DF6B"></rect><path d="M396.69,317.63a6.29,6.29,0,0,0,.72-.12,3,3,0,0,0,1.68-1.21,2.81,2.81,0,0,0,.47-1.46v-1.91c0-1.39,0-3,0-4.78,0-7.2-.05-17.59-.09-30.42,0-3.21,0-6.58,0-10.08,0-.88,0-1.77,0-2.66a6,6,0,0,0-.07-1.29,3,3,0,0,0-.55-1.13c-1.13-1.47-3.25-.86-5.09-1l-24.11,0-55.25,0a2.7,2.7,0,0,0-2.55,1.81,5.09,5.09,0,0,0-.14,1.73v49.75a2.73,2.73,0,0,0,1.62,2.25,3.1,3.1,0,0,0,1.44.22H334.1l21,0,30.43.09,8.27.05,2.15,0,.73,0s-.25,0-.73,0l-2.15,0-8.27.05-30.43.08-21,0-11.7,0h-7.68a3.6,3.6,0,0,1-1.63-.26,3.17,3.17,0,0,1-1.91-2.64c0-8.5,0-17.42,0-26.67V274.2q0-3.58,0-7.22v-2.73a3.21,3.21,0,0,1,3.21-3.15l55.25,0,24.11,0h2.81a3.21,3.21,0,0,1,2.6,1.16,3.31,3.31,0,0,1,.63,1.29,6.09,6.09,0,0,1,.08,1.39v2.66c0,3.5,0,6.87,0,10.08,0,12.83-.06,23.22-.08,30.42,0,1.8,0,3.39,0,4.78,0,.69,0,1.32,0,1.91a3,3,0,0,1-2.27,2.72A2.13,2.13,0,0,1,396.69,317.63Z" style="fill:#fff"></path><path d="M315.39,264a1,1,0,1,1-1.05-1.05A1,1,0,0,1,315.39,264Z" style="fill:#fff"></path><path d="M397,264a1,1,0,1,1-1-1.05A1,1,0,0,1,397,264Z" style="fill:#fff"></path><path d="M397,264l-.22-.16-.63-.51-2.4-2L385,253.85,356.09,229h.33l-.66.55L325.8,254l-9.12,7.37-2.49,2-.66.5c-.15.12-.23.17-.24.16l.21-.2.62-.54,2.43-2.06,9-7.5,29.87-24.57.66-.55.17-.14.17.14c11.24,9.77,21.38,18.59,28.76,25l8.65,7.6,2.33,2.08.6.55A1.55,1.55,0,0,1,397,264Z" style="fill:#263238"></path><circle cx="356.25" cy="230.04" r="2.05" style="fill:#263238"></circle><path d="M323.45,279.77a5.06,5.06,0,1,1,5.06,4.78A4.79,4.79,0,0,1,323.45,279.77Zm7.95,0a2.89,2.89,0,1,0-2.89,3A2.82,2.82,0,0,0,331.4,279.77Z" style="fill:#fff"></path><path d="M343.19,278.51c0,2.05-1.55,3.33-4,3.33h-1.86v2.55h-2.14v-9.24h4C341.64,275.15,343.19,276.43,343.19,278.51Zm-2.17,0c0-1-.66-1.62-2-1.62h-1.74v3.21h1.74C340.36,280.1,341,279.51,341,278.51Z" style="fill:#fff"></path><path d="M351.86,282.68v1.71h-7.15v-9.24h7v1.72h-4.86v2h4.29v1.67h-4.29v2.14Z" style="fill:#fff"></path><path d="M362,275.15v9.24h-1.76l-4.6-5.61v5.61h-2.11v-9.24h1.77l4.59,5.61v-5.61Z" style="fill:#fff"></path><path d="M364.23,275.15h2.14v9.24h-2.14Z" style="fill:#fff"></path><path d="M377,275.15v9.24h-1.76l-4.6-5.61v5.61h-2.12v-9.24h1.77l4.6,5.61v-5.61Z" style="fill:#fff"></path><path d="M385.47,279.63h2v3.75a6.43,6.43,0,0,1-3.74,1.17,4.79,4.79,0,1,1,0-9.56,5,5,0,0,1,3.87,1.6l-1.37,1.27a3.16,3.16,0,0,0-2.39-1,3,3,0,1,0,0,5.91,3.39,3.39,0,0,0,1.66-.4Z" style="fill:#fff"></path><path d="M323.55,303.84l1.19-2.65a8.85,8.85,0,0,0,5,1.59c2.08,0,2.93-.7,2.93-1.63,0-2.84-8.82-.89-8.82-6.52,0-2.58,2.08-4.73,6.39-4.73a10.17,10.17,0,0,1,5.27,1.35l-1.09,2.66a8.58,8.58,0,0,0-4.2-1.19c-2.08,0-2.88.78-2.88,1.74,0,2.79,8.82.86,8.82,6.43,0,2.54-2.11,4.7-6.44,4.7A10.8,10.8,0,0,1,323.55,303.84Z" style="fill:#fff"></path><path d="M337.61,297.75c0-4.51,3.51-7.85,8.3-7.85s8.3,3.32,8.3,7.85-3.53,7.84-8.3,7.84S337.61,302.26,337.61,297.75Zm13,0a4.75,4.75,0,1,0-4.74,4.85A4.63,4.63,0,0,0,350.65,297.75Z" style="fill:#fff"></path><path d="M355.9,297.75c0-4.51,3.51-7.85,8.3-7.85s8.3,3.32,8.3,7.85-3.53,7.84-8.3,7.84S355.9,302.26,355.9,297.75Zm13.05,0a4.75,4.75,0,1,0-4.75,4.85A4.64,4.64,0,0,0,369,297.75Z" style="fill:#fff"></path><path d="M389.06,290.17v15.16h-2.88l-7.57-9.21v9.21h-3.46V290.17h2.9l7.54,9.2v-9.2Z" style="fill:#fff"></path><rect x="123.83" y="107.2" width="421.33" height="65.95" style="fill:#455a64"></rect><rect x="123.83" y="127.22" width="23.9" height="11.45" style="fill:#263238"></rect><rect x="173.95" y="108.72" width="23.9" height="11.45" style="fill:#263238"></rect><rect x="454.78" y="140.7" width="23.9" height="11.45" style="fill:#263238"></rect><path d="M156.48,150s0-.3,0-.83,0-1.34,0-2.3c0-2-.06-4.85-.11-8.32l.19.2-23.9.07.26-.26h0v5.88c0,1.91,0,3.77,0,5.54l-.25-.25,17.1.12,5,.07,1.35,0,.48,0a2,2,0,0,1-.42,0l-1.3,0-4.92.07-17.26.12h-.24V150c0-1.77,0-3.63,0-5.54v-5.88h0c-.06.05.49-.5.26-.27l23.9.07h.2v.19c-.05,3.52-.08,6.38-.11,8.44,0,.93,0,1.68,0,2.25A3.83,3.83,0,0,1,156.48,150Z" style="fill:#263238"></path><rect x="512.26" y="117.99" width="23.9" height="11.45" style="fill:#263238"></rect><path d="M545.16,140.89a7.4,7.4,0,0,1,0-.83c0-.58,0-1.35,0-2.3,0-2-.06-4.85-.1-8.32l.19.19-23.9.07.26-.26h0v5.89c0,1.91,0,3.76,0,5.54l-.25-.25,17.09.12,5,.07,1.35,0,.48,0a2,2,0,0,1-.42,0l-1.3,0-4.92.07-17.26.11H521v-.25c0-1.78,0-3.63,0-5.54v-5.89h0l.26-.26,23.9.07h.2v.19c0,3.51-.07,6.38-.1,8.43,0,.94,0,1.69,0,2.26A5.22,5.22,0,0,1,545.16,140.89Z" style="fill:#263238"></path><path d="M513.92,166.78a5.14,5.14,0,0,1,0-.83c0-.58,0-1.35,0-2.3,0-2-.06-4.85-.11-8.32l.2.2-23.9.06.25-.25h0v5.9c0,1.91,0,3.77,0,5.54l-.25-.25,17.1.12,5,.07,1.34,0,.49,0a2.17,2.17,0,0,1-.43,0l-1.29,0-4.93.07L490,167h-.24v-.25c0-1.77,0-3.63,0-5.54,0-1,0-1.93,0-2.92v-3h0l.27-.27,23.9.07h.19v.19c-.05,3.52-.08,6.38-.1,8.44,0,.93,0,1.68,0,2.25S513.93,166.79,513.92,166.78Z" style="fill:#263238"></path><path d="M468.54,118.64s0-.3,0-.83,0-1.34,0-2.3c0-2-.06-4.85-.11-8.31l.19.19-23.9.07.26-.26h0v5.88c0,1.92,0,3.77,0,5.54l-.25-.24,17.1.12,5,.06,1.34,0,.48,0a1.87,1.87,0,0,1-.42,0l-1.3,0-4.92.06-17.26.12h-.24v-.25c0-1.77,0-3.62,0-5.54,0-.95,0-1.93,0-2.91v-3h0c-.05.06.5-.49.26-.26l23.9.07h.2v.19c-.05,3.51-.08,6.38-.11,8.43,0,.94,0,1.69,0,2.26A3.87,3.87,0,0,1,468.54,118.64Z" style="fill:#263238"></path><path d="M224.2,150a5.52,5.52,0,0,1-.06-.87c0-.61,0-1.39,0-2.34-.05-2-.1-4.85-.12-8.24l.23.23-11.95,0c-.06,0,.49-.5.25-.26h0v6c0,1.92,0,3.73,0,5.41l-.23-.23c3.53,0,6.49.08,8.59.12l2.46.06a7.31,7.31,0,0,1,.91,0,3.79,3.79,0,0,1-.82.05l-2.4.06c-2.09,0-5.11.1-8.74.12H212V150c0-1.68,0-3.49,0-5.41v-2.95c0-.51,0-1,0-1.53v-1.53h0l.27-.27,11.95,0h.22v.22c0,3.49-.07,6.38-.12,8.38,0,.93,0,1.69-.05,2.3A5.76,5.76,0,0,1,224.2,150Z" style="fill:#263238"></path><path d="M223.49,161.43a7.4,7.4,0,0,1,0-.83c0-.58,0-1.35,0-2.3,0-2-.06-4.85-.1-8.32l.19.19-23.9.07.26-.26h0v3c0,1,0,2,0,2.92,0,1.91,0,3.76,0,5.54l-.24-.25,17.09.12,5,.07,1.35,0,.48,0a2.17,2.17,0,0,1-.43,0l-1.29,0-4.92.07-17.26.11h-.25v-.25c0-1.78,0-3.63,0-5.54V150h0l.26-.26,23.9.07h.19V150c0,3.51-.08,6.38-.1,8.43,0,.94,0,1.69-.05,2.26A5.22,5.22,0,0,1,223.49,161.43Z" style="fill:#263238"></path><path d="M376.12,119.83a37.07,37.07,0,0,0,.45-15.23c-1.94-10.18-9.87-19.61-20.13-21,.79-5.23,1.59-10.54.92-15.78s-3-10.51-7.36-13.53c-3.4-2.37-7.66-3.13-11.78-3.56-4.84-.49-9.8-.59-14.49.69s-9.12,4.08-11.52,8.31c-3.21,5.66-2.32,12.68-1.15,19.08.27,1.43.52,3-.18,4.27s-2.24,1.93-3.58,2.6a21.3,21.3,0,0,0-11.36,15.71c-.78,5.37-2.82,13.23-1,18.48H224v44.22H454.78V119.83Z" style="fill:#fff"></path><path d="M376.12,119.83l78.66-.17H455v.17c0,13.13,0,28,0,44.22v.2h-.21l-205,.06H223.7v-.26c0-15.07,0-29.84,0-44.22v-.25H224l71,0-.22.31c-1.16-3.64-.74-7.42-.26-11,.26-1.79.58-3.57.89-5.33a41.3,41.3,0,0,1,1-5.25,21.79,21.79,0,0,1,5.41-9,20.53,20.53,0,0,1,4.07-3.19c1.45-.92,3.16-1.4,4.29-2.54a3.34,3.34,0,0,0,.94-2.12,9.38,9.38,0,0,0-.19-2.41c-.3-1.63-.58-3.26-.78-4.88a30.08,30.08,0,0,1,.09-9.66,15.74,15.74,0,0,1,4.33-8.25,19.91,19.91,0,0,1,7.73-4.69c5.7-1.92,11.61-1.61,17-1a28.74,28.74,0,0,1,7.87,1.88,15.14,15.14,0,0,1,6.15,4.66,22.91,22.91,0,0,1,4.41,13.54,71.38,71.38,0,0,1-1.17,12.86l-.12-.15a21.42,21.42,0,0,1,9.69,4.09,26.05,26.05,0,0,1,6.32,6.77,29,29,0,0,1,4.64,13.65,37,37,0,0,1-.37,8.91c-.17,1-.32,1.74-.43,2.23l-.18.75.15-.75c.1-.5.24-1.24.39-2.24A37.66,37.66,0,0,0,377,108a28.94,28.94,0,0,0-4.67-13.55A25.83,25.83,0,0,0,366,87.71a21.21,21.21,0,0,0-9.58-4l-.13,0,0-.13a72.15,72.15,0,0,0,1.14-12.81,22.59,22.59,0,0,0-4.38-13.34,14.76,14.76,0,0,0-6-4.56A28.74,28.74,0,0,0,339.27,51c-5.41-.6-11.26-.89-16.87,1a19.54,19.54,0,0,0-7.57,4.61,15.36,15.36,0,0,0-4.21,8.05,29.84,29.84,0,0,0-.07,9.53c.2,1.61.48,3.22.78,4.85a9.66,9.66,0,0,1,.19,2.53,3.73,3.73,0,0,1-1,2.38,7.65,7.65,0,0,1-2.15,1.44c-.76.37-1.5.75-2.23,1.18a20.59,20.59,0,0,0-4,3.12,21.25,21.25,0,0,0-5.28,8.79,39.86,39.86,0,0,0-1,5.2c-.31,1.77-.63,3.53-.88,5.32-.48,3.54-.87,7.29.24,10.77l.1.31h-.32l-71,0,.25-.26c0,14.38,0,29.15,0,44.22l-.26-.26H249.8l205,.05-.2.21c0-16.19,0-31.09,0-44.22l.17.17Z" style="fill:#263238"></path><ellipse cx="332.94" cy="123.84" rx="29.03" ry="8.25" style="fill:#ebebeb"></ellipse><path d="M304.69,98.75c0,16.28,13.14,27.64,29.42,27.64a29.47,29.47,0,0,0,29.47-29.48Z" style="fill:#e0e0e0"></path><ellipse cx="334.09" cy="98.19" rx="29.46" ry="10.85" style="fill:#f5f5f5"></ellipse><path d="M307,102.48s24.49-14.13,54.28-.57c0,0-1.87,2.38-7.23,4.21C343,109.89,318.93,110.46,307,102.48Z" style="fill:#aa6550"></path><path d="M363.55,98.19A5.71,5.71,0,0,0,361,93.87c-2.61-2.14-7.25-4-13.16-5.1a76.8,76.8,0,0,0-21.07-.85,57.31,57.31,0,0,0-12.2,2.43,25.76,25.76,0,0,0-5.95,2.72,11.2,11.2,0,0,0-2.5,2.15,6.69,6.69,0,0,0-.86,1.39,4.51,4.51,0,0,0-.33,1.58,4.45,4.45,0,0,0,.33,1.57,5.86,5.86,0,0,0,.86,1.39,10.51,10.51,0,0,0,2.5,2.15,25.5,25.5,0,0,0,5.94,2.73,57.52,57.52,0,0,0,12.21,2.43,76.8,76.8,0,0,0,21.07-.85c5.91-1.13,10.55-3,13.16-5.1a5.75,5.75,0,0,0,2.59-4.32,3.4,3.4,0,0,1-.17,1.35,6.94,6.94,0,0,1-2.29,3.13c-2.61,2.22-7.28,4.12-13.21,5.3a75.74,75.74,0,0,1-21.19,1,58.27,58.27,0,0,1-12.33-2.42,27,27,0,0,1-6.07-2.78,11.21,11.21,0,0,1-2.61-2.26,6.77,6.77,0,0,1-.94-1.52,4.44,4.44,0,0,1,0-3.55,7.15,7.15,0,0,1,.94-1.52,11.21,11.21,0,0,1,2.62-2.25,26.13,26.13,0,0,1,6.07-2.78,57.44,57.44,0,0,1,12.32-2.42,75.64,75.64,0,0,1,21.18,1c5.94,1.17,10.61,3.08,13.22,5.3a6.94,6.94,0,0,1,2.29,3.13A3.4,3.4,0,0,1,363.55,98.19Z" style="fill:#263238"></path><path d="M327.91,57.63s.07.1.1.3a1.91,1.91,0,0,1-.08.91,4,4,0,0,1-.73,1.25,15.49,15.49,0,0,1-1.35,1.3,4,4,0,0,0-1.19,1.74,3.2,3.2,0,0,0,.43,2.32,22.52,22.52,0,0,0,1.63,2.31,5.06,5.06,0,0,1,1.09,3,2.82,2.82,0,0,1-.61,1.57,10.4,10.4,0,0,1-1.08,1.11A2.65,2.65,0,0,0,325,75.7c.22,1.73,1.67,2.8,2.44,4a4.07,4.07,0,0,1,.75,1.76,2.84,2.84,0,0,1-.18,1.45,1.42,1.42,0,0,1-.84.87,2.64,2.64,0,0,0,.65-.95,3.13,3.13,0,0,0-.68-2.92c-.4-.54-.93-1.07-1.46-1.7a4.86,4.86,0,0,1-1.16-2.42,2.52,2.52,0,0,1,.27-1.49,4.92,4.92,0,0,1,1-1.2,3.59,3.59,0,0,0,1.53-2.34,4.66,4.66,0,0,0-1-2.67,21.82,21.82,0,0,1-1.63-2.38,3.57,3.57,0,0,1-.43-2.65,4.17,4.17,0,0,1,1.36-1.9A16.61,16.61,0,0,0,327,59.89a3.83,3.83,0,0,0,.76-1.12A2.79,2.79,0,0,0,327.91,57.63Z" style="fill:#263238"></path><path d="M334.64,57.63a.67.67,0,0,1,.09.3,1.91,1.91,0,0,1-.08.91,4,4,0,0,1-.73,1.25,15.49,15.49,0,0,1-1.35,1.3,4,4,0,0,0-1.19,1.74,3.2,3.2,0,0,0,.43,2.32,22.52,22.52,0,0,0,1.63,2.31,5.06,5.06,0,0,1,1.09,3,2.82,2.82,0,0,1-.61,1.57,10.4,10.4,0,0,1-1.08,1.11,2.65,2.65,0,0,0-1.11,2.27c.22,1.73,1.67,2.8,2.44,4a4,4,0,0,1,.75,1.76,2.84,2.84,0,0,1-.18,1.45,1.42,1.42,0,0,1-.84.87,2.64,2.64,0,0,0,.65-.95,3.13,3.13,0,0,0-.68-2.92c-.4-.54-.93-1.07-1.46-1.7a4.86,4.86,0,0,1-1.16-2.42,2.52,2.52,0,0,1,.27-1.49,4.92,4.92,0,0,1,1-1.2A3.59,3.59,0,0,0,334,70.72a4.66,4.66,0,0,0-1-2.67,21.82,21.82,0,0,1-1.63-2.38A3.57,3.57,0,0,1,331,63a4.11,4.11,0,0,1,1.37-1.9,18.09,18.09,0,0,0,1.37-1.23,3.83,3.83,0,0,0,.76-1.12A3.2,3.2,0,0,0,334.64,57.63Z" style="fill:#263238"></path><path d="M341.36,57.63a.67.67,0,0,1,.09.3,1.91,1.91,0,0,1-.08.91,4,4,0,0,1-.73,1.25,15.49,15.49,0,0,1-1.35,1.3,4,4,0,0,0-1.19,1.74,3.2,3.2,0,0,0,.43,2.32,22.52,22.52,0,0,0,1.63,2.31,5.06,5.06,0,0,1,1.09,3,2.82,2.82,0,0,1-.61,1.57,10.4,10.4,0,0,1-1.08,1.11,2.65,2.65,0,0,0-1.11,2.27c.22,1.73,1.68,2.8,2.44,4a4,4,0,0,1,.75,1.76,2.84,2.84,0,0,1-.18,1.45,1.42,1.42,0,0,1-.84.87,2.64,2.64,0,0,0,.65-.95,3.13,3.13,0,0,0-.68-2.92c-.4-.54-.93-1.07-1.46-1.7A4.86,4.86,0,0,1,338,75.75a2.52,2.52,0,0,1,.27-1.49,4.92,4.92,0,0,1,1-1.2,3.59,3.59,0,0,0,1.53-2.34,4.66,4.66,0,0,0-1-2.67,21.82,21.82,0,0,1-1.63-2.38,3.57,3.57,0,0,1-.43-2.65,4.11,4.11,0,0,1,1.37-1.9,18.09,18.09,0,0,0,1.37-1.23,3.83,3.83,0,0,0,.76-1.12A3.2,3.2,0,0,0,341.36,57.63Z" style="fill:#263238"></path><path d="M358,120.5a9.54,9.54,0,0,1-4.61-1.19l1.91-3.49a5.64,5.64,0,0,0,5.41-9.89l1.91-3.49a9.61,9.61,0,0,1-1.91,17.66A9.36,9.36,0,0,1,358,120.5Z" style="fill:#e0e0e0"></path><path d="M361.53,123.94s-.13.17-.42.44a13.22,13.22,0,0,1-1.36,1.1,21.69,21.69,0,0,1-5.8,2.76,63.14,63.14,0,0,1-9.3,2,80.6,80.6,0,0,1-11.63.87,75,75,0,0,1-20.93-2.85,16.19,16.19,0,0,1-5.68-3A10,10,0,0,1,305.2,124a2.15,2.15,0,0,1-.35-.5s.53.66,1.69,1.6a16.72,16.72,0,0,0,5.66,2.8A78.88,78.88,0,0,0,333,130.63a82.76,82.76,0,0,0,11.56-.83,66.8,66.8,0,0,0,9.26-1.91,23,23,0,0,0,5.79-2.58C360.89,124.49,361.5,123.9,361.53,123.94Z" style="fill:#263238"></path><path d="M344.38,125.46a13.13,13.13,0,0,1-2.9.72,41.67,41.67,0,0,1-7.19.6,40.91,40.91,0,0,1-7.18-.66,12.18,12.18,0,0,1-2.89-.74c0-.07,1.13.14,2.95.38a56.48,56.48,0,0,0,7.13.5,55.78,55.78,0,0,0,7.12-.45A24.25,24.25,0,0,1,344.38,125.46Z" style="fill:#263238"></path><path d="M243.58,146.15c0-5.38,4.12-9.22,9.68-9.22a9.19,9.19,0,0,1,7.33,3.16l-2.65,2.44a5.76,5.76,0,0,0-4.48-2.09,5.71,5.71,0,0,0,0,11.41,5.68,5.68,0,0,0,4.48-2.11l2.65,2.44a9.17,9.17,0,0,1-7.36,3.19C247.7,155.37,243.58,151.52,243.58,146.15Z" style="fill:#263238"></path><path d="M261.86,146.15c0-5.3,4.13-9.22,9.76-9.22s9.75,3.89,9.75,9.22-4.15,9.22-9.75,9.22S261.86,151.44,261.86,146.15Zm15.33,0a5.58,5.58,0,1,0-5.57,5.7A5.44,5.44,0,0,0,277.19,146.15Z" style="fill:#263238"></path><path d="M288.6,140.54v4.72h8.25v3.31H288.6v6.49h-4.12V137.23H298v3.31Z" style="fill:#263238"></path><path d="M304.87,140.54v4.72h8.26v3.31h-8.26v6.49h-4.12V137.23h13.47v3.31Z" style="fill:#263238"></path><path d="M330.82,151.75v3.31H317V137.23h13.47v3.31h-9.37v3.87h8.28v3.21h-8.28v4.13Z" style="fill:#263238"></path><path d="M347.91,151.75v3.31h-13.8V137.23h13.47v3.31h-9.37v3.87h8.28v3.21h-8.28v4.13Z" style="fill:#263238"></path><path d="M356.75,152.82l.69-1a7.91,7.91,0,0,0,5.7,2.21c3.34,0,5.65-1.4,5.65-3.95,0-4.38-9.42-2.21-9.42-7.71,0-3.36,2.93-5.27,6.9-5.27a9.29,9.29,0,0,1,5.38,1.55l-.62,1.07a7.91,7.91,0,0,0-4.81-1.48c-3.28,0-5.55,1.5-5.55,4,0,4.46,9.42,2.34,9.42,7.69,0,3.41-3,5.25-7,5.25C360.44,155.19,357.84,154.17,356.75,152.82Z" style="fill:#263238"></path><path d="M391.66,137.23l-3.56,17.83h-1.3l1.68-8.46H376.56l-1.68,8.46h-1.3l3.57-17.83h1.29l-1.62,8.18h11.91l1.63-8.18Z" style="fill:#263238"></path><path d="M394.23,147.85a10.38,10.38,0,0,1,10.67-10.74c5.25,0,8.18,2.95,8.18,7.33a10.41,10.41,0,0,1-10.7,10.75C397.14,155.19,394.23,152.23,394.23,147.85Zm17.53-3.36c0-3.69-2.37-6.19-7-6.19-5.63,0-9.27,4.36-9.27,9.5,0,3.69,2.4,6.19,7,6.19C408.14,154,411.76,149.64,411.76,144.49Z" style="fill:#263238"></path><path d="M431.65,142.15c0,4.58-3.16,7.08-8.21,7.08h-5.32L417,155.06h-1.3l3.57-17.83h6.21C429.35,137.23,431.65,139,431.65,142.15Zm-1.33.1c0-2.5-1.78-3.85-5-3.85h-5.06l-1.94,9.66h5.09C427.8,148.06,430.32,146.1,430.32,142.25Z" style="fill:#263238"></path><path d="M440.84,134.57c-2.56,0-4.11,2.39-4.73,4.48a6.62,6.62,0,0,0-.24,3.18,3.61,3.61,0,0,0,1.8,2.53,3.7,3.7,0,0,0,3.87-.61,8.49,8.49,0,0,0,2.54-6.65,3.59,3.59,0,0,0-1.67-2.63,2.44,2.44,0,0,0-3,.41" style="fill:#aa6550"></path><path d="M442,134.18a26.19,26.19,0,0,1-1.22,3.43,12.78,12.78,0,0,1-1.58,3.3,13.52,13.52,0,0,1,1.09-3.49C441,135.54,441.85,134.08,442,134.18Z" style="fill:#fff"></path><path d="M444.92,147.52c-1.27-1.24-3.2-.78-4.51,0a4.52,4.52,0,0,0-1.63,1.47,2.51,2.51,0,0,0-.32,2.12,2.57,2.57,0,0,0,2.23,1.55,4.92,4.92,0,0,0,2.73-.71,4.76,4.76,0,0,0,1.71-1.4,2.46,2.46,0,0,0,.42-2.11,1.68,1.68,0,0,0-1.67-1.21" style="fill:#aa6550"></path><path d="M445.69,147.88a9.09,9.09,0,0,1-2.22,1.2,6,6,0,0,1-2.39.82,6.59,6.59,0,0,1,2.18-1.29C444.51,148,445.64,147.71,445.69,147.88Z" style="fill:#fff"></path><rect x="422.62" y="194.27" width="106.87" height="270.97" style="fill:#e0e0e0"></rect><path d="M529.5,465.24c0-1.18,0-28.61-.14-76.7s-.07-115.82-.11-194.27l.25.25H422.62l.27-.26c0,106.49-.06,202.68-.08,271l-.19-.18,106.88.18-106.88.18h-.18v-.18c0-68.29,0-164.48-.08-271V194H529.75v.25c0,78.52-.09,146.29-.12,194.44,0,24,0,43.18-.07,56.32,0,6.56,0,11.61,0,15,0,1.7,0,3,0,3.87S529.5,465.24,529.5,465.24Z" style="fill:#263238"></path><path d="M529.08,201.76c0,.14-23.81.26-53.17.26s-53.16-.12-53.16-.26,23.8-.26,53.16-.26S529.08,201.61,529.08,201.76Z" style="fill:#263238"></path><path d="M529.08,209.91c0,.14-23.81.26-53.17.26s-53.16-.12-53.16-.26,23.8-.26,53.16-.26S529.08,209.76,529.08,209.91Z" style="fill:#263238"></path><path d="M529.08,218.06c0,.14-23.81.26-53.17.26s-53.16-.12-53.16-.26,23.8-.26,53.16-.26S529.08,217.91,529.08,218.06Z" style="fill:#263238"></path><path d="M529.08,226.21c0,.14-23.81.26-53.17.26s-53.16-.12-53.16-.26,23.8-.26,53.16-.26S529.08,226.06,529.08,226.21Z" style="fill:#263238"></path><path d="M529.08,234.36c0,.14-23.81.26-53.17.26s-53.16-.12-53.16-.26,23.8-.26,53.16-.26S529.08,234.21,529.08,234.36Z" style="fill:#263238"></path><path d="M529.08,242.51c0,.14-23.81.26-53.17.26s-53.16-.12-53.16-.26,23.8-.26,53.16-.26S529.08,242.36,529.08,242.51Z" style="fill:#263238"></path><path d="M529.08,250.66c0,.14-23.81.26-53.17.26s-53.16-.12-53.16-.26,23.8-.26,53.16-.26S529.08,250.51,529.08,250.66Z" style="fill:#263238"></path><path d="M529.08,258.81c0,.14-23.81.26-53.17.26s-53.16-.12-53.16-.26,23.8-.26,53.16-.26S529.08,258.66,529.08,258.81Z" style="fill:#263238"></path><path d="M529.08,267c0,.14-23.81.26-53.17.26s-53.16-.12-53.16-.26,23.8-.26,53.16-.26S529.08,266.81,529.08,267Z" style="fill:#263238"></path><path d="M529.08,275.11c0,.14-23.81.26-53.17.26s-53.16-.12-53.16-.26,23.8-.26,53.16-.26S529.08,275,529.08,275.11Z" style="fill:#263238"></path><path d="M529.08,283.26c0,.14-23.81.26-53.17.26s-53.16-.12-53.16-.26,23.8-.26,53.16-.26S529.08,283.11,529.08,283.26Z" style="fill:#263238"></path><path d="M529.08,291.41c0,.14-23.81.26-53.17.26s-53.16-.12-53.16-.26,23.8-.26,53.16-.26S529.08,291.26,529.08,291.41Z" style="fill:#263238"></path><path d="M529.08,299.56c0,.14-23.81.26-53.17.26s-53.16-.12-53.16-.26,23.8-.26,53.16-.26S529.08,299.41,529.08,299.56Z" style="fill:#263238"></path><path d="M529.08,307.71c0,.14-23.81.26-53.17.26s-53.16-.12-53.16-.26,23.8-.26,53.16-.26S529.08,307.56,529.08,307.71Z" style="fill:#263238"></path><path d="M529.08,315.86c0,.14-23.81.26-53.17.26s-53.16-.12-53.16-.26,23.8-.26,53.16-.26S529.08,315.71,529.08,315.86Z" style="fill:#263238"></path><path d="M529.08,324c0,.14-23.81.26-53.17.26s-53.16-.12-53.16-.26,23.8-.26,53.16-.26S529.08,323.86,529.08,324Z" style="fill:#263238"></path><path d="M529.08,332.16c0,.14-23.81.26-53.17.26s-53.16-.12-53.16-.26,23.8-.26,53.16-.26S529.08,332,529.08,332.16Z" style="fill:#263238"></path><path d="M529.08,340.31c0,.14-23.81.26-53.17.26s-53.16-.12-53.16-.26,23.8-.26,53.16-.26S529.08,340.17,529.08,340.31Z" style="fill:#263238"></path><path d="M529.08,348.46c0,.14-23.81.26-53.17.26s-53.16-.12-53.16-.26,23.8-.26,53.16-.26S529.08,348.32,529.08,348.46Z" style="fill:#263238"></path><path d="M529.08,356.61c0,.14-23.81.26-53.17.26s-53.16-.12-53.16-.26,23.8-.26,53.16-.26S529.08,356.47,529.08,356.61Z" style="fill:#263238"></path><path d="M529.08,364.76c0,.14-23.81.26-53.17.26s-53.16-.12-53.16-.26,23.8-.26,53.16-.26S529.08,364.62,529.08,364.76Z" style="fill:#263238"></path><path d="M529.08,372.91c0,.14-23.81.26-53.17.26s-53.16-.12-53.16-.26,23.8-.26,53.16-.26S529.08,372.77,529.08,372.91Z" style="fill:#263238"></path><path d="M529.08,381.06c0,.14-23.81.26-53.17.26s-53.16-.12-53.16-.26,23.8-.26,53.16-.26S529.08,380.92,529.08,381.06Z" style="fill:#263238"></path><path d="M529.08,389.21c0,.14-23.81.26-53.17.26s-53.16-.12-53.16-.26,23.8-.26,53.16-.26S529.08,389.07,529.08,389.21Z" style="fill:#263238"></path><path d="M529.08,397.36c0,.14-23.81.26-53.17.26s-53.16-.12-53.16-.26,23.8-.26,53.16-.26S529.08,397.22,529.08,397.36Z" style="fill:#263238"></path><path d="M529.08,405.51c0,.14-23.81.26-53.17.26s-53.16-.12-53.16-.26,23.8-.26,53.16-.26S529.08,405.37,529.08,405.51Z" style="fill:#263238"></path><path d="M529.08,413.66c0,.14-23.81.26-53.17.26s-53.16-.12-53.16-.26,23.8-.26,53.16-.26S529.08,413.52,529.08,413.66Z" style="fill:#263238"></path><path d="M529.08,421.81c0,.14-23.81.26-53.17.26s-53.16-.12-53.16-.26,23.8-.26,53.16-.26S529.08,421.67,529.08,421.81Z" style="fill:#263238"></path><path d="M529.08,430c0,.14-23.81.26-53.17.26s-53.16-.12-53.16-.26,23.8-.26,53.16-.26S529.08,429.82,529.08,430Z" style="fill:#263238"></path><path d="M529.08,438.11c0,.14-23.81.26-53.17.26s-53.16-.12-53.16-.26,23.8-.26,53.16-.26S529.08,438,529.08,438.11Z" style="fill:#263238"></path><path d="M529.08,446.26c0,.14-23.81.26-53.17.26s-53.16-.12-53.16-.26,23.8-.26,53.16-.26S529.08,446.12,529.08,446.26Z" style="fill:#263238"></path><path d="M529.08,454.41c0,.14-23.81.26-53.17.26s-53.16-.12-53.16-.26,23.8-.26,53.16-.26S529.08,454.27,529.08,454.41Z" style="fill:#263238"></path><path d="M529.08,462.56c0,.15-23.81.26-53.17.26s-53.16-.11-53.16-.26,23.8-.26,53.16-.26S529.08,462.42,529.08,462.56Z" style="fill:#263238"></path><rect x="443.21" y="285.61" width="75.57" height="27.89" transform="matrix(0.8, -0.6, 0.6, 0.8, -83.73, 346.23)" style="fill:#40DF6B"></rect><path d="M461.52,315a4.21,4.21,0,0,1,.91-6.08A4.26,4.26,0,0,1,466,308l-.28,1.64a2.6,2.6,0,0,0-2.21.51,2.62,2.62,0,1,0,3.22,4.14,2.61,2.61,0,0,0,1-2l1.65.14a4.51,4.51,0,0,1-7.88,2.61Z" style="fill:#fafafa"></path><path d="M466.19,306.19l1.5-1.16,4.08,5.25,3.25-2.52,1,1.22-4.75,3.69Z" style="fill:#fafafa"></path><path d="M473.77,305.49a4.5,4.5,0,1,1,6.15.59A4.26,4.26,0,0,1,473.77,305.49Zm5.57-4.33a2.57,2.57,0,1,0-.41,3.64A2.51,2.51,0,0,0,479.34,301.16Z" style="fill:#fafafa"></path><path d="M483.5,302.09l-.37-1.52a4.77,4.77,0,0,0,2.66-1c.89-.69,1-1.26.71-1.66-.94-1.21-4.06,2.55-5.93.14-.86-1.1-.68-2.71,1.16-4.14a5.53,5.53,0,0,1,2.69-1.17l.43,1.5a4.61,4.61,0,0,0-2.19.88c-.89.69-1,1.29-.66,1.7.93,1.19,4.05-2.56,5.9-.18.85,1.08.67,2.7-1.18,4.14A5.83,5.83,0,0,1,483.5,302.09Z" style="fill:#fafafa"></path><path d="M494.48,292.64l.94,1.21-5,3.9-5-6.48,4.89-3.8.94,1.2-3.41,2.65,1.1,1.4,3-2.34.91,1.17-3,2.34,1.17,1.5Z" style="fill:#fafafa"></path><path d="M491.57,286.44l2.95-2.28c2.11-1.65,4.56-1.5,6.08.46s1.07,4.36-1.05,6l-2.94,2.29Zm6.95,3a2.55,2.55,0,1,0-3.12-4L494,286.51l3.12,4Z" style="fill:#fafafa"></path><rect x="141.43" y="194.54" width="152.15" height="270.97" style="fill:#fff"></rect><path d="M162.63,218v13H166s-5.61,4.63-6.09,9h20s0-3.31-6.12-8.92h3.37V218Z" style="fill:#263238"></path><path d="M169.94,223.52c-.14,0-.26-6.6-.26-14.73s.12-14.73.26-14.73.26,6.59.26,14.73S170.09,223.52,169.94,223.52Z" style="fill:#263238"></path><path d="M160.89,251.5a17,17,0,0,1,1.47-4,18,18,0,0,1,1.95-3.83,17.9,17.9,0,0,1-1.47,4A18.59,18.59,0,0,1,160.89,251.5Z" style="fill:#263238"></path><path d="M169.39,255.22a32.94,32.94,0,0,1-.26-5.79,32.85,32.85,0,0,1,.26-5.79,31.74,31.74,0,0,1,.26,5.79A31.83,31.83,0,0,1,169.39,255.22Z" style="fill:#263238"></path><path d="M179,249.48a13.45,13.45,0,0,1-2.45-2.72,13.12,13.12,0,0,1-2-3,25.77,25.77,0,0,1,4.49,5.76Z" style="fill:#263238"></path><path d="M207.89,218v13h3.41s-5.6,4.63-6.09,9h20s0-3.31-6.11-8.92h3.36V218Z" style="fill:#263238"></path><path d="M215.2,223.52c-.14,0-.26-6.6-.26-14.73s.12-14.73.26-14.73.26,6.59.26,14.73S215.35,223.52,215.2,223.52Z" style="fill:#263238"></path><path d="M206.15,251.5a17.54,17.54,0,0,1,1.47-4,18,18,0,0,1,1.95-3.83,17.32,17.32,0,0,1-1.47,4A18.59,18.59,0,0,1,206.15,251.5Z" style="fill:#263238"></path><path d="M214.65,255.22a32.94,32.94,0,0,1-.26-5.79,32.85,32.85,0,0,1,.26-5.79,31.74,31.74,0,0,1,.26,5.79A31.83,31.83,0,0,1,214.65,255.22Z" style="fill:#263238"></path><path d="M224.26,249.48a13.45,13.45,0,0,1-2.45-2.72,13.12,13.12,0,0,1-2-3,25.77,25.77,0,0,1,4.49,5.76Z" style="fill:#263238"></path><path d="M253.15,218v13h3.41s-5.6,4.63-6.09,9h20s0-3.31-6.11-8.92h3.37V218Z" style="fill:#263238"></path><path d="M260.46,223.52c-.14,0-.26-6.6-.26-14.73s.12-14.73.26-14.73.26,6.59.26,14.73S260.61,223.52,260.46,223.52Z" style="fill:#263238"></path><path d="M251.41,251.5a18.12,18.12,0,0,1,1.47-4,17.19,17.19,0,0,1,2-3.83,18.25,18.25,0,0,1-1.48,4A18.59,18.59,0,0,1,251.41,251.5Z" style="fill:#263238"></path><path d="M259.91,255.22a32.94,32.94,0,0,1-.26-5.79,32.85,32.85,0,0,1,.26-5.79,31.74,31.74,0,0,1,.26,5.79A31.83,31.83,0,0,1,259.91,255.22Z" style="fill:#263238"></path><path d="M269.52,249.48a13.45,13.45,0,0,1-2.45-2.72,13.12,13.12,0,0,1-2-3,25.77,25.77,0,0,1,4.49,5.76Z" style="fill:#263238"></path><rect x="133.8" y="330.57" width="163.19" height="12.71" style="fill:#455a64"></rect><rect x="141.43" y="362.31" width="152.15" height="17.21" style="fill:#263238"></rect><polygon points="204.86 378 204.86 459.46 182.44 465.5 238.91 465.5 217.5 459.09 217.5 378 204.86 378" style="fill:#263238"></polygon><path d="M227.73,378c-.63,0-11.43,15.34-11.43,15.34v5.49l16.28-20.05Z" style="fill:#263238"></path><path d="M195.31,378c.63,0,11.43,15.34,11.43,15.34v5.49l-16.28-20.05Z" style="fill:#263238"></path><path d="M289.74,379.35c0,.06-33.34.11-74.47.11s-74.49,0-74.49-.11,33.35-.1,74.49-.1S289.74,379.3,289.74,379.35Z" style="fill:#455a64"></path><path d="M180.11,362.37l-.42.09-1.18.22c-1,.21-2.51.53-4.31,1.06A45.66,45.66,0,0,0,168,366a51.35,51.35,0,0,0-7,3.93,68,68,0,0,1-7,4.11,21.27,21.27,0,0,1-6.27,2,13.61,13.61,0,0,1-4.44-.09,9,9,0,0,1-1.57-.44l.41.1a10.52,10.52,0,0,0,1.17.26,13.74,13.74,0,0,0,4.4,0,21.39,21.39,0,0,0,6.22-2,69.31,69.31,0,0,0,6.92-4.12,49.33,49.33,0,0,1,7.05-3.92,44.81,44.81,0,0,1,6.2-2.25A38.35,38.35,0,0,1,180.11,362.37Z" style="fill:#455a64"></path><path d="M193.45,370.83l-.82-.35a13.28,13.28,0,0,0-2.45-.71,13.6,13.6,0,0,0-4-.12,12.83,12.83,0,0,0-5,1.71,4.5,4.5,0,0,0-2.11,2.13,1.83,1.83,0,0,0,.17,1.53,3.06,3.06,0,0,0,1.24,1.09,8.45,8.45,0,0,0,3.47.79,21.37,21.37,0,0,0,3.82-.11,48.13,48.13,0,0,0,8-1.79,10.88,10.88,0,0,0,3.89-1.8,3.51,3.51,0,0,0,1.2-1.76,3.16,3.16,0,0,0-.16-2.14,4.94,4.94,0,0,0-3.29-2.69,14.2,14.2,0,0,0-4.3-.34,51.82,51.82,0,0,0-8.18.84,45.26,45.26,0,0,0-13.13,4.46,35.65,35.65,0,0,0-7.64,5.42c-.82.74-1.4,1.38-1.8,1.81l-.62.64.59-.67a22.83,22.83,0,0,1,1.78-1.84,34.79,34.79,0,0,1,7.62-5.49,45.4,45.4,0,0,1,13.17-4.52,50.9,50.9,0,0,1,8.2-.85,14,14,0,0,1,4.36.35,5.14,5.14,0,0,1,3.44,2.8,3.35,3.35,0,0,1,.16,2.27,3.74,3.74,0,0,1-1.27,1.87,10.9,10.9,0,0,1-4,1.83,48.34,48.34,0,0,1-8,1.79,21.69,21.69,0,0,1-3.85.1,8.75,8.75,0,0,1-3.54-.81,3.32,3.32,0,0,1-1.3-1.16,2,2,0,0,1-.18-1.67,4.55,4.55,0,0,1,2.18-2.21,13,13,0,0,1,5.07-1.7,13.36,13.36,0,0,1,4,.16,12.79,12.79,0,0,1,2.45.75C193.18,370.68,193.45,370.83,193.45,370.83Z" style="fill:#455a64"></path><path d="M204.34,363.13a4,4,0,0,1,.86.37,7,7,0,0,1,2,1.61,7.87,7.87,0,0,1,1.65,3.38,8.25,8.25,0,0,1-.4,4.59,9.38,9.38,0,0,1-2.67,3.76,10.43,10.43,0,0,1-3.27,1.87,11.26,11.26,0,0,1-2.48.57,6.48,6.48,0,0,1-.93,0s.33,0,.92-.12a12.34,12.34,0,0,0,2.44-.63,10.5,10.5,0,0,0,3.2-1.88,9.14,9.14,0,0,0,2.59-3.69,8.11,8.11,0,0,0,.41-4.47,7.73,7.73,0,0,0-1.58-3.32A7.44,7.44,0,0,0,204.34,363.13Z" style="fill:#455a64"></path><path d="M233.58,362.17s-.45,0-1.24.2a8.52,8.52,0,0,0-3.05,1.45,15,15,0,0,0-3.46,3.66c-1.1,1.56-2.11,3.42-3.38,5.24a15.43,15.43,0,0,1-4.44,4.36,15.26,15.26,0,0,1-4.68,2,14.38,14.38,0,0,1-3.4.45,8.28,8.28,0,0,1-1.26-.06s.45,0,1.25,0a15.64,15.64,0,0,0,12.36-6.87c1.26-1.81,2.28-3.66,3.39-5.23a14.82,14.82,0,0,1,3.53-3.67,8.31,8.31,0,0,1,3.13-1.41A5.54,5.54,0,0,1,233.58,362.17Z" style="fill:#455a64"></path><path d="M270,362.82s-.19,0-.55-.09a11.52,11.52,0,0,0-1.57-.19,15.35,15.35,0,0,0-5.73.89,29.89,29.89,0,0,0-7.57,4.16,79,79,0,0,1-8.82,5.93,20.23,20.23,0,0,1-5.18,1.93,10.92,10.92,0,0,1-5.12-.05,6,6,0,0,1-3.73-2.68,5.49,5.49,0,0,1-.5-4,7.13,7.13,0,0,1,1.52-3,9.52,9.52,0,0,1,1.88-1.68,9.9,9.9,0,0,1,1.88-1l-.49.27a12.09,12.09,0,0,0-1.34.84,10.31,10.31,0,0,0-1.84,1.7,6.85,6.85,0,0,0-1.46,2.93,5.29,5.29,0,0,0,.5,3.85,5.79,5.79,0,0,0,3.63,2.58c3.17.87,6.86-.15,10.15-1.87a81.24,81.24,0,0,0,8.81-5.91,29.57,29.57,0,0,1,7.63-4.14,15.17,15.17,0,0,1,5.78-.83A9.53,9.53,0,0,1,270,362.82Z" style="fill:#455a64"></path><path d="M278.94,373.25a1,1,0,0,0,.68-.1,1.23,1.23,0,0,0,.55-.61,1.21,1.21,0,0,0-.09-1.1,2,2,0,0,0-1.11-.87,4,4,0,0,0-1.71-.1,12.57,12.57,0,0,0-2,.39,3.55,3.55,0,0,0-1.82,1.18,2,2,0,0,0-.22,2.24,3.86,3.86,0,0,0,2.15,1.42,15.53,15.53,0,0,0,5.82.73,9.72,9.72,0,0,0,6-2.12,3.36,3.36,0,0,0,1.06-3.05,4.41,4.41,0,0,0-2-2.78c-2-1.29-4.52-1.32-6.75-1.4a25.63,25.63,0,0,0-6.48.77,31.56,31.56,0,0,0-5.56,2,32,32,0,0,0-4.46,2.59,30.61,30.61,0,0,0-5.58,4.94c-.61.64-1,1.2-1.32,1.56s-.45.54-.45.54l.42-.57c.29-.37.68-.93,1.28-1.58a30.39,30.39,0,0,1,5.57-5,29.61,29.61,0,0,1,10.06-4.64,26,26,0,0,1,6.52-.78,14.36,14.36,0,0,1,1.73.06,17.1,17.1,0,0,1,1.74.18,8.55,8.55,0,0,1,3.39,1.19,4.61,4.61,0,0,1,2.05,2.91,3.55,3.55,0,0,1-1.13,3.23,9.76,9.76,0,0,1-6.13,2.17,15.62,15.62,0,0,1-5.88-.76,3.92,3.92,0,0,1-2.24-1.5,2.16,2.16,0,0,1,.24-2.41,3.68,3.68,0,0,1,1.9-1.22,12.77,12.77,0,0,1,2-.37,4,4,0,0,1,1.75.12,2.08,2.08,0,0,1,1.15.92,1.27,1.27,0,0,1,.08,1.16,1.26,1.26,0,0,1-.59.63A.78.78,0,0,1,278.94,373.25Z" style="fill:#455a64"></path><path d="M141.86,366.93s.09,0,.25.12.38.22.69.36A18,18,0,0,0,163.14,365a18.39,18.39,0,0,0,2-2.05c.22-.26.38-.47.49-.61l.18-.2a14.32,14.32,0,0,1-2.58,3,17.66,17.66,0,0,1-17.84,3.61A14.48,14.48,0,0,1,141.86,366.93Z" style="fill:#455a64"></path><path d="M217.16,380.66s-.08.12-.25.34l-.74.95a40.52,40.52,0,0,0-2.53,3.65,23.9,23.9,0,0,0-2.7,6,27.76,27.76,0,0,0-.8,8,80,80,0,0,1-.06,8.09,19,19,0,0,1-1.62,6.38,11.2,11.2,0,0,1-2.6,3.6,10.24,10.24,0,0,1-1,.74l-.36.23s.49-.32,1.26-1a11.55,11.55,0,0,0,2.53-3.6,19.38,19.38,0,0,0,1.56-6.34c.22-2.47.07-5.2,0-8.06a27.91,27.91,0,0,1,.83-8,23.72,23.72,0,0,1,2.75-6,39.66,39.66,0,0,1,2.59-3.62C216.77,381.09,217.16,380.66,217.16,380.66Z" style="fill:#455a64"></path><path d="M214.81,410.4a5.92,5.92,0,0,1-.16-1.69,8,8,0,0,1,1.5-4.47l.08-.12,0,.14a21.51,21.51,0,0,1,.3,9.13,23.56,23.56,0,0,1-.68,2.69c-.15.45-.31.9-.49,1.35a2,2,0,0,1-.9,1.21.72.72,0,0,1-.8-.17,1.71,1.71,0,0,1-.36-.71c-.14-.49-.27-1-.41-1.48-.25-1-.48-2-.65-3.07a39.61,39.61,0,0,1,1.53-19.2,40.34,40.34,0,0,1,2.32-5.41c.68-1.21,1.08-1.86,1.08-1.86s-.08.17-.25.49l-.75,1.41a42.37,42.37,0,0,0-2.26,5.42,40,40,0,0,0-1.47,19.12c.17,1,.4,2.06.65,3.05.14.5.27,1,.4,1.47a1.7,1.7,0,0,0,.32.63.51.51,0,0,0,.57.12,1.8,1.8,0,0,0,.79-1.09c.19-.45.34-.9.5-1.34a23,23,0,0,0,.67-2.66,21.3,21.3,0,0,0-.24-9.06l.12,0a8,8,0,0,0-1.54,4.39,10.64,10.64,0,0,0,0,1.26C214.8,410.26,214.81,410.4,214.81,410.4Z" style="fill:#455a64"></path><path d="M217.53,421.61a2.85,2.85,0,0,1-.12.76,5,5,0,0,1-1,1.84,9.18,9.18,0,0,1-2.38,2c-1,.63-2.15,1.2-3.25,2a12.92,12.92,0,0,0-4.34,5.18,13.72,13.72,0,0,0-.73,1.94,5.46,5.46,0,0,1-.21.73,9.93,9.93,0,0,1,.81-2.74,12.6,12.6,0,0,1,4.35-5.28c1.13-.77,2.28-1.33,3.27-1.94a9.51,9.51,0,0,0,2.36-1.93,5.11,5.11,0,0,0,1-1.77C217.49,421.88,217.51,421.61,217.53,421.61Z" style="fill:#455a64"></path><path d="M212.23,446.24a4.37,4.37,0,0,1,0,1.1,5.59,5.59,0,0,1-1.34,2.85l-.05.06,0-.08a16,16,0,0,1-1-5A15.34,15.34,0,0,1,210,442a6.59,6.59,0,0,1,.44-1.69,2.22,2.22,0,0,1,1.26-1.34,1.39,1.39,0,0,1,1,.08,2,2,0,0,1,.72.69,5.23,5.23,0,0,1,.67,1.88,17.19,17.19,0,0,1,.37,4.16,16.94,16.94,0,0,1-.7,4.35,15.42,15.42,0,0,1-.79,2.15,5.79,5.79,0,0,1-1.27,2,2,2,0,0,1-3.12-.17,6.9,6.9,0,0,1-1.3-3,18.2,18.2,0,0,1-.3-6.21,18.51,18.51,0,0,1,4.1-9.59,32.47,32.47,0,0,1,2.84-2.88,27.15,27.15,0,0,0,2.11-2.19,11.71,11.71,0,0,0,1.12-1.56l.34-.59a8.88,8.88,0,0,1-1.39,2.2,28.43,28.43,0,0,1-2.1,2.22,34.36,34.36,0,0,0-2.81,2.9,18.42,18.42,0,0,0-4,9.51,18.12,18.12,0,0,0,.31,6.15,6.59,6.59,0,0,0,1.25,2.94,1.85,1.85,0,0,0,2.83.16,5.72,5.72,0,0,0,1.22-1.91,15.34,15.34,0,0,0,.78-2.11,17.16,17.16,0,0,0,.7-4.31,17.34,17.34,0,0,0-.35-4.11,5.47,5.47,0,0,0-.64-1.82,1.33,1.33,0,0,0-1.5-.7,2.09,2.09,0,0,0-1.16,1.24,6.92,6.92,0,0,0-.43,1.65,15,15,0,0,0-.23,3.15,16.09,16.09,0,0,0,.91,5l-.08,0a5.57,5.57,0,0,0,1.35-2.79,5.11,5.11,0,0,0,.08-.81C212.23,446.33,212.23,446.24,212.23,446.24Z" style="fill:#455a64"></path><path d="M159.16,398.83h27.55a6.16,6.16,0,0,1,6.16,6.16v11.78a0,0,0,0,1,0,0H153a0,0,0,0,1,0,0V405A6.16,6.16,0,0,1,159.16,398.83Z" style="fill:#455a64"></path><rect x="150.95" y="415.01" width="43.95" height="4.76" rx="1.51" style="fill:#263238"></rect><polygon points="162.67 416.92 150.95 465.34 154.73 465.34 166.48 416.92 162.67 416.92" style="fill:#263238"></polygon><polygon points="185.41 416.92 197.12 465.34 193.34 465.34 181.59 416.92 185.41 416.92" style="fill:#263238"></polygon><rect x="171.81" y="417.4" width="3.67" height="48.42" style="fill:#263238"></rect><path d="M191.39,404.78l-.36.09-1.05.21c-.91.2-2.24.43-3.88.67a88.35,88.35,0,0,1-25.91,0c-1.65-.25-3-.49-3.88-.68l-1.05-.22-.36-.09.37,0,1,.18c.91.17,2.24.38,3.89.61a94.94,94.94,0,0,0,12.93.91,97.74,97.74,0,0,0,12.94-.87c1.64-.23,3-.44,3.88-.61l1.06-.18Z" style="fill:#263238"></path><path d="M244.38,399h27.55a6.16,6.16,0,0,1,6.16,6.16V417a0,0,0,0,1,0,0H238.23a0,0,0,0,1,0,0V405.2A6.16,6.16,0,0,1,244.38,399Z" style="fill:#455a64"></path><rect x="236.18" y="415.23" width="43.95" height="4.76" rx="1.51" style="fill:#263238"></rect><polygon points="247.9 417.14 236.18 465.56 239.96 465.56 251.71 417.14 247.9 417.14" style="fill:#263238"></polygon><polygon points="270.63 417.14 282.35 465.56 278.57 465.56 266.82 417.14 270.63 417.14" style="fill:#263238"></polygon><rect x="257.04" y="417.61" width="3.67" height="48.42" style="fill:#263238"></rect><path d="M276.62,405l-.37.09-1,.22c-.91.19-2.24.43-3.89.67a88.35,88.35,0,0,1-25.91,0c-1.64-.25-3-.49-3.88-.68l-1-.22-.37-.09.37.05,1.06.18c.91.17,2.24.38,3.88.61a94.44,94.44,0,0,0,25.87,0c1.65-.23,3-.44,3.89-.61l1.06-.18Z" style="fill:#263238"></path><polygon points="157.9 309.14 161.15 330.5 180.03 330.5 184.41 309.45 157.9 309.14" style="fill:#40DF6B"></polygon><path d="M181.78,322.83c0,.06-4.84.11-10.81.11s-10.81-.05-10.81-.11,4.84-.11,10.81-.11S181.78,322.77,181.78,322.83Z" style="fill:#fafafa"></path><path d="M181.85,321.78c0,.06-4.87.11-10.88.11s-10.88-.05-10.88-.11,4.87-.11,10.88-.11S181.85,321.72,181.85,321.78Z" style="fill:#fafafa"></path><path d="M181.81,320.6c0,.06-4.87.11-10.88.11s-10.88,0-10.88-.11,4.87-.11,10.88-.11S181.81,320.54,181.81,320.6Z" style="fill:#fafafa"></path><path d="M163.32,329.28a33.51,33.51,0,0,1-.94-5.41,34,34,0,0,1,.94,5.41Z" style="fill:#fafafa"></path><path d="M164.6,329.06a22.34,22.34,0,0,1-.23-2.63,20.39,20.39,0,0,1-.12-2.63,12.92,12.92,0,0,1,.34,2.62A12.52,12.52,0,0,1,164.6,329.06Z" style="fill:#fafafa"></path><path d="M167,329.06a13.14,13.14,0,0,1-.5-2.69,13.55,13.55,0,0,1-.14-2.73,23,23,0,0,1,.36,2.7A23.79,23.79,0,0,1,167,329.06Z" style="fill:#fafafa"></path><path d="M168.59,329.17a22.16,22.16,0,0,1-.18-5.48,24,24,0,0,1,.14,2.74A23.64,23.64,0,0,1,168.59,329.17Z" style="fill:#fafafa"></path><path d="M171.5,329.06a15.65,15.65,0,0,1-.2-2.6,15.49,15.49,0,0,1,0-2.6,15.65,15.65,0,0,1,.2,2.6A15.49,15.49,0,0,1,171.5,329.06Z" style="fill:#fafafa"></path><path d="M173.62,329.17a16.65,16.65,0,0,1-.09-2.68,17.11,17.11,0,0,1,.14-2.69,16.82,16.82,0,0,1,.09,2.69A17,17,0,0,1,173.62,329.17Z" style="fill:#fafafa"></path><path d="M175.62,328.88a16.51,16.51,0,0,1,.16-2.8,18,18,0,0,1,.38-2.78,17.86,17.86,0,0,1-.16,2.8A18,18,0,0,1,175.62,328.88Z" style="fill:#fafafa"></path><path d="M178.18,328.6a10.37,10.37,0,0,1,.32-2.38,9.75,9.75,0,0,1,.7-2.3,20.22,20.22,0,0,1-.48,2.35A17.83,17.83,0,0,1,178.18,328.6Z" style="fill:#fafafa"></path><path d="M176.37,267l0,.11-.08.3c-.09.28-.21.66-.36,1.15s-.36,1.11-.56,1.83-.45,1.52-.68,2.43-.5,1.9-.74,3-.48,2.22-.72,3.44c-.46,2.43-.87,5.12-1.16,8s-.4,5.56-.44,8c0,1.24,0,2.42,0,3.52s.08,2.12.14,3.06.12,1.78.18,2.52.12,1.38.18,1.9.1.91.13,1.2l0,.31v.11s0,0,0-.1,0-.19,0-.31c0-.3-.09-.69-.16-1.2s-.15-1.16-.22-1.9-.17-1.59-.22-2.52-.13-2-.16-3.07,0-2.28-.06-3.52c0-2.48.15-5.21.43-8.07s.71-5.54,1.18-8c.25-1.22.48-2.37.75-3.44s.51-2.07.76-3,.5-1.71.71-2.43.42-1.32.59-1.82.31-.86.4-1.14l.11-.29C176.35,267,176.36,267,176.37,267Z" style="fill:#455a64"></path><path d="M173,280.23a7,7,0,0,1,2.93-3.71,1.69,1.69,0,0,1,1.56-.29c.66.32.71,1.25.51,1.95a5.19,5.19,0,0,1-2.13,2.92,4.36,4.36,0,0,1-3.21.8" style="fill:#455a64"></path><path d="M171.81,289.16a11.8,11.8,0,0,1,3.49-5.61,2.24,2.24,0,0,1,.79-.42.93.93,0,0,1,.85.18,1.32,1.32,0,0,1,.19,1.23,7.45,7.45,0,0,1-5.51,5.54" style="fill:#455a64"></path><path d="M171.49,297a10.9,10.9,0,0,1,3.52-4.43,1.69,1.69,0,0,1,1.23-.43c.67.12,1,.93.91,1.61a5.21,5.21,0,0,1-2.28,3.37,14.11,14.11,0,0,1-3.25,1.67" style="fill:#455a64"></path><path d="M171.67,302.67a10.33,10.33,0,0,1,3-3.41,2.08,2.08,0,0,1,.9-.4.9.9,0,0,1,.88.33c.3.44,0,1-.3,1.46a8.61,8.61,0,0,1-4.27,3.14" style="fill:#455a64"></path><path d="M171.52,300.37a33.19,33.19,0,0,0-4.27-4.36c-.25-.2-.55-.42-.86-.32a.66.66,0,0,0-.39.58,1.79,1.79,0,0,0,.16.71,8.29,8.29,0,0,0,5.51,4.63" style="fill:#455a64"></path><path d="M171.66,293l-3.36-4.1a4,4,0,0,0-1.09-1,1.36,1.36,0,0,0-1.43,0,1.34,1.34,0,0,0-.46,1.35,3.45,3.45,0,0,0,.65,1.35,9.94,9.94,0,0,0,2.45,2.6,4.11,4.11,0,0,0,3.07.95" style="fill:#455a64"></path><path d="M172.13,284.74a11.73,11.73,0,0,0-3.38-5.08,2,2,0,0,0-.88-.51,1.49,1.49,0,0,0-1.55,1.08,2.83,2.83,0,0,0,.31,2.23,6.12,6.12,0,0,0,1.58,1.67,13.65,13.65,0,0,0,3.74,2" style="fill:#455a64"></path><path d="M173.47,277.36a13.71,13.71,0,0,0-3-6.28c-.31-.4-.73-.83-1.23-.76a1,1,0,0,0-.7.61,2.31,2.31,0,0,0-.13.95,7.32,7.32,0,0,0,4.76,6.55" style="fill:#455a64"></path><path d="M174.41,273.59a19.59,19.59,0,0,1-.12-3.67,6.56,6.56,0,0,1,1.22-3.43,2.83,2.83,0,0,1,1.22-1,1.55,1.55,0,0,1,1.5.2,1.64,1.64,0,0,1,.51,1.32,4.17,4.17,0,0,1-.38,1.41c-.9,2.15-2.39,4.54-4,5.14" style="fill:#455a64"></path><path d="M159.77,276.42a1.71,1.71,0,0,1,0,.3c0,.22,0,.51,0,.86s0,.83,0,1.36,0,1.14.06,1.81c.06,1.33.19,2.92.4,4.68s.51,3.67.93,5.67.92,3.88,1.42,5.57,1,3.19,1.53,4.44c.22.63.46,1.19.66,1.68s.38.91.53,1.26l.34.79a1.51,1.51,0,0,1,.1.28s-.06-.09-.14-.26l-.38-.78c-.16-.34-.36-.75-.56-1.24s-.46-1-.7-1.67c-.5-1.24-1-2.75-1.57-4.44s-1-3.58-1.45-5.58-.71-3.94-.92-5.7-.3-3.35-.34-4.69c0-.67,0-1.28,0-1.81s0-1,0-1.37,0-.64,0-.86A1.16,1.16,0,0,1,159.77,276.42Z" style="fill:#263238"></path><path d="M160.3,286.16a5,5,0,0,1,1.2-3.16,1.19,1.19,0,0,1,1-.53c.52.08.76.7.77,1.22a3.72,3.72,0,0,1-.82,2.44,3.13,3.13,0,0,1-2,1.24" style="fill:#263238"></path><path d="M161.44,292.48a8.39,8.39,0,0,1,1.16-4.56,1.65,1.65,0,0,1,.45-.46.69.69,0,0,1,.62-.06.93.93,0,0,1,.39.79,5.31,5.31,0,0,1-2.55,5" style="fill:#263238"></path><path d="M162.91,297.9a7.67,7.67,0,0,1,1.45-3.76,1.19,1.19,0,0,1,.74-.57c.48-.06.86.43,1,.9a3.76,3.76,0,0,1-.83,2.79,9.89,9.89,0,0,1-1.86,1.84" style="fill:#263238"></path><path d="M164.25,301.71a7.26,7.26,0,0,1,1.31-3,1.46,1.46,0,0,1,.52-.47.64.64,0,0,1,.67,0c.3.24.23.7.11,1.06a6.11,6.11,0,0,1-2.23,3.05" style="fill:#263238"></path><path d="M163.66,300.18a24.49,24.49,0,0,0-3.85-2.05.72.72,0,0,0-.65,0,.44.44,0,0,0-.15.47,1.19,1.19,0,0,0,.27.46,6,6,0,0,0,4.75,2" style="fill:#263238"></path><path d="M162.17,295.14,159,293.08a2.82,2.82,0,0,0-1-.47,1,1,0,0,0-1,.3,1,1,0,0,0,0,1,2.58,2.58,0,0,0,.74.77A7.18,7.18,0,0,0,160,296a3,3,0,0,0,2.3,0" style="fill:#263238"></path><path d="M160.7,289.41a8.36,8.36,0,0,0-3.39-2.73,1.39,1.39,0,0,0-.71-.16,1.05,1.05,0,0,0-.82,1.07,2,2,0,0,0,.69,1.45,4.09,4.09,0,0,0,1.43.79,9.54,9.54,0,0,0,3,.57" style="fill:#263238"></path><path d="M160,284.09a9.79,9.79,0,0,0-3.39-3.62,1,1,0,0,0-1-.26.69.69,0,0,0-.34.56,1.46,1.46,0,0,0,.11.68,5.23,5.23,0,0,0,4.65,3.44" style="fill:#263238"></path><path d="M159.86,281.32a13.45,13.45,0,0,1-.88-2.47,4.74,4.74,0,0,1,.1-2.59,2,2,0,0,1,.62-.93,1.08,1.08,0,0,1,1.06-.18,1.16,1.16,0,0,1,.63.78,2.81,2.81,0,0,1,.05,1c-.15,1.66-.65,3.61-1.58,4.35" style="fill:#263238"></path><path d="M183.64,276.21a1.16,1.16,0,0,1,0,.3c0,.22,0,.51,0,.86s0,.84,0,1.37,0,1.14,0,1.81c0,1.34-.16,2.93-.35,4.69s-.5,3.69-.91,5.7-.94,3.89-1.45,5.58-1.07,3.2-1.58,4.44c-.23.63-.48,1.18-.69,1.67s-.4.91-.57,1.24-.28.58-.37.78a1.41,1.41,0,0,1-.15.27,1.76,1.76,0,0,1,.11-.29l.33-.79c.16-.34.34-.76.53-1.26s.44-1.05.67-1.68c.48-1.24,1-2.75,1.52-4.44s1-3.57,1.43-5.57.71-3.92.93-5.67.33-3.34.39-4.68c0-.67.05-1.27.06-1.8s0-1,0-1.37,0-.64,0-.86S183.64,276.21,183.64,276.21Z" style="fill:#455a64"></path><path d="M183.12,286a5,5,0,0,0-1.2-3.16,1.25,1.25,0,0,0-1-.53c-.52.08-.75.7-.77,1.22a3.65,3.65,0,0,0,.83,2.44,3.16,3.16,0,0,0,2,1.25" style="fill:#455a64"></path><path d="M182,292.28a8.54,8.54,0,0,0-1.17-4.57,1.65,1.65,0,0,0-.45-.46.68.68,0,0,0-.62-.06,1,1,0,0,0-.39.8,5.32,5.32,0,0,0,2.56,5" style="fill:#455a64"></path><path d="M180.5,297.7a7.79,7.79,0,0,0-1.44-3.77,1.2,1.2,0,0,0-.74-.56c-.48-.06-.87.42-1,.9a3.66,3.66,0,0,0,.83,2.78,10,10,0,0,0,1.85,1.84" style="fill:#455a64"></path><path d="M179.16,301.5a7.44,7.44,0,0,0-1.3-3,1.71,1.71,0,0,0-.53-.47.67.67,0,0,0-.67,0c-.3.24-.23.71-.1,1.06a6.12,6.12,0,0,0,2.23,3.06" style="fill:#455a64"></path><path d="M179.76,300a23.59,23.59,0,0,1,3.85-2,.69.69,0,0,1,.65,0,.47.47,0,0,1,.14.48,1.2,1.2,0,0,1-.26.45,5.93,5.93,0,0,1-4.75,2" style="fill:#455a64"></path><path d="M181.25,294.94l3.17-2.07a3,3,0,0,1,1-.47,1,1,0,0,1,1,.3,1,1,0,0,1,0,1,2.44,2.44,0,0,1-.73.77,7,7,0,0,1-2.23,1.25,2.89,2.89,0,0,1-2.29,0" style="fill:#455a64"></path><path d="M182.71,289.2a8.33,8.33,0,0,1,3.4-2.73,1.35,1.35,0,0,1,.71-.16,1.06,1.06,0,0,1,.81,1.07,2,2,0,0,1-.69,1.45,4.19,4.19,0,0,1-1.43.8,10.15,10.15,0,0,1-3,.57" style="fill:#455a64"></path><path d="M183.38,283.89a9.83,9.83,0,0,1,3.39-3.63c.3-.21.68-.41,1-.25a.68.68,0,0,1,.35.56,1.56,1.56,0,0,1-.12.67,5.22,5.22,0,0,1-4.65,3.44" style="fill:#455a64"></path><path d="M183.56,281.12a14.59,14.59,0,0,0,.87-2.48,4.65,4.65,0,0,0-.09-2.59,2,2,0,0,0-.63-.92,1.1,1.1,0,0,0-1.06-.19,1.15,1.15,0,0,0-.63.79,3,3,0,0,0-.05,1c.15,1.66.65,3.6,1.59,4.35" style="fill:#455a64"></path><path d="M155.73,304.92v4a1.58,1.58,0,0,0,1.58,1.58h27.34a1.57,1.57,0,0,0,1.57-1.58v-4Z" style="fill:#40DF6B"></path><g style="opacity:0.4"><polygon points="158.1 310.49 158.33 311.76 183.56 313.56 184.2 310.49 158.1 310.49"></polygon></g><polygon points="200.6 309.14 203.85 330.5 222.73 330.5 227.11 309.45 200.6 309.14" style="fill:#40DF6B"></polygon><path d="M224.47,322.83c0,.06-4.84.11-10.81.11s-10.8-.05-10.8-.11,4.84-.11,10.8-.11S224.47,322.77,224.47,322.83Z" style="fill:#fafafa"></path><path d="M224.54,321.78c0,.06-4.87.11-10.88.11s-10.87-.05-10.87-.11,4.87-.11,10.87-.11S224.54,321.72,224.54,321.78Z" style="fill:#fafafa"></path><path d="M224.51,320.6c0,.06-4.88.11-10.88.11s-10.88,0-10.88-.11,4.87-.11,10.88-.11S224.51,320.54,224.51,320.6Z" style="fill:#fafafa"></path><path d="M206,329.28a36.71,36.71,0,0,1-.94-5.41,34,34,0,0,1,.94,5.41Z" style="fill:#fafafa"></path><path d="M207.3,329.06a21,21,0,0,1-.24-2.63,22.81,22.81,0,0,1-.12-2.63,20.49,20.49,0,0,1,.36,5.26Z" style="fill:#fafafa"></path><path d="M209.64,329.06a21.22,21.22,0,0,1-.63-5.42,25.87,25.87,0,0,1,.36,2.7A25.07,25.07,0,0,1,209.64,329.06Z" style="fill:#fafafa"></path><path d="M211.28,329.17a13.65,13.65,0,0,1-.26-2.73,13.15,13.15,0,0,1,.09-2.75,25.55,25.55,0,0,1,.13,2.74A21.23,21.23,0,0,1,211.28,329.17Z" style="fill:#fafafa"></path><path d="M214.19,329.06a15.65,15.65,0,0,1-.2-2.6,16.09,16.09,0,0,1,0-2.6,15.65,15.65,0,0,1,.2,2.6A16.09,16.09,0,0,1,214.19,329.06Z" style="fill:#fafafa"></path><path d="M216.32,329.17a16.65,16.65,0,0,1-.09-2.68,16.47,16.47,0,0,1,.13-2.69,16.82,16.82,0,0,1,.09,2.69A16.4,16.4,0,0,1,216.32,329.17Z" style="fill:#fafafa"></path><path d="M218.31,328.88a17.86,17.86,0,0,1,.16-2.8,18,18,0,0,1,.38-2.78,17.86,17.86,0,0,1-.16,2.8A18,18,0,0,1,218.31,328.88Z" style="fill:#fafafa"></path><path d="M220.88,328.6a14.87,14.87,0,0,1,1-4.68,21.73,21.73,0,0,1-.49,2.35A21.4,21.4,0,0,1,220.88,328.6Z" style="fill:#fafafa"></path><path d="M198.43,304.92v4a1.57,1.57,0,0,0,1.57,1.58h27.34a1.58,1.58,0,0,0,1.58-1.58v-4Z" style="fill:#40DF6B"></path><g style="opacity:0.4"><polygon points="200.8 310.49 201.03 311.76 226.26 313.56 226.9 310.49 200.8 310.49"></polygon></g><path d="M202.55,304.94s-10.63-12.26-9.45-12.7,10.63,6.35,10.63,6.35-8.12-18.16-6.5-19.49,10.19,16.09,10.19,16.09-1.33-25.39,0-25.69,6.2,25.4,6.2,25.4,7.23-23.48,9.3-23.48S220.71,294,220.71,294s8.56-14.47,9.89-12.55-6,17.57-6,17.57,10.77-9,11.22-7.83-11.67,13.74-11.67,13.74Z" style="fill:#455a64"></path><path d="M201.06,286.48c.08,0,2,4,4.21,9s4,9.11,3.95,9.15-2-4-4.21-9S201,286.51,201.06,286.48Z" style="fill:#263238"></path><path d="M209.65,288.74c.08,0,.39,3.56.7,8s.49,8,.41,8-.39-3.55-.7-7.95S209.57,288.74,209.65,288.74Z" style="fill:#263238"></path><path d="M221.5,277.37a1.45,1.45,0,0,1-.07.28l-.23.81c-.22.74-.52,1.74-.89,3-.75,2.5-1.76,6-2.78,9.8s-1.88,7.35-2.47,9.89c-.29,1.23-.53,2.25-.7,3-.08.33-.15.6-.2.82a1.09,1.09,0,0,1-.09.28,1.06,1.06,0,0,1,0-.29c0-.22.09-.5.14-.83.14-.72.34-1.75.62-3,.54-2.55,1.36-6.07,2.39-9.92s2.06-7.3,2.86-9.78c.4-1.24.74-2.25,1-2.93l.29-.79C221.45,277.46,221.49,277.36,221.5,277.37Z" style="fill:#263238"></path><path d="M226.62,290.46c.06,0-2,3.14-4.64,6.91s-4.8,6.78-4.87,6.74,2-3.14,4.63-6.91S226.55,290.41,226.62,290.46Z" style="fill:#263238"></path><path d="M206.13,304.68a4.33,4.33,0,0,1-.93-.67,25.13,25.13,0,0,1-2-1.87,26.66,26.66,0,0,1-1.82-2.07,4.17,4.17,0,0,1-.64-.94c.07-.05,1.18,1.28,2.67,2.81S206.19,304.61,206.13,304.68Z" style="fill:#263238"></path><path d="M212.59,299.81a11.21,11.21,0,0,1,.38,2.52,11,11,0,0,1,.08,2.56,11.06,11.06,0,0,1-.37-2.53A11.25,11.25,0,0,1,212.59,299.81Z" style="fill:#263238"></path><polygon points="247.64 309.14 250.89 330.5 269.77 330.5 274.16 309.45 247.64 309.14" style="fill:#40DF6B"></polygon><path d="M271.52,322.83c0,.06-4.84.11-10.81.11s-10.8-.05-10.8-.11,4.83-.11,10.8-.11S271.52,322.77,271.52,322.83Z" style="fill:#fafafa"></path><path d="M271.59,321.78c0,.06-4.87.11-10.88.11s-10.88-.05-10.88-.11,4.87-.11,10.88-.11S271.59,321.72,271.59,321.78Z" style="fill:#fafafa"></path><path d="M271.55,320.6c0,.06-4.87.11-10.87.11s-10.88,0-10.88-.11,4.87-.11,10.88-.11S271.55,320.54,271.55,320.6Z" style="fill:#fafafa"></path><path d="M253.06,329.28a33.51,33.51,0,0,1-.94-5.41,34,34,0,0,1,.94,5.41Z" style="fill:#fafafa"></path><path d="M254.35,329.06a19,19,0,0,1-.24-2.63,22.81,22.81,0,0,1-.12-2.63,12.12,12.12,0,0,1,.34,2.62A13,13,0,0,1,254.35,329.06Z" style="fill:#fafafa"></path><path d="M256.69,329.06a12.77,12.77,0,0,1-.49-2.69,13.17,13.17,0,0,1-.15-2.73,21.71,21.71,0,0,1,.37,2.7A25.07,25.07,0,0,1,256.69,329.06Z" style="fill:#fafafa"></path><path d="M258.33,329.17a22.16,22.16,0,0,1-.18-5.48,21.5,21.5,0,0,1,.14,2.74A23.64,23.64,0,0,1,258.33,329.17Z" style="fill:#fafafa"></path><path d="M261.24,329.06a15.65,15.65,0,0,1-.2-2.6,15.49,15.49,0,0,1,0-2.6,14.46,14.46,0,0,1,.2,2.6A15.49,15.49,0,0,1,261.24,329.06Z" style="fill:#fafafa"></path><path d="M263.37,329.17a14.28,14.28,0,0,1-.09-2.68,16.47,16.47,0,0,1,.13-2.69,16.82,16.82,0,0,1,.09,2.69A16.4,16.4,0,0,1,263.37,329.17Z" style="fill:#fafafa"></path><path d="M265.36,328.88a17.86,17.86,0,0,1,.16-2.8,18,18,0,0,1,.38-2.78,17.86,17.86,0,0,1-.16,2.8A18,18,0,0,1,265.36,328.88Z" style="fill:#fafafa"></path><path d="M267.93,328.6a14.16,14.16,0,0,1,1-4.68,21.73,21.73,0,0,1-.49,2.35A21.4,21.4,0,0,1,267.93,328.6Z" style="fill:#fafafa"></path><path d="M245.48,304.92v4a1.57,1.57,0,0,0,1.57,1.58h27.34a1.58,1.58,0,0,0,1.58-1.58v-4Z" style="fill:#40DF6B"></path><g style="opacity:0.4"><polygon points="247.85 310.49 248.07 311.76 273.3 313.56 273.94 310.49 247.85 310.49"></polygon></g><path d="M255.39,304.9c-4-2.33-6.16-7.74-6.32-12.18s1.68-9.06,5.32-11.6a12.18,12.18,0,0,1,13.22-.11A13.76,13.76,0,0,1,273.68,293a15.87,15.87,0,0,1-6.49,11.9" style="fill:#455a64"></path><path d="M261.81,305.33a5.15,5.15,0,0,1-.08-1c0-.73,0-1.66-.08-2.77-.06-2.33-.15-5.56-.3-9.12s-.35-6.78-.5-9.11c-.06-1.11-.12-2-.16-2.76a5.65,5.65,0,0,1,0-1,4.94,4.94,0,0,1,.16,1c.08.65.18,1.59.29,2.76.21,2.33.45,5.55.6,9.11s.21,6.8.2,9.14c0,1.17,0,2.11,0,2.77A5.86,5.86,0,0,1,261.81,305.33Z" style="fill:#fff"></path><path d="M250.26,291.72a3,3,0,0,1-1.44.07c-.78-.07-1.4-.2-1.4-.31a3,3,0,0,1,1.44-.07C249.64,291.48,250.26,291.61,250.26,291.72Z" style="fill:#263238"></path><path d="M250.48,287.74c0,.09-.6-.06-1.24-.34s-1.12-.6-1.08-.69.59.06,1.23.34S250.52,287.64,250.48,287.74Z" style="fill:#263238"></path><path d="M252.52,284.78c-.05.09-.67-.2-1.32-.74s-1-1.09-1-1.16.58.35,1.21.87S252.58,284.69,252.52,284.78Z" style="fill:#263238"></path><path d="M254.58,282c-.09,0-.39-.43-.66-1s-.42-1.15-.32-1.19.39.42.66,1S254.68,282,254.58,282Z" style="fill:#263238"></path><path d="M257.81,280c-.09,0-.41-.45-.62-1.14s-.24-1.28-.13-1.29.28.52.49,1.18S257.91,280,257.81,280Z" style="fill:#263238"></path><path d="M263.2,277.79c.1,0,0,.46-.13.95s-.39.85-.49.81,0-.45.13-.94S263.11,277.76,263.2,277.79Z" style="fill:#263238"></path><path d="M267.2,279.51c.07.07-.18.42-.57.78s-.76.59-.83.51.19-.43.57-.78S267.13,279.43,267.2,279.51Z" style="fill:#263238"></path><path d="M270.72,281.78c.06.09-.25.4-.7.7s-.85.47-.91.39.26-.4.7-.7S270.66,281.69,270.72,281.78Z" style="fill:#263238"></path><path d="M273.22,285.17c0,.09-.45.4-1.1.67s-1.21.43-1.25.33.45-.4,1.1-.67S273.18,285.07,273.22,285.17Z" style="fill:#263238"></path><path d="M274.21,288.87c0,.1-.49.25-1.12.32s-1.16.06-1.17,0,.49-.25,1.12-.33S274.19,288.76,274.21,288.87Z" style="fill:#263238"></path><path d="M274.72,293.42c0,.09-.58-.05-1.2-.32s-1.08-.56-1-.66.58.05,1.19.32S274.76,293.32,274.72,293.42Z" style="fill:#263238"></path><path d="M274.27,297.32c0,.1-.71-.07-1.42-.53s-1.12-1-1.05-1.08.59.33,1.26.77S274.31,297.22,274.27,297.32Z" style="fill:#263238"></path><path d="M272.23,300.88c-.06.08-.6-.24-1.11-.8s-.8-1.11-.71-1.17.49.38,1,.92S272.3,300.79,272.23,300.88Z" style="fill:#263238"></path><path d="M252.93,301.29c0,.09-.52.48-1.26.87s-1.39.63-1.44.54.52-.48,1.26-.87S252.88,301.2,252.93,301.29Z" style="fill:#263238"></path><path d="M251.17,298.08c0,.09-.41.39-1,.66s-1.12.42-1.16.32.41-.39,1-.66S251.12,298,251.17,298.08Z" style="fill:#263238"></path><path d="M249.87,295.23c0,.1-.54.27-1.24.37s-1.29.09-1.3,0,.54-.27,1.24-.37S249.86,295.13,249.87,295.23Z" style="fill:#263238"></path><path d="M254.12,293.66c0,.1-.51.35-1.24.43s-1.31,0-1.3-.14.57-.15,1.26-.23S254.09,293.56,254.12,293.66Z" style="fill:#263238"></path><path d="M257.65,290.15c0,.09-.4.31-1,.37s-1.05-.07-1-.18.46-.14,1-.2S257.62,290,257.65,290.15Z" style="fill:#263238"></path><path d="M258.33,287.33c0,.1-.5,0-1.05-.16s-1-.42-.92-.52.5,0,1.05.16S258.36,287.23,258.33,287.33Z" style="fill:#263238"></path><path d="M259.62,284.48c-.07.08-.39-.14-.62-.54s-.25-.78-.16-.81.28.27.49.63S259.7,284.41,259.62,284.48Z" style="fill:#263238"></path><path d="M258.06,296.14c0,.1-.38.29-.9.41a3.3,3.3,0,0,1-.77.12l-.07-.22c.14,0,.22,0,.24,0s0,.11-.15.19l-.07-.22a3.37,3.37,0,0,1,.73-.25C257.59,296.06,258,296,258.06,296.14Z" style="fill:#263238"></path><path d="M258.79,301.13c0,.1-.48.39-1.16.66s-1.25.4-1.29.3.48-.39,1.16-.65S258.75,301,258.79,301.13Z" style="fill:#263238"></path><path d="M254.8,298.91c0,.1-.31.31-.77.46s-.86.21-.89.11.31-.31.77-.46S254.77,298.82,254.8,298.91Z" style="fill:#263238"></path><path d="M255.11,288.75c0,.1-.63,0-1.32-.2s-1.2-.58-1.16-.67.61.07,1.28.31S255.13,288.65,255.11,288.75Z" style="fill:#263238"></path><path d="M264.76,287.65c.06.09-.28.41-.75.72s-.91.5-1,.41.28-.41.76-.72S264.7,287.56,264.76,287.65Z" style="fill:#263238"></path><path d="M265.29,292.66c0,.1-.34.26-.8.36s-.85.09-.87,0,.34-.26.79-.36S265.26,292.56,265.29,292.66Z" style="fill:#263238"></path><path d="M265.9,298.3c0,.09-.56-.05-1.15-.32s-1-.57-1-.67.55.05,1.14.32S265.94,298.2,265.9,298.3Z" style="fill:#263238"></path><path d="M264.6,303.78c-.08.07-.41-.2-.74-.6s-.53-.78-.45-.85.41.21.74.61S264.68,303.72,264.6,303.78Z" style="fill:#263238"></path><path d="M264.34,284c.06.08-.16.36-.53.54s-.73.2-.76.1.25-.26.59-.43S264.28,283.88,264.34,284Z" style="fill:#263238"></path><path d="M269.07,289c0,.1-.4.34-1,.42s-1.09,0-1.08-.13.47-.16,1-.24S269,288.91,269.07,289Z" style="fill:#263238"></path><path d="M268.13,284.48c0,.09-.39.4-1,.59s-1.15.2-1.16.1.46-.27,1.05-.45S268.08,284.38,268.13,284.48Z" style="fill:#263238"></path><path d="M270.1,296a2.88,2.88,0,0,1-1.64,0,3,3,0,0,1-1.53-.58,4.94,4.94,0,0,1,1.6.21A5,5,0,0,1,270.1,296Z" style="fill:#263238"></path><path d="M268.35,302.63c-.07.09-.61-.24-1.16-.79s-.87-1.09-.79-1.16.53.37,1.06.9S268.41,302.55,268.35,302.63Z" style="fill:#263238"></path><path d="M260.62,279.11a16.56,16.56,0,0,0-3.31,2.61,16.17,16.17,0,0,0-4.11,9.09,20.65,20.65,0,0,0,.25,5.56c.3,1.7.69,3.21,1,4.47s.7,2.27.92,3a9.21,9.21,0,0,1,.32,1.09,5.58,5.58,0,0,1-.46-1c-.26-.69-.63-1.69-1-2.94a39.51,39.51,0,0,1-1.13-4.49,20.14,20.14,0,0,1-.28-5.67,15.94,15.94,0,0,1,4.29-9.23,11.81,11.81,0,0,1,2.47-1.92,7,7,0,0,1,.75-.39A1,1,0,0,1,260.62,279.11Z" style="fill:#fff"></path><path d="M265.75,305.15a43.64,43.64,0,0,0,1.69-4,22.89,22.89,0,0,0,1-10.39,19.66,19.66,0,0,0-1.6-5.55,13.15,13.15,0,0,0-2.73-3.81,10.32,10.32,0,0,0-2.68-1.69c-.7-.29-1.12-.36-1.11-.39a.91.91,0,0,1,.31,0,7.14,7.14,0,0,1,.85.23,9.26,9.26,0,0,1,2.8,1.63,13,13,0,0,1,2.87,3.86,19.26,19.26,0,0,1,1.67,5.64,22.07,22.07,0,0,1-1.14,10.54c-.21.65-.48,1.21-.69,1.71s-.44.91-.62,1.24A8.94,8.94,0,0,1,265.75,305.15Z" style="fill:#fff"></path></g><g id="freepik--Balloons--inject-7"><path d="M589.35,278a7.89,7.89,0,0,0-3-2.37,31.1,31.1,0,0,0,7.23-47,27.76,27.76,0,0,0-17.16-9.46,22.54,22.54,0,0,0-18.43,6c-5.47,5.41-7.45,13.79-6,21.34s6.11,14.24,12,19.2,12.67,8.16,19.78,10.66a10.16,10.16,0,0,0-1.74,3.88,2.39,2.39,0,0,0,.36,2.2c.76.77,2.18.29,2.74-.63a5.38,5.38,0,0,0,.44-3.16,5.31,5.31,0,0,0,1.78,2.18,1.82,1.82,0,0,0,2.5-.49A2.32,2.32,0,0,0,589.35,278Z" style="fill:#40DF6B"></path><path d="M574.79,256.14l-2.66-3-.13,0-2.34.29.41,3.31-2.69.33-1.48-11.87,5-.63c3.11-.38,5.26,1,5.59,3.68a3.9,3.9,0,0,1-1.93,4l3.09,3.49Zm-3.73-9.32-2.19.27.52,4.14,2.19-.27c1.64-.21,2.38-1.09,2.22-2.38S572.71,246.62,571.06,246.82Z" style="fill:#fff"></path><path d="M588.32,252.21l.28,2.21-9,1.12-1.48-11.87,8.79-1.1.27,2.21-6.11.76.32,2.58,5.4-.68.27,2.14-5.4.67L582,253Z" style="fill:#fff"></path><path d="M560.09,256.86a7.2,7.2,0,0,1-.78-1,10.65,10.65,0,0,1-.82-1.22,17,17,0,0,1-1-1.7,18.12,18.12,0,0,1-1-2.15,26.54,26.54,0,0,1-.88-2.57,29.67,29.67,0,0,1-1-6.12,29.21,29.21,0,0,1,.42-6.2,25.59,25.59,0,0,1,.63-2.64,19.27,19.27,0,0,1,.77-2.23,17,17,0,0,1,.79-1.78A11.73,11.73,0,0,1,558,228a5.9,5.9,0,0,1,.69-1c.1,0-.86,1.56-1.84,4.23a20.16,20.16,0,0,0-.69,2.22,25,25,0,0,0-.58,2.6,31.21,31.21,0,0,0-.37,6.09,30.37,30.37,0,0,0,.93,6c.27.9.49,1.76.81,2.54a20.92,20.92,0,0,0,.9,2.14C559.09,255.38,560.19,256.8,560.09,256.86Z" style="fill:#fff"></path><path d="M568.08,262.88a4.65,4.65,0,0,1-2.37-1.11c-1.19-.86-1.89-1.83-1.79-1.92a11.83,11.83,0,0,1,2.1,1.5C567.15,262.17,568.15,262.74,568.08,262.88Z" style="fill:#fff"></path><path d="M585.6,278.61a2.61,2.61,0,0,1,.08.37,4.82,4.82,0,0,1,.15,1.1,9.53,9.53,0,0,1-.87,4.15,24.52,24.52,0,0,1-3.59,5.69c-.83,1-1.77,2.06-2.81,3.12s-2.23,2.12-3.39,3.26a17.58,17.58,0,0,0-4.76,9.34,15.57,15.57,0,0,0,13.87,18.17,17.38,17.38,0,0,0,7-.57,15.47,15.47,0,0,0,6.28-3.62,10.54,10.54,0,0,0,3.32-6.3,7.19,7.19,0,0,0-2.37-6.27,7,7,0,0,0-6.39-1,9.65,9.65,0,0,0-5.08,3.89,17.32,17.32,0,0,0-2.49,5.73,23.52,23.52,0,0,0-.67,5.89,31.49,31.49,0,0,0,2,10.46,56.78,56.78,0,0,0,7.64,13.5c1.08,1.49,2,2.62,2.54,3.4l.67.88a2,2,0,0,1,.21.31,3.09,3.09,0,0,1-.26-.28L596,349c-.62-.75-1.51-1.87-2.62-3.34a55.44,55.44,0,0,1-7.83-13.49,31.74,31.74,0,0,1-2.08-10.58,23.56,23.56,0,0,1,.66-6,17.27,17.27,0,0,1,2.54-5.89,10.13,10.13,0,0,1,5.33-4.1,7.46,7.46,0,0,1,6.85,1.1,7.72,7.72,0,0,1,2.56,6.72A11,11,0,0,1,598,320a15.87,15.87,0,0,1-6.49,3.75,18.09,18.09,0,0,1-7.26.58A16,16,0,0,1,570,305.57a17.89,17.89,0,0,1,4.92-9.53c1.2-1.17,2.38-2.16,3.42-3.23s2-2.08,2.82-3.08a24.82,24.82,0,0,0,3.62-5.58,9.65,9.65,0,0,0,1-4.07,5.6,5.6,0,0,0-.09-1.09A1.81,1.81,0,0,1,585.6,278.61Z" style="fill:#263238"></path><path d="M627.61,230.27a1.88,1.88,0,0,1,.28.24l.78.74a28.43,28.43,0,0,1,2.87,3,41.31,41.31,0,0,1,7.69,13.07,41.93,41.93,0,0,1,1.5,4.82c.2.86.48,1.72.62,2.62s.3,1.82.46,2.75a48.92,48.92,0,0,1,.15,12.07,45.84,45.84,0,0,1-3.47,12.87,43.77,43.77,0,0,1-7.91,11.93,113.39,113.39,0,0,1-10.4,9.83c-3.5,3-6.91,5.88-10,8.82a52.47,52.47,0,0,0-7.75,9.12,40.69,40.69,0,0,0-4.57,9.36,28.11,28.11,0,0,0-1.55,8.43c-.05.64,0,1.25,0,1.84l0,.86.12.82c.08.54.15,1.06.24,1.54s.24.94.36,1.37a14.14,14.14,0,0,0,.78,2.24,9,9,0,0,0,.74,1.57l.5.95a1.48,1.48,0,0,1,.15.33l-.2-.3c-.13-.24-.31-.54-.54-.93a9.3,9.3,0,0,1-.8-1.56,15.85,15.85,0,0,1-.83-2.25l-.38-1.37c-.1-.49-.17-1-.26-1.55l-.14-.83c0-.29,0-.58,0-.88,0-.59-.1-1.21-.06-1.85a28.3,28.3,0,0,1,1.49-8.55,40.94,40.94,0,0,1,4.56-9.48,52.12,52.12,0,0,1,7.78-9.22c3.05-3,6.46-5.85,10-8.86A115.56,115.56,0,0,0,630.2,294,43.67,43.67,0,0,0,638,282.23a45.85,45.85,0,0,0,3.45-12.72,48.6,48.6,0,0,0-.1-12c-.15-.92-.3-1.84-.44-2.73s-.41-1.75-.6-2.6a41.44,41.44,0,0,0-1.46-4.79,42.18,42.18,0,0,0-7.5-13.07,32.94,32.94,0,0,0-2.78-3l-.75-.77A1.88,1.88,0,0,1,627.61,230.27Z" style="fill:#263238"></path><path d="M633.2,232.44a7.91,7.91,0,0,0-3-2.43,31.11,31.11,0,0,0,8.14-46.83,27.73,27.73,0,0,0-17-9.79,22.5,22.5,0,0,0-18.53,5.6c-5.58,5.29-7.72,13.64-6.39,21.21s5.83,14.37,11.61,19.44,12.52,8.4,19.58,11a10.08,10.08,0,0,0-1.82,3.84,2.41,2.41,0,0,0,.32,2.21c.75.78,2.18.33,2.75-.58a5.35,5.35,0,0,0,.5-3.15,5.32,5.32,0,0,0,1.74,2.22,1.83,1.83,0,0,0,2.51-.44A2.31,2.31,0,0,0,633.2,232.44Z" style="fill:#40DF6B"></path><path d="M609.59,207c-1.46-3.24,0-6.77,3.44-8.32s7-.3,8.5,3a6.2,6.2,0,0,1-3.44,8.33C614.64,211.54,611,210.28,609.59,207Zm9.38-4.21a3.75,3.75,0,1,0-1.85,5A3.65,3.65,0,0,0,619,202.82Z" style="fill:#fff"></path><path d="M632.23,195.08c1.09,2.43-.06,4.76-3,6.07l-2.2,1,1.35,3-2.53,1.13L621,195.36l4.72-2.12C628.63,191.94,631.13,192.63,632.23,195.08Zm-2.56,1.14c-.54-1.2-1.63-1.55-3.18-.86l-2,.93,1.7,3.79,2.05-.93C629.74,198.46,630.2,197.41,629.67,196.22Z" style="fill:#fff"></path><path d="M602,206.74a4.18,4.18,0,0,1-.52-.88,7.87,7.87,0,0,1-.52-1.08,13.91,13.91,0,0,1-.58-1.48,24.26,24.26,0,0,1-1-4,27.26,27.26,0,0,1-.29-5.06,27.6,27.6,0,0,1,.75-5,23.74,23.74,0,0,1,1.38-3.91,15.63,15.63,0,0,1,.71-1.42,11.75,11.75,0,0,1,.61-1,4,4,0,0,1,.61-.82c.08.05-.71,1.27-1.59,3.42a27.19,27.19,0,0,0-1.25,3.87,30,30,0,0,0-.7,4.93,29.26,29.26,0,0,0,.25,5,26.89,26.89,0,0,0,.89,4C601.42,205.41,602.09,206.7,602,206.74Z" style="fill:#fff"></path><path d="M608.05,177.88c.09.11-.56.73-1.44,1.38s-1.66,1.08-1.74,1,.56-.74,1.43-1.39S608,177.76,608.05,177.88Z" style="fill:#fff"></path><path d="M661.74,256.69a1,1,0,0,1,0,.31v.91c0,.81,0,2-.15,3.51a58.49,58.49,0,0,1-2.42,12.69,55,55,0,0,1-8.67,17.06,44.69,44.69,0,0,1-8,8.05,76,76,0,0,1-10.24,6.58c-3.64,2-7.25,3.88-10.61,5.88a61.38,61.38,0,0,0-9.18,6.52,38,38,0,0,0-6.69,7.62,32.39,32.39,0,0,0-3.78,8,29.24,29.24,0,0,0-1.29,12.68,24.13,24.13,0,0,0,.7,3.43c.1.36.18.65.25.87a1.58,1.58,0,0,1,.07.31,1.48,1.48,0,0,1-.12-.29l-.3-.86a20.51,20.51,0,0,1-.8-3.43,28.66,28.66,0,0,1,1.14-12.82,32.48,32.48,0,0,1,3.77-8.11,38.31,38.31,0,0,1,6.74-7.75,61.17,61.17,0,0,1,9.22-6.59c3.38-2,7-3.89,10.63-5.9a78.08,78.08,0,0,0,10.18-6.53,44.38,44.38,0,0,0,7.92-7.94,55.31,55.31,0,0,0,8.7-16.88,62.13,62.13,0,0,0,2.57-12.59c.16-1.52.22-2.7.25-3.5,0-.38,0-.68.05-.91A1.44,1.44,0,0,1,661.74,256.69Z" style="fill:#263238"></path><path d="M666.5,257.22a7.84,7.84,0,0,0-1.49-3.51,31.12,31.12,0,0,0,28.85-37.78,27.71,27.71,0,0,0-10.54-16.53,22.53,22.53,0,0,0-19-3.59c-7.4,2.12-13.15,8.53-15.46,15.87s-1.47,15.43,1.32,22.6,7.21,13.23,12.26,18.83a10.07,10.07,0,0,0-3.39,2.57,2.42,2.42,0,0,0-.73,2.11c.3,1,1.77,1.3,2.7.75a5.41,5.41,0,0,0,1.9-2.56,5.22,5.22,0,0,0,.52,2.77,1.83,1.83,0,0,0,2.43.77A2.33,2.33,0,0,0,666.5,257.22Z" style="fill:#40DF6B"></path><path d="M667.67,228.22l-.15,2.22-9.24-.66.85-11.93,9,.64-.16,2.22-6.27-.45-.19,2.59,5.54.39-.15,2.15-5.54-.39-.2,2.76Z" style="fill:#fff"></path><path d="M681.51,219.45l-.85,11.93-2.27-.16L673,223.55l-.52,7.24-2.72-.19.85-11.94,2.28.17,5.42,7.67.52-7.25Z" style="fill:#fff"></path><path d="M652.93,235.47a8.12,8.12,0,0,1-.68-1.38,41.22,41.22,0,0,1-1.49-3.9A34.07,34.07,0,0,1,649,216.56a22.78,22.78,0,0,1,5.18-12.65,16.51,16.51,0,0,1,3.1-2.82,10.93,10.93,0,0,1,1-.61c.23-.13.35-.19.36-.17a24.29,24.29,0,0,0-4.13,3.84,23.2,23.2,0,0,0-5,12.46,35.93,35.93,0,0,0,1.61,13.47c.51,1.68,1,3,1.33,3.94A8.41,8.41,0,0,1,652.93,235.47Z" style="fill:#fff"></path><path d="M658.26,244.11a5.54,5.54,0,0,1-2-2.27,5.67,5.67,0,0,1-1-2.83,20.32,20.32,0,0,1,1.44,2.57A19.41,19.41,0,0,1,658.26,244.11Z" style="fill:#fff"></path><path d="M679.66,288a1,1,0,0,1-.11.26c-.09.19-.21.42-.36.72-.34.63-.79,1.58-1.51,2.73a53.23,53.23,0,0,1-6.89,9.16,58,58,0,0,1-5.78,5.44,57.27,57.27,0,0,1-16.57,9.51A62.6,62.6,0,0,1,638,318.64c-3.63.71-7.19,1.3-10.54,2.16a35.09,35.09,0,0,0-9.26,3.61,27,27,0,0,0-6.78,5.85,38,38,0,0,0-4.29,6.58,79.8,79.8,0,0,0-4.37,10.56c-.43,1.25-.76,2.23-1,3l-.27.76a1,1,0,0,1-.11.26.93.93,0,0,1,.06-.28c0-.2.13-.46.22-.78.19-.68.49-1.69.9-3a74,74,0,0,1,4.24-10.65A37.85,37.85,0,0,1,611.1,330a26.66,26.66,0,0,1,6.87-6,35.45,35.45,0,0,1,9.37-3.7c3.38-.87,6.95-1.46,10.57-2.17a62.8,62.8,0,0,0,10.35-2.76,58.86,58.86,0,0,0,9-4.24,58.39,58.39,0,0,0,13.22-10.48,54.93,54.93,0,0,0,7-9c.75-1.12,1.23-2.06,1.6-2.67l.41-.7A1.57,1.57,0,0,1,679.66,288Z" style="fill:#263238"></path><path d="M683.42,291.59a7.92,7.92,0,0,0,1-3.68,31.12,31.12,0,0,0,46-11.83,27.69,27.69,0,0,0,1.95-19.5A22.51,22.51,0,0,0,719.69,242c-7.12-2.9-15.6-1.43-22,2.9s-10.7,11.21-13,18.57-2.53,14.86-2,22.38a10,10,0,0,0-4.25-.07,2.4,2.4,0,0,0-1.88,1.2c-.4,1,.59,2.11,1.66,2.26a5.41,5.41,0,0,0,3.07-.83,5.31,5.31,0,0,0-1.3,2.49,1.83,1.83,0,0,0,1.43,2.11A2.32,2.32,0,0,0,683.42,291.59Z" style="fill:#40DF6B"></path><path d="M703.69,256.32l1.72,2.17L696,265.9l-1.71-2.18Z" style="fill:#fff"></path><path d="M714,269.34l-9.4,7.4-1.4-1.78,2-9.18-5.71,4.49-1.69-2.14,9.39-7.41,1.42,1.8-2,9.17,5.7-4.5Z" style="fill:#fff"></path><path d="M716.17,281.5l1.57,2-3.81,3a8.2,8.2,0,0,1-4.19-2.85c-2.33-3-2-6.73.81-9s6.58-1.66,8.93,1.33a6.38,6.38,0,0,1,1.48,5.22l-2.39-.38a4,4,0,0,0-.85-3.27,3.83,3.83,0,1,0-6,4.72,4.45,4.45,0,0,0,1.74,1.37Z" style="fill:#fff"></path><path d="M709.87,243.15a12.18,12.18,0,0,1-1.56.52,35.25,35.25,0,0,0-4.17,1.66,31.9,31.9,0,0,0-17.69,22.31,33.14,33.14,0,0,0-.67,4.43,13.08,13.08,0,0,1-.16,1.64,1.24,1.24,0,0,1,0-.42c0-.28,0-.7,0-1.23a28.14,28.14,0,0,1,.5-4.5A31,31,0,0,1,704,245a27.71,27.71,0,0,1,4.26-1.52c.51-.15.92-.22,1.2-.28A1.22,1.22,0,0,1,709.87,243.15Z" style="fill:#fff"></path><path d="M685.48,283a15.13,15.13,0,0,1,.41-5.53,7.55,7.55,0,0,1,.05,2.78A7.69,7.69,0,0,1,685.48,283Z" style="fill:#fff"></path></g><g id="freepik--Board--inject-7"><polygon points="549.01 477.42 569.75 351.18 636.69 466.14 636.69 477.42 617.41 477.42 617.78 468.06 573.39 468.06 571.21 477.42 549.01 477.42" style="fill:#263238"></polygon><polygon points="569.75 351.18 586.85 477.42 606.13 477.42 606.13 467.96 650.15 468.32 652.34 477.42 671.98 477.42 654.52 351.18 569.75 351.18" style="fill:#263238"></polygon><path d="M587.31,476.94c-.14,0-4.23-27.81-9.14-62.15s-8.77-62.22-8.63-62.24,4.24,27.81,9.15,62.16S587.45,476.92,587.31,476.94Z" style="fill:#455a64"></path><polygon points="576.61 356.61 590.19 463.43 663.34 462.59 648.49 356.61 576.61 356.61" style="fill:#455a64"></polygon><path d="M623.17,374.81c0,.94-2.68,1.7-6,1.7s-6-.76-6-1.7,2.68-1.7,6-1.7S623.17,373.87,623.17,374.81Z" style="fill:#ebebeb"></path><path d="M611.37,369.65a5.75,5.75,0,0,0,6.06,5.69,6.07,6.07,0,0,0,6.07-6.07Z" style="fill:#e0e0e0"></path><path d="M623.49,369.53c0,1.24-2.71,2.24-6.06,2.24s-6.07-1-6.07-2.24,2.72-2.23,6.07-2.23S623.49,368.3,623.49,369.53Z" style="fill:#f5f5f5"></path><path d="M611.85,370.41A12.9,12.9,0,0,1,623,370.3a3.31,3.31,0,0,1-1.49.86C619.25,371.94,614.3,372.06,611.85,370.41Z" style="fill:#aa6550"></path><path d="M623.49,369.53s0-.1-.06-.27a1.58,1.58,0,0,0-.48-.61,6.34,6.34,0,0,0-2.71-1,15.8,15.8,0,0,0-4.33-.17,12,12,0,0,0-2.5.5,5.17,5.17,0,0,0-1.22.56,2.69,2.69,0,0,0-.27.2,1.36,1.36,0,0,0-.24.24,1,1,0,0,0-.24.59,1.05,1.05,0,0,0,.24.6,1.75,1.75,0,0,0,.24.23,1.71,1.71,0,0,0,.27.2,5.17,5.17,0,0,0,1.22.56,11.42,11.42,0,0,0,2.5.5,15.8,15.8,0,0,0,4.33-.17,6.34,6.34,0,0,0,2.71-1,1.58,1.58,0,0,0,.48-.61c.05-.17.05-.27.06-.27a1,1,0,0,1,0,.28,1.51,1.51,0,0,1-.47.65,6.34,6.34,0,0,1-2.72,1.1,15.24,15.24,0,0,1-4.37.2,11.84,11.84,0,0,1-2.54-.49,5.3,5.3,0,0,1-1.26-.58,2.92,2.92,0,0,1-.28-.21,2.13,2.13,0,0,1-.26-.26,1.15,1.15,0,0,1-.28-.69,1.21,1.21,0,0,1,.28-.69l.26-.26a2.92,2.92,0,0,1,.28-.21,5.26,5.26,0,0,1,1.26-.57,11.3,11.3,0,0,1,2.54-.5,15.63,15.63,0,0,1,4.37.2,6.34,6.34,0,0,1,2.72,1.1,1.51,1.51,0,0,1,.47.65A1,1,0,0,1,623.49,369.53Z" style="fill:#263238"></path><path d="M616.15,361.18s.06.09,0,.26a1.39,1.39,0,0,1-.43.53.85.85,0,0,0-.24.35.71.71,0,0,0,.09.46,4.22,4.22,0,0,0,.34.47,1.2,1.2,0,0,1,.23.63.64.64,0,0,1-.13.34c-.08.09-.16.16-.23.23a.53.53,0,0,0-.22.45c0,.34.33.56.49.81a.67.67,0,0,1,.11.67.28.28,0,0,1-.18.18s.08-.06.13-.2a.65.65,0,0,0-.15-.59c-.08-.11-.19-.22-.3-.35a1,1,0,0,1-.25-.5.63.63,0,0,1,.06-.33,1,1,0,0,1,.2-.25c.16-.14.31-.28.31-.46a.92.92,0,0,0-.2-.54,3.82,3.82,0,0,1-.33-.49.7.7,0,0,1-.09-.56.78.78,0,0,1,.29-.4,1.43,1.43,0,0,0,.44-.48A.57.57,0,0,0,616.15,361.18Z" style="fill:#263238"></path><path d="M617.54,361.18a.32.32,0,0,1,0,.26,1.3,1.3,0,0,1-.43.53.82.82,0,0,0-.23.35.6.6,0,0,0,.09.46,4.07,4.07,0,0,0,.33.47,1.05,1.05,0,0,1,.23.63.64.64,0,0,1-.13.34,1.67,1.67,0,0,1-.23.23.53.53,0,0,0-.22.45c0,.34.34.56.5.81a.69.69,0,0,1,.11.67.33.33,0,0,1-.18.18s.07-.06.12-.2a.64.64,0,0,0-.14-.59l-.31-.35a1,1,0,0,1-.24-.5.48.48,0,0,1,.06-.33.82.82,0,0,1,.2-.25c.15-.14.3-.28.3-.46a.92.92,0,0,0-.2-.54,5.25,5.25,0,0,1-.33-.49.79.79,0,0,1-.09-.56.83.83,0,0,1,.29-.4,1.33,1.33,0,0,0,.44-.48C617.55,361.27,617.52,361.18,617.54,361.18Z" style="fill:#263238"></path><path d="M618.92,361.18s.06.09,0,.26a1.26,1.26,0,0,1-.42.53.85.85,0,0,0-.24.35.6.6,0,0,0,.09.46,4.07,4.07,0,0,0,.33.47,1.05,1.05,0,0,1,.23.63.57.57,0,0,1-.13.34,2.44,2.44,0,0,1-.22.23.54.54,0,0,0-.23.45c0,.34.34.56.5.81a.67.67,0,0,1,.11.67.28.28,0,0,1-.18.18s.08-.06.12-.2a.64.64,0,0,0-.14-.59c-.08-.11-.19-.22-.3-.35a1,1,0,0,1-.25-.5.54.54,0,0,1,.06-.33,1,1,0,0,1,.2-.25.76.76,0,0,0,.31-.46.92.92,0,0,0-.2-.54,5.36,5.36,0,0,1-.34-.49.79.79,0,0,1-.09-.56.9.9,0,0,1,.29-.4,1.25,1.25,0,0,0,.44-.48A.76.76,0,0,0,618.92,361.18Z" style="fill:#263238"></path><path d="M622.35,374.12a2,2,0,0,1-.94-.24l.39-.72a1.16,1.16,0,1,0,1.11-2l.4-.71a2,2,0,0,1,.78,2.68,1.93,1.93,0,0,1-1.18,1A1.77,1.77,0,0,1,622.35,374.12Z" style="fill:#e0e0e0"></path><path d="M623.07,374.83s0,0-.08.1a3.15,3.15,0,0,1-.28.23,4.4,4.4,0,0,1-1.19.57,14.8,14.8,0,0,1-4.31.61,15.24,15.24,0,0,1-4.32-.59,3.45,3.45,0,0,1-1.17-.63,2.66,2.66,0,0,1-.25-.26c-.05-.07-.07-.11-.06-.11s.11.13.35.32a3.55,3.55,0,0,0,1.16.57,16,16,0,0,0,4.29.54,16.39,16.39,0,0,0,4.28-.55,5.11,5.11,0,0,0,1.19-.52C622.94,374.94,623.07,374.82,623.07,374.83Z" style="fill:#263238"></path><path d="M619.54,375.15a2.35,2.35,0,0,1-.59.16,8.37,8.37,0,0,1-1.48.13,8.07,8.07,0,0,1-1.48-.14,2.24,2.24,0,0,1-.6-.17c0-.05.93.16,2.08.16S619.53,375.1,619.54,375.15Z" style="fill:#263238"></path><path d="M590.43,382.42a2.73,2.73,0,0,1,2.88-2.75,2.78,2.78,0,0,1,2.19.94l-.79.73a1.72,1.72,0,0,0-1.34-.62,1.7,1.7,0,0,0,0,3.4,1.7,1.7,0,0,0,1.34-.63l.79.73a2.77,2.77,0,0,1-2.2.95A2.72,2.72,0,0,1,590.43,382.42Z" style="fill:#263238"></path><path d="M595.88,382.42a2.91,2.91,0,1,1,2.9,2.75A2.75,2.75,0,0,1,595.88,382.42Zm4.57,0a1.67,1.67,0,1,0-1.67,1.7A1.63,1.63,0,0,0,600.45,382.42Z" style="fill:#263238"></path><path d="M603.85,380.75v1.4h2.46v1h-2.46v1.94h-1.23v-5.32h4v1Z" style="fill:#263238"></path><path d="M608.7,380.75v1.4h2.46v1H608.7v1.94h-1.23v-5.32h4v1Z" style="fill:#263238"></path><path d="M616.43,384.09v1h-4.11v-5.32h4v1h-2.8v1.15H616v1h-2.47v1.23Z" style="fill:#263238"></path><path d="M621.41,384.09v1h-4.12v-5.32h4v1h-2.79v1.15H621v1h-2.46v1.23Z" style="fill:#263238"></path><path d="M623.07,384.41l.2-.3a2.36,2.36,0,0,0,1.7.66c1,0,1.69-.42,1.69-1.17,0-1.31-2.81-.67-2.81-2.3,0-1,.87-1.58,2.06-1.58a2.71,2.71,0,0,1,1.6.47l-.18.32a2.37,2.37,0,0,0-1.44-.44c-1,0-1.65.44-1.65,1.19,0,1.33,2.81.7,2.81,2.29,0,1-.91,1.56-2.11,1.56A2.59,2.59,0,0,1,623.07,384.41Z" style="fill:#263238"></path><path d="M633.48,379.76l-1.07,5.32H632l.5-2.52H629l-.5,2.52h-.39l1.06-5.32h.39l-.49,2.44h3.55l.49-2.44Z" style="fill:#263238"></path><path d="M634.25,382.93a3.1,3.1,0,0,1,3.18-3.21,2.14,2.14,0,0,1,2.43,2.19,3.1,3.1,0,0,1-3.19,3.2A2.13,2.13,0,0,1,634.25,382.93Zm5.22-1c0-1.11-.71-1.85-2.08-1.85a2.73,2.73,0,0,0-2.76,2.83c0,1.1.72,1.85,2.08,1.85A2.72,2.72,0,0,0,639.47,381.93Z" style="fill:#263238"></path><path d="M645.4,381.23c0,1.36-.94,2.11-2.45,2.11h-1.58l-.35,1.74h-.39l1.06-5.32h1.85C644.71,379.76,645.4,380.29,645.4,381.23Zm-.4,0c0-.75-.53-1.15-1.48-1.15H642l-.58,2.88H643C644.25,383,645,382.4,645,381.26Z" style="fill:#263238"></path><path d="M649.17,391.21c0,.14-14.3.26-31.94.26s-31.94-.12-31.94-.26,14.29-.26,31.94-.26S649.17,391.07,649.17,391.21Z" style="fill:#263238"></path><path d="M623.28,399.52c0,.15-8,.26-17.93.26s-17.93-.11-17.93-.26,8-.26,17.93-.26S623.28,399.38,623.28,399.52Z" style="fill:#263238"></path><path d="M649.17,398.57a5.57,5.57,0,0,1-2.38.26,5.5,5.5,0,0,1-2.37-.26,5.69,5.69,0,0,1,2.37-.26A5.76,5.76,0,0,1,649.17,398.57Z" style="fill:#263238"></path><path d="M623.76,405c0,.15-8,.26-17.93.26s-17.93-.11-17.93-.26,8-.26,17.93-.26S623.76,404.84,623.76,405Z" style="fill:#263238"></path><path d="M649.64,404a5.5,5.5,0,0,1-2.37.26,5.57,5.57,0,0,1-2.38-.26,5.76,5.76,0,0,1,2.38-.26A5.69,5.69,0,0,1,649.64,404Z" style="fill:#263238"></path><path d="M625,410.5c0,.14-8,.26-17.93.26s-17.93-.12-17.93-.26,8-.27,17.93-.27S625,410.35,625,410.5Z" style="fill:#263238"></path><path d="M650.85,409.55a5.76,5.76,0,0,1-2.38.26,5.69,5.69,0,0,1-2.37-.26,5.42,5.42,0,0,1,2.37-.27A5.48,5.48,0,0,1,650.85,409.55Z" style="fill:#263238"></path><path d="M626.56,416.06c0,.14-8,.26-17.93.26s-17.93-.12-17.93-.26,8-.26,17.93-.26S626.56,415.92,626.56,416.06Z" style="fill:#263238"></path><path d="M652.45,415.11a5.76,5.76,0,0,1-2.38.26,5.69,5.69,0,0,1-2.37-.26,5.69,5.69,0,0,1,2.37-.26A5.76,5.76,0,0,1,652.45,415.11Z" style="fill:#263238"></path><path d="M627.61,421.15c0,.14-8,.26-17.93.26s-17.93-.12-17.93-.26,8-.26,17.93-.26S627.61,421,627.61,421.15Z" style="fill:#263238"></path><path d="M653.5,420.2a5.76,5.76,0,0,1-2.38.26,5.69,5.69,0,0,1-2.37-.26,5.69,5.69,0,0,1,2.37-.26A5.76,5.76,0,0,1,653.5,420.2Z" style="fill:#263238"></path><path d="M628.16,427.05c0,.15-8,.26-17.93.26s-17.93-.11-17.93-.26,8-.26,17.93-.26S628.16,426.91,628.16,427.05Z" style="fill:#263238"></path><path d="M654.05,426.1a5.57,5.57,0,0,1-2.38.26,5.5,5.5,0,0,1-2.37-.26,5.69,5.69,0,0,1,2.37-.26A5.76,5.76,0,0,1,654.05,426.1Z" style="fill:#263238"></path><path d="M628.71,433c0,.15-8,.27-17.93.27s-17.93-.12-17.93-.27,8-.26,17.93-.26S628.71,432.81,628.71,433Z" style="fill:#263238"></path><path d="M654.6,432a5.76,5.76,0,0,1-2.38.26,5.69,5.69,0,0,1-2.37-.26,5.42,5.42,0,0,1,2.37-.27A5.48,5.48,0,0,1,654.6,432Z" style="fill:#263238"></path><path d="M629.26,438.86c0,.14-8,.26-17.93.26s-17.93-.12-17.93-.26,8-.26,17.93-.26S629.26,438.71,629.26,438.86Z" style="fill:#263238"></path><path d="M655.15,437.91a5.76,5.76,0,0,1-2.38.26,5.69,5.69,0,0,1-2.37-.26,5.5,5.5,0,0,1,2.37-.26A5.57,5.57,0,0,1,655.15,437.91Z" style="fill:#263238"></path><path d="M629.81,444.76c0,.14-8,.26-17.93.26S594,444.9,594,444.76s8-.26,17.93-.26S629.81,444.62,629.81,444.76Z" style="fill:#263238"></path><path d="M655.7,443.81a5.76,5.76,0,0,1-2.38.26,5.69,5.69,0,0,1-2.37-.26,5.69,5.69,0,0,1,2.37-.26A5.76,5.76,0,0,1,655.7,443.81Z" style="fill:#263238"></path><path d="M630.36,450.66c0,.15-8,.26-17.93.26s-17.93-.11-17.93-.26,8-.26,17.93-.26S630.36,450.52,630.36,450.66Z" style="fill:#263238"></path><path d="M656.25,449.71a5.57,5.57,0,0,1-2.38.26,5.5,5.5,0,0,1-2.37-.26,5.69,5.69,0,0,1,2.37-.26A5.76,5.76,0,0,1,656.25,449.71Z" style="fill:#263238"></path></g><g id="freepik--Plant--inject-7"><path d="M83,386.38a47.93,47.93,0,0,1,45.71-12.54,83.27,83.27,0,0,1-46.25,14.45" style="fill:#40DF6B"></path><path d="M98.47,331.48c-1.9-13.46,3.33-28.62,13.42-38.41.33,13.35-5.3,28.37-13.42,38.41" style="fill:#40DF6B"></path><path d="M90.41,356.93a71.94,71.94,0,0,1,33-31.57,45.37,45.37,0,0,1-33.15,31.71" style="fill:#40DF6B"></path><path d="M88.74,361.84c8.13.22,16.37-.06,24.23-2.14s15.41-6.09,20.64-12.32A81.05,81.05,0,0,0,88.86,361" style="fill:#40DF6B"></path><path d="M92.87,345.67c-4.13-15.48-10.94-26.19-23.11-34.86a32.19,32.19,0,0,0,23.11,34.86" style="fill:#40DF6B"></path><path d="M62.16,372.36a22.92,22.92,0,0,1,13.92-21.22c-.68,8-7,17.23-13.92,21.22" style="fill:#40DF6B"></path><path d="M58.27,359.31a34.12,34.12,0,0,0-22.36-29.12c2.81,12.93,10.29,23.7,22.36,29.12" style="fill:#40DF6B"></path><path d="M64.13,382.46c-2.87-4.1-7.55-6.65-12.39-7.92s-9.91-1.38-14.91-1.48a34.84,34.84,0,0,0,26.92,11.21" style="fill:#40DF6B"></path><path d="M70,415.45a38.21,38.21,0,0,0-46.65,22.1c17-3.22,33.67-10.74,46.65-22.1" style="fill:#40DF6B"></path><path d="M88.54,404c-2.81,8.32-2.27,18.37,4,25.54a30.47,30.47,0,0,0-4-25.54" style="fill:#40DF6B"></path><path d="M99.53,399.36a31.3,31.3,0,0,0,17.29,25.4,2,2,0,0,0,1.53.25c.76-.31.83-1.35.74-2.17-1.23-10.65-9.13-21-19.56-23.48" style="fill:#40DF6B"></path><path d="M106.71,398.28a25.67,25.67,0,0,0,37.5.2c-11.92-1.31-25.67-2.18-37.5-.2" style="fill:#40DF6B"></path><path d="M108.5,303s0,.12-.11.35l-.37,1c-.33.9-.82,2.2-1.43,3.86s-1.39,3.73-2.24,6.12c-.43,1.19-.9,2.47-1.38,3.82s-1,2.8-1.49,4.31c-2.11,6-4.46,13.28-7,21.35s-5.1,17-7.66,26.41-4.78,18.45-6.69,26.68-3.46,15.69-4.61,22c-.3,1.57-.58,3.07-.85,4.49s-.47,2.75-.68,4c-.43,2.5-.8,4.65-1,6.42s-.48,3.12-.63,4.07c-.07.45-.13.8-.17,1.06s-.07.36-.07.36a2,2,0,0,1,0-.36l.13-1.07c.13-.95.31-2.33.54-4.08s.57-3.94,1-6.45c.2-1.25.42-2.59.65-4s.52-2.92.81-4.5c1.11-6.3,2.68-13.75,4.52-22s4.12-17.28,6.66-26.71,5.19-18.34,7.7-26.42,4.93-15.3,7.08-21.32c.54-1.51,1-2.94,1.52-4.3l1.42-3.82c.88-2.38,1.64-4.44,2.31-6.1l1.52-3.83.4-1A2.29,2.29,0,0,1,108.5,303Z" style="fill:#263238"></path><path d="M43,337.09l.2.2.57.6c.5.53,1.22,1.32,2.12,2.37a83.91,83.91,0,0,1,7,9.35,62.93,62.93,0,0,1,7.34,15.7c2,6.25,3.18,13.36,4.4,20.78,2.42,14.86,5.4,28.17,7.55,37.8,1.08,4.79,2,8.68,2.58,11.4.29,1.32.52,2.36.69,3.1l.17.81c0,.18,0,.28,0,.28a1.1,1.1,0,0,1-.09-.27c-.05-.2-.12-.47-.21-.8-.19-.73-.44-1.77-.77-3.08-.65-2.72-1.58-6.59-2.73-11.37-2.23-9.61-5.25-22.92-7.68-37.8-1.22-7.42-2.42-14.5-4.35-20.72a63.61,63.61,0,0,0-7.21-15.65,90.39,90.39,0,0,0-6.88-9.42c-.88-1.06-1.58-1.87-2-2.42l-.54-.63C43.08,337.18,43,337.1,43,337.09Z" style="fill:#263238"></path><path d="M110.27,397.78a2,2,0,0,1-.43.08l-1.23.13-.89.09-1.06.16c-.75.11-1.62.22-2.55.43l-1.48.29-1.59.41c-1.1.25-2.24.65-3.46,1A51.44,51.44,0,0,0,90,403.71a42.62,42.62,0,0,0-6.77,4.7,34.78,34.78,0,0,0-2.6,2.49,29.19,29.19,0,0,0-2,2.37,22.91,22.91,0,0,0-1.52,2.1,14.14,14.14,0,0,0-1,1.66c-.26.42-.46.78-.64,1.06s-.23.37-.25.36a2.63,2.63,0,0,1,.17-.4l.56-1.11a15.08,15.08,0,0,1,1-1.71,22.71,22.71,0,0,1,1.48-2.15,24.82,24.82,0,0,1,2-2.43A31.44,31.44,0,0,1,83,408.09a41.66,41.66,0,0,1,6.82-4.78A48,48,0,0,1,97.45,400c1.23-.36,2.38-.75,3.5-1l1.6-.38,1.5-.27c1-.19,1.82-.28,2.58-.36l1.07-.13.89,0,1.25-.06A1.44,1.44,0,0,1,110.27,397.78Z" style="fill:#263238"></path><path d="M113.67,337.38a6.43,6.43,0,0,1-.86.83l-2.45,2.12c-2.09,1.79-5,4.22-8.21,6.89S96,352.29,93.86,354l-2.55,2a5.8,5.8,0,0,1-1,.69,5.75,5.75,0,0,1,.86-.83l2.46-2.13c2.08-1.78,5-4.22,8.2-6.89s6.15-5.06,8.29-6.78l2.54-2A6.07,6.07,0,0,1,113.67,337.38Z" style="fill:#263238"></path><path d="M116.6,353.15c0,.12-6.23,2.07-14,4.36s-14.07,4.05-14.11,3.93,6.23-2.07,14-4.36S116.56,353,116.6,353.15Z" style="fill:#263238"></path><path d="M93.49,346.87a4.88,4.88,0,0,1-.65-.9l-1.65-2.51c-1.4-2.12-3.38-5-5.73-8.08s-4.62-5.75-6.28-7.67l-2-2.26a5.7,5.7,0,0,1-.69-.86,4.88,4.88,0,0,1,.82.74c.51.5,1.23,1.24,2.09,2.17,1.74,1.86,4,4.51,6.41,7.6s4.31,6,5.64,8.18c.67,1.09,1.19,2,1.53,2.6A4.62,4.62,0,0,1,93.49,346.87Z" style="fill:#263238"></path><path d="M71.76,355.62A22.79,22.79,0,0,1,70.29,358c-.94,1.47-2.21,3.52-3.52,5.83s-2.42,4.44-3.21,6a19.85,19.85,0,0,1-1.32,2.5,14.51,14.51,0,0,1,1-2.63c.72-1.6,1.78-3.77,3.1-6.09S69,359.28,70,357.86A15.41,15.41,0,0,1,71.76,355.62Z" style="fill:#263238"></path><path d="M64.32,382.89a33.06,33.06,0,0,1-3.18-1.4c-2-.88-4.68-2-7.77-3.11s-5.93-1.88-8-2.41-3.37-.82-3.36-.89a4,4,0,0,1,.93.1c.6.09,1.46.25,2.51.48a69.83,69.83,0,0,1,15.84,5.54c1,.48,1.73.89,2.25,1.19A4.8,4.8,0,0,1,64.32,382.89Z" style="fill:#263238"></path><path d="M70.17,415.5s-.13.06-.38.13l-1.13.29-4.16,1a134.1,134.1,0,0,0-13.6,3.59,60.59,60.59,0,0,0-12.68,6c-1.52,1-2.7,1.81-3.49,2.43a12.14,12.14,0,0,1-1.26.93s.08-.11.28-.3.47-.45.86-.77A36.52,36.52,0,0,1,38,426.16,55.37,55.37,0,0,1,50.76,420a113.54,113.54,0,0,1,13.67-3.48l4.19-.82A11.48,11.48,0,0,1,70.17,415.5Z" style="fill:#263238"></path><path d="M91.34,423.54c-.12,0-.87-4.37-1.66-9.81s-1.34-9.85-1.22-9.87.87,4.37,1.67,9.81S91.47,423.52,91.34,423.54Z" style="fill:#263238"></path><path d="M113.38,415.53a23,23,0,0,1-2-2.35c-1.2-1.49-2.85-3.53-4.71-5.75s-3.6-4.2-4.85-5.63a21.36,21.36,0,0,1-2-2.36,3.2,3.2,0,0,1,.63.54c.38.37.93.92,1.59,1.6,1.31,1.38,3.09,3.33,5,5.56s3.48,4.3,4.61,5.84c.57.77,1,1.4,1.31,1.84A3.09,3.09,0,0,1,113.38,415.53Z" style="fill:#263238"></path><polygon points="55.06 435.98 55.06 446.87 57.78 446.87 67.46 477.42 88.93 477.42 98.3 447.17 101.93 446.87 101.93 435.98 55.06 435.98" style="fill:#455a64"></polygon><path d="M100.12,447.17c0,.12-9.48.23-21.17.23s-21.17-.11-21.17-.23,9.48-.23,21.17-.23S100.12,447,100.12,447.17Z" style="fill:#263238"></path><path d="M115.56,377.12a9.31,9.31,0,0,1-1.38.37l-3.77.91c-3.17.79-7.53,2-12.26,3.57s-8.93,3.28-11.93,4.57l-3.56,1.55a9.73,9.73,0,0,1-1.32.54,8.1,8.1,0,0,1,1.25-.7c.81-.42,2-1,3.49-1.69A123,123,0,0,1,98,381.54a120.6,120.6,0,0,1,12.34-3.45c1.6-.36,2.9-.62,3.81-.77A8.28,8.28,0,0,1,115.56,377.12Z" style="fill:#263238"></path><path d="M93,464.13c0,.13-6.65.23-14.85.23s-14.85-.1-14.85-.23,6.65-.22,14.85-.22S93,464,93,464.13Z" style="fill:#fafafa"></path><path d="M93.83,461.61c0,.12-7,.23-15.74.23s-15.74-.11-15.74-.23,7-.23,15.74-.23S93.83,461.48,93.83,461.61Z" style="fill:#fafafa"></path></g><g id="freepik--Floor--inject-7"><g id="freepik--floor--inject-7"><path d="M726.55,477.42c0,.14-157.41.26-351.53.26s-351.57-.12-351.57-.26,157.37-.26,351.57-.26S726.55,477.27,726.55,477.42Z" style="fill:#263238"></path></g></g></svg>