<?xml version="1.0" encoding="utf-8"?>

<!DOCTYPE svg PUBLIC "-//W3C//DTD SVG 1.1//EN" "http://www.w3.org/Graphics/SVG/1.1/DTD/svg11.dtd">
<!-- Uploaded to: SVG Repo, www.svgrepo.com, Generator: SVG Repo Mixer Tools -->
<svg height="800px" width="800px" version="1.1" id="_x32_" xmlns="http://www.w3.org/2000/svg" xmlns:xlink="http://www.w3.org/1999/xlink" 
	 viewBox="0 0 512 512"  xml:space="preserve">
<style type="text/css">
	.st0{fill:#000000;}
</style>
<g>
	<path class="st0" d="M429.482,319.184V93.889C429.482,42.06,388.169,0,256.001,0C123.824,0,82.518,42.06,82.518,93.889v225.294
		c0,44.543,33.103,85.549,84.866,107.86L105.365,512h48.543l52.932-72.534c15.456,3.262,31.886,5.128,49.16,5.128
		c17.273,0,33.694-1.874,49.159-5.128L358.084,512h48.55l-62.019-84.964C396.379,404.732,429.482,363.726,429.482,319.184z
		 M192.164,48.892c0-2.11,1.72-3.83,3.829-3.83h120.014c2.11,0,3.822,1.72,3.822,3.83V72.77c0,2.118-1.712,3.838-3.822,3.838
		H195.993c-2.11,0-3.829-1.72-3.829-3.838V48.892z M135.085,310.162c0-15.343,12.446-27.781,27.781-27.781
		c15.351,0,27.796,12.438,27.796,27.781c0,15.35-12.446,27.788-27.796,27.788C147.531,337.95,135.085,325.512,135.085,310.162z
		 M349.126,337.95c-15.342,0-27.788-12.438-27.788-27.788c0-15.343,12.446-27.781,27.788-27.781
		c15.343,0,27.789,12.438,27.789,27.781C376.915,325.512,364.469,337.95,349.126,337.95z M389.686,207.413
		c0,9.882-8.008,17.89-17.883,17.89H140.205c-9.882,0-17.882-8.008-17.882-17.89v-87.39c0-9.874,8-17.89,17.882-17.89h231.598
		c9.874,0,17.883,8.016,17.883,17.89V207.413z"/>
</g>
</svg>