<svg viewBox="57.312499999999886 205.6875 1064.3750000000002 2879.625000000001" xmlns="http://www.w3.org/2000/svg" overflow="visible" xmlns:xlink="http://www.w3.org/1999/xlink" width="1064.3750000000002px" height="2879.625000000001px"><g id="Master/Character/Standing" stroke="none" stroke-width="1" fill="none" fill-rule="evenodd"><g id="Standing" transform="translate(-121.000000, 634.000000) scale(1 1)"><g id="Standing/Walking 1" stroke="none" stroke-width="1" fill="none" fill-rule="evenodd"><path d="M1212.23524,2373.58175 C1219.27224,2340.82275 1187.08624,2329.74822 1166.79524,2322.46022 C1152.26126,2313.03269 1098.40889,2280.38424 1056.74024,2240.08032 C1022.64314,2207.09997 999.431667,2164.83144 989.769455,2160.80229 C983.139217,2156.95722 979.479811,2153.60604 978.791236,2150.74874 C972.739115,2125.63495 977.786675,2102.22924 978.791236,2087.00422 C998.189236,2081.91122 1013.73324,2075.55822 1025.35824,2066.67422 C1028.74824,2067.80422 1033.83024,2069.25022 1035.34524,2064.29222 C1045.85124,1994.19622 1050.38624,1924.92922 1058.93424,1854.77922 C1091.29024,1587.59822 1094.94024,1275.46222 1039.27524,1031.43222 C1038.69024,1019.33622 1039.74524,1008.41222 1040.82424,998.019225 C1048.35124,997.206225 1052.90224,989.920225 1059.04824,985.565225 C1068.58724,977.984225 1079.88224,972.158225 1079.41624,958.908225 C1081.68224,957.192225 1081.41824,956.227225 1080.30124,954.041225 C1087.57724,922.751225 1055.12224,889.779225 1045.94324,863.983225 C1062.62824,700.789225 1039.92624,546.574225 1052.59124,383.341225 C1068.58824,376.647225 1057.83324,334.809225 1056.74024,317.552225 C1047.87824,206.378225 990.087236,96.4602247 886.017236,60.1412247 C880.068236,58.9352247 871.126236,52.1352247 866.203236,56.7012247 C856.689236,52.9322247 844.031236,60.3632247 836.668236,51.8082247 L836.742236,51.7522247 C830.542236,43.1552247 827.763236,32.2262247 825.725236,21.8922247 C826.066236,24.8042247 826.635236,27.6922247 827.336236,30.5152247 C809.395236,-20.0487753 804.875236,-33.5687753 747.118236,-35.9497753 C721.101236,-36.2977753 686.805236,-35.5167753 671.635236,-10.7027753 C665.419236,0.832224686 667.318236,14.0772247 663.460236,26.2192247 C656.378236,48.5002247 625.808236,37.7332247 609.759236,49.3032247 C481.311236,90.5012247 375.952236,174.593225 341.321236,309.566225 C334.241236,325.834225 326.211236,342.025225 320.292236,358.814225 C319.376236,361.306225 316.856236,369.739225 322.908236,373.620225 L325.835236,375.497225 C287.281236,555.698225 284.723236,707.542225 414.250236,827.675225 C423.970236,879.296225 398.965236,949.791225 408.577236,999.911225 C403.100236,1007.68222 410.045236,1013.94122 417.047236,1014.44022 C417.722236,1014.81522 420.450236,1016.00922 421.194236,1016.35022 C410.051236,1173.66022 456.835236,1385.66622 477.457236,1469.34322 C480.264236,1519.58322 463.117236,1560.85422 427.843236,1588.23422 C388.870236,1612.23822 311.820236,1720.65122 326.104236,1834.37122 C309.411236,1837.64622 292.839236,1839.44222 276.824236,1845.71622 C206.750236,1833.34822 207.445236,1968.43722 202.980236,2015.93622 C195.418236,2095.46622 190.718236,2210.73722 266.271236,2261.64522 C286.175236,2276.08522 326.533236,2292.98922 347.214236,2269.87822 C353.991236,2261.73722 355.688236,2253.87322 353.022236,2245.55922 C387.172236,2197.31022 377.969236,2134.19922 381.106236,2077.60922 C391.009236,2077.01222 401.370236,2081.65722 410.949236,2079.96522 C420.781236,2071.30122 384.913236,2073.66222 381.193236,2073.15422 C381.574236,2064.42722 382.276236,2055.23822 383.182236,2046.44022 C388.808236,2047.56722 396.015236,2050.26722 401.425236,2050.47422 C404.627236,2051.25322 406.890236,2046.84422 404.957236,2044.55922 C400.735236,2040.53222 389.970236,2041.15622 383.912236,2040.58422 C384.935236,2033.21922 386.186236,2025.47622 387.576236,2018.35322 C394.987236,2018.08622 402.640236,2022.80822 409.657236,2021.84222 C404.346236,2018.29822 394.377236,2019.37722 387.903236,2017.03622 C392.113236,1994.09522 400.691236,1972.31822 408.666236,1950.86022 C428.234236,1958.93222 445.115236,1959.25022 464.218236,1956.83022 C472.032236,1958.03222 475.842236,1956.43322 477.107236,1946.65922 L476.608236,1946.04222 C491.749236,1855.44022 540.607236,1769.06722 631.360236,1671.11722 C649.286236,1651.05522 669.543236,1627.43422 683.040236,1601.02422 C710.161236,1546.06222 714.793236,1485.41322 735.690236,1428.33422 C755.200236,1370.96222 781.877236,1316.08322 806.924236,1261.69622 C810.597236,1289.57022 815.531236,1318.16422 820.660236,1345.49522 C843.234236,1442.34822 841.046236,1545.68422 824.433236,1643.07422 C799.853236,1779.47722 811.701236,1916.52722 806.234236,2053.89522 C806.309236,2061.81822 807.291236,2069.01522 806.129236,2077.26422 C805.975236,2077.89922 806.275236,2078.65122 807.027236,2078.63122 L808.446236,2078.67022 C820.260236,2087.32122 836.576236,2088.88422 850.458236,2093.57722 C856.288236,2098.19122 854.646236,2105.49922 855.180236,2111.20122 C856.705236,2135.77222 858.655236,2160.43722 856.235236,2185.76322 C845.523236,2206.28822 832.220236,2202.04822 829.499236,2230.98122 C827.117236,2264.01322 822.903236,2299.13922 838.989236,2328.55222 L832.903236,2329.60222 C823.871236,2348.55522 829.385236,2360.86122 850.613236,2368.87722 C955.411236,2409.96722 1102.87724,2447.27322 1212.23524,2416.25822 C1214.22308,2418.22924 1217.11387,2416.18434 1219.37408,2413.0866 C1221.54594,2410.10993 1223.13555,2406.16112 1222.78224,2403.86922 C1220.91224,2393.80922 1223.48324,2375.44075 1212.23524,2373.58175 Z" id="Skin" fill="#ae5d29"/><path d="M417.836026,836.534224 L425.75897,844.737503 L429.551713,848.646024 L435.090368,854.322318 C446.942826,866.428253 459.294924,878.779625 477.23488,896.518004 L523.522067,942.195806 L532.439576,951.05404 L536.800148,955.39556 L518.842901,957.634717 L515.068836,958.116803 L512.141467,958.501592 L509.221632,958.896594 C490.409361,961.481457 477.958475,964.003149 465.590662,968.068532 C447.497053,974.016023 433.401408,982.607978 422.875106,994.970243 L422.376549,995.561776 L418.07192,1000.72176 L417.104178,994.072042 C416.125361,987.346217 415.732564,980.373733 415.761895,972.201365 L415.791534,969.028624 L415.839911,966.498779 L415.894924,964.416746 C415.928969,963.248011 415.9709,961.970276 416.022434,960.508226 L416.422261,949.552165 L416.521231,946.304479 L416.559034,944.768116 C416.575578,944.022915 416.588714,943.306415 416.599022,942.592646 L416.622,940.367 L416.524871,938.007723 L416.408511,934.927346 L416.332857,932.720824 C415.554034,908.977584 415.956084,886.291927 417.414657,847.547735 L417.836026,836.534224 Z M616.342031,49.6766639 L615.510443,54.5088058 C610.854415,81.5637719 623.030274,103.939135 649.171888,120.304035 C673.098762,135.282485 707.623945,144.270002 744.614741,145.694723 C781.296537,147.107543 817.081847,140.940538 843.212583,128.310822 C871.21778,114.775127 886.470866,94.8857416 885.868098,70.142714 L885.844976,69.3914412 L885.668762,64.6510312 L890.027185,66.5236469 C944.664826,89.9989521 987.047567,134.789849 1013.66308,193.542063 C1037.97146,247.201415 1047.69787,309.915553 1041.46807,368.721858 L1041.2744,370.502657 L1040.8867,373.977562 L1037.51106,373.066328 C1031.49041,371.441089 1016.01301,376.058157 992.007096,387.04389 L989.991,387.972 L978.997,395.616 L978.810588,401.274626 C971.470913,632.133491 993.578374,796.806015 1044.98798,895.189741 L1046.55482,898.150775 L1048.17212,901.130407 C1049.0989,902.87156 1050.14637,904.680875 1051.46538,906.84255 L1053.00094,909.326539 L1055.33602,913.057965 L1056.60082,915.105373 L1057.22048,916.122652 C1059.72125,920.252329 1061.23207,923.066732 1062.66927,926.329049 C1064.95156,931.509685 1066.22922,936.427267 1066.40669,941.41071 L1066.42313,942.034007 L1066.425,942.238 L1066.52579,942.43161 C1067.2816,943.968667 1067.23994,945.81375 1066.40032,947.384337 L1066.26839,947.617793 L1066.221,947.692 L1066.0136,949.307774 L1064.642,949.576 L1064.45552,949.755556 C1062.45108,951.618003 1059.75987,952.81047 1056.26115,953.681678 L1055.77903,953.798521 L1055.30755,953.906939 C1054.56695,954.072965 1053.80766,954.224266 1052.93298,954.383533 L1049.67613,954.950763 L1045.74508,955.723327 L1040.81191,956.684952 L1039.46794,956.956884 L1038.06844,957.248701 C1029.82425,958.996532 1024.28832,960.706429 1019.1374,963.316196 C993.167951,976.950101 967.422652,983.501731 940.235131,984.265281 C918.571606,984.873692 897.101784,982.014121 869.075961,975.637128 L863.367652,974.314014 L860.050601,973.5254 L855.975124,972.536211 C854.699871,972.223761 853.329124,971.885578 851.811055,971.509092 L832.095352,966.590762 L825.880854,965.064985 L822.266802,964.190846 C808.204292,960.812662 798.702438,958.821242 787.86865,957.003932 C768.898935,953.821864 751.627752,952.529971 734.62062,953.330057 L733.312876,953.395732 L732.548996,953.436523 L731.858854,953.106553 C696.88769,936.386216 668.172341,912.097726 642.071898,879.150321 L640.308786,876.911032 L639.207507,875.497864 C621.31129,852.439282 607.778541,830.348254 582.069744,784.618105 L575.349401,772.656865 L570.624525,764.294571 L567.544249,758.878217 C554.049282,735.223171 545.331447,721.000257 534.603069,705.345648 C517.295755,680.091202 499.705506,659.601298 479.94378,642.565746 L478.937066,641.702502 L478.815589,641.593032 C474.894439,637.860839 472.251934,634.492099 470.583614,630.71563 L470.395422,630.27803 L470.102838,629.578808 L470.623183,624.270892 L471.166379,618.585785 C475.522577,572.403106 480.133882,509.376784 484.999246,429.514755 L485.875,415 L462.141643,405.782949 L451.17752,401.564841 L448.798846,400.662218 L445.988106,399.606775 L443.130953,398.542644 L440.319674,397.504841 C428.233677,393.063873 417.377736,389.347506 406.945137,386.134656 L404.591722,385.416467 C379.218463,377.745091 357.808995,373.621494 340.028419,373.540841 L339.210352,373.539991 L335.470711,373.549274 L335.603,372.944 L335.490912,372.931454 C334.629367,372.823766 333.823991,372.657784 333.078984,372.419831 L332.711531,372.294793 L332.354257,372.15738 C329.300358,370.910944 327.818382,368.16876 329.002377,364.890167 L329.098,364.636 L329.727009,362.361169 C351.710835,283.12769 381.469831,220.984209 422.677564,171.67211 L423.929791,170.181727 L425.214822,168.668998 C470.914615,115.168912 530.92806,76.7013775 609.281093,51.8838172 L611.661046,51.1359467 L616.342031,49.6766639 Z" id="Top" fill="#78E185"/><path d="M1025,2417 C1006.17345,2413.60653 898,2389 836,2357 C823.337201,2350.46436 826.453847,2335.02054 830.579846,2324.99335 C832.470122,2320.39952 836.942581,2316.94258 836,2316 C816.176593,2296.17659 831,2244 831,2234 C831,2219.13541 855.093164,2199.0112 851,2191 C846.274671,2181.75152 852.084665,2213.3843 864,2231 C874.38525,2246.35361 890.685719,2247.54141 892.302419,2246.86778 L892.594569,2246.74297 L892.803077,2246.63168 C897.286657,2244.17704 964.991277,2146.64411 993,2161 C1006.18145,2167.75616 1013.26331,2197.6335 1028,2210 C1061.04763,2237.73237 1077,2282 1200,2339 C1213.16526,2345.10097 1213.2807,2358.15097 1210.59633,2368.3596 C1209.60685,2372.12257 1223,2372 1221,2374 C1215.91853,2379.08147 1230.01454,2408.27842 1219,2413 C1175.66538,2431.57618 1063.14852,2423.87625 1025,2417 Z M322.021086,1836 C326.759548,1841.93152 329.085853,1846.26485 329,1849 C327.939146,1882.79739 319.900115,1907.69348 319.649215,1924.31251 L319.633569,1925.43497 L319.661551,1925.84629 C320.147908,1932.58821 330.44517,1958.48206 353,1964 C361.49265,1966.07769 378.159317,1962.41102 403,1953 C388.808873,1992.20139 380.47554,2029.53472 378,2065 C375.08376,2106.77888 377.43731,2154.16105 372,2191 C369.031856,2211.10982 358.283328,2233.48744 346,2249 C342.989812,2252.80155 356.07563,2259.99824 353,2263 C347.240042,2268.62161 333,2288 289,2273 C276.192362,2268.63376 238.928067,2244.37235 218,2198 C202.712636,2164.1263 201.274284,2114.77833 199,2071 C196.486574,2022.61837 205.826056,1947.11852 218,1906 C231.537429,1860.2762 248.368812,1851.34204 251.856639,1848.80951 C252.67153,1848.21782 278.007946,1843.21415 280.447377,1842.94164 L280.873266,1842.89597 L281.209569,1842.86297 L281.395146,1842.79065 C291.342373,1838.94111 302.714613,1837.08685 317.669945,1836.22818 L318.590072,1836.17685 L322.021086,1836 Z" id="Shoes" fill="#FFF"/><path d="M1217.22933,2406.4866 C1123.05833,2448.7746 952.058327,2395.4176 859.528327,2364.5456 C834.579327,2355.5446 826.268327,2353.7806 833.258327,2325.0166 C846.338327,2350.2596 874.468327,2356.3556 901.418327,2361.4166 C992.708327,2382.2276 1085.77833,2420.6496 1183.40933,2401.9026 C1197.73933,2399.6466 1211.91833,2391.8876 1216.08833,2377.5696 C1218.65933,2383.6376 1217.06933,2391.8556 1218.09833,2398.5286 C1218.28933,2401.1886 1218.34833,2404.0656 1217.22933,2406.4866 M836.358327,2249.1966 C838.058327,2232.2436 840.778327,2214.3346 850.428327,2199.3546 C849.378327,2223.5826 863.928327,2264.7636 895.808327,2251.0446 C904.838327,2246.2586 909.899327,2236.6216 915.708327,2228.8826 C935.018327,2203.4226 959.778327,2181.3146 987.749327,2165.2496 C1003.30833,2167.9256 1009.99933,2196.3786 1020.02833,2208.2876 C1008.84833,2213.2716 988.588327,2224.6236 986.539327,2236.3656 C1000.49933,2231.6696 1013.34833,2222.9246 1027.98933,2219.8516 C1032.67833,2226.3236 1037.64933,2232.6006 1042.86933,2238.6646 C1036.04833,2241.6686 1008.54833,2255.5686 1008.72933,2262.5076 C1023.59833,2260.0916 1038.00833,2252.8116 1052.95833,2249.8206 C1059.60833,2256.4156 1065.65933,2263.5136 1072.27833,2270.1306 C1062.27833,2274.2496 1051.71833,2278.8486 1046.25833,2288.4486 C1045.99933,2288.8826 1046.63833,2289.3676 1046.98933,2288.9486 C1054.47933,2279.9176 1067.36933,2278.2596 1078.53933,2276.2276 C1095.67833,2292.3666 1114.86933,2306.6036 1136.34833,2317.2546 C1157.83833,2329.0056 1190.49933,2331.6936 1199.04833,2357.1846 C1205.88833,2382.6686 1184.55833,2385.3896 1164.87833,2387.1896 C1144.96833,2390.0216 1124.91833,2390.4516 1105.13833,2388.7976 C1043.30833,2386.2206 984.858327,2368.0176 926.428327,2352.1136 C854.989327,2338.9646 831.808327,2328.3166 836.358327,2249.1966 M857.308327,2100.1676 C857.138327,2101.2876 856.989327,2102.4076 856.829327,2103.5376 C856.628327,2102.3476 856.489327,2101.1476 856.198327,2099.9776 C856.569327,2100.0376 856.938327,2100.1076 857.308327,2100.1676 M972.729327,2157.0836 C945.358327,2177.3256 918.638327,2199.8816 899.628327,2228.1146 C887.048327,2251.0856 870.308327,2237.1036 866.149327,2218.7016 C862.778327,2177.6166 865.678327,2142.1376 861.729327,2100.8076 C899.579327,2105.9676 938.458327,2102.7876 975.428327,2093.6576 C970.979327,2112.1076 968.938327,2119.1116 968.798327,2138.0396 C969.039327,2144.2766 968.948327,2151.8906 972.729327,2157.0836 M1033.99933,644.8576 C1034.80833,705.3276 1035.18833,765.8176 1033.08833,826.2676 C979.858327,688.6876 996.149327,539.3976 988.588327,394.7876 C1004.31933,389.5476 1021.21833,387.2576 1037.42833,385.0176 C1030.91833,474.7776 1032.59833,554.9576 1033.99933,644.8576 M733.168327,950.3576 C602.468327,887.8676 584.388327,727.6476 480.899327,639.3776 C477.558327,636.1976 474.789327,632.9276 473.178327,629.0776 C480.598327,554.1076 480.058327,488.3776 488.829327,413.4876 C498.628327,395.7076 502.499327,375.0576 509.798327,356.1376 C513.619327,344.6176 518.258327,333.2076 519.358327,321.1176 C520.278327,317.1376 514.058327,315.4076 512.899327,319.1676 C499.088327,346.0076 492.218327,375.8576 481.909327,404.1576 C480.458327,404.7376 478.528327,404.2776 477.958327,402.7576 C477.869327,403.1276 477.768327,403.4976 477.678327,403.8676 C433.308327,386.5276 387.558327,370.3776 339.218327,370.4976 C339.249327,370.3476 339.289327,370.1876 339.319327,370.0376 C336.338327,370.1276 330.088327,369.8876 331.958327,365.5676 C374.448327,210.6176 450.739327,104.4076 612.569327,53.9576 C591.878327,174.1876 893.018327,181.1476 888.858327,69.2376 C1002.29833,117.9776 1051.16833,254.8676 1038.30833,370.1276 C1027.52833,367.2176 999.458327,378.6676 988.508327,385.3176 C986.278327,338.5176 991.819327,282.0376 988.558327,240.1876 C971.298327,453.5676 939.088327,708.8876 1045.53933,902.4976 C1052.44833,915.4776 1063.71833,927.8976 1063.43833,943.1376 C1064.26833,943.9776 1064.34833,945.4476 1063.33833,946.5276 C1063.33833,946.5976 1063.33833,946.6676 1063.32933,946.7376 C1063.27833,946.7476 1063.21833,946.7476 1063.15933,946.7476 C1060.06933,950.4276 1053.56933,951.1576 1049.09833,951.9676 C1038.53933,954.0976 1027.42833,955.7176 1017.75833,960.6176 C914.729327,1014.7076 833.918327,944.9776 733.168327,950.3576 M765.729327,1048.6776 C770.708327,1058.1876 779.069327,1065.8376 788.979327,1070.6176 C787.758327,1073.0176 787.338327,1075.7176 787.208327,1078.2476 C769.358327,1081.8976 774.378327,1090.3676 762.319327,1094.4076 C754.428327,1096.5876 746.838327,1097.5176 740.018327,1102.2976 C716.808327,1123.9176 711.048327,1122.3276 686.138327,1103.3076 C686.479327,1101.5876 652.579327,1068.4776 642.079327,1049.9676 C633.329327,1034.5276 624.168327,1018.9776 610.758327,1007.0376 C545.088327,939.7976 475.128327,876.3376 411.558327,807.2376 C284.159327,680.2876 308.468327,536.3376 337.729327,377.7676 C384.958327,383.4076 432.448327,394.7376 474.979327,415.5376 C459.979327,485.5276 459.018327,548.9676 452.558327,619.9876 C450.608327,628.7676 452.808327,645.6776 465.249327,641.7776 C579.598327,732.5676 592.888327,919.1376 742.948327,973.0876 C804.108327,997.9476 778.298327,1018.1276 798.508327,1065.0676 C787.388327,1063.0276 777.468327,1053.7076 772.688327,1044.7876 C770.319327,1040.3576 763.418327,1044.2576 765.729327,1048.6776 M420.088327,993.5976 C417.499327,975.8076 419.518327,958.0976 419.638327,940.2776 C418.249327,907.8276 419.329327,876.1976 420.579327,843.6376 C456.438327,880.7876 493.718327,916.6776 530.338327,953.1376 C491.338327,958.0576 446.358327,962.1076 420.088327,993.5976 M419.428327,1019.7676 C420.039327,1019.5676 420.638327,1019.2976 421.188327,1018.9676 C421.048327,1032.9276 421.268327,1046.8876 421.778327,1060.8276 C420.798327,1047.1476 420.018327,1033.4576 419.428327,1019.7676 M375.558327,2012.0676 C365.039327,2011.2576 320.048327,2009.7076 314.649327,2016.7676 C320.729327,2019.3376 329.088327,2017.9176 335.628327,2018.2076 C348.329327,2018.7276 360.999327,2019.8476 373.569327,2021.6276 C372.628327,2026.5276 371.778327,2031.4176 371.079327,2036.3276 C358.399327,2037.5376 333.708327,2038.0876 325.659327,2046.9576 C340.018327,2049.2476 354.968327,2047.1876 369.378327,2050.0476 C368.678327,2056.7676 368.168327,2063.4976 367.789327,2070.2276 C362.048327,2070.8376 328.289327,2076.4276 328.319327,2081.7376 C340.958327,2083.4176 354.348327,2081.2076 367.229327,2082.4576 C364.438327,2122.7876 373.899327,2244.5776 318.778327,2252.0276 C270.588327,2249.4876 249.448327,2171.3876 242.899327,2133.9176 C228.378327,2046.6176 230.869327,1953.5376 259.649327,1869.3876 C269.928327,1845.9876 297.909327,1841.9276 321.569327,1840.7176 C322.468327,1844.6776 323.358327,1848.5676 324.358327,1852.4876 C314.098327,1875.7476 310.829327,1901.9376 310.548327,1927.1076 C312.718327,1963.2876 357.358327,1990.1876 389.778327,1966.2876 C383.718327,1981.0876 379.039327,1996.4876 375.558327,2012.0676 M311.789327,2272.3376 C216.338327,2251.8176 200.678327,2141.2776 207.239327,2059.9976 C212.588327,2003.4176 206.159327,1884.1276 258.388327,1850.8876 C190.888327,1912.5076 196.749327,2332.0076 346.338327,2258.7876 C342.608327,2270.6076 323.428327,2274.0176 311.789327,2272.3376 M330.489327,1877.9376 C330.659327,1876.4776 330.848327,1875.0276 331.048327,1873.5676 C341.638327,1902.3376 359.778327,1929.6776 386.789327,1946.3376 C376.448327,1959.2376 356.308327,1963.0776 342.718327,1952.5176 C319.018327,1934.7476 328.899327,1902.5976 330.489327,1877.9376 M655.848327,39.9976 C655.659327,40.3276 655.458327,40.6576 655.258327,40.9776 C653.938327,41.0676 652.608327,41.1876 651.258327,41.3376 C652.789327,40.8776 654.319327,40.4476 655.848327,39.9976 M837.239327,50.5576 C837.188327,50.4076 837.138327,50.2576 837.098327,50.1176 C837.218327,50.1876 837.338327,50.2676 837.468327,50.3476 C837.369327,50.4076 837.308327,50.4776 837.239327,50.5576 M1226.49933,2388.9776 C1226.23933,2381.8216 1226.13833,2372.5776 1217.75833,2370.0376 C1221.55833,2339.1986 1195.95833,2321.6436 1169.07933,2313.0986 C1146.15933,2299.0766 1120.16833,2289.2826 1099.10833,2272.3786 C1108.88833,2270.5416 1118.66833,2268.3246 1127.35833,2264.0686 C1133.91833,2260.8586 1130.75833,2250.1716 1123.64933,2251.1616 C1111.05833,2252.8226 1099.74933,2259.2236 1087.91833,2263.6726 C1081.19833,2258.1516 1074.68833,2252.3886 1068.53933,2246.2856 C1076.19833,2244.8056 1085.93833,2245.3506 1090.39933,2237.7466 C1091.78933,2235.3696 1091.16833,2232.9036 1089.48933,2231.0666 C1081.72933,2223.2126 1066.34833,2231.0566 1056.70833,2233.3446 C1052.07933,2228.0086 1047.60833,2222.5646 1043.21833,2217.0556 C1050.49933,2216.3856 1069.43833,2217.7166 1065.72933,2205.6996 C1058.61933,2196.3006 1043.32933,2201.9396 1033.04833,2203.8736 C1020.00833,2187.8386 1015.80833,2163.2386 995.428327,2154.4176 C994.698327,2150.5286 989.619327,2150.8266 986.229327,2151.9826 C981.239327,2128.1566 981.619327,2116.0476 983.079327,2091.6276 C998.208327,2087.4376 1013.21833,2081.9376 1025.79833,2072.9176 C1031.57933,2074.6176 1038.58833,2072.6576 1039.78933,2065.8676 C1043.38733,2041.9436 1045.39633,2014.3286 1047.91933,1989.8876 L1048.83833,1989.8876 C1053.62733,1945.3096 1057.48733,1900.6006 1062.90933,1856.1376 C1093.93833,1599.1276 1100.69833,1285.4276 1043.25833,1031.5176 C1042.80833,1021.8976 1043.48933,1012.2676 1044.45833,1002.7176 C1051.30833,1000.8876 1055.38833,994.1976 1061.05833,990.3276 C1071.59833,981.7376 1082.31933,976.9276 1083.28933,961.9376 C1085.41833,959.9076 1085.66833,956.8376 1084.49933,954.1776 C1087.22933,938.7876 1083.20833,923.5076 1075.01833,910.2076 C1066.03933,895.0576 1057.55833,879.7676 1050.06933,863.8676 C1066.44833,703.6076 1044.22933,548.2876 1056.37833,387.2276 C1071.95833,378.9776 1062.17833,333.1376 1060.72933,317.8576 C1051.62833,217.5076 1004.77833,106.7076 905.168327,64.9676 C898.178327,59.0676 888.418327,57.0676 879.878327,53.8176 C874.108327,50.9776 864.718327,48.5176 860.768327,55.1276 C856.579327,53.1776 843.088327,51.6876 838.468327,48.3076 C837.608327,47.6776 837.058327,46.9876 836.928327,46.2176 C836.588327,46.2276 836.188327,46.1576 835.758327,46.0676 C831.499327,40.0476 827.438327,-1.8824 822.188327,1.1076 C816.458327,15.5076 820.428327,31.7776 825.909327,46.3176 C829.688327,59.1776 834.869327,92.2576 854.948327,83.7976 C858.409327,82.0776 856.268327,77.6076 853.168327,77.2476 C843.649327,74.5276 841.528327,60.5376 837.848327,52.3376 C842.208327,55.9576 862.069327,61.3876 864.239327,62.5376 C907.319327,161.4176 646.848327,156.2276 626.369327,88.0576 C611.768327,64.5076 624.369327,51.7476 650.399327,47.9676 C631.268327,69.2276 655.489327,73.9476 664.698327,53.0976 C673.508327,38.1676 677.518327,20.0276 674.508327,2.8476 C676.058327,-3.1824 677.369327,-11.2424 668.348327,-9.6224 C668.039327,-10.4224 667.548327,-9.7924 667.739327,-9.2224 C664.448327,-3.9824 666.739327,3.5476 665.569327,9.5976 C664.579327,19.4976 661.768327,29.1976 656.999327,37.9576 C648.149327,39.6476 639.338327,41.4576 630.569327,43.4376 C625.308327,32.7476 591.188327,54.0676 582.028327,56.5776 C460.338327,92.5276 367.798327,188.2676 335.499327,309.0276 C328.289327,325.1076 320.508327,341.2676 314.608327,357.8476 C311.968327,365.0276 311.968327,373.9376 319.218327,378.5876 C283.888327,540.6576 275.268327,709.5176 408.739327,831.0776 C411.768327,844.2376 409.749327,858.1976 409.659327,871.5976 C410.778327,902.1176 384.698327,1006.7176 414.989327,1020.2476 C406.138327,1155.7476 439.329327,1340.1176 471.499327,1470.8376 C473.878327,1515.7676 460.329327,1556.6376 423.858327,1584.9876 C354.518327,1636.8276 325.308327,1723.3576 317.198327,1805.8176 C316.048327,1814.2676 317.178327,1822.8676 319.079327,1831.1676 C304.048327,1833.9676 289.979327,1835.7876 275.388327,1841.2976 C194.918327,1825.8776 200.659327,1998.7676 194.499327,2050.0676 C189.678327,2125.9076 192.688327,2216.8176 262.378327,2266.4776 C285.808327,2283.1576 327.168327,2299.1776 349.999327,2273.9176 C356.458327,2266.1876 359.979327,2257.1476 357.438327,2247.2676 C390.168327,2199.3376 382.438327,2138.0776 384.888327,2083.5376 C393.458327,2083.8376 402.798327,2087.6576 411.239327,2085.5576 C417.739327,2083.8376 418.569327,2075.4976 413.069327,2072.1776 C405.128327,2067.6776 394.338327,2069.3876 385.458327,2069.0876 C385.729327,2063.8676 386.119327,2058.6476 386.619327,2053.4276 C395.048327,2055.4876 407.128327,2060.4376 409.638327,2048.6576 C410.649327,2037.9276 397.098327,2037.1076 388.659327,2036.6476 C389.249327,2032.5976 389.909327,2028.5676 390.659327,2024.5476 C397.119327,2025.1976 403.938327,2029.3176 410.289327,2027.3476 C413.888327,2025.9276 415.138327,2022.2876 412.508327,2019.3376 C407.619327,2014.5476 399.258327,2015.5076 392.789327,2014.0176 C396.718327,1994.7676 403.819327,1976.3576 410.659327,1957.9476 C423.039327,1962.2476 436.448327,1965.0876 449.659327,1964.0076 C456.508327,1962.5676 463.989327,1962.1576 470.909327,1963.0876 C478.608327,1961.0476 480.388327,1952.8176 481.399327,1946.0976 C481.249327,1945.8576 481.098327,1945.6276 480.928327,1945.4176 C498.718327,1841.8176 562.539327,1752.3176 634.098327,1675.2076 C653.808327,1653.1476 673.138327,1630.2076 686.528327,1604.0076 C713.729327,1549.2476 718.608327,1487.6376 739.418327,1430.7476 C756.948327,1379.0876 780.378327,1329.5476 803.348327,1279.9376 C812.558327,1345.2776 829.758327,1409.5476 831.729327,1475.8076 C834.729327,1559.6376 816.258327,1642.2476 808.378327,1725.4076 C796.993327,1813.3496 803.058327,1901.7316 802.336327,1989.8876 L802.826327,1989.8876 C802.639327,2011.1456 802.062327,2033.3246 800.739327,2054.5176 C800.789327,2062.2676 801.789327,2069.5676 800.688327,2077.3176 C800.079327,2081.6076 803.159327,2084.2976 806.399327,2084.3876 C818.298327,2092.1976 833.249327,2094.9676 846.928327,2098.3076 C850.718327,2101.2076 849.079327,2108.3476 849.749327,2112.7176 C851.218327,2137.2676 853.159327,2155.7946 850.768327,2180.5456 C837.388327,2200.3296 827.749327,2197.1696 824.028327,2227.2426 C821.979327,2258.6356 817.468327,2292.5836 831.188327,2321.0806 C825.048327,2322.4776 822.718327,2341.2156 823.638327,2346.1746 C825.198327,2360.1586 837.528327,2364.5826 849.448327,2369.4086 C936.558327,2402.0486 1121.64933,2455.7816 1211.15933,2418.8296 C1217.56933,2422.4576 1224.71833,2415.3456 1226.78933,2409.6216 C1229.52833,2402.6516 1227.00833,2395.8996 1226.49933,2388.9776" id="Ink" fill="#000"/></g></g><g id="Head" transform="translate(405.000000, 189.000000) scale(0.9978902953586498 1)"><g id="Head/Medium Bangs 2" stroke="none" stroke-width="1" fill="none" fill-rule="evenodd"><path d="M407.868,144.4632 C405.647,138.8582 401.719,131.8132 395.154,131.5322 C390.076,116.0072 377.45,100.1962 359.888,100.6162 C308.34,47.9022 243.444,50.3872 175.594,61.5462 C139.798,68.1852 103.451,81.1852 76.753,106.8392 C44.777,137.0412 32.326,189.7402 57.366,227.9312 C35.725,239.5282 35.305,267.0482 44.56,286.9072 C33.435,294.6002 32.759,313.2722 45.286,319.1402 C44.62,321.8682 45.091,324.6882 46.361,327.1122 C40.15,332.2822 32.066,336.1012 25.383,339.3842 C22.429,340.8352 20.725,343.2052 20.017,345.8762 C-1.927,360.2722 -56.645,395.4542 -55.993,423.4552 C-56.315,438.0632 -45.479,447.6772 -32.311,451.5052 C-40.146,467.1682 -46.093,485.4632 -38.593,502.3592 C-36.52,507.4642 -20.9878002,522.467374 -20.2058002,522.744374 C-18.8388002,523.916374 3.444,513.6862 14.274,508.4682 C16.374,522.1282 30.981,529.2852 43.572,524.6042 C55.511,521.0052 62.85,510.8982 70.38,501.7042 C80.375,523.5072 109.782,523.7582 128.788,514.3582 C145.857,506.4732 158.832,492.0212 166.06,474.6062 C204.442,493.3952 249.348,498.8722 291.048,491.3672 C293.724,496.1032 299.648,499.2842 304.925,497.4522 C327.099,490.7862 351.616,490.4122 370.412,475.1392 C409.591,447.0182 412.89,395.1742 410.158,350.9812 C407.735,306.9182 409.856,262.4882 401.846,218.9012 C405.322,206.0682 411.104,194.7232 416.454,182.6672 C422.266,170.0252 422.144,151.2322 407.868,144.4632 Z" id="Skin" fill="#ae5d29"/><path d="M229.999719,57 L231.522739,57.0059899 C234.0404,57.0225872 236.554245,57.072333 239.061499,57.1549689 C252.311364,57.5910358 266.129295,59.3098962 281.688115,62.2521267 L284.053237,62.7065651 C287.923175,63.4641535 291.389668,64.2243719 296.91867,65.5159368 L307.891865,68.1018568 C313.479175,69.4037016 317.591162,70.3044518 321.385326,71.0291372 L321.882,71.123 C341.37659,80.4668745 354.271833,88.212465 360.567728,94.3597714 L361.510077,95.287052 L361.911,95.688 L366.017066,95.8176 L366.057,96.336 L366.091988,96.3412685 C370.168631,96.9755355 373.85647,99.0870047 377.286134,102.374236 L377.652616,102.730925 L378.005037,103.0842 C380.678038,105.80199 382.808174,108.698072 385.743705,113.28817 L386.409851,114.336693 L387.603224,116.230182 L388.569745,117.750596 C389.197522,118.745164 389.80104,119.728967 390.380445,120.70372 L390.951818,121.675518 L391.363,122.39 L401.964386,128.5739 C403.492,129.464997 404.881938,130.618095 406.153643,131.999109 L406.497555,132.381374 L406.835692,132.774787 L409.724288,136.211824 L409.142,136.818 L409.423395,137.188256 L409.928071,137.879026 L410.419908,138.579178 L410.898822,139.288558 L411.105081,139.600264 L411.416466,140.27319 L411.56812,140.60944 L411.689,140.886 L412.050826,141.072236 L412.7873,142.400983 C416.609274,149.296583 418.667611,157.12769 418.807083,165.174969 C418.903228,170.725597 418.218233,175.766775 416.592556,180.629773 C415.467733,183.992254 413.960213,186.634452 411.353898,190.27217 L409.294389,193.096933 L408.87385,193.679785 L408.371297,194.388956 C408.291737,194.50263 408.213892,194.6146 408.137188,194.725703 C404.787746,199.57615 376.165893,208.756978 358.573886,209.200891 L358.044208,209.211656 L357.367534,209.218249 C355.688883,209.2255 354.066405,209.16534 352.503083,209.034614 C345.7355,208.468703 339.408732,207.044787 332.058555,204.716087 L330.533406,204.223394 L322.435293,201.502888 C322.177255,201.417418 321.969361,201.349363 321.825289,201.303486 L321.085816,201.072191 C319.302509,200.525158 318.006243,200.210726 317.122959,200.096758 L316.943,200.075 L316.924634,200.410001 L316.918191,200.725638 L316.919249,200.982487 C316.971073,204.709607 314.707541,207.42664 311.196204,209.158121 C308.960239,210.260701 306.079581,211.048121 302.462832,211.63921 L301.885636,211.730925 C295.974999,212.644044 288.925633,213.034122 277.133464,213.301414 C276.68403,213.311601 276.231595,213.305884 275.775108,213.284988 C273.242867,213.169076 271.253098,212.737523 267.554273,211.675525 L265.805313,211.173762 L264.85748,210.911722 C263.098362,210.436564 262.11827,210.246743 261.192695,210.194969 L260.923616,210.183647 L260.65636,210.179185 C259.544928,210.177521 258.742281,210.425039 257.951352,211.028093 L257.546985,211.35176 L252.110447,215.906211 C251.402725,216.495431 250.767816,217.018143 250.302514,217.388662 L250.113765,217.537889 C242.652114,223.388384 235.53744,226.730447 227.155902,227.048259 L226.595238,227.06496 L226.011295,227.071603 C225.58526,227.072403 225.158027,227.064691 224.729598,227.048387 C221.200284,226.914082 217.536397,225.605833 212.533802,223.08305 L211.49661,222.552726 L210.771088,222.174098 C210.400474,221.979279 210.014262,221.774223 209.595268,221.550039 L205.863,219.552975 L203.955497,218.556395 C201.676543,217.384762 200.405758,216.818928 199.550719,216.585836 L199.411,216.549 L199.331216,216.626205 C197.351443,218.558973 195.6532,220.991088 193.825125,224.348847 L193.549889,224.859507 L193.149918,225.620474 L190.553623,230.788767 L190.062891,231.750047 C188.13557,235.480541 186.611293,237.864844 184.615974,239.95681 C181.720393,242.992644 178.213465,244.7541 173.917026,245.036877 L173.484743,245.060218 L172.9728,245.072846 C170.949047,245.092542 168.805154,244.781964 166.480083,244.136174 L165.940285,243.981193 L165.414076,243.819917 C161.950242,242.726075 156.474637,243.407026 152.126403,245.714933 C147.403704,248.221595 144.802606,252.046006 144.918332,256.933651 C144.975814,259.361398 145.255278,261.964045 145.745975,264.785045 L145.885031,265.559855 C146.529837,269.047156 147.403417,272.545892 148.749578,277.213334 L151.643599,286.976142 L151.970198,288.115384 L152.297791,289.28758 C152.76763,290.994813 153.142614,292.482138 153.45148,293.882735 C154.632403,299.237798 154.829531,303.259006 153.645488,306.68517 C148.424997,321.791264 139.365828,329.81579 129.05338,330.154544 L128.697285,330.163178 L128.256099,330.16383 C120.333684,330.078371 113.154663,324.9163 113.241453,318.228383 C113.250542,317.528023 113.383123,316.875434 113.615644,316.284695 L113.721345,316.035349 L113.772,315.929 L113.69022,315.728902 C111.255294,309.900143 105.624001,305.645363 99.0115243,304.810882 L98.6362002,304.767312 L98.2657474,304.731714 C97.9025574,304.700343 97.540194,304.678636 97.1970298,304.666717 L96.8609459,304.658064 L96.4591916,304.654971 C87.6462889,304.668275 78.9257995,310.535121 72.0659894,320.131449 C70.6357511,322.132748 69.3081733,324.317497 68.1150828,326.62607 L67.7224106,327.400099 L65.815,331.302 L64.5265607,335.07563 C57.4282431,355.854268 61.0225175,377.597817 74.8772663,388.839195 L75.3002474,389.176616 C80.2919646,393.090695 86.1623725,395.469691 92.4296168,396.110196 C93.1507851,396.183934 93.8765676,396.230583 94.5748517,396.2493 L95.0929071,396.258087 L95.6881194,396.256394 C97.7304145,396.22952 99.6836169,395.975716 101.438069,395.502019 C102.86927,395.115711 103.865135,394.647351 104.558319,394.048922 C104.740603,393.892198 104.887168,393.74999 105.01363,393.608126 L105.12,393.481 L105.16,393.427 L114.629098,394.831041 C116.240049,405.055098 120.892651,415.648923 128.461973,427.797947 L128.938852,428.559296 L129.770648,429.869367 L130.616934,431.180835 C139.522947,444.87891 149.455919,456.413499 160.374031,465.264876 L161.137358,465.878054 L162.160186,466.689433 L163.099205,467.424625 C164.92368,468.840835 166.443752,469.942881 167.965019,470.926478 L168.345538,471.170022 L171.936102,473.444693 L170.269192,477.35464 C166.380035,486.477147 161.013359,494.770415 154.398471,501.831394 L153.774675,502.489739 L149.176801,507.231023 L145.640642,502.72924 C145.614018,502.695346 145.534601,502.652039 145.440589,502.634356 L145.376,502.627 L145.34,502.627 L145.292123,502.631742 L145.235347,502.646903 L145.177771,502.672961 C142.530422,504.107894 141.076727,505.205133 138.987879,507.352364 L138.684954,507.666403 L138.332079,508.037771 L137.846085,508.544043 C135.675793,510.767562 133.356597,512.661251 130.828637,514.237581 C124.990139,517.876143 118.509435,519.898356 111.798773,520.080797 L111.168988,520.092504 L110.534886,520.09268 C110.307383,520.090684 110.079792,520.086544 109.851575,520.080243 C95.8502832,519.692097 83.3036345,510.722667 77.1370232,497.575728 C76.8920652,497.05327 76.6668289,496.883481 76.2517572,496.849267 L76.1336917,496.843134 L75.985775,496.841252 C74.9573375,496.847428 73.696831,497.459794 72.9940936,498.28201 L72.8690595,498.438538 L70.5084563,501.60984 L69.6035199,502.806999 C61.1836149,513.861187 54.2705818,519.907109 44.9855679,521.74348 C44.2546518,521.887782 43.4810827,521.97606 42.6599182,522.012527 L42.1614685,522.033011 L41.8703508,522.033011 C37.8768232,522.043757 33.275133,520.886779 29.6881051,518.849458 C24.9438129,516.154846 22.010409,512.010467 22.3819929,506.875353 L22.4102138,506.546239 L22.4759585,505.996765 C22.785723,503.255124 20.5913604,501.765087 18.9117514,503.11084 L18.7980658,503.207009 L18.6592714,503.333443 C11.741533,509.820367 3.78480781,514.798261 -4.78527693,517.87044 L-5.54304181,518.136559 L-6.66912397,518.520544 C-12.0737148,520.344237 -15.8847915,521.248643 -19.8977291,521.319421 C-23.3707614,521.379262 -26.258549,520.126539 -28.3471354,517.718377 C-29.7401971,516.112163 -30.5914268,514.327244 -31.4412203,511.722476 L-31.5829319,511.280647 L-31.8931095,510.26776 L-32.0855674,509.608738 C-34.5718139,500.860842 -34.6257792,491.50565 -32.6736971,481.184387 C-31.2155517,473.47472 -28.8942013,466.026212 -24.9907182,455.586659 L-24.2330219,453.573933 L-22.6695264,449.468141 C-22.5123778,449.056168 -23.451418,447.618428 -24.0325855,447.456429 L-24.101,447.444 L-24.6314247,447.500556 C-25.0034493,447.535627 -25.3782,447.560468 -25.762396,447.57515 L-26.3466138,447.589565 L-26.7298447,447.589579 C-39.4093676,447.459857 -49.0938454,435.025812 -49.0069584,421.854542 C-48.906496,409.516043 -42.7013487,398.907095 -30.8540223,386.314038 L-29.8247305,385.229687 L-28.7112094,384.075914 L-27.610769,382.949645 C-17.0832713,372.231141 -6.32122266,362.874484 4.88621911,354.849589 L5.81436373,354.187778 L6.84740936,353.458893 C10.6215386,350.81149 14.2907788,348.410657 19.3686084,345.254929 L22.358,343.409 L34.4733668,329.113166 C34.7640608,328.948313 35.0505037,328.783818 35.3326981,328.619654 L35.4865034,323.660282 L47.1591661,323.900818 C44.1970989,322.381395 41.7430819,320.53736 39.7498426,318.17475 C33.1244681,310.318834 33.9559964,299.404992 42.0116601,294.042391 L42.2956016,293.857589 L45.6917502,291.760986 L48.4703941,294.198619 C50.8906743,296.321869 53.4582985,297.729902 56.1352097,298.379646 L56.5587826,298.475929 L58.6534241,298.919902 L59.061,299.58 L59.297,299.238 C59.295545,299.20395 59.2890258,299.170023 59.2776674,299.137088 L59.2570286,299.088536 L59.2128004,299.020118 L58.9490767,298.695826 L58.6577628,298.347867 C57.7259536,297.252313 56.679722,296.188757 54.78017,294.359659 L53.4474616,293.079017 L52.4101558,292.069656 C49.6879955,289.395994 48.2382961,287.740151 46.6966514,285.440042 C42.8609954,279.717268 40.6945674,273.265041 40.604511,266.711437 C40.4159569,253.083809 48.8922145,240.199645 61.4529243,234.319003 C61.8924765,234.113207 62.2171435,232.649514 61.6897441,231.682037 C49.5280526,209.367631 46.1533349,182.619393 52.2622773,157.736937 C57.9627382,134.521782 72.1443775,114.030417 92.447715,98.333673 C127.302216,71.3854505 175.652016,57.4889798 226.951653,57.0103951 L228.50708,57 L229.999719,57 Z" id="hair" fill="#ECDCBF"/><path d="M43.6094,331.4958 C45.9184,330.9158 47.1584,334.0188 45.1984,335.2658 C32.7544,343.1808 19.8994,350.2498 7.8784,358.8618 C-3.55513571,367.048586 -14.1155452,376.374434 -23.9633265,386.400889 L-25.0546,387.5178 C-33.9576,396.6768 -43.8176,408.3288 -43.9176,421.8398 C-43.9946,432.3418 -35.8976,443.8048 -24.6006,442.4248 C-20.3446,441.9048 -16.4326,447.3048 -17.9176,451.1978 L-19.4800821,455.300934 C-25.765693,471.905778 -32.1608833,490.719646 -27.1957747,508.189456 L-27.0136,508.8128 C-25.8126,512.8128 -24.5466,516.3478 -19.9036,516.2678 C-15.5946,516.1918 -11.1106,514.7388 -7.0766,513.3518 C1.2944,510.4728 8.8804,505.6718 15.3194,499.6338 C21.0148105,494.293611 28.2914,499.719145 27.5246144,506.505755 L27.4974,506.7228 C26.4484,514.3388 38.5814,517.8748 44.0974,516.7858 C54.9884,514.6318 62.7534,503.7198 68.9384,495.4008 C71.9114,491.4038 79.1324,489.8298 81.7444,495.4008 C86.9204,506.4358 97.5894,514.6838 110.0704,515.0298 C116.5534,515.2088 122.7734,513.3638 128.2644,509.9418 C130.505631,508.544262 132.509986,506.882581 134.348253,504.999231 L134.8044,504.5238 C137.5244,501.6408 139.4014,500.1078 142.8754,498.2248 C146.2984,496.3698 150.7264,498.6698 150.705548,502.7168 C150.6774,507.9588 149.1414,511.4438 145.5264,515.2458 C142.5354,518.3948 138.9814,521.1588 135.2454,523.3678 C127.7374,527.8038 118.8114,530.2998 110.0704,530.0108 C96.2924,529.5548 83.1414,522.6878 74.6164,512.0078 C65.9124,522.4148 55.1154,531.9768 41.0844,531.7198 C30.5804,531.5278 20.7914,526.0598 16.1014,517.5878 C9.4804,522.1528 2.2134,525.7218 -5.5606,528.0528 L-6.25331276,528.257519 C-17.257271,531.459806 -29.9207134,532.732821 -37.0036,521.8088 C-43.6536,511.5528 -44.1496,497.3498 -42.6256,485.6268 C-41.2646,475.1548 -38.0426,465.2098 -34.3426,455.4008 C-44.8746,452.2558 -53.0496,442.3628 -55.8576,431.6988 C-60.1056,415.5728 -51.8646,399.9338 -41.6766,387.9518 C-30.6096,374.9358 -16.6806,363.9268 -2.6476,354.2908 C11.3484,344.6818 27.0274,335.6518 43.6094,331.4958 Z M403.4792,205.3635 C403.5052,204.9155 404.2392,204.7585 404.3072,205.2505 C409.1412,240.3285 411.9402,275.3355 414.2572,310.6545 C415.4322,328.5475 416.7662,346.4225 418.2262,364.2935 C419.6272,381.4305 421.9592,399.0235 421.4322,416.2305 C420.6072,443.1745 407.5232,465.0825 386.0692,480.8485 C365.5122,495.9575 340.0102,503.4275 314.9892,506.5835 C300.4582,508.4165 285.7252,508.5045 271.1782,506.7825 C263.622887,505.888125 256.077243,504.697559 248.677222,502.91005 L245.477655,502.109612 C239.650051,500.62131 233.143109,498.601227 232.3122,491.6985 C231.9092,488.3555 233.6852,485.8895 236.5532,484.2115 C240.2922,482.0235 244.5792,483.3115 248.4322,484.3085 C254.9252,485.9885 261.4872,487.4305 268.1232,488.4275 C282.3762,490.5715 297.0282,490.6985 311.3542,489.2145 C335.4522,486.7165 360.8722,478.9005 379.4522,462.7585 C387.5272,455.7445 394.5482,447.1975 398.2412,437.0435 C402.9892,423.9895 402.2862,409.7485 402.1272,396.0785 C401.7582,364.2935 402.0832,332.5085 401.6412,300.7205 C401.1972,268.8355 401.5842,237.2015 403.4792,205.3635 Z M161.1453,56.8189 C189.3033,49.5569 217.8803,47.6699 246.8043,49.8559 C274.0813,51.9159 305.1543,58.0189 327.4323,74.7959 C328.5133,75.6099 327.8663,77.1509 326.5283,76.9379 C311.6343,74.5639 297.1163,70.2459 282.2863,67.3889 C268.0223,64.6409 253.5013,62.5779 238.9773,62.0999 C189.8553,60.4809 135.1963,71.6119 95.5863,102.2369 C77.0133,116.5959 62.8393,135.9039 57.1983,158.8769 C51.4133,182.4399 54.5433,207.9219 66.1603,229.2369 C67.8333,232.3059 67.1433,237.1609 63.6533,238.7949 C53.0633,243.7529 45.5203,254.7369 45.6843,266.5899 C45.7633,272.3389 47.7453,277.8519 50.9303,282.6039 C54.2983,287.6289 59.4253,291.1449 63.1923,295.8379 C64.6753,297.6859 64.7323,300.2309 63.5573,301.9329 C65.7603,302.8979 68.1363,303.4159 70.3043,304.5559 C72.1423,305.5229 72.1943,308.5419 70.3043,309.4939 C65.5243,311.9009 60.3563,309.3459 57.1303,305.4649 C56.5543,304.7719 56.0563,304.0509 55.6023,303.3149 C51.7383,302.4959 48.2763,300.5569 45.2533,297.9049 C39.4933,301.3539 38.7043,309.0319 43.6523,314.8989 C46.1792231,317.894092 49.7693858,319.742835 53.3977754,321.07187 L53.8333,321.2289 C57.3643,322.4829 60.5983,323.1829 62.8923,326.0079 C64.4053,322.8539 66.1423,319.8809 68.0783,317.1719 C75.1173,307.3249 85.9373,298.5889 98.7763,299.6979 C108.8333,300.5649 117.5463,307.7649 119.6073,317.6989 C119.7593,318.4339 118.6513,319.0079 118.3213,318.2409 C113.4963,306.9899 98.2293,306.5769 89.1353,312.4399 C78.4403,319.3359 72.5953,332.3309 70.2503,344.4339 C67.9423,356.3559 69.2763,370.8559 78.1993,379.9239 C81.8503,383.6349 86.8173,386.2009 92.0013,386.8769 C94.5353625,387.208775 96.7705969,386.882349 99.1939721,386.394479 L100.799972,386.058931 C101.91405,385.828587 103.0218,385.6424 104.1903,385.7459 L105.9313,385.9799 L105.9313,385.9799 L106.920693,386.442598 C107.778564,386.828167 107.700945,386.722577 106.6883,386.1249 C109.6463,385.8829 111.1753,388.0689 111.3373,390.4659 C111.4313,390.5259 111.5223,390.5909 111.5983,390.6839 C122.8243,404.4219 131.1593,420.2129 143.0723,433.5009 L146.559673,437.393567 C155.524917,447.366424 165.759885,458.1785 177.938844,463.352119 L179.388203,463.951735 C182.931451,465.448238 186.489567,467.496967 186.9413,471.7679 C187.3463,475.5939 184.3303,478.4729 180.8533,479.3659 C172.9353,481.3969 163.9093,474.3599 158.1103,469.7429 C145.6403,459.8179 135.1603,447.1659 126.5053,433.8539 L125.649742,432.528118 C118.534982,421.416922 111.848185,408.7444 109.7703,395.5569 L109.395534,396.164541 C109.367487,396.207775 109.34555,396.2404 109.3313,396.2599 C108.9073,396.8359 108.4403,397.3219 107.8983,397.7879 C106.4423,399.0449 104.6663,399.7789 102.8213,400.2769 C99.3583,401.2119 95.5613,401.3959 92.0013,401.0319 C84.7703,400.2929 78.0113,397.5409 72.2953,393.0589 C54.8913,379.4099 52.8363,354.0119 59.8753,333.4069 C54.0993,334.7859 47.5203,330.8989 43.0103,327.5679 C37.8383,323.7459 33.5733,318.2289 32.5543,311.7389 C31.5423,305.2989 35.6483,296.7709 41.7383,294.2859 C35.4193,286.6989 31.7403,275.9319 31.3603,267.3109 C30.7003,252.3149 38.6673,238.1409 50.8993,229.9589 C39.3963,205.3079 37.1803,176.7089 44.9253,150.5349 C60.2943,98.5959 111.7783,69.5509 161.1453,56.8189 Z M117.3245,451.4424 L117.468186,450.986222 C118.6935,446.969425 120.275386,438.979476 126.2765,442.0214 C132.0095,444.9264 128.3495,453.5254 126.3445,457.7114 C123.9455,462.7204 119.8025,466.7364 114.2385,467.8124 C109.7125,468.6874 104.7425,467.5634 101.5765,464.0664 C100.6535,463.0474 100.1325,461.9294 99.5855,460.6954 C99.3725,460.2154 99.2765,459.8864 99.2365,459.6724 C99.1845,459.9074 99.0365,460.2574 98.6585,460.6694 C96.1325,463.4294 93.7465,466.6424 91.9135,469.9074 C91.4795,470.6794 90.1115,470.1384 90.4575,469.2934 C92.5925,464.0714 92.2335,455.9964 96.9925,452.2194 C101.187178,448.889807 105.128662,451.51027 107.347287,455.387744 L107.4605,455.5894 C110.7035,461.4774 115.8715,455.8854 117.3245,451.4424 Z M71.6954,432.5743 L72.1335359,431.965996 C76.6186633,425.836182 84.1826903,418.462332 91.7514,424.1633 C94.1584,425.9763 94.2474,429.0023 91.7514,430.8013 L90.8070147,431.47564 C87.500451,433.819582 84.2080957,436.033474 81.7794,439.3953 C79.1404,443.0503 76.7704,446.9203 73.2224,449.7873 C66.9474,454.8573 56.8064,455.8573 51.3614,449.0223 L50.825801,448.343988 C50.37029,447.75757 49.8476,447.0512 49.4234,446.3463 L49.092848,446.804004 C49.060584,446.849892 49.030272,446.893716 49.002376,446.935068 L48.9264,447.0513 C46.6884,450.6273 43.8614,453.5723 40.3404,455.8963 C33.6484,460.3113 26.1074,460.9253 18.5364,458.5883 C17.7954,458.3583 17.9944,457.3653 18.7114,457.2993 C27.6824,456.4613 36.4234,450.0883 40.0724,441.8813 L40.4844946,440.960214 C41.9610653,437.695587 43.6154,434.593129 47.2634,433.3113 C50.8144,432.0633 54.5424,433.3813 56.9774,436.0673 C59.0134,438.3123 59.5374,442.7753 63.2104,441.7913 C67.2324,440.7133 69.4964,435.6763 71.6954,432.5743 Z M46.0004,378.051 C47.9874,376.541 51.0994,378.161 51.6464,380.349 C54.1254,390.255 43.8294,401.928 33.9354,402.235 C31.3884,402.313 28.9384,401.697 26.6824,400.518 C24.9324,399.604 22.8614,397.268 20.9404,396.881 C18.4594,396.382 16.2614,399.686 14.5144,401.382 C12.3474,403.487 10.2034,405.441 7.7754,407.235 C6.8054,407.952 5.3004,406.748 5.7104,405.647 L6.53169186,403.457912 C9.5046028,395.666224 14.6251,384.29177 24.2074,387.525 C28.9024,389.109 32.4364,394.451 37.3804,390.221 C41.3394,386.834 41.7084,381.312 46.0004,378.051 Z M88.2791,338.1718 C97.2121,327.9178 118.2111,333.3338 122.1931,345.8088 C123.0731,348.5638 122.1551,352.1448 120.0031,354.0948 C117.1681,356.6638 113.1241,357.4418 109.6821,355.4268 C106.7201,353.6938 105.5041,350.8578 103.3271,348.4248 C100.1341,344.8598 95.7911,342.8808 91.3161,341.4628 C90.1971,342.0508 89.1561,342.8238 88.2221,343.7558 C87.7441,344.2328 86.8411,343.5788 87.2651,343.0168 C87.8411,342.2528 88.5451,341.5338 89.3461,340.8708 L88.9611,340.7578 L88.9611,340.7578 C87.7831,340.4298 87.5281,339.0358 88.2791,338.1718 Z M146.3364,224.957413 C148.3384,224.9605 150.6704,226.8405 150.4144,229.0355 L150.337087,229.64496 C149.76096,233.82381 148.418218,236.189955 144.2354,238.1315 C140.6864,239.7765 136.9584,240.6855 133.0684,241.0455 C131.5964,241.1815 130.0384,241.1895 128.4594,241.0725 L128.126872,242.990797 C127.466033,246.827194 126.855257,250.666214 126.7404,254.5765 C126.5264,261.8255 129.2314,267.7995 132.1324,274.2715 C137.7014,286.7035 138.3274,299.1135 132.2644,311.5275 C131.3774,313.3425 128.8664,314.8225 126.8404,314.6385 C124.2134,314.4005 122.9444,313.6405 121.4164,311.5275 C120.132936,309.753214 120.426492,307.245279 121.31525,305.389898 L121.4164,305.1865 C124.4714,299.2675 125.4344,292.5805 123.8744,286.0745 C122.4084,279.9595 119.0874,274.4635 117.6044,268.3675 C115.1884,258.4375 117.7614,248.5875 122.7894,240.0685 C118.9944,238.9755 115.4844,237.0275 113.1424,234.0565 L113.1524,234.0525 L113.1524,234.0525 C112.2584,233.0975 112.7464,231.1025 114.3154,231.2225 L116.089802,231.365795 C121.165463,231.790032 125.837641,232.231259 130.9704,230.8165 C133.601467,230.090367 135.872764,228.879896 138.13146,227.414363 L138.6154,227.0965 C141.4414,225.2185 143.0084,224.9535 146.3364,224.957413 Z M158.4838,151.5647 C171.2078,150.8417 182.0708,159.2387 187.3518,170.4167 C193.088129,182.552152 190.681229,196.476566 185.618279,208.416367 L184.179802,211.758133 C181.662011,217.54789 178.356404,224.433096 173.1998,227.5397 C167.4078,231.0297 162.4008,226.9827 164.1088,220.5497 C165.1268,216.7187 167.8818,213.7637 170.1108,210.6017 C172.1908,207.6487 174.1318,204.5927 175.8338,201.4047 C179.1678,195.1527 181.6568,188.1867 181.6298,181.0237 C181.5828,167.9497 172.9448,152.9667 158.4838,153.1587 C157.4508,153.1707 157.4678,151.6217 158.4838,151.5647 Z M222.8367,130.4691 C222.0437,129.8671 222.7527,128.5281 223.6397,129.0931 C238.3947,138.4771 249.4117,156.1041 251.6297,173.4211 C252.8607,183.0291 251.9207,193.2971 247.8287,202.1641 C245.4817,207.2521 241.4537,212.1091 235.8217,213.5041 C230.6437,214.7851 225.3067,211.8281 223.6997,206.7741 C223.0767,204.8131 224.1487,202.7621 225.7677,201.6911 C231.0177,198.2201 235.2447,193.8401 237.7177,187.9481 C240.2907,181.8221 241.3167,175.3211 241.3477,168.7131 C241.4237,153.2381 235.2477,139.9011 222.8367,130.4691 Z M403.0771,137.1762 C402.3941,136.4192 403.2531,135.3032 404.1571,135.7772 C414.8241,141.3872 421.6021,152.1332 423.5441,163.9022 C425.4471,175.4242 422.8871,191.1102 413.9681,199.4432 C408.9351,204.1472 399.9191,197.8912 404.1031,191.8322 C407.0531,187.5592 410.2421,184.0402 411.9311,178.9912 C413.4371,174.4862 413.9701,169.9432 413.8881,165.2092 C413.7091,154.8812 410.0191,144.8762 403.0771,137.1762 Z M272.6596,122.748 C290.8846,121.88 301.9296,142.685 304.4596,158.192 C306.0216,167.773 304.8476,177.641 299.5576,185.951 L299.244641,186.434778 C294.879853,193.07325 286.944052,200.716333 278.3936,197.573 C274.7746,196.244 273.8116,192.367 276.2426,189.426 C279.9626,184.924 285.7126,183.089 289.2106,178.282 C293.1346,172.891 294.4206,166.137 294.1936,159.581 L294.162765,158.856818 C293.554729,146.797451 287.80256,123.65136 272.6596,124.061 C271.8106,124.083 271.8206,122.787 272.6596,122.748 Z M329.6664,119.2912 C347.2944,117.0382 358.0294,137.7762 361.3404,152.0622 C363.4084,160.9932 363.8604,170.9562 361.2154,179.8202 L361.018248,180.451634 C358.865189,187.067079 352.512989,198.401958 344.2204,195.0212 C341.9484,194.0952 339.6294,191.5722 340.7174,188.8522 C342.1064,185.3752 344.1114,184.4732 346.7834,182.2482 C348.8414,180.5352 350.2784,178.0762 351.3364,175.6542 C354.1544,169.1992 354.7824,161.6582 354.3974,154.7022 L354.344363,153.878913 C353.348433,140.292148 345.98144,120.0438 329.6664,120.4162 C328.9214,120.4332 328.9724,119.3792 329.6664,119.2912 Z M361.9394,99.795 C371.7504,96.059 379.7884,105.44 385.4284,112.135 C392.4934,120.524 398.9024,129.561 402.5254,140.004 C405.7524,149.309 406.3204,159.655 403.4134,169.127 C401.9744,173.817 399.7324,178.166 396.6724,181.994 L396.281728,182.476828 C393.096987,186.360081 390.022459,188.746255 384.8054,187.356 C382.6824,186.789 381.7854,184.69 382.1524,182.684 C382.9384,178.398 385.1474,177.285 388.0084,174.293 C390.5314,171.654 392.4034,168.404 393.6624,164.987 C396.2584,157.938 396.3934,150.301 394.6504,143.039 C392.700633,134.909333 388.862354,127.402007 384.421857,120.367073 L383.463946,118.860251 C378.759332,111.422735 372.050952,99.9691034 362.1264,101.176 C361.2764,101.28 361.2654,100.051 361.9394,99.795 Z" id="Ink" fill="#000"/></g></g><g id="Beard" transform="translate(527.000000, 518.000000) scale(1 1)" fill="#000"><g id="Beard/None" stroke="none" stroke-width="1" fill="none" fill-rule="evenodd" fill-opacity="0"/></g><g id="Face" transform="translate(563.000000, 366.000000) scale(1 1)" fill="#000"><g id="Face/Smile" stroke="none" stroke-width="1" fill="none" fill-rule="evenodd"><path d="M146.586567,240.926554 C139.864291,238.184203 133.866322,233.609781 129.481228,227.766254 C127.956691,225.734803 127.561405,223.589624 127.881219,221.627583 C128.240828,219.421406 129.546036,217.4219 131.326046,216.080693 C133.111571,214.735331 135.345035,214.071832 137.504329,214.410065 C139.380629,214.703969 141.248396,215.731287 142.726594,217.861908 L143.035427,218.287981 C145.642441,221.814933 149.039621,224.708755 152.91047,226.573991 C156.641339,228.371775 160.813939,229.21087 165.131898,228.722919 C173.355732,227.793938 179.024012,223.346401 185.048774,217.30672 C185.795561,216.544195 186.542826,215.757766 187.293714,214.958678 C187.767915,214.234308 188.425986,213.768756 189.156624,213.524488 C189.967867,213.253272 190.885573,213.268617 191.726122,213.56195 C192.536835,213.844871 193.261572,214.380994 193.747527,215.094538 C194.209389,215.772704 194.47125,216.610486 194.386283,217.574143 C193.834826,223.833283 190.562474,229.419299 185.914235,233.805502 C180.751772,238.67694 173.908551,242.047034 167.465957,243.229031 C160.36811,244.531047 153.135593,243.598228 146.586567,240.926554 L146.586567,240.926554 Z M170.814304,144.367155 C178.365682,148.9572 189.871664,159.660291 181.748119,171.039573 C172.185929,181.073062 158.418535,169.568982 151.634201,164.366134 C145.343449,160.333898 138.275437,170.704507 144.112,175.412823 C193.135736,211.708059 213.030606,145.567387 174.633685,138.970386 C170.406047,138.243425 168.835891,142.947174 170.814304,144.367155 Z M82.9633,102.1464 C83.7976284,91.7901242 99.5703,89.4384 101.1393,99.6864 C102.5443,108.8664 100.8903,117.2994 96.7553,125.5644 C92.8043,133.4604 82.8737826,129.776544 82.1227826,122.586544 C81.1160984,112.948648 82.4443,108.588596 82.9633,102.1464 Z M203.027,97.5615 C205.226,94.6815 208.401,92.7155 212.205,93.8265 C224.09,97.2995 220.587,114.1725 216.413,122.3855 C214.145,126.8455 206.814,127.9765 203.501,124.0495 C198.101,117.6455 195.515,104.8565 202.38,98.5485 C202.566,98.2225 202.773,97.8935 203.027,97.5615 Z M96.5879,56.8305 L98.465271,56.501905 C104.27307,55.49746 111.4944,54.5323 115.6029,59.2015 C117.7819,61.6775 118.5319,66.2795 115.6029,68.6495 C110.4509,72.8195 104.7549,71.2035 98.5809,71.5565 C93.4929,71.8485 88.6029,72.6905 83.7019,74.0915 C72.9499,77.1645 64.1889,82.7745 55.0059,88.9345 C53.8009,89.7425 52.5709,88.2015 53.1459,87.0745 C58.4469,76.6915 68.7199,68.1625 79.0099,62.9635 C84.5019,60.1885 90.5119,57.8865 96.5879,56.8305 Z M192.192876,52.1793876 L193.629806,52.4734684 C209.267042,55.742077 229.583473,62.2713911 236.988459,77.6308459 C237.270623,79.8027272 236.97249,80.2682047 236.730054,80.5723213 L236.649336,80.6735209 C236.449568,80.9332186 236.290169,81.2912104 235.348782,81.5868073 C235.087547,81.5245653 234.823712,81.4586426 234.557082,81.3887687 C231.162766,80.499243 228.477205,79.2737961 225.877298,78.0022488 L223.058339,76.6134493 C219.787784,75.0098309 216.488352,73.4645766 212.991711,72.3238115 C205.52958,69.8898666 197.854137,68.1753043 190.059777,67.259767 C188.37041,67.0615005 186.743655,66.4913394 185.460262,65.5141761 C184.242065,64.5866523 183.311441,63.3024737 182.887128,61.5955207 C182.33722,59.3864508 182.495251,57.7140037 183.680513,55.7210991 C184.571756,54.2244705 185.846982,53.1871113 187.311265,52.5914244 C188.804038,51.9841473 190.503545,51.840982 192.192876,52.1793876 Z" id="Ink" fill="#000"/></g></g><g id="Mask" transform="translate(428.000000, 479.000000) scale(1 1)" fill="#000"><g id="Mask/None" stroke="none" stroke-width="1" fill="none" fill-rule="evenodd" fill-opacity="0"/></g><g id="Accessories" transform="translate(451.000000, 421.000000) scale(1 1)" fill="#000"><g id="Accessories/Glasses 2" stroke="none" stroke-width="1" fill="none" fill-rule="evenodd"><path d="M372.3111,95.4577 C360.1701,108.0027 339.9021,111.6027 323.7491,104.8747 C282.2731,87.5457 302.5741,33.4957 334.5611,18.9807 C338.5571,17.9847 343.8941,15.6217 348.7611,15.0857 C349.2011,14.8697 350.1591,15.4947 351.3201,14.9037 C386.5911,18.8417 394.6231,73.5937 372.3111,95.4577 M238.5331,98.6687 C224.9161,116.7297 199.6001,122.3017 178.9161,113.9057 C138.0541,97.8137 152.5471,49.8847 180.5041,31.0947 C239.5611,8.9037 263.9481,65.3677 238.5331,98.6687 M149.9531,58.6507 C149.9151,58.6327 149.8771,58.6237 149.8381,58.6057 C150.0541,58.5107 150.2701,58.4157 150.4851,58.3187 C150.4151,58.5017 150.3391,58.6827 150.2711,58.8657 C150.1651,58.7927 150.0721,58.7077 149.9531,58.6507 M400.4231,39.1277 C397.0891,39.1347 392.2731,39.6827 389.5131,41.9957 C382.7071,19.0427 357.5851,-2.2003 335.7371,13.2897 C318.5321,18.8227 305.7651,31.0937 298.5091,47.4077 C285.4261,39.6257 264.8541,42.9487 253.5091,53.2397 C246.0791,28.6887 227.7931,20.0917 206.0281,18.8227 C182.2721,14.9317 158.5941,38.0027 151.2061,56.5107 C145.0631,55.8117 135.8841,53.8567 130.1051,57.6477 C92.5981,47.8117 27.0231,42.3887 19.3981,47.8537 C13.9641,49.9387 10.9821,62.7647 18.5721,63.4567 C25.1861,62.5177 17.8001,54.0587 24.4671,53.1357 C59.9901,50.9337 94.4751,58.0877 129.6221,61.0897 C132.7601,65.3107 142.8991,66.7227 148.3081,65.0267 C139.7891,96.4227 158.1791,117.7827 185.7341,124.1807 C228.4011,133.9817 265.5221,95.8137 254.3651,56.1137 C267.2901,49.6837 282.1571,49.9597 296.2371,53.3467 C272.7091,139.9367 412.1661,136.0517 390.3851,44.9627 C404.8801,52.1727 408.0281,40.5827 400.4231,39.1277" id="Ink" fill="#000"/></g></g></g></svg>