<svg xmlns="http://www.w3.org/2000/svg" viewBox="0 0 750 500"><g id="freepik--background-complete--inject-143"><rect x="263.18" y="230.74" width="25.46" height="25.46" style="fill:#f5f5f5"></rect><rect x="290.51" y="230.93" width="25.46" height="25.46" style="fill:#f5f5f5"></rect><rect x="318.31" y="230.74" width="25.46" height="25.46" style="fill:#f5f5f5"></rect><rect x="345.64" y="230.93" width="25.46" height="25.46" style="fill:#f5f5f5"></rect><rect x="373.44" y="230.74" width="25.46" height="25.46" style="fill:#f5f5f5"></rect><rect x="400.77" y="230.93" width="25.46" height="25.46" style="fill:#f5f5f5"></rect><rect x="428.57" y="230.74" width="25.46" height="25.46" style="fill:#f5f5f5"></rect><rect x="455.89" y="230.93" width="25.46" height="25.46" style="fill:#f5f5f5"></rect><rect x="483.7" y="230.74" width="25.46" height="25.46" style="fill:#f5f5f5"></rect><rect x="511.02" y="230.93" width="25.46" height="25.46" style="fill:#f5f5f5"></rect><rect x="538.82" y="230.74" width="25.46" height="25.46" style="fill:#f5f5f5"></rect><rect x="566.15" y="230.93" width="25.46" height="25.46" style="fill:#f5f5f5"></rect><rect x="593.95" y="230.74" width="25.46" height="25.46" style="fill:#f5f5f5"></rect><rect x="621.28" y="230.93" width="25.46" height="25.46" style="fill:#f5f5f5"></rect><rect x="649.08" y="230.74" width="25.46" height="25.46" style="fill:#f5f5f5"></rect><rect x="676.4" y="230.93" width="25.46" height="25.46" style="fill:#f5f5f5"></rect><rect x="704.21" y="230.74" width="25.46" height="25.46" style="fill:#f5f5f5"></rect><rect x="263.18" y="258.26" width="25.46" height="25.46" style="fill:#f5f5f5"></rect><rect x="290.51" y="258.44" width="25.46" height="25.46" style="fill:#f5f5f5"></rect><rect x="318.31" y="258.26" width="25.46" height="25.46" style="fill:#f5f5f5"></rect><rect x="345.64" y="258.44" width="25.46" height="25.46" style="fill:#f5f5f5"></rect><rect x="373.44" y="258.26" width="25.46" height="25.46" style="fill:#f5f5f5"></rect><rect x="400.77" y="258.44" width="25.46" height="25.46" style="fill:#f5f5f5"></rect><rect x="428.57" y="258.26" width="25.46" height="25.46" style="fill:#f5f5f5"></rect><rect x="455.89" y="258.44" width="25.46" height="25.46" style="fill:#f5f5f5"></rect><rect x="483.7" y="258.26" width="25.46" height="25.46" style="fill:#f5f5f5"></rect><rect x="511.02" y="258.44" width="25.46" height="25.46" style="fill:#f5f5f5"></rect><rect x="538.82" y="258.26" width="25.46" height="25.46" style="fill:#f5f5f5"></rect><rect x="566.15" y="258.44" width="25.46" height="25.46" style="fill:#f5f5f5"></rect><rect x="593.95" y="258.26" width="25.46" height="25.46" style="fill:#f5f5f5"></rect><rect x="621.28" y="258.44" width="25.46" height="25.46" style="fill:#f5f5f5"></rect><rect x="649.08" y="258.26" width="25.46" height="25.46" style="fill:#f5f5f5"></rect><rect x="676.4" y="258.44" width="25.46" height="25.46" style="fill:#f5f5f5"></rect><rect x="704.21" y="258.26" width="25.46" height="25.46" style="fill:#f5f5f5"></rect><rect x="615.99" y="38.99" width="71.01" height="74.02" style="fill:#e0e0e0"></rect><rect x="611.18" y="38.99" width="71.01" height="74.02" style="fill:#fafafa"></rect><path d="M682.21,113H611.16V39h71.05Zm-71,0h71V39h-71Z" style="fill:#e0e0e0"></path><rect x="620.73" y="48.94" width="51.92" height="54.12" style="fill:#fff"></rect><path d="M620.73,103.42a9,9,0,0,1-1.29,1.49c-.82.87-2,2.06-3.3,3.35s-2.5,2.43-3.39,3.24a7.36,7.36,0,0,1-1.5,1.25,8.79,8.79,0,0,1,1.28-1.48c.83-.88,2-2.06,3.3-3.35s2.52-2.44,3.4-3.26A7.83,7.83,0,0,1,620.73,103.42Z" style="fill:#e0e0e0"></path><path d="M672.64,103.29a8.17,8.17,0,0,1,1.49,1.28c.88.83,2.06,2,3.35,3.3s2.43,2.51,3.25,3.39a9.24,9.24,0,0,1,1.25,1.5,7.7,7.7,0,0,1-1.49-1.27c-.87-.83-2.06-2-3.35-3.31s-2.44-2.51-3.25-3.4A7.85,7.85,0,0,1,672.64,103.29Z" style="fill:#e0e0e0"></path><path d="M672.5,49.08a8.79,8.79,0,0,1,1.28-1.48c.83-.88,2-2.06,3.3-3.35s2.51-2.43,3.39-3.25A8.56,8.56,0,0,1,682,39.75a8.58,8.58,0,0,1-1.28,1.49c-.83.87-2,2.06-3.31,3.35S674.88,47,674,47.84A8.21,8.21,0,0,1,672.5,49.08Z" style="fill:#e0e0e0"></path><path d="M620.58,49.22a8.58,8.58,0,0,1-1.49-1.28c-.87-.83-2.06-2-3.34-3.3s-2.43-2.51-3.25-3.4a8.33,8.33,0,0,1-1.25-1.5A8.58,8.58,0,0,1,612.74,41c.87.83,2.06,2,3.35,3.31s2.44,2.51,3.25,3.39A8.21,8.21,0,0,1,620.58,49.22Z" style="fill:#e0e0e0"></path><path d="M672.5,103.06s0-.09,0-.26,0-.44,0-.76c0-.68,0-1.65,0-2.92,0-2.56,0-6.29-.06-11,0-9.48-.06-23-.1-39.15l.2.2-51.77,0h0l.23-.23c0,19.86,0,38.45,0,54.12l-.19-.2,37.48.1,10.53.06,2.79,0h0l-2.74,0-10.49,0-37.61.1h-.2v-.2c0-15.67,0-34.26,0-54.12v-.23h.23l51.77,0h.2v.2c0,16.22-.08,29.77-.1,39.28,0,4.72,0,8.43-.05,11,0,1.25,0,2.22,0,2.89,0,.31,0,.55,0,.73A.87.87,0,0,1,672.5,103.06Z" style="fill:#e0e0e0"></path><path d="M648.21,70.18a9.28,9.28,0,0,0-16.27,1.52,10.67,10.67,0,0,0,.13,8.19,14.64,14.64,0,0,0,5.36,6.33c6.07,4.13,14.87,4,20.51-.76a11.26,11.26,0,0,0,4.17-6.83A8.5,8.5,0,0,0,649.53,70" style="fill:#e0e0e0"></path><path d="M648.23,70.16a3.24,3.24,0,0,0-3.44-2.36l2,2.42a3.14,3.14,0,0,0-2.5,2c-.1.25-.13.6.11.72a.58.58,0,0,0,.51,0l2.47-1a8.56,8.56,0,0,0,1.47,3.83,10.13,10.13,0,0,0,.93-3.86L652.55,73a4.2,4.2,0,0,0-1.28-2,6.57,6.57,0,0,0,2.28-.89c.21-.13.44-.35.34-.58s-.29-.22-.48-.24a8.89,8.89,0,0,0-5.2,1.08" style="fill:#ebebeb"></path><path d="M648.05,71.18a17.81,17.81,0,0,0-.68-8.23c.65-.14,1.45-.24,1.87.28a1.77,1.77,0,0,1,.28,1.09,19.4,19.4,0,0,1-1.46,7.6" style="fill:#ebebeb"></path><path d="M634.81,81.07s-.18-.13-.43-.43a7.13,7.13,0,0,1-.91-1.37,8.4,8.4,0,0,1,1.66-10.06,7.61,7.61,0,0,1,1.31-1,1.86,1.86,0,0,1,.54-.26,16.34,16.34,0,0,0-1.7,1.42,8.58,8.58,0,0,0-1.62,9.82A16.11,16.11,0,0,0,634.81,81.07Z" style="fill:#fff"></path><path d="M637.54,83.14c0,.07-.46,0-.89-.33s-.66-.69-.6-.74.37.21.77.49S637.57,83.06,637.54,83.14Z" style="fill:#fff"></path></g><g id="freepik--Sink--inject-143"><rect x="259.75" y="313.11" width="177.08" height="135.46" style="fill:#455a64"></rect><path d="M347.64,448.56c-.14,0-.33-30.31-.42-67.7s0-67.71.11-67.71.33,30.31.41,67.71S347.78,448.56,347.64,448.56Z" style="fill:#263238"></path><rect x="332" y="368.79" width="2.62" height="24.09" rx="1.13" transform="translate(666.61 761.67) rotate(180)" style="fill:#e0e0e0"></rect><rect x="361.23" y="368.38" width="2.62" height="24.09" rx="1.13" transform="translate(725.09 760.85) rotate(180)" style="fill:#e0e0e0"></rect><g style="opacity:0.30000000000000004"><path d="M341.23,443s0-.21,0-.62,0-1,0-1.78c0-1.57,0-3.88,0-6.88,0-6,0-14.78-.07-25.84,0-22.1-.07-53.36-.12-90.06l.24.24-76.16,0h0l.26-.26c0,47.58,0,91.3-.06,125.18l-.2-.21,55.52.11,15.27.05,4,0,1.38,0-1.33,0-4,0-15.22.05-55.65.11h-.2V443c0-33.88,0-77.6-.06-125.18v-.26h.27l76.16,0h.25v.24c0,36.76-.08,68.08-.11,90.22,0,11-.05,19.78-.07,25.78,0,3,0,5.28,0,6.84,0,.76,0,1.35,0,1.75S341.23,443,341.23,443Z"></path></g><g style="opacity:0.30000000000000004"><path d="M347.33,313.15a14.39,14.39,0,0,1-2.87,2.62,14.79,14.79,0,0,1-3.19,2.21,14.05,14.05,0,0,1,2.87-2.62A14.79,14.79,0,0,1,347.33,313.15Z"></path></g><g style="opacity:0.30000000000000004"><path d="M347.77,448.43a17,17,0,0,1-3.39-2.54,18,18,0,0,1-3.06-2.94,17.29,17.29,0,0,1,3.39,2.54A17.54,17.54,0,0,1,347.77,448.43Z"></path></g><g style="opacity:0.30000000000000004"><path d="M429.59,443s0-.21,0-.62,0-1,0-1.78c0-1.57,0-3.88,0-6.88,0-6,0-14.78-.07-25.84,0-22.1-.07-53.36-.12-90.06l.24.24-76.16,0h0l.26-.26c0,47.58,0,91.3-.06,125.18l-.2-.21,55.52.11,15.27.05,4,0,1.38,0-1.33,0-4,0-15.22.05-55.65.11h-.2V443c0-33.88,0-77.6-.06-125.18v-.26h.27l76.16,0h.24v.24c0,36.76-.08,68.08-.11,90.22,0,11-.05,19.78-.07,25.78,0,3,0,5.28,0,6.84,0,.76,0,1.35,0,1.75S429.59,443,429.59,443Z"></path></g><g style="opacity:0.30000000000000004"><path d="M437,313.62a14.16,14.16,0,0,1-3.5,2.52,14.78,14.78,0,0,1-3.91,1.84,23.29,23.29,0,0,1,3.64-2.29A25.09,25.09,0,0,1,437,313.62Z"></path></g><g style="opacity:0.30000000000000004"><path d="M353.48,317.49a21.47,21.47,0,0,1-3.22-1.95,10,10,0,0,1-2.93-2.39,24.64,24.64,0,0,1,3.22,2A10,10,0,0,1,353.48,317.49Z"></path></g><g style="opacity:0.30000000000000004"><path d="M353.35,443.17a10.67,10.67,0,0,1-2.68,2.89,25.12,25.12,0,0,1-3,2.5,10.67,10.67,0,0,1,2.68-2.89A25.12,25.12,0,0,1,353.35,443.17Z"></path></g><g style="opacity:0.30000000000000004"><path d="M438,448.19c-.1.11-1.8-1.29-4.08-2.72s-4.27-2.38-4.21-2.52a19.08,19.08,0,0,1,8.29,5.24Z"></path></g><rect x="260.03" y="448.13" width="436.98" height="15.41" style="fill:#263238"></rect><rect x="260.03" y="309.39" width="448.62" height="4.15" style="fill:#263238"></rect><path d="M336,309.89h-61.1V306H336Zm-60.1-1H335V307h-59.1Z" style="fill:#263238"></path><path d="M305.27,306h-4V281.4a8.31,8.31,0,0,1,16.62,0v1.11h-4V281.4a4.31,4.31,0,0,0-8.62,0Z" style="fill:#263238"></path><rect x="312.25" y="281.7" width="7.28" height="2.64" rx="1.19" style="fill:#263238"></rect><rect x="283.74" y="300.51" width="7.67" height="2.62" style="fill:#263238"></rect><rect x="314.89" y="300.51" width="7.67" height="2.62" style="fill:#263238"></rect></g><g id="freepik--Floor--inject-143"><path d="M732.47,463.54c0,.14-161,.26-359.45.26s-359.49-.12-359.49-.26,160.92-.26,359.49-.26S732.47,463.39,732.47,463.54Z" style="fill:#263238"></path></g><g id="freepik--Shelf--inject-143"><rect x="586.94" y="201.67" width="119.79" height="8.39" style="fill:#455a64"></rect></g><g id="freepik--Boiler--inject-143"><rect x="674.45" y="192.17" width="5.34" height="2.12" style="fill:#263238"></rect><path d="M655.59,157.12H665a3.94,3.94,0,0,1,3.94,3.94v.44a0,0,0,0,1,0,0H651.65a0,0,0,0,1,0,0v-.44A3.94,3.94,0,0,1,655.59,157.12Z" style="fill:#263238"></path><path d="M647.61,164.5h-6a1.16,1.16,0,0,0-1.08,1.6l5.39,13.33Z" style="fill:#263238"></path><path d="M672.89,189.54l-.6-1.91a17.67,17.67,0,0,0,5.7-2.84,5.16,5.16,0,0,0,1.94-3.61l.71-11.63a1.77,1.77,0,0,0-.49-1.33,1.74,1.74,0,0,0-1.29-.57h-4.62v-2h4.62a3.78,3.78,0,0,1,3.77,4l-.71,11.66a7.18,7.18,0,0,1-2.69,5A19.81,19.81,0,0,1,672.89,189.54Z" style="fill:#263238"></path><path d="M651.59,160.49s-5.37.84-5.65,8.17S644.43,198,644.43,198h31.45l-1.38-30s-.06-7.59-5.77-7.58Z" style="fill:#44DF56"></path><rect x="657.78" y="169.52" width="4.64" height="21.63" rx="2.09" style="fill:#e0e0e0"></rect><path d="M660.33,191.16a3.71,3.71,0,0,1,.48-.12,2.08,2.08,0,0,0,1.1-.77,1.92,1.92,0,0,0,.36-.9c0-.34,0-.77,0-1.2,0-.9,0-1.9,0-3,0-2.24,0-4.87-.06-7.78,0-1.47,0-3,0-4.6,0-.4,0-.8,0-1.2a1.8,1.8,0,0,0-1.15-1.68,2.75,2.75,0,0,0-1.14-.14,1.85,1.85,0,0,0-1.71,1.17,2.81,2.81,0,0,0-.13,1.11v1.21c0,1.59,0,3.12,0,4.59,0,2.91,0,5.54-.06,7.78,0,1.1,0,2.1,0,3a2.19,2.19,0,0,0,.67,2,2,2,0,0,0,1.24.51,1.65,1.65,0,0,1,.5.06,2.8,2.8,0,0,1-.5.05,2.09,2.09,0,0,1-1.37-.47,2.15,2.15,0,0,1-.65-.86,3,3,0,0,1-.18-1.25c0-.89,0-1.89,0-3,0-2.24,0-4.87-.05-7.78,0-1.47,0-3,0-4.59v-1.21a3.34,3.34,0,0,1,.16-1.3,2.37,2.37,0,0,1,2.19-1.5,3.35,3.35,0,0,1,1.34.17,2.46,2.46,0,0,1,1.07.87,2.39,2.39,0,0,1,.4,1.29v1.21c0,1.59,0,3.13,0,4.6,0,2.91,0,5.54,0,7.78,0,1.09,0,2.09,0,3,0,.44,0,.83-.05,1.24a2.18,2.18,0,0,1-1.68,1.74A1.25,1.25,0,0,1,660.33,191.16Z" style="fill:#263238"></path><rect x="644.7" y="198.04" width="30.92" height="3.6" style="fill:#263238"></rect><path d="M685.05,172.79a2.64,2.64,0,1,1-2.63-2.63A2.64,2.64,0,0,1,685.05,172.79Z" style="fill:#263238"></path><path d="M709.07,158.92c.07.13-5.84,3.35-13.2,7.2s-13.39,6.86-13.45,6.73,5.84-3.35,13.21-7.19S709,158.79,709.07,158.92Z" style="fill:#263238"></path><circle cx="716.67" cy="154.89" r="9.41" transform="translate(401.89 817.1) rotate(-76.77)" style="fill:#fff"></circle><path d="M726.08,154.89c-.07,0,0-.84-.39-2.27a9.35,9.35,0,0,0-3.44-5.06,9.17,9.17,0,0,0-8.7-1.28,8.61,8.61,0,0,0-2.32,1.26,8.46,8.46,0,0,0-1.93,1.94,9.27,9.27,0,0,0-1.78,5.41,9.18,9.18,0,0,0,1.78,5.41,9.11,9.11,0,0,0,4.25,3.2,9.25,9.25,0,0,0,4.82.42,9.11,9.11,0,0,0,3.88-1.7,9.37,9.37,0,0,0,3.44-5.05c.37-1.44.32-2.28.39-2.28a6.92,6.92,0,0,1-.2,2.32,9.31,9.31,0,0,1-3.4,5.31,9.59,9.59,0,0,1-4,1.83,9.72,9.72,0,0,1-5.06-.39,9.07,9.07,0,0,1-2.45-1.31,8.86,8.86,0,0,1-2.05-2.05,9.57,9.57,0,0,1,0-11.42,9,9,0,0,1,2.05-2,8.8,8.8,0,0,1,2.45-1.31,9.62,9.62,0,0,1,5.06-.39,9.47,9.47,0,0,1,4,1.83,9.29,9.29,0,0,1,3.4,5.3A6.92,6.92,0,0,1,726.08,154.89Z" style="fill:#263238"></path><path d="M720,151.09v.8l-3.34,7.46h-1.25l3.27-7.24h-3.78v1.48h-1.13v-2.5Z" style="fill:#263238"></path></g><g id="freepik--Whisk--inject-143"><path d="M623.93,160.43l-.6-1.9a17.87,17.87,0,0,0,5.7-2.84,5.15,5.15,0,0,0,1.93-3.62l.71-11.63a1.78,1.78,0,0,0-1.78-1.89h-4.62v-2h4.62a3.78,3.78,0,0,1,3.78,4L633,152.22a7.19,7.19,0,0,1-2.7,5A19.75,19.75,0,0,1,623.93,160.43Z" style="fill:#263238"></path><rect x="607.08" y="169.6" width="16.88" height="4.99" style="fill:#263238"></rect><rect x="608.8" y="164.81" width="13.54" height="5.81" style="fill:#263238"></rect><path d="M604.46,173.4,601.52,200a1.63,1.63,0,0,0,1.62,1.81h25.93a1.63,1.63,0,0,0,1.62-1.85l-3.55-26.63a1.65,1.65,0,0,0-1.63-1.42H606.09A1.64,1.64,0,0,0,604.46,173.4Z" style="fill:#44DF56"></path><path d="M621.19,189.16a5.07,5.07,0,1,1-5.06-5.07A5.07,5.07,0,0,1,621.19,189.16Z" style="fill:#e0e0e0"></path><path d="M621.19,189.16c-.05,0,0-.45-.26-1.21a5,5,0,0,0-1.85-2.67,4.84,4.84,0,1,0-4.59,8.41,4.91,4.91,0,0,0,4.59-.65,5.12,5.12,0,0,0,1.86-2.67c.21-.76.2-1.21.25-1.21s0,.11,0,.32a3.64,3.64,0,0,1-.1.94,5.07,5.07,0,0,1-1.83,2.91,5.23,5.23,0,0,1-5,.81,5.28,5.28,0,0,1,0-10,5.2,5.2,0,0,1,5,.81,5,5,0,0,1,1.83,2.91,3.61,3.61,0,0,1,.1.93C621.22,189.05,621.21,189.16,621.19,189.16Z" style="fill:#263238"></path><rect x="607.08" y="163.58" width="16.88" height="2.22" style="fill:#263238"></rect><path d="M601.53,133.3s-.37,3.51,1.29,5.82,1.29,1.94,1.66,7.29,1.39,16,3.14,17.17h16.72a4,4,0,0,0,.73-2.49c.09-1.85,2.77-26.68,2.21-27.33S601.53,133.3,601.53,133.3Z" style="fill:#e0e0e0"></path><path d="M601.53,133.3a1.62,1.62,0,0,1,.27,0l.78,0,3-.06c2.63,0,6.44-.07,11.14-.05,2.35,0,4.93,0,7.69.12.7,0,1.4.06,2.12.13.19,0,.36,0,.56.09s.31.06.37.22a1.12,1.12,0,0,1,.08.36c0,.39,0,.75,0,1.12,0,1.49-.16,3-.27,4.55-.49,6.2-1.18,13-1.87,20.14-.17,1.27,0,2.67-.91,3.9l0,.08h-.13l-16.72,0h-.1l0,0-.35-.37a3.18,3.18,0,0,1-.23-.4,5.27,5.27,0,0,1-.36-.81,16.73,16.73,0,0,1-.48-1.63c-.26-1.09-.46-2.16-.62-3.21-.33-2.1-.56-4.11-.74-6s-.32-3.68-.42-5.34-.09-3.2-.32-4.52-1.32-2.18-1.76-3.2a8.66,8.66,0,0,1-.7-2.68,11.81,11.81,0,0,1,0-1.72,2,2,0,0,1,.07-.59s0,.2,0,.59a12.59,12.59,0,0,0,.12,1.7,8.56,8.56,0,0,0,.75,2.6,10.54,10.54,0,0,0,.93,1.44,4.79,4.79,0,0,1,.9,1.79c.27,1.4.24,2.92.39,4.57s.27,3.43.47,5.32.43,3.89.77,6c.17,1.05.37,2.11.64,3.17A14.51,14.51,0,0,0,607,162a3.32,3.32,0,0,0,.78,1.34l-.14,0,16.72,0-.19.08a3.54,3.54,0,0,0,.59-1.65c.08-.61.1-1.29.17-1.94.69-7.14,1.4-13.94,1.91-20.13.12-1.55.24-3.06.3-4.52,0-.36,0-.73,0-1.07a.88.88,0,0,1,0-.17h0l.08-.07s.06-.06,0,0l-.09.08v0s-.05,0-.08,0a3.89,3.89,0,0,0-.51-.08c-.69-.08-1.4-.11-2.08-.14-2.76-.12-5.34-.16-7.68-.2l-11.14-.11-3,0-.78,0A.94.94,0,0,1,601.53,133.3Z" style="fill:#263238"></path><rect x="601.3" y="131.88" width="26.85" height="1.98" style="fill:#263238"></rect><path d="M603.27,132.46v-2.14a1,1,0,0,1,1-1H624.9a1,1,0,0,1,1,1v2.14Z" style="fill:#263238"></path><path d="M623.62,165.77a123.67,123.67,0,0,1-16,0,123.67,123.67,0,0,1,16,0Z" style="fill:#455a64"></path><path d="M623.22,169.66a123.67,123.67,0,0,1-16,0,123.67,123.67,0,0,1,16,0Z" style="fill:#455a64"></path><path d="M629.27,143a2.64,2.64,0,1,1-2.64-2.64A2.64,2.64,0,0,1,629.27,143Z" style="fill:#263238"></path><path d="M653.29,129.12c.06.13-5.85,3.35-13.21,7.2s-13.38,6.86-13.45,6.74,5.85-3.35,13.21-7.2S653.22,129,653.29,129.12Z" style="fill:#263238"></path><circle cx="660.89" cy="125.1" r="9.41" transform="translate(378.2 735.43) rotate(-75.87)" style="fill:#fff"></circle><path d="M670.29,125.1a19,19,0,0,0-.39-2.28,9.4,9.4,0,0,0-3.43-5,9.15,9.15,0,0,0-3.89-1.7,9.26,9.26,0,0,0-4.82.42,8.52,8.52,0,0,0-2.31,1.25,8.76,8.76,0,0,0-1.94,2,9.15,9.15,0,0,0,0,10.82,9.43,9.43,0,0,0,4.25,3.2,9.2,9.2,0,0,0,8.71-1.28,9.38,9.38,0,0,0,3.43-5.06,19,19,0,0,0,.39-2.27,7,7,0,0,1-.19,2.32,9.51,9.51,0,0,1-7.44,7.13,9.62,9.62,0,0,1-5.06-.39,8.8,8.8,0,0,1-2.45-1.31,9,9,0,0,1-2-2,9.63,9.63,0,0,1,0-11.43,9,9,0,0,1,2-2,8.77,8.77,0,0,1,2.45-1.3,9.51,9.51,0,0,1,9.09,1.43,9.39,9.39,0,0,1,3.41,5.31A7,7,0,0,1,670.29,125.1Z" style="fill:#263238"></path><path d="M662.71,124.65a2.47,2.47,0,0,1,1,.88,2.42,2.42,0,0,1,.36,1.32,2.52,2.52,0,0,1-.38,1.37,2.58,2.58,0,0,1-1.05.91,3.37,3.37,0,0,1-1.5.33,3.18,3.18,0,0,1-2.57-1.08,4.59,4.59,0,0,1-.9-3,5.31,5.31,0,0,1,.49-2.36,3.45,3.45,0,0,1,1.37-1.48,4.12,4.12,0,0,1,2.05-.5,4.55,4.55,0,0,1,1.13.13,3,3,0,0,1,.93.36l-.45.92a2.86,2.86,0,0,0-1.59-.39,2.59,2.59,0,0,0-2,.8,3.34,3.34,0,0,0-.73,2.32c0,.12,0,.22,0,.29a2.37,2.37,0,0,1,1-.81,3.62,3.62,0,0,1,2.86,0Zm-.28,3.41a1.45,1.45,0,0,0,.51-1.16,1.44,1.44,0,0,0-.52-1.17,2.1,2.1,0,0,0-1.37-.43,2.25,2.25,0,0,0-1,.21,1.74,1.74,0,0,0-.67.58,1.48,1.48,0,0,0-.24.82,1.38,1.38,0,0,0,.23.79,1.54,1.54,0,0,0,.67.58,2.31,2.31,0,0,0,1.06.22A1.92,1.92,0,0,0,662.43,128.06Z" style="fill:#263238"></path></g><g id="freepik--Dishwasher--inject-143"><path d="M706.73,337.4c0,.15-29.71.26-66.36.26S574,337.55,574,337.4s29.71-.26,66.37-.26S706.73,337.26,706.73,337.4Z" style="fill:#263238"></path><rect x="574" y="313.54" width="132.73" height="134.58" style="fill:#e0e0e0"></rect><path d="M706.73,336.56c0,.15-29.75.29-66.45.31s-66.45-.06-66.45-.21,29.74-.28,66.45-.31S706.73,336.42,706.73,336.56Z" style="fill:#263238"></path><rect x="625.9" y="321.64" width="23.18" height="8.29" style="fill:#263238"></rect><path d="M671.29,325.79s0-.47-.26-1.27a5.27,5.27,0,0,0-1.94-2.79,5.06,5.06,0,1,0,0,8.11,5.27,5.27,0,0,0,1.94-2.79c.22-.79.21-1.26.26-1.26s0,.11,0,.34a4.49,4.49,0,0,1-.1,1,5.26,5.26,0,0,1-1.91,3,5.45,5.45,0,0,1-5.19.85,5.37,5.37,0,0,1-2.58-1.92,5.47,5.47,0,0,1,0-6.55,5.42,5.42,0,0,1,2.58-1.91,5.47,5.47,0,0,1,5.19.84,5.32,5.32,0,0,1,1.91,3,4.51,4.51,0,0,1,.1,1C671.32,325.67,671.31,325.79,671.29,325.79Z" style="fill:#263238"></path><path d="M617.3,325.79a2.65,2.65,0,1,1-2.65-2.64A2.65,2.65,0,0,1,617.3,325.79Z" style="fill:#455a64"></path><path d="M609.83,325.79a2.64,2.64,0,1,1-2.64-2.64A2.64,2.64,0,0,1,609.83,325.79Z" style="fill:#455a64"></path><path d="M602.37,325.79a2.64,2.64,0,1,1-2.64-2.64A2.64,2.64,0,0,1,602.37,325.79Z" style="fill:#455a64"></path><path d="M686.93,325.79c-.06,0,0-.47-.27-1.27a5.3,5.3,0,0,0-1.93-2.79,5.15,5.15,0,0,0-4.81-.68,5.06,5.06,0,1,0,4.81,8.79,5.3,5.3,0,0,0,1.93-2.79c.22-.79.21-1.26.27-1.26a1.44,1.44,0,0,1,0,.34,3.93,3.93,0,0,1-.1,1,5.26,5.26,0,0,1-1.91,3,5.49,5.49,0,0,1-8.85-4.34,5.53,5.53,0,0,1,1.08-3.28,5.48,5.48,0,0,1,7.77-1.07,5.32,5.32,0,0,1,1.91,3,4,4,0,0,1,.1,1A1.55,1.55,0,0,1,686.93,325.79Z" style="fill:#263238"></path><rect x="626.67" y="435.81" width="22.03" height="4.92" style="fill:#263238"></rect><path d="M574,447.77s0,.21,0,.64,0,1.12,0,2h-.14c-.11-7.71-.19-34.83-.19-67.06,0-19.24.06-36.66.08-49.3,0-6.29.06-11.38.08-14.94,0-1.74,0-3.1.05-4.06,0-.45,0-.8,0-1.06a.18.18,0,1,1,.06,0c0,.26,0,.61,0,1.06,0,1,0,2.32.05,4.06,0,3.56,0,8.65.09,14.94,0,12.64,0,30.06.07,49.3,0,32.23-.08,59.35-.19,67.06h-.14c0-.88,0-1.54,0-2S574,447.77,574,447.77Z" style="fill:#263238"></path></g><g id="freepik--Oven--inject-143"><rect x="436.26" y="313.54" width="137.56" height="134.99" style="fill:#44DF56"></rect><rect x="436.26" y="313.54" width="137.56" height="23.12" style="fill:#e0e0e0"></rect><path d="M486.86,323.82c-.05,0,0-.59-.3-1.6a6.71,6.71,0,0,0-2.44-3.56,6.52,6.52,0,0,0-6.12-.88,6.44,6.44,0,0,0,0,12.08,6.49,6.49,0,0,0,6.12-.88,6.66,6.66,0,0,0,2.44-3.55c.27-1,.25-1.61.3-1.61a1.34,1.34,0,0,1,0,.43,5.63,5.63,0,0,1-.15,1.23,6.57,6.57,0,0,1-2.41,3.79,6.88,6.88,0,0,1-11.08-5.45,6.94,6.94,0,0,1,1.35-4.09,6.86,6.86,0,0,1,9.73-1.36,6.59,6.59,0,0,1,2.41,3.8,5.49,5.49,0,0,1,.15,1.22A1.28,1.28,0,0,1,486.86,323.82Z" style="fill:#263238"></path><path d="M537.2,323.82c-.05,0,0-.59-.3-1.6a6.71,6.71,0,0,0-2.44-3.56,6.52,6.52,0,0,0-6.12-.88,6.44,6.44,0,0,0,0,12.08,6.49,6.49,0,0,0,6.12-.88,6.66,6.66,0,0,0,2.44-3.55c.27-1,.25-1.61.3-1.61a1.21,1.21,0,0,1,0,.43,5,5,0,0,1-.14,1.23,6.62,6.62,0,0,1-2.41,3.79,6.88,6.88,0,0,1-9.73-9.54,6.85,6.85,0,0,1,9.73-1.36,6.64,6.64,0,0,1,2.41,3.8,4.84,4.84,0,0,1,.14,1.22C537.23,323.68,537.22,323.82,537.2,323.82Z" style="fill:#263238"></path><rect x="493.79" y="317.94" width="22.62" height="10.7" style="fill:#263238"></rect><path d="M501,332.7a2,2,0,1,1-2-2A2,2,0,0,1,501,332.7Z" style="fill:#263238"></path><path d="M507.24,332.7a2,2,0,1,1-2-2A2,2,0,0,1,507.24,332.7Z" style="fill:#263238"></path><path d="M513.47,332.7a2,2,0,1,1-2-2A2,2,0,0,1,513.47,332.7Z" style="fill:#263238"></path><rect x="444.98" y="343.74" width="121.17" height="7.33" rx="3.3" style="fill:#e0e0e0"></rect><path d="M562.85,351.07a5.07,5.07,0,0,0,.64-.09,3.29,3.29,0,0,0,1.63-.88,3.42,3.42,0,0,0,1-2.79,3.26,3.26,0,0,0-2.06-3.25,6.93,6.93,0,0,0-2.45-.21l-2.78,0-6.29,0-15.35,0-88.85.07a3,3,0,0,0-3,2.74,8.77,8.77,0,0,0,0,1.54,3,3,0,0,0,1.71,2.25,3.2,3.2,0,0,0,1.44.29H486.1l39.95.06L553,351l7.32,0,1.9,0,.65,0-.65,0-1.9,0-7.32.05-26.93.08-39.95.05-23.59,0H448.44a3.56,3.56,0,0,1-3.66-3,9.35,9.35,0,0,1,0-1.67,3.68,3.68,0,0,1,.58-1.63,3.59,3.59,0,0,1,3-1.58l88.85.08,15.35,0,6.29,0h2.78a6.79,6.79,0,0,1,2.52.24,3.44,3.44,0,0,1,2.15,3.44,3.54,3.54,0,0,1-1,2.86,3.31,3.31,0,0,1-1.69.87A2.13,2.13,0,0,1,562.85,351.07Z" style="fill:#263238"></path><rect x="452.55" y="358.07" width="104.04" height="59.02" style="fill:#263238"></rect><polygon points="504.57 358.07 452.55 408.25 452.55 417.08 478.56 417.08 538.93 358.07 504.57 358.07" style="fill:#455a64"></polygon><path d="M478.57,417.11H452.52v-8.87h0l52-50.19H539l0,0Zm-26-.05h26l60.32-59H504.58l-52,50.17Z" style="fill:#263238"></path><polygon points="491.1 417.08 550.25 357.94 556.59 357.94 556.59 367.83 507.3 417.12 491.1 417.08" style="fill:#455a64"></polygon><path d="M507.31,417.14h0l-16.26,0,0,0,59.15-59.16h6.37v9.93h0Zm-16.15-.08,16.13,0,49.27-49.27V358h-6.3Z" style="fill:#263238"></path></g><g id="freepik--Microwave--inject-143"><rect x="590.6" y="248.56" width="97.22" height="60.53" rx="2.59" style="fill:#44DF56"></rect><path d="M685.23,309.12h-92a2.62,2.62,0,0,1-2.62-2.62V251.15a2.62,2.62,0,0,1,2.62-2.62h92a2.63,2.63,0,0,1,2.62,2.62V306.5A2.63,2.63,0,0,1,685.23,309.12Zm-92-60.54a2.58,2.58,0,0,0-2.57,2.57V306.5a2.57,2.57,0,0,0,2.57,2.57h92a2.57,2.57,0,0,0,2.56-2.57V251.15a2.57,2.57,0,0,0-2.56-2.57Z" style="fill:#263238"></path><g style="opacity:0.30000000000000004"><path d="M662.4,254.51h14.46a3.32,3.32,0,0,1,3.32,3.32V300a3.32,3.32,0,0,1-3.32,3.32H662.4a0,0,0,0,1,0,0V254.51A0,0,0,0,1,662.4,254.51Z"></path></g><rect x="664.22" y="258.26" width="14.14" height="6.7" style="fill:#263238"></rect><rect x="664.05" y="268.76" width="6.63" height="3.56" rx="1.6" style="fill:#263238"></rect><rect x="671.55" y="268.76" width="6.63" height="3.56" rx="1.6" style="fill:#263238"></rect><rect x="664.05" y="273.49" width="6.63" height="3.56" rx="1.6" style="fill:#263238"></rect><rect x="671.55" y="273.49" width="6.63" height="3.56" rx="1.6" style="fill:#263238"></rect><rect x="664.05" y="278.22" width="6.63" height="3.56" rx="1.6" style="fill:#263238"></rect><rect x="671.55" y="278.22" width="6.63" height="3.56" rx="1.6" style="fill:#263238"></rect><path d="M676.6,292.73a5.31,5.31,0,1,1-5.31-5.3A5.31,5.31,0,0,1,676.6,292.73Z" style="fill:#e0e0e0"></path><path d="M676.6,292.73c-.05,0,0-.47-.26-1.27a5.41,5.41,0,0,0-2-2.8,5.08,5.08,0,1,0,0,8.15,5.33,5.33,0,0,0,2-2.81c.22-.79.21-1.27.26-1.27s0,.12,0,.35a4,4,0,0,1-.11,1,5.32,5.32,0,0,1-1.91,3.05,5.51,5.51,0,0,1-7.81-1.08,5.52,5.52,0,0,1,7.81-7.65,5.33,5.33,0,0,1,1.91,3,4.11,4.11,0,0,1,.11,1C676.63,292.62,676.62,292.73,676.6,292.73Z" style="fill:#263238"></path><rect x="596.05" y="254.22" width="62.91" height="49.35" rx="2.85" style="fill:#263238"></rect><rect x="601.24" y="258.69" width="56.13" height="38.38" style="fill:#455a64"></rect><path d="M657.4,297.1H601.22V258.67H657.4Zm-56.13-.05h56.08V258.72H601.27Z" style="fill:#263238"></path><g style="opacity:0.30000000000000004"><polygon points="626.13 258.69 601.24 283.93 601.24 297.07 609.87 297.07 646.55 258.69 626.13 258.69"></polygon></g><g style="opacity:0.30000000000000004"><path d="M654.68,258.69c-.19,0-37.53,38.38-37.53,38.38H627.5l29.87-30.25v-8.13Z"></path></g><rect x="656.36" y="251.48" width="6.2" height="54.83" rx="2.79" style="fill:#e0e0e0"></rect><path d="M659.78,306.31a4,4,0,0,0,1.13-.3,2.77,2.77,0,0,0,1.56-2.72c0-3-.05-7.28-.09-12.56s0-11.63,0-18.64c0-3.51,0-7.19,0-11v-5.82a11,11,0,0,0,0-1.43,2.49,2.49,0,0,0-.58-1.21,2.4,2.4,0,0,0-1.12-.75,4,4,0,0,0-1.41-.13,2.54,2.54,0,0,0-2.24,1.34,2.66,2.66,0,0,0-.3,1.31v7.31c0,3.82,0,7.5,0,11,0,7,0,13.32-.05,18.64s-.08,9.61,0,12.55a2.66,2.66,0,0,0,.86,1.65,2.82,2.82,0,0,0,1.24.65c.75.12,1.18.07,1.18.11l-.31,0a4.23,4.23,0,0,1-.89,0,2.85,2.85,0,0,1-2.29-2.37c-.09-3-.07-7.27-.11-12.58s0-11.63-.06-18.64c0-3.51,0-7.19,0-11,0-1.91,0-3.85,0-5.82v-1.49a3.31,3.31,0,0,1,.36-1.56,3.08,3.08,0,0,1,2.7-1.61,4.58,4.58,0,0,1,1.58.15,3.12,3.12,0,0,1,1.35.91,3,3,0,0,1,.69,1.46,13.22,13.22,0,0,1,.05,1.52c0,2,0,3.91,0,5.82,0,3.82,0,7.5,0,11,0,7,0,13.32-.06,18.64s-.06,9.56-.08,12.56a3,3,0,0,1-.57,1.91,2.78,2.78,0,0,1-1.15.9A2.09,2.09,0,0,1,659.78,306.31Z" style="fill:#263238"></path><path d="M589.59,254.42a2.64,2.64,0,1,1-1.75,3.29A2.64,2.64,0,0,1,589.59,254.42Z" style="fill:#263238"></path><path d="M569.33,235.48c.1-.1,4.9,4.62,10.73,10.54s10.46,10.8,10.36,10.91-4.91-4.62-10.73-10.54S569.22,235.58,569.33,235.48Z" style="fill:#263238"></path><circle cx="569.33" cy="235.48" r="9.41" transform="translate(208.86 735.13) rotate(-76.66)" style="fill:#fff"></circle><path d="M578.74,235.48c-.07,0,0-.84-.4-2.27a9.38,9.38,0,0,0-3.43-5.06,9.15,9.15,0,0,0-3.89-1.7,9.26,9.26,0,0,0-4.82.42,9.15,9.15,0,0,0-4.24,3.2,9.13,9.13,0,0,0,0,10.82,8.76,8.76,0,0,0,1.94,2,8.52,8.52,0,0,0,2.31,1.25,9.26,9.26,0,0,0,4.82.42,9.15,9.15,0,0,0,3.89-1.7,9.38,9.38,0,0,0,3.43-5.06c.38-1.43.33-2.27.4-2.27a7.28,7.28,0,0,1-.2,2.32,9.46,9.46,0,0,1-7.44,7.13,9.53,9.53,0,0,1-5.06-.39,9,9,0,0,1-2.45-1.3,9.27,9.27,0,0,1-2.05-2.05,9.61,9.61,0,0,1,0-11.42,9.27,9.27,0,0,1,2.05-2.05,9,9,0,0,1,2.45-1.3,9.53,9.53,0,0,1,5.06-.39,9.51,9.51,0,0,1,7.44,7.13A7.28,7.28,0,0,1,578.74,235.48Z" style="fill:#263238"></path><path d="M571.69,235.44a2.21,2.21,0,0,1,.84,1.83,2.54,2.54,0,0,1-.35,1.31,2.32,2.32,0,0,1-1,.92,3.92,3.92,0,0,1-1.73.34,5.29,5.29,0,0,1-1.69-.27,3.79,3.79,0,0,1-1.35-.73l.55-.94a3,3,0,0,0,1.08.65,4.08,4.08,0,0,0,1.4.24,2.26,2.26,0,0,0,1.44-.4,1.29,1.29,0,0,0,.52-1.08,1.26,1.26,0,0,0-.57-1.12,3.57,3.57,0,0,0-1.94-.39H567l.44-4.32h4.67v1h-3.68l-.22,2.26h.92A4.15,4.15,0,0,1,571.69,235.44Z" style="fill:#263238"></path></g><g id="freepik--ceramic-cooktop--inject-143"><rect x="526.35" y="303.42" width="7.92" height="2.6" style="fill:#263238"></rect><rect x="536.83" y="303.42" width="7.92" height="2.6" style="fill:#263238"></rect><rect x="547.31" y="303.42" width="7.92" height="2.6" style="fill:#263238"></rect><rect x="557.78" y="303.42" width="7.92" height="2.6" style="fill:#263238"></rect><rect x="437.97" y="306.02" width="134.48" height="3.37" style="fill:#e0e0e0"></rect><path d="M451.12,286.62s4.54-6.81,18.12-6.81,18.51,6.81,18.51,6.81Z" style="fill:#e0e0e0"></path><path d="M451.12,286.62l.78,0,2.16,0,7.85-.07c6.62-.06,15.7-.13,25.84-.13l-.21.41a8.73,8.73,0,0,0-1.24-1.28,20,20,0,0,0-6.6-3.77,28.23,28.23,0,0,0-7-1.49,35.1,35.1,0,0,0-12.06.84,26.8,26.8,0,0,0-4.36,1.64,20.76,20.76,0,0,0-3,1.85,18.5,18.5,0,0,0-1.66,1.48c-.35.38-.51.57-.53.58a2.78,2.78,0,0,1,.45-.65,13.82,13.82,0,0,1,1.62-1.57,19.5,19.5,0,0,1,3-1.95,24.65,24.65,0,0,1,4.39-1.73,34.7,34.7,0,0,1,12.2-1,28.94,28.94,0,0,1,7.11,1.49,20.57,20.57,0,0,1,6.78,3.86,9.86,9.86,0,0,1,1.31,1.36l.32.42h-.53c-10.27,0-19.5-.08-26.1-.14l-7.76-.07-2.08,0Z" style="fill:#263238"></path><polygon points="454.24 305.58 451.58 287.24 487.29 287.24 484.36 305.58 454.24 305.58" style="fill:#455a64"></polygon><rect x="449.99" y="286" width="38.89" height="1.24" rx="0.48" style="fill:#263238"></rect><rect x="464.2" y="278.85" width="10.46" height="1.41" style="fill:#263238"></rect><polygon points="466.68 279.51 465.87 275.78 473 275.78 472.2 279.24 466.68 279.51" style="fill:#263238"></polygon><path d="M513.48,304a2.63,2.63,0,1,1-3.67-.64A2.63,2.63,0,0,1,513.48,304Z" style="fill:#263238"></path><path d="M525.11,278.85c.12.06-2.85,6.11-6.64,13.5s-7,13.32-7.1,13.26,2.84-6.11,6.63-13.5S525,278.78,525.11,278.85Z" style="fill:#263238"></path><circle cx="526.35" cy="272.27" r="9.41" transform="translate(140.86 722.35) rotate(-76.77)" style="fill:#fff"></circle><path d="M535.76,272.27c-.07,0,0-.84-.39-2.27a9.35,9.35,0,0,0-3.44-5.06,9.17,9.17,0,0,0-8.7-1.28,9.11,9.11,0,0,0-4.25,3.2,9.11,9.11,0,0,0,0,10.82,9.11,9.11,0,0,0,4.25,3.2,9.17,9.17,0,0,0,8.7-1.28,9.35,9.35,0,0,0,3.44-5.06c.37-1.43.32-2.27.39-2.27a7.28,7.28,0,0,1-.2,2.32,9.37,9.37,0,0,1-3.41,5.31,9.56,9.56,0,0,1-9.09,1.43,9.61,9.61,0,0,1-4.49-3.35,9.57,9.57,0,0,1,0-11.42,9.27,9.27,0,0,1,2-2.05,9.13,9.13,0,0,1,2.44-1.3,9.56,9.56,0,0,1,5.07-.39,9.51,9.51,0,0,1,7.43,7.13A7.28,7.28,0,0,1,535.76,272.27Z" style="fill:#263238"></path><path d="M529,272.49a2.19,2.19,0,0,1,.64,1.61,2.33,2.33,0,0,1-1.42,2.19,3.83,3.83,0,0,1-1.71.34,5.65,5.65,0,0,1-1.7-.26,3.74,3.74,0,0,1-1.34-.74l.55-.94a3,3,0,0,0,1.08.65,4.09,4.09,0,0,0,1.41.24,2.32,2.32,0,0,0,1.43-.39,1.28,1.28,0,0,0,.51-1.07,1.26,1.26,0,0,0-.5-1.07,2.59,2.59,0,0,0-1.54-.37h-.66v-.83l2.08-2.55h-4v-1h5.46v.8l-2.17,2.67A3,3,0,0,1,529,272.49Z" style="fill:#263238"></path></g><g id="freepik--coffee-maker--inject-143"><rect x="351.14" y="266.92" width="62.84" height="27.02" style="fill:#44DF56"></rect><path d="M414,294H351.12V266.89H414Zm-62.84-.06H414v-27H351.17Z" style="fill:#263238"></path><g style="opacity:0.2"><rect x="351.14" y="266.92" width="62.84" height="27.02"></rect></g><path d="M415.55,309h-63.4c-2,0-3.63-2.39-3.63-5.35v-6.79a5.08,5.08,0,0,1,5.17-5.34H414c3.53,0,5.2,2.39,5.2,5.34v6.79C419.18,306.64,417.56,309,415.55,309Z" style="fill:#44DF56"></path><path d="M415.55,309a3,3,0,0,0,1.56-.59,5.66,5.66,0,0,0,1.95-4.27c0-2.11,0-4.73,0-7.74a4.88,4.88,0,0,0-2.14-4,5,5,0,0,0-2.43-.72c-.88,0-1.82,0-2.77,0l-26.74.06H354.37a7.18,7.18,0,0,0-2.09.19,4.6,4.6,0,0,0-3,2.58,5.64,5.64,0,0,0-.48,2c0,.68,0,1.41,0,2.11v4.21a7.68,7.68,0,0,0,.71,3.91c1.12,2.84,4.45,1.78,6.95,2h7.73l26.74,0,18,.09,4.91.05,1.27,0a2.3,2.3,0,0,1,.43,0,2.3,2.3,0,0,1-.43,0l-1.27,0-4.91.05-18,.08-26.74.06H352.45a3.64,3.64,0,0,1-1.07-.11,3.11,3.11,0,0,1-1-.49A4.63,4.63,0,0,1,349,307a8.29,8.29,0,0,1-.77-4.15v-4.21c0-.71,0-1.4,0-2.14a6.12,6.12,0,0,1,.53-2.17,5.09,5.09,0,0,1,3.34-2.86,7.77,7.77,0,0,1,2.23-.21h14.78l15.79,0,26.74.05c1,0,1.87,0,2.8,0a5.35,5.35,0,0,1,2.58.79,5.2,5.2,0,0,1,2.25,4.24c0,3,0,5.62,0,7.77a5.71,5.71,0,0,1-2.1,4.33A2.66,2.66,0,0,1,416,309,2.91,2.91,0,0,1,415.55,309Z" style="fill:#263238"></path><rect x="388.46" y="270.07" width="5.28" height="2.36" style="fill:#e0e0e0"></rect><path d="M391.1,269.46H413a1.61,1.61,0,0,1,1.61,1.61v.36A1.61,1.61,0,0,1,413,273H391.1a0,0,0,0,1,0,0v-3.57A0,0,0,0,1,391.1,269.46Z" style="fill:#263238"></path><path d="M374.38,268.68h15a0,0,0,0,1,0,0v.56a5,5,0,0,1-5,5H379.4a5,5,0,0,1-5-5v-.56A0,0,0,0,1,374.38,268.68Z" style="fill:#e0e0e0"></path><path d="M378.85,276.73v8.57a.49.49,0,0,0,1,0v-8.57a.49.49,0,0,0-1,0Z" style="fill:#8d4032"></path><path d="M383.88,276.73v8.57a.49.49,0,0,0,1,0v-8.57a.49.49,0,0,0-1,0Z" style="fill:#8d4032"></path><rect x="377.44" y="273.64" width="2.69" height="4.56" style="fill:#e0e0e0"></rect><rect x="383.58" y="273.64" width="2.69" height="4.56" style="fill:#e0e0e0"></rect><rect x="368.85" y="264.45" width="27.53" height="4.49" style="fill:#263238"></rect><path d="M415.85,266.92H351.14a4.43,4.43,0,0,1-4.17-4.59V243.08a4.44,4.44,0,0,1,4.59-4.59H414c3.22,0,5.18,2,5.18,4.59v19.25C419.16,264.86,417.68,266.92,415.85,266.92Z" style="fill:#44DF56"></path><path d="M415.85,266.92a3,3,0,0,0,1.75-.77,4.47,4.47,0,0,0,1.2-2,6,6,0,0,0,.26-1.47c0-.54,0-1.12,0-1.73,0-2.46,0-5.46-.05-8.94,0-1.74,0-3.6,0-5.57,0-1,0-2,0-3a4.36,4.36,0,0,0-.86-2.9,4.57,4.57,0,0,0-2.69-1.66,17.84,17.84,0,0,0-3.46-.15h-7.46l-16.45,0H352.85a10.76,10.76,0,0,0-2.43.13,4.09,4.09,0,0,0-3.08,3.19,12,12,0,0,0-.11,2.41v2.45q0,4.89,0,9.62v4.69a9.11,9.11,0,0,0,.15,2.24,4.55,4.55,0,0,0,1,1.89,3.84,3.84,0,0,0,1.76,1.14,3.37,3.37,0,0,0,1,.16h5.51l30.8.05,20.76.09,5.64,0,1.47,0,.5,0-.5,0-1.47,0-5.64,0-20.76.08-30.8.06h-5.51A4.26,4.26,0,0,1,350,267a4.47,4.47,0,0,1-2-1.29,4.92,4.92,0,0,1-1.12-2.1,9.48,9.48,0,0,1-.16-2.36c0-1.55,0-3.11,0-4.69V244.48a13.4,13.4,0,0,1,.12-2.51,4.81,4.81,0,0,1,1.2-2.31,4.57,4.57,0,0,1,2.27-1.28,11.15,11.15,0,0,1,2.55-.15h17l18.19,0,16.45,0,7.46,0h1.77a7,7,0,0,1,1.77.18,4.91,4.91,0,0,1,2.91,1.81,4.78,4.78,0,0,1,.91,3.12c0,1,0,2.06,0,3,0,2,0,3.83,0,5.57,0,3.48,0,6.48,0,8.94,0,.61,0,1.18,0,1.74a6.33,6.33,0,0,1-.28,1.51,4.61,4.61,0,0,1-1.28,2,2.82,2.82,0,0,1-1.32.66A1.58,1.58,0,0,1,415.85,266.92Z" style="fill:#263238"></path><path d="M388.88,253.85a6.51,6.51,0,1,1-6.51-6.51A6.52,6.52,0,0,1,388.88,253.85Z" style="fill:#e0e0e0"></path><path d="M359.56,252.71a1.63,1.63,0,1,1-1.63-1.62A1.63,1.63,0,0,1,359.56,252.71Z" style="fill:#e0e0e0"></path><path d="M359.56,258.73a1.63,1.63,0,1,1-1.63-1.63A1.63,1.63,0,0,1,359.56,258.73Z" style="fill:#e0e0e0"></path><path d="M359.45,246.67a1.63,1.63,0,1,1-1.63-1.62A1.63,1.63,0,0,1,359.45,246.67Z" style="fill:#455a64"></path><path d="M357.82,248.33a1.66,1.66,0,1,1,1.65-1.66A1.65,1.65,0,0,1,357.82,248.33Zm0-3.26a1.61,1.61,0,1,0,1.6,1.6A1.6,1.6,0,0,0,357.82,245.07Z" style="fill:#263238"></path><path d="M383.36,280.43h13.52l-1,7.43s-.88,3.66-2.94,3.66h-5.86a6.25,6.25,0,0,1-2.85-4Z" style="fill:#e0e0e0"></path><path d="M395.84,284.05l.2,0s.13,0,0,0h.06c.14,0,.29,0,.44,0-.15,0,0,0,.05,0l.23.06.19.06h0l.13.05c.13.07.25.15.37.23l0,0,.08.07.17.16,0,.05a1.37,1.37,0,0,1,.13.2,1.62,1.62,0,0,1,.1.18c.05.08,0,0,0,0a.5.5,0,0,0,0,.13l.06.24s0,.22,0,.13,0,.1,0,.13v.24c0,.05,0,.09,0,.14s0,.13,0,0,0,.1,0,.13l-.06.2c0,.05-.09.24,0,.1a3.72,3.72,0,0,1-.21.39l-.06.08s.08-.09,0,0l-.2.2-.1.09-.11.07-.18.1-.09,0h0c-.15.05-.31.08-.46.12s0,0,.05,0h-.51s-.17,0-.06,0,0,0,0,0l-.13,0-.26-.08h0l-.08,0a.83.83,0,0,0-1.12.29.84.84,0,0,0,.29,1.12,3.51,3.51,0,0,0,4.58-1.26,3.58,3.58,0,0,0,.38-2.56,3.37,3.37,0,0,0-1.48-2.07,3.53,3.53,0,0,0-2.78-.42.82.82,0,0,0-.57,1,.83.83,0,0,0,1,.57Z" style="fill:#e0e0e0"></path><path d="M382.37,280.43H368.85l1,7.43s.89,3.66,2.94,3.66h5.86a6.25,6.25,0,0,0,2.85-4Z" style="fill:#e0e0e0"></path><path d="M369.89,284.05l-.2,0s-.13,0,0,0h-.06c-.15,0-.3,0-.44,0,.14,0,0,0-.06,0l-.23.06-.19.06h0l-.13.05c-.13.07-.25.15-.37.23l0,0-.08.07-.17.16,0,.05a1.37,1.37,0,0,0-.13.2c0,.06-.06.12-.1.18s0,0,0,0,0,.09,0,.13a2.17,2.17,0,0,0-.07.24s0,.22,0,.13,0,.1,0,.13a1.93,1.93,0,0,0,0,.24.66.66,0,0,1,0,.14s0,.13,0,0,0,.1,0,.13a1.46,1.46,0,0,0,.05.2c0,.05.09.24,0,.1a2.56,2.56,0,0,0,.22.39.16.16,0,0,0,.06.08s-.09-.09,0,0a1.8,1.8,0,0,0,.19.2s.17.14.1.09l.11.07.18.1.09,0h0c.15.05.31.08.46.12s0,0-.05,0h.51s.17,0,.06,0,0,0,0,0l.13,0,.26-.08h0l.08,0a.82.82,0,1,1,.83,1.41,3.49,3.49,0,0,1-4.57-1.26,3.63,3.63,0,0,1-.39-2.56,3.34,3.34,0,0,1,1.49-2.07,3.5,3.5,0,0,1,2.77-.42.81.81,0,1,1-.43,1.57Z" style="fill:#e0e0e0"></path><rect x="400.62" y="247.68" width="15.01" height="6.82" style="fill:#263238"></rect><path d="M421.45,240a2.64,2.64,0,1,1-2.64-2.63A2.64,2.64,0,0,1,421.45,240Z" style="fill:#263238"></path><path d="M445.47,226.13c.06.13-5.85,3.35-13.21,7.2s-13.38,6.86-13.45,6.74,5.85-3.35,13.21-7.2S445.4,226,445.47,226.13Z" style="fill:#263238"></path><circle cx="453.07" cy="222.1" r="9.41" transform="translate(-24.35 385.42) rotate(-45)" style="fill:#fff"></circle><path d="M462.47,222.1a19.43,19.43,0,0,0-.39-2.27,9.42,9.42,0,0,0-3.43-5.06,9.27,9.27,0,0,0-8.71-1.28,8.84,8.84,0,0,0-2.31,1.26,8.71,8.71,0,0,0-1.94,1.94,9.15,9.15,0,0,0,0,10.82,8.55,8.55,0,0,0,1.94,2,8.84,8.84,0,0,0,2.31,1.26,9.27,9.27,0,0,0,8.71-1.28,9.42,9.42,0,0,0,3.43-5.06,19,19,0,0,0,.39-2.28,7.1,7.1,0,0,1-.19,2.33,9.51,9.51,0,0,1-7.44,7.13,9.73,9.73,0,0,1-5.06-.39,9.75,9.75,0,0,1-4.5-3.35,9.63,9.63,0,0,1,0-11.43,9.75,9.75,0,0,1,4.5-3.35,9.73,9.73,0,0,1,5.06-.39,9.51,9.51,0,0,1,7.44,7.13A7,7,0,0,1,462.47,222.1Z" style="fill:#263238"></path><path d="M456,224.76v1h-5.94V225l3.36-3.25a3.89,3.89,0,0,0,.83-1,2,2,0,0,0,.21-.87,1.22,1.22,0,0,0-.45-1,2.08,2.08,0,0,0-1.31-.36,2.58,2.58,0,0,0-2.11.9l-.81-.7a3.33,3.33,0,0,1,1.27-.92,4.52,4.52,0,0,1,1.76-.33,3.2,3.2,0,0,1,2.06.62,2,2,0,0,1,.77,1.68,2.82,2.82,0,0,1-.28,1.25,4.87,4.87,0,0,1-1.08,1.35l-2.52,2.43Z" style="fill:#263238"></path></g><g id="freepik--extractor-hood--inject-143"><polygon points="532.16 155.35 532.16 37.63 526.62 37.63 489.88 37.63 484.35 37.63 484.35 155.35 441.25 184.44 441.25 193.06 489.88 193.06 526.62 193.06 575.25 193.06 575.25 184.44 532.16 155.35" style="fill:#e0e0e0"></polygon><rect x="440.94" y="184.35" width="134.31" height="8.71" style="fill:#f5f5f5"></rect><path d="M575.25,193.06s0-.19,0-.55,0-.92,0-1.64q0-2.19-.05-6.52l.08.09c-19.12.1-72.07.17-134.3.17h0l.26-.26v8.71l-.26-.26,95.2.11,28.61.08,7.77,0h2l.7,0s-.22,0-.66,0l-2,0-7.72,0-28.55.07-95.39.11h-.26v-9.23H441c62.23,0,115.18.07,134.3.17h.09v.09c0,2.92,0,5.1-.05,6.57l0,1.62C575.26,192.89,575.25,193.06,575.25,193.06Z" style="fill:#263238"></path><path d="M574.79,184.35c0,.14-29.77.26-66.48.26s-66.48-.12-66.48-.26,29.76-.26,66.48-.26S574.79,184.21,574.79,184.35Z" style="fill:#263238"></path><rect x="494.03" y="187.38" width="15.9" height="2.53" style="fill:#263238"></rect><path d="M514.92,188.67a1.3,1.3,0,1,1-1.3-1.29A1.3,1.3,0,0,1,514.92,188.67Z" style="fill:#44DF56"></path><path d="M518.59,188.67a1.3,1.3,0,1,1-1.3-1.29A1.3,1.3,0,0,1,518.59,188.67Z" style="fill:#455a64"></path><path d="M522.19,188.67a1.3,1.3,0,1,1-1.3-1.29A1.3,1.3,0,0,1,522.19,188.67Z" style="fill:#455a64"></path><path d="M532.32,155.15c0,.14-10.75.26-24,.26s-24-.12-24-.26,10.75-.26,24-.26S532.32,155,532.32,155.15Z" style="fill:#263238"></path><path d="M535.66,130.39a2.63,2.63,0,1,1-2.63-2.63A2.64,2.64,0,0,1,535.66,130.39Z" style="fill:#263238"></path><path d="M559.69,116.52c.06.13-5.85,3.35-13.21,7.2s-13.38,6.86-13.45,6.74,5.85-3.35,13.21-7.2S559.62,116.39,559.69,116.52Z" style="fill:#263238"></path><circle cx="567.28" cy="112.5" r="9.41" style="fill:#fff"></circle><path d="M576.69,112.49a19.43,19.43,0,0,0-.39-2.27,9.39,9.39,0,0,0-3.44-5.06,9.24,9.24,0,0,0-8.7-1.28,8.84,8.84,0,0,0-2.31,1.26,8.71,8.71,0,0,0-1.94,1.94,9.15,9.15,0,0,0,0,10.82,8.55,8.55,0,0,0,1.94,1.95,8.68,8.68,0,0,0,2.31,1.26,9.27,9.27,0,0,0,8.71-1.28,9.42,9.42,0,0,0,3.43-5.06,19,19,0,0,0,.39-2.28,7.1,7.1,0,0,1-.19,2.33,9.51,9.51,0,0,1-7.44,7.13,9.73,9.73,0,0,1-5.06-.39,9.75,9.75,0,0,1-4.5-3.35,9.63,9.63,0,0,1,0-11.43,9.75,9.75,0,0,1,4.5-3.35,9.73,9.73,0,0,1,5.06-.39,9.51,9.51,0,0,1,7.44,7.13A7,7,0,0,1,576.69,112.49Z" style="fill:#263238"></path><path d="M570,114.73h-1.57v2h-1.14v-2h-4.6v-.83l4.23-5.4h1.28l-4,5.21h3.17v-1.79h1.11v1.79H570Z" style="fill:#263238"></path></g><g id="freepik--Cupboard--inject-143"><g style="opacity:0.30000000000000004"><path d="M266.15,88.3a10.64,10.64,0,0,1-2.71-2A10.63,10.63,0,0,1,261.08,84a11.22,11.22,0,0,1,2.7,2A11.11,11.11,0,0,1,266.15,88.3Z"></path></g><rect x="261.01" y="40.47" width="169.27" height="178.91" style="fill:#455a64"></rect><path d="M345,219.37c-.14,0-.32-40-.41-89.42s0-89.42.11-89.42.33,40,.41,89.42S345.17,219.37,345,219.37Z" style="fill:#263238"></path><rect x="330.07" y="114.01" width="2.51" height="31.82" rx="1.13" transform="translate(662.64 259.84) rotate(180)" style="fill:#e0e0e0"></rect><rect x="358.02" y="113.47" width="2.51" height="31.82" rx="1.13" transform="translate(718.54 258.76) rotate(180)" style="fill:#e0e0e0"></rect><g style="opacity:0.30000000000000004"><path d="M338.9,212.05s0-.28,0-.82,0-1.34,0-2.37c0-2.1,0-5.19,0-9.18,0-8,0-19.67-.07-34.34,0-29.3-.07-70.6-.12-118.63l.25.25H266.09l.26-.26c0,64.34-.06,122.71-.08,165.34l-.18-.19,53.22.1,14.5,0,3.79,0c.85,0,1.3,0,1.3,0l-1.26,0-3.75,0-14.47,0-53.33.1h-.19v-.18c0-42.63,0-101-.07-165.34v-.26h73.32v.25c0,48.09-.09,89.45-.12,118.8,0,14.64,0,26.28-.07,34.28,0,4,0,7,0,9.12v2.35C338.91,211.79,338.9,212.05,338.9,212.05Z"></path></g><g style="opacity:0.30000000000000004"><path d="M344.72,40.53a18,18,0,0,1-2.7,3.36,18.76,18.76,0,0,1-3.08,3,17.28,17.28,0,0,1,2.7-3.36A18.26,18.26,0,0,1,344.72,40.53Z"></path></g><g style="opacity:0.30000000000000004"><path d="M345.14,219.19a21.57,21.57,0,0,1-3.27-3.45A22.16,22.16,0,0,1,339,212a21.36,21.36,0,0,1,3.28,3.45A21.77,21.77,0,0,1,345.14,219.19Z"></path></g><g style="opacity:0.30000000000000004"><path d="M423.36,212.05s0-.28,0-.82,0-1.34,0-2.37c0-2.1,0-5.19,0-9.18,0-8,0-19.67-.07-34.34,0-29.3-.07-70.6-.12-118.63l.25.25H350.55l.26-.26c0,64.34-.06,122.71-.08,165.34l-.18-.19,53.22.1,14.51,0,3.78,0c.85,0,1.3,0,1.3,0l-1.26,0-3.75,0-14.47,0-53.33.1h-.19v-.18c0-42.63,0-101-.07-165.34v-.26h73.32v.25c-.05,48.09-.09,89.45-.12,118.8,0,14.64-.05,26.28-.07,34.28,0,4,0,7,0,9.12,0,1,0,1.81,0,2.35S423.36,212.05,423.36,212.05Z"></path></g><g style="opacity:0.30000000000000004"><path d="M430.48,41.14a15.68,15.68,0,0,1-3.27,3.21,15.82,15.82,0,0,1-3.81,2.55,27.66,27.66,0,0,1,3.48-3A29.13,29.13,0,0,1,430.48,41.14Z"></path></g><g style="opacity:0.30000000000000004"><path d="M350.61,46.26a28.71,28.71,0,0,1-3.12-2.68,11.68,11.68,0,0,1-2.77-3,29.25,29.25,0,0,1,3.12,2.67A11.63,11.63,0,0,1,350.61,46.26Z"></path></g><g style="opacity:0.30000000000000004"><path d="M350.48,212.24c.14.09-.92,1.84-2.53,3.73a33.89,33.89,0,0,1-2.93,3.4,13.81,13.81,0,0,1,2.53-3.73A38.78,38.78,0,0,1,350.48,212.24Z"></path></g><g style="opacity:0.30000000000000004"><path d="M431.37,218.88c-.12.1-1.67-1.69-3.84-3.6s-4.16-3.19-4.08-3.32a14.2,14.2,0,0,1,4.42,2.92A15.3,15.3,0,0,1,431.37,218.88Z"></path></g></g><g id="freepik--Fridge--inject-143"><rect x="35.75" y="40.47" width="217.85" height="423.07" style="fill:#263238"></rect><rect x="27.92" y="61.48" width="232.11" height="388.32" style="fill:#e0e0e0"></rect><path d="M260,449.8c0-2.19-.1-160.54-.24-388.32l.24.24L28,61.74h0l.26-.26c0,147.83,0,283.57-.06,388.32l-.2-.21L260,449.8,27.92,450h-.2v-.2c0-104.75,0-240.49-.06-388.32v-.26H28l232.08,0h.24v.24C260.13,289.26,260,447.61,260,449.8Z" style="fill:#263238"></path><rect x="40.99" y="188.58" width="43.69" height="58.45" style="fill:#263238"></rect><rect x="40.99" y="251.54" width="43.69" height="64.29" style="fill:#263238"></rect><rect x="49.31" y="251.54" width="25.96" height="9.54" style="fill:#455a64"></rect><rect x="95.09" y="167.29" width="6.61" height="171.07" rx="2.97" style="fill:#fff"></rect><path d="M98.72,338.36a4.46,4.46,0,0,0,.89-.16,3,3,0,0,0,1.83-1.75,4.8,4.8,0,0,0,.19-1.91c0-.72,0-1.51,0-2.36,0-1.71,0-3.67,0-5.89,0-8.87,0-21.69-.09-37.53s0-34.72-.05-55.66c0-10.48,0-21.47,0-32.87V171.71a10.87,10.87,0,0,0-.1-2.17,2.72,2.72,0,0,0-1.22-1.6,3.4,3.4,0,0,0-2.05-.39,2.71,2.71,0,0,0-2.71,2.57c0,1.49,0,3,0,4.47v8.9q0,8.83,0,17.39c0,11.4,0,22.4,0,32.88,0,21,0,39.82-.06,55.67s-.06,28.65-.08,37.52c0,2.22,0,4.19,0,5.89s-.26,3.22.48,4.19a3,3,0,0,0,2.17,1.29l.68,0h.22a7.61,7.61,0,0,1-.9,0,3,3,0,0,1-2.26-1.29A3.07,3.07,0,0,1,95,335.2c0-.72,0-1.5,0-2.36,0-1.7,0-3.67,0-5.89,0-8.87,0-21.69-.09-37.52s0-34.72-.05-55.67c0-10.48,0-21.48,0-32.88V174.59c0-1.49,0-3,0-4.5a3.2,3.2,0,0,1,1-2.18,3.23,3.23,0,0,1,2.23-.88,6.7,6.7,0,0,1,1.17,0,3.31,3.31,0,0,1,1.15.42,3.28,3.28,0,0,1,1.45,1.91,4,4,0,0,1,.12,1.18v12.26q0,8.83,0,17.39c0,11.4,0,22.39,0,32.87,0,20.94,0,39.81-.06,55.66s-.06,28.66-.08,37.53c0,2.22,0,4.18,0,5.89,0,.85,0,1.64,0,2.36a4.86,4.86,0,0,1-.22,1.95,3,3,0,0,1-1.92,1.76A2.37,2.37,0,0,1,98.72,338.36Z" style="fill:#263238"></path><rect x="114.03" y="57.65" width="4.07" height="395.81" style="fill:#263238"></rect><path d="M118.61,454h-5.08V57.15h5.08Zm-4.08-1h3.08V58.15h-3.08Z" style="fill:#263238"></path><rect x="50" y="194.96" width="24.71" height="30.42" style="fill:#455a64"></rect><rect x="50.74" y="229.93" width="6.37" height="5.16" style="fill:#455a64"></rect><rect x="59.33" y="229.93" width="6.37" height="5.16" style="fill:#455a64"></rect><rect x="67.92" y="229.93" width="6.37" height="5.16" style="fill:#455a64"></rect><rect x="50.74" y="237.43" width="6.37" height="5.16" style="fill:#455a64"></rect><rect x="59.33" y="237.43" width="6.37" height="5.16" style="fill:#455a64"></rect><rect x="67.92" y="237.43" width="6.37" height="5.16" style="fill:#44DF56"></rect><rect x="46.58" y="307.03" width="31.3" height="9.6" style="fill:#e0e0e0"></rect><path d="M253.71,255a2.63,2.63,0,1,1-1.18-3.53A2.63,2.63,0,0,1,253.71,255Z" style="fill:#263238"></path><path d="M281.4,253.28c0,.14-6.73.4-15,.57s-15,.2-15,.05,6.72-.4,15-.57S281.4,253.13,281.4,253.28Z" style="fill:#263238"></path><circle cx="281.4" cy="253.28" r="9.41" transform="translate(-96.67 273.16) rotate(-45)" style="fill:#fff"></circle><path d="M290.81,253.28c-.07,0,0-.84-.4-2.28A9.34,9.34,0,0,0,287,246a9.17,9.17,0,0,0-8.7-1.28,9.11,9.11,0,0,0-4.25,3.2,9.11,9.11,0,0,0,0,10.82,8.51,8.51,0,0,0,1.93,1.95,8.7,8.7,0,0,0,2.32,1.25,9.28,9.28,0,0,0,12.13-6.34c.38-1.43.33-2.28.4-2.27a7.28,7.28,0,0,1-.2,2.32,9.51,9.51,0,0,1-7.43,7.13,9.56,9.56,0,0,1-5.07-.39,8.94,8.94,0,0,1-2.45-1.31,8.78,8.78,0,0,1-2-2,9.57,9.57,0,0,1,0-11.42,8.63,8.63,0,0,1,2-2,8.91,8.91,0,0,1,2.45-1.3,9.51,9.51,0,0,1,9.09,1.43,9.39,9.39,0,0,1,3.41,5.31A7.28,7.28,0,0,1,290.81,253.28Z" style="fill:#263238"></path><path d="M282.38,249.28v8.26h-1.17V250.3h-1.87v-1Z" style="fill:#263238"></path><g style="opacity:0.30000000000000004"><path d="M176.21,189.68l-1.47,9.22-2.61-.42.58-3.59-3.56-.57-.57,3.6L166,197.5l1.47-9.22,2.61.42-.55,3.46,3.55.57.55-3.46Z"></path><path d="M185.61,197.55l-5.21.64a1.45,1.45,0,0,0,.72.78,2.13,2.13,0,0,0,1.18.16,2.61,2.61,0,0,0,.88-.26,2.74,2.74,0,0,0,.7-.57l1.49,1.21a3.91,3.91,0,0,1-2.91,1.54,4.83,4.83,0,0,1-2.27-.2,3.53,3.53,0,0,1-2.4-3,3.59,3.59,0,0,1,1.52-3.45,4.19,4.19,0,0,1,2-.73,4.3,4.3,0,0,1,2,.2,3.35,3.35,0,0,1,1.54,1.11,3.84,3.84,0,0,1,.76,1.93S185.59,197.15,185.61,197.55Zm-5-1.64a1.53,1.53,0,0,0-.38,1l2.93-.37a1.47,1.47,0,0,0-.61-.84,1.42,1.42,0,0,0-1-.21A1.47,1.47,0,0,0,180.58,195.91Z"></path><path d="M203.56,202a3.7,3.7,0,0,1-1.46-5.19,3.5,3.5,0,0,1,1.45-1.32,4.51,4.51,0,0,1,2.1-.48,4.58,4.58,0,0,1,2.11.48,3.5,3.5,0,0,1,1.45,1.32,3.54,3.54,0,0,1,.52,1.92,3.56,3.56,0,0,1-2,3.27,4.58,4.58,0,0,1-2.11.48A4.5,4.5,0,0,1,203.56,202Zm3.18-2a1.79,1.79,0,0,0,.43-1.28,1.73,1.73,0,0,0-.43-1.25,1.55,1.55,0,0,0-2.18,0,1.73,1.73,0,0,0-.43,1.25,1.79,1.79,0,0,0,.43,1.28,1.52,1.52,0,0,0,2.18,0Z"></path><path d="M186.31,187.29l2.49-.48,1.88,9.71-2.49.48Z"></path><path d="M194.51,188.8h2.54v9.89h-2.54Z"></path></g><path d="M176.21,188.6l-1.47,9.22-2.61-.42.58-3.59-3.56-.57-.57,3.6-2.61-.42,1.47-9.21,2.61.41-.55,3.46,3.55.57.55-3.46Z" style="fill:#44DF56"></path><path d="M185.61,196.47l-5.21.65a1.47,1.47,0,0,0,.72.77,2.13,2.13,0,0,0,1.18.16,2.61,2.61,0,0,0,.88-.26,2.74,2.74,0,0,0,.7-.57l1.49,1.21a4,4,0,0,1-2.91,1.55,5,5,0,0,1-2.27-.21,3.49,3.49,0,0,1-1.64-1.14,3.66,3.66,0,0,1,.76-5.3,4.56,4.56,0,0,1,4-.53,3.42,3.42,0,0,1,1.54,1.11,3.84,3.84,0,0,1,.76,1.93S185.59,196.07,185.61,196.47Zm-5-1.63a1.48,1.48,0,0,0-.38,1l2.93-.37a1.44,1.44,0,0,0-1.62-1A1.38,1.38,0,0,0,180.58,194.84Z" style="fill:#44DF56"></path><path d="M203.56,200.91a3.57,3.57,0,0,1-2-3.27,3.51,3.51,0,0,1,.53-1.92,3.56,3.56,0,0,1,1.45-1.32,4.51,4.51,0,0,1,2.1-.48,4.58,4.58,0,0,1,2.11.48,3.5,3.5,0,0,1,1.45,1.32,3.54,3.54,0,0,1,.52,1.92,3.64,3.64,0,0,1-.52,1.94,3.59,3.59,0,0,1-1.45,1.33,4.58,4.58,0,0,1-2.11.48A4.5,4.5,0,0,1,203.56,200.91Zm3.18-2a1.79,1.79,0,0,0,.43-1.28,1.73,1.73,0,0,0-.43-1.25,1.43,1.43,0,0,0-1.09-.45,1.42,1.42,0,0,0-1.09.45,1.73,1.73,0,0,0-.43,1.25,1.79,1.79,0,0,0,.43,1.28,1.43,1.43,0,0,0,1.09.46A1.44,1.44,0,0,0,206.74,198.92Z" style="fill:#44DF56"></path><path d="M186.31,186.21l2.49-.48,1.88,9.71-2.49.48Z" style="fill:#44DF56"></path><path d="M194.51,187.72H197v9.89h-2.53Z" style="fill:#44DF56"></path><g style="opacity:0.30000000000000004"><path d="M203.2,160.7l.41,1.83a.59.59,0,0,0,.37.44l1.74.7a.62.62,0,0,1,.08,1.11l-1.61,1a.58.58,0,0,0-.3.49l-.13,1.87a.62.62,0,0,1-1,.42l-1.41-1.24a.63.63,0,0,0-.56-.14l-1.82.46a.62.62,0,0,1-.72-.85L199,165a.61.61,0,0,0-.05-.57l-1-1.59a.62.62,0,0,1,.58-1l1.87.18a.6.6,0,0,0,.53-.22l1.21-1.44A.62.62,0,0,1,203.2,160.7Z"></path></g><g style="opacity:0.30000000000000004"><path d="M208.84,155.11l.87,1.16a.47.47,0,0,0,.4.19l1.45-.06a.47.47,0,0,1,.41.75l-.83,1.18a.51.51,0,0,0-.06.45l.51,1.35a.48.48,0,0,1-.59.62l-1.38-.42a.49.49,0,0,0-.44.08l-1.13.9a.48.48,0,0,1-.78-.36l0-1.45a.47.47,0,0,0-.21-.39l-1.21-.8a.48.48,0,0,1,.11-.85l1.37-.47a.46.46,0,0,0,.3-.32l.39-1.4A.48.48,0,0,1,208.84,155.11Z"></path></g><path d="M203.2,159.74l.41,1.83a.59.59,0,0,0,.37.44l1.74.71a.61.61,0,0,1,.08,1.1l-1.61,1a.58.58,0,0,0-.3.49l-.13,1.87a.62.62,0,0,1-1,.42l-1.41-1.24a.63.63,0,0,0-.56-.14l-1.82.46a.62.62,0,0,1-.72-.85l.75-1.72a.61.61,0,0,0-.05-.57l-1-1.59a.62.62,0,0,1,.58-.95l1.87.18a.6.6,0,0,0,.53-.22l1.21-1.44A.62.62,0,0,1,203.2,159.74Z" style="fill:#44DF56"></path><path d="M208.84,154.15l.87,1.16a.47.47,0,0,0,.4.19l1.45-.06a.47.47,0,0,1,.41.75l-.83,1.19a.49.49,0,0,0-.06.44l.51,1.35a.48.48,0,0,1-.59.63l-1.38-.43a.53.53,0,0,0-.44.08l-1.13.9a.48.48,0,0,1-.78-.36l0-1.45a.47.47,0,0,0-.21-.39l-1.21-.8a.48.48,0,0,1,.11-.85l1.37-.47a.46.46,0,0,0,.3-.32l.39-1.4A.48.48,0,0,1,208.84,154.15Z" style="fill:#455a64"></path><path d="M180.07,230h-3.95l-.73,1.81h-2.7l4.12-9.33h2.6l4.14,9.33H180.8Zm-.78-1.95-1.2-3-1.2,3Z" style="fill:#455a64"></path><path d="M238.72,204.29a2.34,2.34,0,0,1,.46,1.44,2.16,2.16,0,0,1-1,1.89,5.13,5.13,0,0,1-2.85.67h-5V199h4.77a4.69,4.69,0,0,1,2.72.66,2.08,2.08,0,0,1,.93,1.78,2.32,2.32,0,0,1-.32,1.2,2.35,2.35,0,0,1-.93.83A2.67,2.67,0,0,1,238.72,204.29Zm-5.81-3.43v1.8h1.81c.89,0,1.34-.3,1.34-.91s-.45-.89-1.34-.89Zm3.6,4.57c0-.63-.46-.94-1.39-.94h-2.21v1.89h2.21C236.05,206.38,236.51,206.06,236.51,205.43Z" style="fill:#455a64"></path><path d="M144.32,207.85a4.66,4.66,0,0,1-1.83-1.72,5,5,0,0,1,0-5,4.66,4.66,0,0,1,1.83-1.72,5.47,5.47,0,0,1,2.64-.62,5.65,5.65,0,0,1,2.3.45,4.36,4.36,0,0,1,1.71,1.31l-1.68,1.52a2.78,2.78,0,0,0-2.2-1.1,2.6,2.6,0,0,0-1.35.34,2.2,2.2,0,0,0-.92.94,3.09,3.09,0,0,0,0,2.78,2.2,2.2,0,0,0,.92.94,2.6,2.6,0,0,0,1.35.34,2.78,2.78,0,0,0,2.2-1.1l1.68,1.52a4.36,4.36,0,0,1-1.71,1.31,5.65,5.65,0,0,1-2.3.45A5.47,5.47,0,0,1,144.32,207.85Z" style="fill:#455a64"></path></g></svg>
