<svg xmlns="http://www.w3.org/2000/svg" viewBox="0 0 750 500"><g id="freepik--background-complete--inject-4"><path d="M153.81,126.7l-93.94-.14s4.68-6.08,9.83-6.83c0,0,10.06-29.8,26.83-30,15.59-.17,21.81,18.37,21.81,18.37s7.23-8.3,14.13-4.49,10.78,14.7,10.78,14.7S151,122.52,153.81,126.7Z" style="fill:#ebebeb"></path><path d="M571.33,86.61l118.8.19s0-7.6-16.35-9.11c0,0-14.89-33.2-37.71-28.78-14.21,2.76-21.51,22.25-21.51,22.25s-10.71-15.36-19.3-12.41-13.72,19.3-13.72,19.3S572.68,82.32,571.33,86.61Z" style="fill:#ebebeb"></path><path d="M447.52,210.73l118.81.18s0-7.59-16.36-9.1c0,0-14.89-33.2-37.71-28.78-14.21,2.76-21.5,22.25-21.5,22.25s-10.71-15.37-19.31-12.41-13.71,19.29-13.71,19.29S448.87,206.44,447.52,210.73Z" style="fill:#ebebeb"></path><path d="M252.92,171.12l118.8.18s0-7.59-16.35-9.11c0,0-14.89-33.2-37.71-28.77-14.22,2.75-21.51,22.25-21.51,22.25s-10.71-15.37-19.3-12.41-13.72,19.29-13.72,19.29S254.27,166.83,252.92,171.12Z" style="fill:#ebebeb"></path><path d="M158.25,82.52l80.79.13s-7.61-7.11-11-7.12S214.8,51.69,202.16,52.69s-19.37,18.72-19.37,18.72S167.44,66.57,158.25,82.52Z" style="fill:#ebebeb"></path><path d="M590.11,194.31l80.78.12s-7.61-7.11-11-7.11S646.65,163.48,634,164.47s-19.36,18.73-19.36,18.73S599.29,178.36,590.11,194.31Z" style="fill:#ebebeb"></path><path d="M292.38,257.19l80.79.12s-7.61-7.1-11-7.11-13.24-23.84-25.88-22.85-19.37,18.73-19.37,18.73S301.57,241.24,292.38,257.19Z" style="fill:#ebebeb"></path><path d="M362.68,139.55l69.08.1s-3.43-4.47-7.21-5c0,0-7.33-21.94-19.66-22.11-11.47-.16-16.08,13.46-16.08,13.46s-5.3-6.12-10.38-3.33-8,10.78-8,10.78S364.75,136.48,362.68,139.55Z" style="fill:#ebebeb"></path><rect x="505.73" y="106.09" width="58.68" height="307.6" style="fill:#dbdbdb"></rect><rect x="514.84" y="116.08" width="11.41" height="11.74" style="fill:#ebebeb"></rect><rect x="529.43" y="116.08" width="11.41" height="11.74" style="fill:#ebebeb"></rect><rect x="514.84" y="136.02" width="11.41" height="11.74" style="fill:#ebebeb"></rect><rect x="529.43" y="136.02" width="11.41" height="11.74" style="fill:#ebebeb"></rect><rect x="514.84" y="155.96" width="11.41" height="11.75" style="fill:#ebebeb"></rect><rect x="529.43" y="155.96" width="11.41" height="11.75" style="fill:#ebebeb"></rect><rect x="514.84" y="175.9" width="11.41" height="11.75" style="fill:#ebebeb"></rect><rect x="529.43" y="175.9" width="11.41" height="11.75" style="fill:#ebebeb"></rect><rect x="514.84" y="195.84" width="11.41" height="11.74" style="fill:#ebebeb"></rect><rect x="529.43" y="195.84" width="11.41" height="11.74" style="fill:#ebebeb"></rect><rect x="514.84" y="215.78" width="11.41" height="11.74" style="fill:#ebebeb"></rect><rect x="529.43" y="215.78" width="11.41" height="11.74" style="fill:#ebebeb"></rect><rect x="514.84" y="235.72" width="11.41" height="11.74" style="fill:#ebebeb"></rect><rect x="529.43" y="235.72" width="11.41" height="11.74" style="fill:#ebebeb"></rect><rect x="514.84" y="255.66" width="11.41" height="11.74" style="fill:#ebebeb"></rect><rect x="529.43" y="255.66" width="11.41" height="11.74" style="fill:#ebebeb"></rect><rect x="514.84" y="275.6" width="11.41" height="11.75" style="fill:#ebebeb"></rect><rect x="529.43" y="275.6" width="11.41" height="11.75" style="fill:#ebebeb"></rect><rect x="514.84" y="295.54" width="11.41" height="11.75" style="fill:#ebebeb"></rect><rect x="529.43" y="295.54" width="11.41" height="11.75" style="fill:#ebebeb"></rect><rect x="514.84" y="315.48" width="11.41" height="11.75" style="fill:#ebebeb"></rect><rect x="529.43" y="315.48" width="11.41" height="11.75" style="fill:#ebebeb"></rect><rect x="514.84" y="335.42" width="11.41" height="11.75" style="fill:#ebebeb"></rect><rect x="529.43" y="335.42" width="11.41" height="11.75" style="fill:#ebebeb"></rect><rect x="514.84" y="355.36" width="11.41" height="11.75" style="fill:#ebebeb"></rect><rect x="529.43" y="355.36" width="11.41" height="11.75" style="fill:#ebebeb"></rect><rect x="514.84" y="375.3" width="11.41" height="11.75" style="fill:#ebebeb"></rect><rect x="543.89" y="375.3" width="11.41" height="11.75" transform="translate(1099.19 762.35) rotate(180)" style="fill:#ebebeb"></rect><rect x="543.89" y="355.36" width="11.41" height="11.75" transform="translate(1099.19 722.47) rotate(180)" style="fill:#ebebeb"></rect><rect x="543.89" y="335.42" width="11.41" height="11.75" transform="translate(1099.19 682.59) rotate(180)" style="fill:#ebebeb"></rect><rect x="543.89" y="315.48" width="11.41" height="11.75" transform="translate(1099.19 642.71) rotate(180)" style="fill:#ebebeb"></rect><rect x="543.89" y="295.54" width="11.41" height="11.75" transform="translate(1099.19 602.82) rotate(180)" style="fill:#ebebeb"></rect><rect x="543.89" y="275.6" width="11.41" height="11.75" transform="translate(1099.19 562.94) rotate(180)" style="fill:#ebebeb"></rect><rect x="543.89" y="255.66" width="11.41" height="11.74" transform="translate(1099.19 523.06) rotate(180)" style="fill:#ebebeb"></rect><rect x="543.89" y="235.72" width="11.41" height="11.74" transform="translate(1099.19 483.18) rotate(180)" style="fill:#ebebeb"></rect><rect x="543.89" y="215.78" width="11.41" height="11.74" transform="translate(1099.19 443.3) rotate(180)" style="fill:#ebebeb"></rect><rect x="543.89" y="195.84" width="11.41" height="11.74" transform="translate(1099.19 403.42) rotate(180)" style="fill:#ebebeb"></rect><rect x="543.89" y="175.9" width="11.41" height="11.75" transform="translate(1099.19 363.54) rotate(180)" style="fill:#ebebeb"></rect><rect x="543.89" y="155.96" width="11.41" height="11.75" transform="translate(1099.19 323.66) rotate(180)" style="fill:#ebebeb"></rect><rect x="543.89" y="136.02" width="11.41" height="11.74" transform="translate(1099.19 283.78) rotate(180)" style="fill:#ebebeb"></rect><rect x="543.89" y="116.08" width="11.41" height="11.74" transform="translate(1099.19 243.9) rotate(180)" style="fill:#ebebeb"></rect><rect x="529.43" y="375.3" width="11.41" height="11.75" style="fill:#ebebeb"></rect><rect x="564.41" y="106.09" width="46.26" height="307.6" style="fill:#a6a6a6"></rect><rect x="596.48" y="375.3" width="9.42" height="11.75" transform="translate(1202.39 762.35) rotate(180)" style="fill:#c7c7c7"></rect><rect x="584.43" y="375.3" width="9.42" height="11.75" transform="translate(1178.28 762.35) rotate(180)" style="fill:#c7c7c7"></rect><rect x="596.48" y="355.36" width="9.42" height="11.75" transform="translate(1202.39 722.47) rotate(180)" style="fill:#c7c7c7"></rect><rect x="584.43" y="355.36" width="9.42" height="11.75" transform="translate(1178.28 722.47) rotate(180)" style="fill:#c7c7c7"></rect><rect x="596.48" y="335.42" width="9.42" height="11.75" transform="translate(1202.39 682.59) rotate(180)" style="fill:#c7c7c7"></rect><rect x="584.43" y="335.42" width="9.42" height="11.75" transform="translate(1178.28 682.59) rotate(180)" style="fill:#c7c7c7"></rect><rect x="596.48" y="315.48" width="9.42" height="11.75" transform="translate(1202.39 642.71) rotate(180)" style="fill:#c7c7c7"></rect><rect x="584.43" y="315.48" width="9.42" height="11.75" transform="translate(1178.28 642.71) rotate(180)" style="fill:#c7c7c7"></rect><rect x="596.48" y="295.54" width="9.42" height="11.75" transform="translate(1202.39 602.82) rotate(180)" style="fill:#c7c7c7"></rect><rect x="584.43" y="295.54" width="9.42" height="11.75" transform="translate(1178.28 602.82) rotate(180)" style="fill:#c7c7c7"></rect><rect x="596.48" y="275.6" width="9.42" height="11.75" transform="translate(1202.39 562.94) rotate(180)" style="fill:#c7c7c7"></rect><rect x="584.43" y="275.6" width="9.42" height="11.75" transform="translate(1178.28 562.94) rotate(180)" style="fill:#c7c7c7"></rect><rect x="596.48" y="255.66" width="9.42" height="11.74" transform="translate(1202.39 523.06) rotate(180)" style="fill:#c7c7c7"></rect><rect x="584.43" y="255.66" width="9.42" height="11.74" transform="translate(1178.28 523.06) rotate(180)" style="fill:#c7c7c7"></rect><rect x="596.48" y="235.72" width="9.42" height="11.74" transform="translate(1202.39 483.18) rotate(180)" style="fill:#c7c7c7"></rect><rect x="584.43" y="235.72" width="9.42" height="11.74" transform="translate(1178.28 483.18) rotate(180)" style="fill:#c7c7c7"></rect><rect x="596.48" y="215.78" width="9.42" height="11.74" transform="translate(1202.39 443.3) rotate(180)" style="fill:#c7c7c7"></rect><rect x="584.43" y="215.78" width="9.42" height="11.74" transform="translate(1178.28 443.3) rotate(180)" style="fill:#c7c7c7"></rect><rect x="596.48" y="195.84" width="9.42" height="11.74" transform="translate(1202.39 403.42) rotate(180)" style="fill:#c7c7c7"></rect><rect x="584.43" y="195.84" width="9.42" height="11.74" transform="translate(1178.28 403.42) rotate(180)" style="fill:#c7c7c7"></rect><rect x="596.48" y="175.9" width="9.42" height="11.75" transform="translate(1202.39 363.54) rotate(180)" style="fill:#c7c7c7"></rect><rect x="584.43" y="175.9" width="9.42" height="11.75" transform="translate(1178.28 363.54) rotate(180)" style="fill:#c7c7c7"></rect><rect x="596.48" y="155.96" width="9.42" height="11.75" transform="translate(1202.39 323.66) rotate(180)" style="fill:#c7c7c7"></rect><rect x="584.43" y="155.96" width="9.42" height="11.75" transform="translate(1178.28 323.66) rotate(180)" style="fill:#c7c7c7"></rect><rect x="596.48" y="136.02" width="9.42" height="11.74" transform="translate(1202.39 283.78) rotate(180)" style="fill:#c7c7c7"></rect><rect x="584.43" y="136.02" width="9.42" height="11.74" transform="translate(1178.28 283.78) rotate(180)" style="fill:#c7c7c7"></rect><rect x="596.48" y="116.08" width="9.42" height="11.74" transform="translate(1202.39 243.9) rotate(180)" style="fill:#c7c7c7"></rect><rect x="572.49" y="116.08" width="9.42" height="11.74" style="fill:#c7c7c7"></rect><rect x="572.49" y="136.02" width="9.42" height="11.74" style="fill:#c7c7c7"></rect><rect x="572.49" y="155.96" width="9.42" height="11.75" style="fill:#c7c7c7"></rect><rect x="572.49" y="175.9" width="9.42" height="11.75" style="fill:#c7c7c7"></rect><rect x="572.49" y="195.84" width="9.42" height="11.74" style="fill:#c7c7c7"></rect><rect x="572.49" y="215.78" width="9.42" height="11.74" style="fill:#c7c7c7"></rect><rect x="572.49" y="235.72" width="9.42" height="11.74" style="fill:#c7c7c7"></rect><rect x="572.49" y="255.66" width="9.42" height="11.74" style="fill:#c7c7c7"></rect><rect x="572.49" y="275.6" width="9.42" height="11.75" style="fill:#c7c7c7"></rect><rect x="572.49" y="295.54" width="9.42" height="11.75" style="fill:#c7c7c7"></rect><rect x="572.49" y="315.48" width="9.42" height="11.75" style="fill:#c7c7c7"></rect><rect x="572.49" y="335.42" width="9.42" height="11.75" style="fill:#c7c7c7"></rect><rect x="572.49" y="355.36" width="9.42" height="11.75" style="fill:#c7c7c7"></rect><rect x="572.49" y="375.3" width="9.42" height="11.75" style="fill:#c7c7c7"></rect><rect x="584.43" y="116.08" width="9.42" height="11.74" transform="translate(1178.28 243.9) rotate(180)" style="fill:#c7c7c7"></rect><rect x="142.74" y="99.37" width="61.21" height="314.31" style="fill:#ebebeb"></rect><rect x="141.27" y="93.11" width="62.69" height="6.26" style="fill:#c7c7c7"></rect><rect x="148.28" y="108.6" width="6.2" height="305.08" style="fill:#fff"></rect><rect x="159.26" y="108.6" width="6.2" height="305.08" style="fill:#fff"></rect><rect x="170.25" y="108.6" width="6.2" height="305.08" style="fill:#fff"></rect><rect x="181.24" y="108.6" width="6.2" height="305.08" style="fill:#fff"></rect><rect x="192.22" y="108.6" width="6.2" height="305.08" style="fill:#fff"></rect><rect x="148.28" y="116.51" width="6.2" height="12.35" style="fill:#ebebeb"></rect><rect x="159.26" y="116.51" width="6.2" height="12.35" style="fill:#ebebeb"></rect><rect x="170.25" y="116.51" width="6.2" height="12.35" style="fill:#ebebeb"></rect><rect x="181.24" y="116.51" width="6.2" height="12.35" style="fill:#ebebeb"></rect><rect x="192.22" y="116.51" width="6.2" height="12.35" style="fill:#ebebeb"></rect><rect x="148.28" y="136.59" width="6.2" height="12.36" style="fill:#ebebeb"></rect><rect x="159.26" y="136.59" width="6.2" height="12.36" style="fill:#ebebeb"></rect><rect x="170.25" y="136.59" width="6.2" height="12.36" style="fill:#ebebeb"></rect><rect x="181.24" y="136.59" width="6.2" height="12.36" style="fill:#ebebeb"></rect><rect x="192.22" y="136.59" width="6.2" height="12.36" style="fill:#ebebeb"></rect><rect x="148.28" y="156.67" width="6.2" height="12.35" style="fill:#ebebeb"></rect><rect x="159.26" y="156.67" width="6.2" height="12.35" style="fill:#ebebeb"></rect><rect x="170.25" y="156.67" width="6.2" height="12.35" style="fill:#ebebeb"></rect><rect x="181.24" y="156.67" width="6.2" height="12.35" style="fill:#ebebeb"></rect><rect x="192.22" y="156.67" width="6.2" height="12.35" style="fill:#ebebeb"></rect><rect x="148.28" y="176.75" width="6.2" height="12.36" style="fill:#ebebeb"></rect><rect x="159.26" y="176.75" width="6.2" height="12.36" style="fill:#ebebeb"></rect><rect x="170.25" y="176.75" width="6.2" height="12.36" style="fill:#ebebeb"></rect><rect x="181.24" y="176.75" width="6.2" height="12.36" style="fill:#ebebeb"></rect><rect x="192.22" y="176.75" width="6.2" height="12.36" style="fill:#ebebeb"></rect><rect x="148.28" y="196.83" width="6.2" height="12.36" style="fill:#ebebeb"></rect><rect x="159.26" y="196.83" width="6.2" height="12.36" style="fill:#ebebeb"></rect><rect x="170.25" y="196.83" width="6.2" height="12.36" style="fill:#ebebeb"></rect><rect x="181.24" y="196.83" width="6.2" height="12.36" style="fill:#ebebeb"></rect><rect x="192.22" y="196.83" width="6.2" height="12.36" style="fill:#ebebeb"></rect><rect x="148.28" y="216.91" width="6.2" height="12.36" style="fill:#ebebeb"></rect><rect x="159.26" y="216.91" width="6.2" height="12.36" style="fill:#ebebeb"></rect><rect x="170.25" y="216.91" width="6.2" height="12.36" style="fill:#ebebeb"></rect><rect x="181.24" y="216.91" width="6.2" height="12.36" style="fill:#ebebeb"></rect><rect x="192.22" y="216.91" width="6.2" height="12.36" style="fill:#ebebeb"></rect><rect x="148.28" y="236.99" width="6.2" height="12.35" style="fill:#ebebeb"></rect><rect x="159.26" y="236.99" width="6.2" height="12.35" style="fill:#ebebeb"></rect><rect x="170.25" y="236.99" width="6.2" height="12.35" style="fill:#ebebeb"></rect><rect x="181.24" y="236.99" width="6.2" height="12.35" style="fill:#ebebeb"></rect><rect x="192.22" y="236.99" width="6.2" height="12.35" style="fill:#ebebeb"></rect><rect x="148.28" y="257.07" width="6.2" height="12.36" style="fill:#ebebeb"></rect><rect x="159.26" y="257.07" width="6.2" height="12.36" style="fill:#ebebeb"></rect><rect x="170.25" y="257.07" width="6.2" height="12.36" style="fill:#ebebeb"></rect><rect x="181.24" y="257.07" width="6.2" height="12.36" style="fill:#ebebeb"></rect><rect x="192.22" y="257.07" width="6.2" height="12.36" style="fill:#ebebeb"></rect><rect x="148.28" y="277.14" width="6.2" height="12.36" style="fill:#ebebeb"></rect><rect x="159.26" y="277.14" width="6.2" height="12.36" style="fill:#ebebeb"></rect><rect x="170.25" y="277.14" width="6.2" height="12.36" style="fill:#ebebeb"></rect><rect x="181.24" y="277.14" width="6.2" height="12.36" style="fill:#ebebeb"></rect><rect x="192.22" y="277.14" width="6.2" height="12.36" style="fill:#ebebeb"></rect><rect x="148.28" y="297.22" width="6.2" height="12.36" style="fill:#ebebeb"></rect><rect x="159.26" y="297.22" width="6.2" height="12.36" style="fill:#ebebeb"></rect><rect x="170.25" y="297.22" width="6.2" height="12.36" style="fill:#ebebeb"></rect><rect x="181.24" y="297.22" width="6.2" height="12.36" style="fill:#ebebeb"></rect><rect x="192.22" y="297.22" width="6.2" height="12.36" style="fill:#ebebeb"></rect><rect x="148.28" y="317.3" width="6.2" height="12.35" style="fill:#ebebeb"></rect><rect x="159.26" y="317.3" width="6.2" height="12.35" style="fill:#ebebeb"></rect><rect x="170.25" y="317.3" width="6.2" height="12.35" style="fill:#ebebeb"></rect><rect x="181.24" y="317.3" width="6.2" height="12.35" style="fill:#ebebeb"></rect><rect x="192.22" y="317.3" width="6.2" height="12.35" style="fill:#ebebeb"></rect><rect x="148.28" y="337.38" width="6.2" height="12.36" style="fill:#ebebeb"></rect><rect x="159.26" y="337.38" width="6.2" height="12.36" style="fill:#ebebeb"></rect><rect x="170.25" y="337.38" width="6.2" height="12.36" style="fill:#ebebeb"></rect><rect x="181.24" y="337.38" width="6.2" height="12.36" style="fill:#ebebeb"></rect><rect x="192.22" y="337.38" width="6.2" height="12.36" style="fill:#ebebeb"></rect><rect x="148.28" y="357.46" width="6.2" height="12.36" style="fill:#ebebeb"></rect><rect x="159.26" y="357.46" width="6.2" height="12.36" style="fill:#ebebeb"></rect><rect x="170.25" y="357.46" width="6.2" height="12.36" style="fill:#ebebeb"></rect><rect x="181.24" y="357.46" width="6.2" height="12.36" style="fill:#ebebeb"></rect><rect x="192.22" y="357.46" width="6.2" height="12.36" style="fill:#ebebeb"></rect><rect x="148.28" y="377.54" width="6.2" height="36.14" style="fill:#ebebeb"></rect><rect x="159.26" y="377.54" width="6.2" height="36.14" style="fill:#ebebeb"></rect><rect x="170.25" y="377.54" width="6.2" height="36.14" style="fill:#ebebeb"></rect><rect x="181.24" y="377.54" width="6.2" height="36.14" style="fill:#ebebeb"></rect><rect x="192.22" y="377.54" width="6.2" height="36.14" style="fill:#ebebeb"></rect><rect x="203.96" y="99.37" width="39.3" height="314.31" style="fill:#dbdbdb"></rect><rect x="203.96" y="93.11" width="41" height="6.26" style="fill:#c7c7c7"></rect><rect x="209.49" y="108.6" width="6.2" height="305.08" style="fill:#c7c7c7"></rect><rect x="220.48" y="108.6" width="6.2" height="305.08" style="fill:#c7c7c7"></rect><rect x="231.46" y="108.6" width="6.2" height="305.08" style="fill:#c7c7c7"></rect><rect x="209.49" y="116.51" width="6.2" height="12.35" style="fill:#dbdbdb"></rect><rect x="220.48" y="116.51" width="6.2" height="12.35" style="fill:#dbdbdb"></rect><rect x="231.46" y="116.51" width="6.2" height="12.35" style="fill:#dbdbdb"></rect><rect x="209.49" y="136.59" width="6.2" height="12.36" style="fill:#dbdbdb"></rect><rect x="220.48" y="136.59" width="6.2" height="12.36" style="fill:#dbdbdb"></rect><rect x="231.46" y="136.59" width="6.2" height="12.36" style="fill:#dbdbdb"></rect><rect x="209.49" y="156.67" width="6.2" height="12.35" style="fill:#dbdbdb"></rect><rect x="220.48" y="156.67" width="6.2" height="12.35" style="fill:#dbdbdb"></rect><rect x="231.46" y="156.67" width="6.2" height="12.35" style="fill:#dbdbdb"></rect><rect x="209.49" y="176.75" width="6.2" height="12.36" style="fill:#dbdbdb"></rect><rect x="220.48" y="176.75" width="6.2" height="12.36" style="fill:#dbdbdb"></rect><rect x="231.46" y="176.75" width="6.2" height="12.36" style="fill:#dbdbdb"></rect><rect x="209.49" y="196.83" width="6.2" height="12.36" style="fill:#dbdbdb"></rect><rect x="220.48" y="196.83" width="6.2" height="12.36" style="fill:#dbdbdb"></rect><rect x="231.46" y="196.83" width="6.2" height="12.36" style="fill:#dbdbdb"></rect><rect x="209.49" y="216.91" width="6.2" height="12.36" style="fill:#dbdbdb"></rect><rect x="220.48" y="216.91" width="6.2" height="12.36" style="fill:#dbdbdb"></rect><rect x="231.46" y="216.91" width="6.2" height="12.36" style="fill:#dbdbdb"></rect><rect x="209.49" y="236.99" width="6.2" height="12.35" style="fill:#dbdbdb"></rect><rect x="220.48" y="236.99" width="6.2" height="12.35" style="fill:#dbdbdb"></rect><rect x="231.46" y="236.99" width="6.2" height="12.35" style="fill:#dbdbdb"></rect><rect x="209.49" y="257.07" width="6.2" height="12.36" style="fill:#dbdbdb"></rect><rect x="220.48" y="257.07" width="6.2" height="12.36" style="fill:#dbdbdb"></rect><rect x="231.46" y="257.07" width="6.2" height="12.36" style="fill:#dbdbdb"></rect><rect x="209.49" y="277.14" width="6.2" height="12.36" style="fill:#dbdbdb"></rect><rect x="220.48" y="277.14" width="6.2" height="12.36" style="fill:#dbdbdb"></rect><rect x="231.46" y="277.14" width="6.2" height="12.36" style="fill:#dbdbdb"></rect><rect x="209.49" y="297.22" width="6.2" height="12.36" style="fill:#dbdbdb"></rect><rect x="220.48" y="297.22" width="6.2" height="12.36" style="fill:#dbdbdb"></rect><rect x="231.46" y="297.22" width="6.2" height="12.36" style="fill:#dbdbdb"></rect><rect x="209.49" y="317.3" width="6.2" height="12.35" style="fill:#dbdbdb"></rect><rect x="220.48" y="317.3" width="6.2" height="12.35" style="fill:#dbdbdb"></rect><rect x="231.46" y="317.3" width="6.2" height="12.35" style="fill:#dbdbdb"></rect><rect x="209.49" y="337.38" width="6.2" height="12.36" style="fill:#dbdbdb"></rect><rect x="220.48" y="337.38" width="6.2" height="12.36" style="fill:#dbdbdb"></rect><rect x="231.46" y="337.38" width="6.2" height="12.36" style="fill:#dbdbdb"></rect><rect x="209.49" y="357.46" width="6.2" height="12.36" style="fill:#dbdbdb"></rect><rect x="220.48" y="357.46" width="6.2" height="12.36" style="fill:#dbdbdb"></rect><rect x="231.46" y="357.46" width="6.2" height="12.36" style="fill:#dbdbdb"></rect><rect x="209.49" y="377.54" width="6.2" height="36.14" style="fill:#dbdbdb"></rect><rect x="220.48" y="377.54" width="6.2" height="36.14" style="fill:#dbdbdb"></rect><rect x="231.46" y="377.54" width="6.2" height="36.14" style="fill:#dbdbdb"></rect><rect x="342.34" y="227.89" width="73.57" height="185.79" style="fill:#ebebeb"></rect><rect x="340.57" y="221.63" width="75.34" height="6.26" style="fill:#c7c7c7"></rect><rect x="348.99" y="237.12" width="7.45" height="176.56" style="fill:#fff"></rect><rect x="362.19" y="237.12" width="7.46" height="176.56" style="fill:#fff"></rect><rect x="375.4" y="237.12" width="7.45" height="176.56" style="fill:#fff"></rect><rect x="388.6" y="237.12" width="7.46" height="176.56" style="fill:#fff"></rect><rect x="401.8" y="237.12" width="7.45" height="176.56" style="fill:#fff"></rect><rect x="348.99" y="245.02" width="7.45" height="12.35" style="fill:#ebebeb"></rect><rect x="362.19" y="245.02" width="7.45" height="12.35" style="fill:#ebebeb"></rect><rect x="375.4" y="245.02" width="7.45" height="12.35" style="fill:#ebebeb"></rect><rect x="388.6" y="245.02" width="7.45" height="12.35" style="fill:#ebebeb"></rect><rect x="401.8" y="245.02" width="7.45" height="12.35" style="fill:#ebebeb"></rect><rect x="348.99" y="265.1" width="7.45" height="12.36" style="fill:#ebebeb"></rect><rect x="362.19" y="265.1" width="7.45" height="12.36" style="fill:#ebebeb"></rect><rect x="375.4" y="265.1" width="7.45" height="12.36" style="fill:#ebebeb"></rect><rect x="388.6" y="265.1" width="7.45" height="12.36" style="fill:#ebebeb"></rect><rect x="401.8" y="265.1" width="7.45" height="12.36" style="fill:#ebebeb"></rect><rect x="348.99" y="285.18" width="7.45" height="12.36" style="fill:#ebebeb"></rect><rect x="362.19" y="285.18" width="7.45" height="12.36" style="fill:#ebebeb"></rect><rect x="375.4" y="285.18" width="7.45" height="12.36" style="fill:#ebebeb"></rect><rect x="388.6" y="285.18" width="7.45" height="12.36" style="fill:#ebebeb"></rect><rect x="401.8" y="285.18" width="7.45" height="12.36" style="fill:#ebebeb"></rect><rect x="348.99" y="305.26" width="7.45" height="12.36" style="fill:#ebebeb"></rect><rect x="362.19" y="305.26" width="7.45" height="12.36" style="fill:#ebebeb"></rect><rect x="375.4" y="305.26" width="7.45" height="12.36" style="fill:#ebebeb"></rect><rect x="388.6" y="305.26" width="7.45" height="12.36" style="fill:#ebebeb"></rect><rect x="401.8" y="305.26" width="7.45" height="12.36" style="fill:#ebebeb"></rect><rect x="348.99" y="325.34" width="7.45" height="12.36" style="fill:#ebebeb"></rect><rect x="362.19" y="325.34" width="7.45" height="12.36" style="fill:#ebebeb"></rect><rect x="375.4" y="325.34" width="7.45" height="12.36" style="fill:#ebebeb"></rect><rect x="388.6" y="325.34" width="7.45" height="12.36" style="fill:#ebebeb"></rect><rect x="401.8" y="325.34" width="7.45" height="12.36" style="fill:#ebebeb"></rect><rect x="348.99" y="345.42" width="7.45" height="12.36" style="fill:#ebebeb"></rect><rect x="362.19" y="345.42" width="7.45" height="12.36" style="fill:#ebebeb"></rect><rect x="375.4" y="345.42" width="7.45" height="12.36" style="fill:#ebebeb"></rect><rect x="388.6" y="345.42" width="7.45" height="12.36" style="fill:#ebebeb"></rect><rect x="401.8" y="345.42" width="7.45" height="12.36" style="fill:#ebebeb"></rect><rect x="348.99" y="365.5" width="7.45" height="12.35" style="fill:#ebebeb"></rect><rect x="362.19" y="365.5" width="7.45" height="12.35" style="fill:#ebebeb"></rect><rect x="375.4" y="365.5" width="7.45" height="12.35" style="fill:#ebebeb"></rect><rect x="388.6" y="365.5" width="7.45" height="12.35" style="fill:#ebebeb"></rect><rect x="401.8" y="365.5" width="7.45" height="12.35" style="fill:#ebebeb"></rect><rect x="348.99" y="385.58" width="7.45" height="12.36" style="fill:#ebebeb"></rect><rect x="362.19" y="385.58" width="7.45" height="12.36" style="fill:#ebebeb"></rect><rect x="375.4" y="385.58" width="7.45" height="12.36" style="fill:#ebebeb"></rect><rect x="388.6" y="385.58" width="7.45" height="12.36" style="fill:#ebebeb"></rect><rect x="401.8" y="385.58" width="7.45" height="12.36" style="fill:#ebebeb"></rect><rect x="348.99" y="405.66" width="7.45" height="8.02" style="fill:#ebebeb"></rect><rect x="362.19" y="405.66" width="7.46" height="8.02" style="fill:#ebebeb"></rect><rect x="375.4" y="405.66" width="7.45" height="8.02" style="fill:#ebebeb"></rect><rect x="388.6" y="405.66" width="7.46" height="8.02" style="fill:#ebebeb"></rect><rect x="401.8" y="405.66" width="7.45" height="8.02" style="fill:#ebebeb"></rect><rect x="415.91" y="227.89" width="47.23" height="185.79" style="fill:#dbdbdb"></rect><rect x="415.91" y="221.63" width="49.28" height="6.26" style="fill:#c7c7c7"></rect><rect x="422.56" y="237.12" width="7.46" height="176.56" style="fill:#c7c7c7"></rect><rect x="435.76" y="237.12" width="7.45" height="176.56" style="fill:#c7c7c7"></rect><rect x="448.96" y="237.12" width="7.46" height="176.56" style="fill:#c7c7c7"></rect><rect x="422.56" y="245.02" width="7.45" height="12.35" style="fill:#dbdbdb"></rect><rect x="435.76" y="245.02" width="7.45" height="12.35" style="fill:#dbdbdb"></rect><rect x="448.96" y="245.02" width="7.45" height="12.35" style="fill:#dbdbdb"></rect><rect x="422.56" y="265.1" width="7.45" height="12.36" style="fill:#dbdbdb"></rect><rect x="435.76" y="265.1" width="7.45" height="12.36" style="fill:#dbdbdb"></rect><rect x="448.96" y="265.1" width="7.45" height="12.36" style="fill:#dbdbdb"></rect><rect x="422.56" y="285.18" width="7.45" height="12.36" style="fill:#dbdbdb"></rect><rect x="435.76" y="285.18" width="7.45" height="12.36" style="fill:#dbdbdb"></rect><rect x="448.96" y="285.18" width="7.45" height="12.36" style="fill:#dbdbdb"></rect><rect x="422.56" y="305.26" width="7.45" height="12.36" style="fill:#dbdbdb"></rect><rect x="435.76" y="305.26" width="7.45" height="12.36" style="fill:#dbdbdb"></rect><rect x="448.96" y="305.26" width="7.45" height="12.36" style="fill:#dbdbdb"></rect><rect x="422.56" y="325.34" width="7.45" height="12.36" style="fill:#dbdbdb"></rect><rect x="435.76" y="325.34" width="7.45" height="12.36" style="fill:#dbdbdb"></rect><rect x="448.96" y="325.34" width="7.45" height="12.36" style="fill:#dbdbdb"></rect><rect x="422.56" y="345.42" width="7.45" height="12.36" style="fill:#dbdbdb"></rect><rect x="435.76" y="345.42" width="7.45" height="12.36" style="fill:#dbdbdb"></rect><rect x="448.96" y="345.42" width="7.45" height="12.36" style="fill:#dbdbdb"></rect><rect x="422.56" y="365.5" width="7.45" height="12.35" style="fill:#dbdbdb"></rect><rect x="435.76" y="365.5" width="7.45" height="12.35" style="fill:#dbdbdb"></rect><rect x="448.96" y="365.5" width="7.45" height="12.35" style="fill:#dbdbdb"></rect><rect x="422.56" y="385.58" width="7.45" height="12.36" style="fill:#dbdbdb"></rect><rect x="435.76" y="385.58" width="7.45" height="12.36" style="fill:#dbdbdb"></rect><rect x="448.96" y="385.58" width="7.45" height="12.36" style="fill:#dbdbdb"></rect><rect x="422.56" y="405.66" width="7.46" height="8.02" style="fill:#dbdbdb"></rect><rect x="435.76" y="405.66" width="7.45" height="8.02" style="fill:#dbdbdb"></rect><rect x="448.96" y="405.66" width="7.46" height="8.02" style="fill:#dbdbdb"></rect><rect x="57.08" y="193.51" width="58.05" height="220.17" style="fill:#ebebeb"></rect><rect x="65.33" y="178.91" width="49.8" height="14.6" style="fill:#c7c7c7"></rect><rect x="63.44" y="201.13" width="45.32" height="164.59" style="fill:#dbdbdb"></rect><rect x="63.44" y="216.84" width="45.32" height="3.89" style="fill:#fff"></rect><rect x="63.44" y="232.95" width="45.32" height="3.89" style="fill:#fff"></rect><rect x="63.44" y="249.06" width="45.32" height="3.89" style="fill:#fff"></rect><rect x="63.44" y="265.17" width="45.32" height="3.89" style="fill:#fff"></rect><rect x="63.44" y="281.28" width="45.32" height="3.89" style="fill:#fff"></rect><rect x="63.44" y="297.39" width="45.32" height="3.89" style="fill:#fff"></rect><rect x="63.44" y="313.5" width="45.32" height="3.89" style="fill:#fff"></rect><rect x="63.44" y="329.61" width="45.32" height="3.89" style="fill:#fff"></rect><rect x="63.44" y="345.72" width="45.32" height="3.89" style="fill:#fff"></rect><rect x="63.44" y="361.83" width="45.32" height="3.89" style="fill:#fff"></rect><rect x="115.13" y="193.51" width="36.36" height="220.17" style="fill:#dbdbdb"></rect><rect x="115.13" y="178.91" width="30.91" height="14.6" style="fill:#a6a6a6"></rect><rect x="120.14" y="201.13" width="27.96" height="164.59" style="fill:#c7c7c7"></rect><rect x="120.14" y="216.84" width="27.96" height="3.89" style="fill:#fff"></rect><rect x="120.14" y="232.95" width="27.96" height="3.89" style="fill:#fff"></rect><rect x="120.14" y="249.06" width="27.96" height="3.89" style="fill:#fff"></rect><rect x="120.14" y="265.17" width="27.96" height="3.89" style="fill:#fff"></rect><rect x="120.14" y="281.28" width="27.96" height="3.89" style="fill:#fff"></rect><rect x="120.14" y="297.39" width="27.96" height="3.89" style="fill:#fff"></rect><rect x="120.14" y="313.5" width="27.96" height="3.89" style="fill:#fff"></rect><rect x="120.14" y="329.61" width="27.96" height="3.89" style="fill:#fff"></rect><rect x="120.14" y="345.72" width="27.96" height="3.89" style="fill:#fff"></rect><rect x="120.14" y="361.83" width="27.96" height="3.89" style="fill:#fff"></rect><rect x="614.05" y="197.22" width="31.01" height="36.63" style="fill:#dbdbdb"></rect><rect x="645.06" y="197.22" width="19.66" height="37.97" style="fill:#c7c7c7"></rect><rect x="646.51" y="213.39" width="19.51" height="21.8" style="fill:#dbdbdb"></rect><rect x="666.03" y="213.39" width="12.17" height="21.8" style="fill:#c7c7c7"></rect><rect x="602.16" y="231.47" width="50.14" height="182.21" style="fill:#ebebeb"></rect><rect x="607.89" y="239.3" width="15.77" height="6.44" style="fill:#fff"></rect><rect x="628.06" y="239.3" width="15.77" height="6.44" style="fill:#fff"></rect><rect x="607.89" y="250.24" width="15.77" height="6.44" style="fill:#fff"></rect><rect x="628.06" y="250.24" width="15.77" height="6.44" style="fill:#fff"></rect><rect x="607.89" y="261.17" width="15.77" height="6.44" style="fill:#fff"></rect><rect x="628.06" y="261.17" width="15.77" height="6.44" style="fill:#fff"></rect><rect x="607.89" y="272.11" width="15.77" height="6.44" style="fill:#fff"></rect><rect x="628.06" y="272.11" width="15.77" height="6.44" style="fill:#fff"></rect><rect x="607.89" y="283.05" width="15.77" height="6.44" style="fill:#fff"></rect><rect x="628.06" y="283.05" width="15.77" height="6.44" style="fill:#fff"></rect><rect x="607.89" y="293.99" width="15.77" height="6.44" style="fill:#fff"></rect><rect x="628.06" y="293.99" width="15.77" height="6.44" style="fill:#fff"></rect><rect x="607.89" y="304.92" width="15.77" height="6.44" style="fill:#fff"></rect><rect x="628.06" y="304.92" width="15.77" height="6.44" style="fill:#fff"></rect><rect x="607.89" y="315.86" width="15.77" height="6.44" style="fill:#fff"></rect><rect x="628.06" y="315.86" width="15.77" height="6.44" style="fill:#fff"></rect><rect x="607.89" y="326.8" width="15.77" height="6.44" style="fill:#fff"></rect><rect x="628.06" y="326.8" width="15.77" height="6.44" style="fill:#fff"></rect><rect x="607.89" y="337.73" width="15.77" height="6.44" style="fill:#fff"></rect><rect x="628.06" y="337.73" width="15.77" height="6.44" style="fill:#fff"></rect><rect x="607.89" y="348.67" width="15.77" height="6.44" style="fill:#fff"></rect><rect x="628.06" y="348.67" width="15.77" height="6.44" style="fill:#fff"></rect><rect x="607.89" y="359.61" width="15.77" height="6.44" style="fill:#fff"></rect><rect x="628.06" y="359.61" width="15.77" height="6.44" style="fill:#fff"></rect><rect x="607.89" y="370.54" width="15.77" height="6.44" style="fill:#fff"></rect><rect x="628.06" y="370.54" width="15.77" height="6.44" style="fill:#fff"></rect><rect x="607.89" y="381.48" width="15.77" height="6.44" style="fill:#fff"></rect><rect x="628.06" y="381.48" width="15.77" height="6.44" style="fill:#fff"></rect><rect x="652.3" y="231.47" width="40.63" height="182.21" style="fill:#c7c7c7"></rect><rect x="675.9" y="381.48" width="12.94" height="6.44" transform="translate(1364.75 769.41) rotate(180)" style="fill:#ebebeb"></rect><rect x="659.35" y="381.48" width="12.94" height="6.44" transform="translate(1331.64 769.41) rotate(180)" style="fill:#ebebeb"></rect><rect x="675.9" y="370.54" width="12.94" height="6.44" transform="translate(1364.75 747.53) rotate(180)" style="fill:#ebebeb"></rect><rect x="659.35" y="370.54" width="12.94" height="6.44" transform="translate(1331.64 747.53) rotate(180)" style="fill:#ebebeb"></rect><rect x="675.9" y="359.61" width="12.94" height="6.44" transform="translate(1364.75 725.66) rotate(180)" style="fill:#ebebeb"></rect><rect x="659.35" y="359.61" width="12.94" height="6.44" transform="translate(1331.64 725.66) rotate(180)" style="fill:#ebebeb"></rect><rect x="675.9" y="348.67" width="12.94" height="6.44" transform="translate(1364.75 703.78) rotate(180)" style="fill:#ebebeb"></rect><rect x="659.35" y="348.67" width="12.94" height="6.44" transform="translate(1331.64 703.78) rotate(180)" style="fill:#ebebeb"></rect><rect x="675.9" y="337.73" width="12.94" height="6.44" transform="translate(1364.75 681.91) rotate(180)" style="fill:#ebebeb"></rect><rect x="659.35" y="337.73" width="12.94" height="6.44" transform="translate(1331.64 681.91) rotate(180)" style="fill:#ebebeb"></rect><rect x="675.9" y="326.8" width="12.94" height="6.44" transform="translate(1364.75 660.03) rotate(180)" style="fill:#ebebeb"></rect><rect x="659.35" y="326.8" width="12.94" height="6.44" transform="translate(1331.64 660.03) rotate(180)" style="fill:#ebebeb"></rect><rect x="675.9" y="315.86" width="12.94" height="6.44" transform="translate(1364.75 638.16) rotate(180)" style="fill:#ebebeb"></rect><rect x="659.35" y="315.86" width="12.94" height="6.44" transform="translate(1331.64 638.16) rotate(180)" style="fill:#ebebeb"></rect><rect x="675.9" y="304.92" width="12.94" height="6.44" transform="translate(1364.75 616.29) rotate(180)" style="fill:#ebebeb"></rect><rect x="659.35" y="304.92" width="12.94" height="6.44" transform="translate(1331.64 616.29) rotate(180)" style="fill:#ebebeb"></rect><rect x="675.9" y="293.99" width="12.94" height="6.44" transform="translate(1364.75 594.41) rotate(180)" style="fill:#ebebeb"></rect><rect x="659.35" y="293.99" width="12.94" height="6.44" transform="translate(1331.64 594.41) rotate(180)" style="fill:#ebebeb"></rect><rect x="675.9" y="283.05" width="12.94" height="6.44" transform="translate(1364.75 572.54) rotate(180)" style="fill:#ebebeb"></rect><rect x="659.35" y="283.05" width="12.94" height="6.44" transform="translate(1331.64 572.54) rotate(180)" style="fill:#ebebeb"></rect><rect x="675.9" y="272.11" width="12.94" height="6.44" transform="translate(1364.75 550.66) rotate(180)" style="fill:#ebebeb"></rect><rect x="659.35" y="272.11" width="12.94" height="6.44" transform="translate(1331.64 550.66) rotate(180)" style="fill:#ebebeb"></rect><rect x="675.9" y="261.17" width="12.94" height="6.44" transform="translate(1364.75 528.79) rotate(180)" style="fill:#ebebeb"></rect><rect x="659.35" y="261.17" width="12.94" height="6.44" transform="translate(1331.64 528.79) rotate(180)" style="fill:#ebebeb"></rect><rect x="675.9" y="250.24" width="12.94" height="6.44" transform="translate(1364.75 506.92) rotate(180)" style="fill:#ebebeb"></rect><rect x="659.35" y="250.24" width="12.94" height="6.44" transform="translate(1331.64 506.92) rotate(180)" style="fill:#ebebeb"></rect><rect x="675.9" y="239.3" width="12.94" height="6.44" transform="translate(1364.75 485.04) rotate(180)" style="fill:#ebebeb"></rect><rect x="659.35" y="239.3" width="12.94" height="6.44" transform="translate(1331.64 485.04) rotate(180)" style="fill:#ebebeb"></rect><rect x="229.64" y="197.22" width="31.01" height="36.63" style="fill:#dbdbdb"></rect><rect x="260.64" y="197.22" width="19.66" height="37.97" style="fill:#c7c7c7"></rect><rect x="262.1" y="213.39" width="19.51" height="21.8" style="fill:#dbdbdb"></rect><rect x="281.61" y="213.39" width="12.17" height="21.8" style="fill:#c7c7c7"></rect><rect x="217.74" y="231.47" width="50.14" height="182.21" style="fill:#ebebeb"></rect><rect x="223.48" y="239.3" width="15.77" height="6.44" style="fill:#fff"></rect><rect x="243.64" y="239.3" width="15.77" height="6.44" style="fill:#fff"></rect><rect x="223.48" y="250.24" width="15.77" height="6.44" style="fill:#fff"></rect><rect x="243.64" y="250.24" width="15.77" height="6.44" style="fill:#fff"></rect><rect x="223.48" y="261.17" width="15.77" height="6.44" style="fill:#fff"></rect><rect x="243.64" y="261.17" width="15.77" height="6.44" style="fill:#fff"></rect><rect x="223.48" y="272.11" width="15.77" height="6.44" style="fill:#fff"></rect><rect x="243.64" y="272.11" width="15.77" height="6.44" style="fill:#fff"></rect><rect x="223.48" y="283.05" width="15.77" height="6.44" style="fill:#fff"></rect><rect x="243.64" y="283.05" width="15.77" height="6.44" style="fill:#fff"></rect><rect x="223.48" y="293.99" width="15.77" height="6.44" style="fill:#fff"></rect><rect x="243.64" y="293.99" width="15.77" height="6.44" style="fill:#fff"></rect><rect x="223.48" y="304.92" width="15.77" height="6.44" style="fill:#fff"></rect><rect x="243.64" y="304.92" width="15.77" height="6.44" style="fill:#fff"></rect><rect x="223.48" y="315.86" width="15.77" height="6.44" style="fill:#fff"></rect><rect x="243.64" y="315.86" width="15.77" height="6.44" style="fill:#fff"></rect><rect x="223.48" y="326.8" width="15.77" height="6.44" style="fill:#fff"></rect><rect x="243.64" y="326.8" width="15.77" height="6.44" style="fill:#fff"></rect><rect x="223.48" y="337.73" width="15.77" height="6.44" style="fill:#fff"></rect><rect x="243.64" y="337.73" width="15.77" height="6.44" style="fill:#fff"></rect><rect x="223.48" y="348.67" width="15.77" height="6.44" style="fill:#fff"></rect><rect x="243.64" y="348.67" width="15.77" height="6.44" style="fill:#fff"></rect><rect x="223.48" y="359.61" width="15.77" height="6.44" style="fill:#fff"></rect><rect x="243.64" y="359.61" width="15.77" height="6.44" style="fill:#fff"></rect><rect x="223.48" y="370.54" width="15.77" height="6.44" style="fill:#fff"></rect><rect x="243.64" y="370.54" width="15.77" height="6.44" style="fill:#fff"></rect><rect x="223.48" y="381.48" width="15.77" height="6.44" style="fill:#fff"></rect><rect x="243.64" y="381.48" width="15.77" height="6.44" style="fill:#fff"></rect><rect x="267.88" y="231.47" width="40.63" height="182.21" style="fill:#c7c7c7"></rect><rect x="291.49" y="381.48" width="12.94" height="6.44" transform="translate(595.92 769.41) rotate(180)" style="fill:#ebebeb"></rect><rect x="274.93" y="381.48" width="12.94" height="6.44" transform="translate(562.81 769.41) rotate(180)" style="fill:#ebebeb"></rect><rect x="291.49" y="370.54" width="12.94" height="6.44" transform="translate(595.92 747.53) rotate(180)" style="fill:#ebebeb"></rect><rect x="274.93" y="370.54" width="12.94" height="6.44" transform="translate(562.81 747.53) rotate(180)" style="fill:#ebebeb"></rect><rect x="291.49" y="359.61" width="12.94" height="6.44" transform="translate(595.92 725.66) rotate(180)" style="fill:#ebebeb"></rect><rect x="274.93" y="359.61" width="12.94" height="6.44" transform="translate(562.81 725.66) rotate(180)" style="fill:#ebebeb"></rect><rect x="291.49" y="348.67" width="12.94" height="6.44" transform="translate(595.92 703.78) rotate(180)" style="fill:#ebebeb"></rect><rect x="274.93" y="348.67" width="12.94" height="6.44" transform="translate(562.81 703.78) rotate(180)" style="fill:#ebebeb"></rect><rect x="291.49" y="337.73" width="12.94" height="6.44" transform="translate(595.92 681.91) rotate(180)" style="fill:#ebebeb"></rect><rect x="274.93" y="337.73" width="12.94" height="6.44" transform="translate(562.81 681.91) rotate(180)" style="fill:#ebebeb"></rect><rect x="291.49" y="326.8" width="12.94" height="6.44" transform="translate(595.92 660.03) rotate(180)" style="fill:#ebebeb"></rect><rect x="274.93" y="326.8" width="12.94" height="6.44" transform="translate(562.81 660.03) rotate(180)" style="fill:#ebebeb"></rect><rect x="291.49" y="315.86" width="12.94" height="6.44" transform="translate(595.92 638.16) rotate(180)" style="fill:#ebebeb"></rect><rect x="274.93" y="315.86" width="12.94" height="6.44" transform="translate(562.81 638.16) rotate(180)" style="fill:#ebebeb"></rect><rect x="291.49" y="304.92" width="12.94" height="6.44" transform="translate(595.92 616.29) rotate(180)" style="fill:#ebebeb"></rect><rect x="274.93" y="304.92" width="12.94" height="6.44" transform="translate(562.81 616.29) rotate(180)" style="fill:#ebebeb"></rect><rect x="291.49" y="293.99" width="12.94" height="6.44" transform="translate(595.92 594.41) rotate(180)" style="fill:#ebebeb"></rect><rect x="274.93" y="293.99" width="12.94" height="6.44" transform="translate(562.81 594.41) rotate(180)" style="fill:#ebebeb"></rect><rect x="291.49" y="283.05" width="12.94" height="6.44" transform="translate(595.92 572.54) rotate(180)" style="fill:#ebebeb"></rect><rect x="274.93" y="283.05" width="12.94" height="6.44" transform="translate(562.81 572.54) rotate(180)" style="fill:#ebebeb"></rect><rect x="291.49" y="272.11" width="12.94" height="6.44" transform="translate(595.92 550.66) rotate(180)" style="fill:#ebebeb"></rect><rect x="274.93" y="272.11" width="12.94" height="6.44" transform="translate(562.81 550.66) rotate(180)" style="fill:#ebebeb"></rect><rect x="291.49" y="261.17" width="12.94" height="6.44" transform="translate(595.92 528.79) rotate(180)" style="fill:#ebebeb"></rect><rect x="274.93" y="261.17" width="12.94" height="6.44" transform="translate(562.81 528.79) rotate(180)" style="fill:#ebebeb"></rect><rect x="291.49" y="250.24" width="12.94" height="6.44" transform="translate(595.92 506.92) rotate(180)" style="fill:#ebebeb"></rect><rect x="274.93" y="250.24" width="12.94" height="6.44" transform="translate(562.81 506.92) rotate(180)" style="fill:#ebebeb"></rect><rect x="291.49" y="239.3" width="12.94" height="6.44" transform="translate(595.92 485.04) rotate(180)" style="fill:#ebebeb"></rect><rect x="274.93" y="239.3" width="12.94" height="6.44" transform="translate(562.81 485.04) rotate(180)" style="fill:#ebebeb"></rect><rect x="450.79" y="294.95" width="59.14" height="118.73" style="fill:#c7c7c7"></rect><rect x="460.09" y="305.23" width="10.47" height="7.27" style="fill:#dbdbdb"></rect><rect x="460.09" y="320.76" width="10.47" height="7.27" style="fill:#dbdbdb"></rect><rect x="460.09" y="336.3" width="10.47" height="7.27" style="fill:#dbdbdb"></rect><rect x="460.09" y="351.84" width="10.47" height="7.27" style="fill:#dbdbdb"></rect><rect x="460.09" y="367.38" width="10.47" height="7.27" style="fill:#dbdbdb"></rect><rect x="460.09" y="382.91" width="10.47" height="7.27" style="fill:#dbdbdb"></rect><rect x="460.09" y="398.45" width="10.47" height="7.27" style="fill:#dbdbdb"></rect><rect x="475.14" y="305.23" width="10.47" height="7.27" style="fill:#dbdbdb"></rect><rect x="475.14" y="320.76" width="10.47" height="7.27" style="fill:#dbdbdb"></rect><rect x="475.14" y="336.3" width="10.47" height="7.27" style="fill:#dbdbdb"></rect><rect x="475.14" y="351.84" width="10.47" height="7.27" style="fill:#dbdbdb"></rect><rect x="475.14" y="367.38" width="10.47" height="7.27" style="fill:#dbdbdb"></rect><rect x="475.14" y="382.91" width="10.47" height="7.27" style="fill:#dbdbdb"></rect><rect x="475.14" y="398.45" width="10.47" height="7.27" style="fill:#dbdbdb"></rect><rect x="490.16" y="305.23" width="10.47" height="7.27" style="fill:#dbdbdb"></rect><rect x="490.16" y="320.76" width="10.47" height="7.27" style="fill:#dbdbdb"></rect><rect x="490.16" y="336.3" width="10.47" height="7.27" style="fill:#dbdbdb"></rect><rect x="490.16" y="351.84" width="10.47" height="7.27" style="fill:#dbdbdb"></rect><rect x="490.16" y="367.38" width="10.47" height="7.27" style="fill:#dbdbdb"></rect><rect x="490.16" y="382.91" width="10.47" height="7.27" style="fill:#dbdbdb"></rect><rect x="490.16" y="398.45" width="10.47" height="7.27" style="fill:#dbdbdb"></rect><rect x="470.55" y="282.58" width="39.37" height="12.37" style="fill:#dbdbdb"></rect><rect x="484.96" y="274.92" width="24.96" height="7.66" style="fill:#ebebeb"></rect><rect x="509.92" y="294.95" width="41.49" height="118.73" style="fill:#a6a6a6"></rect><rect x="538.65" y="397.29" width="8.52" height="7.27" transform="translate(1085.82 801.85) rotate(180)" style="fill:#c7c7c7"></rect><rect x="538.65" y="381.75" width="8.52" height="7.27" transform="translate(1085.82 770.78) rotate(180)" style="fill:#c7c7c7"></rect><rect x="538.65" y="366.21" width="8.52" height="7.27" transform="translate(1085.82 739.7) rotate(180)" style="fill:#c7c7c7"></rect><rect x="538.65" y="350.68" width="8.52" height="7.27" transform="translate(1085.82 708.63) rotate(180)" style="fill:#c7c7c7"></rect><rect x="538.65" y="335.14" width="8.52" height="7.27" transform="translate(1085.82 677.55) rotate(180)" style="fill:#c7c7c7"></rect><rect x="538.65" y="319.6" width="8.52" height="7.27" transform="translate(1085.82 646.48) rotate(180)" style="fill:#c7c7c7"></rect><rect x="538.65" y="304.07" width="8.52" height="7.27" transform="translate(1085.82 615.4) rotate(180)" style="fill:#c7c7c7"></rect><rect x="526.39" y="397.29" width="8.52" height="7.27" transform="translate(1061.31 801.85) rotate(180)" style="fill:#c7c7c7"></rect><rect x="526.39" y="381.75" width="8.52" height="7.27" transform="translate(1061.31 770.78) rotate(180)" style="fill:#c7c7c7"></rect><rect x="526.39" y="366.21" width="8.52" height="7.27" transform="translate(1061.31 739.7) rotate(180)" style="fill:#c7c7c7"></rect><rect x="526.39" y="350.68" width="8.52" height="7.27" transform="translate(1061.31 708.63) rotate(180)" style="fill:#c7c7c7"></rect><rect x="526.39" y="335.14" width="8.52" height="7.27" transform="translate(1061.31 677.55) rotate(180)" style="fill:#c7c7c7"></rect><rect x="526.39" y="319.6" width="8.52" height="7.27" transform="translate(1061.31 646.48) rotate(180)" style="fill:#c7c7c7"></rect><rect x="526.39" y="304.07" width="8.52" height="7.27" transform="translate(1061.31 615.4) rotate(180)" style="fill:#c7c7c7"></rect><rect x="514.17" y="397.29" width="8.52" height="7.27" transform="translate(1036.86 801.85) rotate(180)" style="fill:#c7c7c7"></rect><rect x="514.17" y="381.75" width="8.52" height="7.27" transform="translate(1036.86 770.78) rotate(180)" style="fill:#c7c7c7"></rect><rect x="514.17" y="366.21" width="8.52" height="7.27" transform="translate(1036.86 739.7) rotate(180)" style="fill:#c7c7c7"></rect><rect x="514.17" y="350.68" width="8.52" height="7.27" transform="translate(1036.86 708.63) rotate(180)" style="fill:#c7c7c7"></rect><rect x="514.17" y="335.14" width="8.52" height="7.27" transform="translate(1036.86 677.55) rotate(180)" style="fill:#c7c7c7"></rect><rect x="514.17" y="319.6" width="8.52" height="7.27" transform="translate(1036.86 646.48) rotate(180)" style="fill:#c7c7c7"></rect><rect x="514.17" y="304.07" width="8.52" height="7.27" transform="translate(1036.86 615.4) rotate(180)" style="fill:#c7c7c7"></rect><rect x="509.92" y="282.58" width="35.21" height="12.37" style="fill:#c7c7c7"></rect><rect x="509.92" y="274.92" width="19.08" height="7.66" style="fill:#dbdbdb"></rect></g><g id="freepik--Floor--inject-4"><polygon points="46.67 413.78 128.75 413.54 210.84 413.45 375 413.28 539.16 413.45 621.25 413.54 703.33 413.78 621.25 414.03 539.16 414.12 375 414.28 210.84 414.11 128.75 414.03 46.67 413.78" style="fill:#263238"></polygon></g><g id="freepik--Shadow--inject-4"><ellipse cx="244.27" cy="460.5" rx="182.2" ry="11.45" style="fill:#ebebeb"></ellipse></g><g id="freepik--Trees--inject-4"><path d="M287.67,261.26s20.56-8.13,36.83,20.26c16.69,29.12-4.29,48.27-20.91,36.83,0,0-13.07,27.38-39.16,20.83s-30.3-27.43-30.3-27.43-23.15,1.61-23.79-15.68,16.35-32.59,16.35-32.59,1-43.05,29.07-42.69S287.67,261.26,287.67,261.26Z" style="fill:#455a64"></path><polygon points="268.43 413.8 262.7 285.7 256.69 413.78 268.43 413.8" style="fill:#263238"></polygon><polygon points="264.46 333.69 282.43 297.92 260.92 328.17 264.46 333.69" style="fill:#263238"></polygon><path d="M572.3,239.66s47.1,104.61-29.79,104.7-27.18-108.2-27.18-108.2-17.8-7.81,2.78-66.21,29.81-58.42,38.38-58.43c10.84,0,21,25.26,13.6,64.06C570.09,175.58,597.2,224,572.3,239.66Z" style="fill:#37474f"></path><polygon points="535.76 413.78 543 256.1 550.59 413.76 535.76 413.78" style="fill:#263238"></polygon><polygon points="540.06 322.21 567.97 289.54 546.09 326.52 540.06 322.21" style="fill:#263238"></polygon><path d="M170.6,245.41s-45.35,101.3,29,101.22S225.7,241.91,225.7,241.91s17.21-7.6-2.83-64.06-29-56.44-37.25-56.43c-10.48,0-20.22,24.47-13,62C172.6,183.42,146.48,230.28,170.6,245.41Z" style="fill:#37474f"></path><polygon points="206.31 413.77 198.98 261.25 191.97 413.78 206.31 413.77" style="fill:#263238"></polygon><polygon points="201.96 325.2 174.89 293.65 196.14 329.38 201.96 325.2" style="fill:#263238"></polygon><path d="M100.27,234S76,224.4,56.86,257.87c-19.68,34.32,5.06,56.89,24.65,43.41,0,0,15.41,32.28,46.15,24.55s35.72-32.33,35.72-32.33,27.29,1.9,28-18.48-19.26-38.42-19.26-38.42-1.21-50.74-34.27-50.32S100.27,234,100.27,234Z" style="fill:#455a64"></path><polygon points="122.95 413.78 129.71 262.79 136.79 413.77 122.95 413.78" style="fill:#263238"></polygon><polygon points="127.63 319.36 106.45 277.2 131.81 312.85 127.63 319.36" style="fill:#263238"></polygon><path d="M609.18,234S585,224.4,565.77,257.87c-19.67,34.32,5.06,56.89,24.65,43.41,0,0,15.41,32.28,46.16,24.55s35.71-32.33,35.71-32.33,27.3,1.9,28-18.48-19.26-38.42-19.26-38.42-1.21-50.74-34.27-50.32S609.18,234,609.18,234Z" style="fill:#455a64"></path><polygon points="631.87 413.78 638.62 262.79 645.71 413.77 631.87 413.78" style="fill:#263238"></polygon><polygon points="636.54 319.36 615.36 277.2 640.72 312.85 636.54 319.36" style="fill:#263238"></polygon></g><g id="freepik--Benches--inject-4"><rect x="497.54" y="285.18" width="7.39" height="65.41" style="fill:#263238"></rect><rect x="631.43" y="285.18" width="7.39" height="65.41" style="fill:#263238"></rect><rect x="478.21" y="291.14" width="179.95" height="9.66" style="fill:#50F17E"></rect><rect x="478.21" y="291.14" width="179.95" height="9.66" style="opacity:0.2"></rect><rect x="478.21" y="306.04" width="179.95" height="9.66" style="fill:#50F17E"></rect><rect x="478.21" y="306.04" width="179.95" height="9.66" style="opacity:0.2"></rect><rect x="478.21" y="320.93" width="179.95" height="9.66" style="fill:#50F17E"></rect><rect x="478.21" y="320.93" width="179.95" height="9.66" style="opacity:0.2"></rect><rect x="478.21" y="335.83" width="179.95" height="9.66" style="fill:#50F17E"></rect><rect x="478.21" y="335.83" width="179.95" height="9.66" style="opacity:0.2"></rect><rect x="462.37" y="350.59" width="214.19" height="14.4" style="fill:#50F17E"></rect><rect x="462.37" y="355.5" width="214.19" height="9.49" style="opacity:0.2"></rect><rect x="474.37" y="364.99" width="7.39" height="48.69" style="fill:#263238"></rect><rect x="657.17" y="364.99" width="7.39" height="48.69" style="fill:#263238"></rect><g style="opacity:0.2"><path d="M502.15,296a.92.92,0,1,1-.91-.91A.91.91,0,0,1,502.15,296Z"></path><path d="M502.15,310.87a.92.92,0,1,1-.91-.91A.91.91,0,0,1,502.15,310.87Z"></path><path d="M502.15,325.77a.92.92,0,1,1-.91-.92A.91.91,0,0,1,502.15,325.77Z"></path><path d="M502.15,340.66a.92.92,0,1,1-.91-.91A.91.91,0,0,1,502.15,340.66Z"></path><path d="M636,296a.92.92,0,1,1-.91-.91A.91.91,0,0,1,636,296Z"></path><path d="M636,310.87a.92.92,0,1,1-.91-.91A.91.91,0,0,1,636,310.87Z"></path><path d="M636,325.77a.92.92,0,1,1-.91-.92A.91.91,0,0,1,636,325.77Z"></path><path d="M636,340.66a.92.92,0,1,1-.91-.91A.91.91,0,0,1,636,340.66Z"></path></g><rect x="108.6" y="285.18" width="7.39" height="65.41" style="fill:#263238"></rect><rect x="242.49" y="285.18" width="7.39" height="65.41" style="fill:#263238"></rect><rect x="89.27" y="291.14" width="179.95" height="9.66" style="fill:#50F17E"></rect><rect x="89.27" y="291.14" width="179.95" height="9.66" style="opacity:0.2"></rect><rect x="89.27" y="306.04" width="179.95" height="9.66" style="fill:#50F17E"></rect><rect x="89.27" y="306.04" width="179.95" height="9.66" style="opacity:0.2"></rect><rect x="89.27" y="320.93" width="179.95" height="9.66" style="fill:#50F17E"></rect><rect x="89.27" y="320.93" width="179.95" height="9.66" style="opacity:0.2"></rect><rect x="89.27" y="335.83" width="179.95" height="9.66" style="fill:#50F17E"></rect><rect x="89.27" y="335.83" width="179.95" height="9.66" style="opacity:0.2"></rect><rect x="73.44" y="350.59" width="214.19" height="14.4" style="fill:#50F17E"></rect><rect x="73.44" y="355.5" width="214.19" height="9.49" style="opacity:0.2"></rect><rect x="85.43" y="364.99" width="7.39" height="48.69" style="fill:#263238"></rect><rect x="268.24" y="364.99" width="7.39" height="48.69" style="fill:#263238"></rect><g style="opacity:0.2"><path d="M113.21,296a.91.91,0,1,1-.91-.91A.91.91,0,0,1,113.21,296Z"></path><path d="M113.21,310.87a.91.91,0,0,1-1.82,0,.91.91,0,0,1,1.82,0Z"></path><path d="M113.21,325.77a.91.91,0,1,1-.91-.92A.91.91,0,0,1,113.21,325.77Z"></path><path d="M113.21,340.66a.91.91,0,1,1-.91-.91A.91.91,0,0,1,113.21,340.66Z"></path><path d="M247.1,296a.92.92,0,1,1-.91-.91A.91.91,0,0,1,247.1,296Z"></path><path d="M247.1,310.87a.92.92,0,1,1-.91-.91A.91.91,0,0,1,247.1,310.87Z"></path><path d="M247.1,325.77a.92.92,0,1,1-.91-.92A.91.91,0,0,1,247.1,325.77Z"></path><path d="M247.1,340.66a.92.92,0,1,1-.91-.91A.91.91,0,0,1,247.1,340.66Z"></path></g></g><g id="freepik--Plants--inject-4"><path d="M78.71,373.15c-5.38.19-11.39.5-15.84-3-4.12-3.23-7.8-8-7.25-13.55.16-1.57.52-2.54,2.2-1.87,2.57,1,4.55,3.86,6.33,5.85a55,55,0,0,0,7.47,7.08c1.92,1.47,4,2.74,5.93,4.16.25.18.5.36.74.55l.27.2h.16a.26.26,0,0,1,.22.11.3.3,0,0,1,0,.1A.28.28,0,0,1,78.71,373.15Z" style="fill:#50F17E"></path><path d="M79,372.8c-4.73-.09-9.84.13-13.63-3.08A22.12,22.12,0,0,1,61,364.38c-.55-.9-2.19-3.55-1.51-4.61,1.23-1.91,6.87,5.89,7.65,6.63a23,23,0,0,0,10.45,5.43c.25.18.5.36.74.55a25.93,25.93,0,0,1-7.85-3c-3.36-2-5.23-5-7.86-7.73-.57-.6-2.28-2.61-2.93-1.36-.42.82,1.16,3.42,1.5,4a21.88,21.88,0,0,0,4.16,5.08c3.77,3.29,8.86,3.18,13.63,3.37A.3.3,0,0,1,79,372.8Z" style="fill:#fff"></path><path d="M81.69,376.44c0,.2-.09.41-.13.62v0a.14.14,0,0,1-.1.11.23.23,0,0,1-.28-.11.15.15,0,0,1,0-.13.24.24,0,0,1,0-.08l.06-.19h0a.14.14,0,0,0,0-.06c-1-3.57-1.32-7.27-2.33-10.84-1-3.4-2.15-6.74-2.84-10.21-.44-2.19-2-13.17,2.88-11.81,2.15.61,3.62,3.72,4.43,5.58a22.55,22.55,0,0,1,1.78,7.89C85.5,363.92,83,370,81.69,376.44Z" style="fill:#50F17E"></path><path d="M83.24,362.76a26.75,26.75,0,0,0-.78-7.46c-.22-.84-1.27-4.88-2.64-4.78-.88.06-1,1.8-1.11,2.38-.31,2.44.49,4.94,1,7.32a100.79,100.79,0,0,1,1.78,14.67c0,.31-.09.63-.13.94s-.06.51-.1.77a2.23,2.23,0,0,1,0,.27,1.36,1.36,0,0,0,0,.21.23.23,0,0,0,.28.11c0-.2.06-.4.08-.6,0,.16,0,.32,0,.49v0c0-.17.06-.34.1-.51s0-.07,0-.11c0-.28,0-.55,0-.82A111.73,111.73,0,0,0,83.24,362.76ZM81.6,373.85c-.13-2.88-.42-5.75-.83-8.61-.32-2.3-.76-4.58-1.24-6.85a23.34,23.34,0,0,1-.62-3.89c0-1,.1-4.71,2-2.41,1.38,1.67,1.71,5.22,1.88,7.26a37.91,37.91,0,0,1-.13,6.82C82.41,368.74,82,371.29,81.6,373.85Z" style="fill:#fff"></path><path d="M84.58,391.21h0l-.2,0c-4.92-.25-11.48.21-15.58-3.05-3-2.4-6-7.16-5-11.19,1.09-4.55,7.23.91,8.86,2.22A150.34,150.34,0,0,1,84.68,391l.07.09v0C84.8,391.14,84.69,391.19,84.58,391.21Z" style="fill:#50F17E"></path><path d="M84.75,391.07l-.85-.54c-3.24-2-6.39-4.21-9.42-6.54-.77-.58-6.31-5.52-7.15-3.76-.5,1.07,1.33,3.24,1.92,4A15.28,15.28,0,0,0,73,387.55c3.28,2,7.26,2.48,11,3.47a5.11,5.11,0,0,1,.53.13.47.47,0,0,0,.09.06h0C84.7,391.19,84.8,391.14,84.75,391.07ZM75,388.26a15.23,15.23,0,0,1-4.25-2.87c-.82-.78-3.73-3.73-3-4.94.41-.64.75-.3,1.54.09a8.25,8.25,0,0,1,1,.6c.83.54,1.59,1.17,2.35,1.78,1.36,1.09,2.73,2.13,4.13,3.15,2.29,1.67,4.64,3.24,7,4.73C81,389.89,77.83,389.53,75,388.26Z" style="fill:#fff"></path><path d="M93.58,381.07a29.22,29.22,0,0,1-8.44,14.74l-.09.05a.23.23,0,0,1-.23-.38l.25-.25c.82-6.69,1.71-13.35,2.4-20.06.16-1.58,1.4-11.65,4.5-10,1.91,1,2,5.14,2.2,7A29.38,29.38,0,0,1,93.58,381.07Z" style="fill:#50F17E"></path><path d="M91.79,372.1c-.17-.56-.46-1.14-1.08-.75-1.21.75-1.68,5.49-1.88,6.8-.83,5.4-2.11,10.59-3.41,15.87-.11.45-.21.9-.32,1.35l-.3.4a.22.22,0,0,0,.25.09.65.65,0,0,1,0-.13c.13-.18.27-.36.4-.55h0a34.47,34.47,0,0,0,4.87-9.5,32.74,32.74,0,0,0,1.44-6.62C92,377,92.42,374.12,91.79,372.1Zm-6.32,22.72-.18.26c.06-.18.12-.35.17-.54a97.47,97.47,0,0,0,3-12.29c.36-2.11.58-4.24,1-6.33.18-.89.61-3.41,1.35-3.82s.72.57.79,1.14c.05.41.05,1.15.06,1.54A33.94,33.94,0,0,1,85.47,394.82Z" style="fill:#fff"></path><path d="M86,410.24H85c0-.87,0-1.73-.06-2.59q-.16-5.25-.46-10.5c-.12-2-.26-4-.47-5.93a1.36,1.36,0,0,1,0-.2l-.06-.49c0-.16,0-.34-.06-.51a42.55,42.55,0,0,0-3.38-12.86c-.63-1.36-1.31-2.68-2-4l-.21-.38a.53.53,0,0,0-.06-.1c-.07-.13-.14-.26-.22-.39l-.16-.29c-2.28-4-4.89-7.84-7.36-11.7-.71-1.1-1.42-2.21-2.11-3.32a1.06,1.06,0,0,1-.12-.2l-.16-.24c-3.11-4.9-6.16-9.84-9.39-14.65-.12-.18.17-.34.29-.16,2.18,3.19,4.43,6.33,6.67,9.48l.89,1.26c.59.84,1.18,1.66,1.76,2.5,1.17,1.67,2.32,3.34,3.45,5a139.67,139.67,0,0,1,9.06,14.67c.2.38.38.76.56,1.16.12.24.24.48.34.72s.26.56.38.85a45.52,45.52,0,0,1,3.32,15.51c0,.36,0,.74.06,1.11,0,.17,0,.35,0,.52a2.62,2.62,0,0,0,0,.28c0,.11,0,.23,0,.36h0c0,.09,0,.18,0,.27,0,.32,0,.64,0,1,.14,3.5.23,7,.31,10.49C85.87,408,85.91,409.12,86,410.24Z" style="fill:#50F17E"></path><path d="M56.57,346.88c-2.7-3.62-6.15-11.1-2.18-15a4.23,4.23,0,0,1,5.63-.41c2.1,1.51,3,4.38,3.72,6.76,1.82,6.34,3,12.8,5.3,19,0,0,.19.53.25.66s-.16.19-.21.06-.15-.4-.22-.61C64.56,354.26,59.76,351.18,56.57,346.88Z" style="fill:#50F17E"></path><path d="M69.08,357.27a1.05,1.05,0,0,1-.07-.11,45,45,0,0,1-2.52-4.69,89,89,0,0,1-3.87-10.38c-.44-1.36-2.37-8-4.75-5.37-1,1.12-.86,3.1-.7,4.47a16.73,16.73,0,0,0,2.07,6.24c2.13,3.85,5.46,6.76,8.95,9.35l.47.36.1.17a.61.61,0,0,0,.07.1.06.06,0,0,0,.06,0,.14.14,0,0,0,.21-.09A.2.2,0,0,0,69.08,357.27Zm-1-.73a35.38,35.38,0,0,1-7.59-7.62,18.74,18.74,0,0,1-2.47-5,15.63,15.63,0,0,1-.54-2.44,10.61,10.61,0,0,1-.1-1.87c0-1.37.61-2.87,1.41-3,1-.18,1.34.4,2,1.56a8.9,8.9,0,0,1,.59,1.2,31.85,31.85,0,0,1,1.12,3.15c.56,1.76,1.13,3.52,1.76,5.25.43,1.18.89,2.35,1.39,3.49a47.08,47.08,0,0,0,3,5.74Z" style="fill:#fff"></path><path d="M634.36,387c-3.6,1.77-7.59,3.81-11.68,2.8-3.77-.94-7.73-3.08-9-7-.37-1.12-.42-1.88.93-1.94,2.06-.09,4.26,1.23,6.08,2a40.25,40.25,0,0,0,7.23,2.53c1.75.41,3.54.64,5.3,1l.66.14.25.06.11-.05a.19.19,0,0,1,.18,0,.13.13,0,0,1,.06,0A.21.21,0,0,1,634.36,387Z" style="fill:#50F17E"></path><path d="M634.43,386.65c-3.24,1.38-6.64,3.09-10.19,2.06a16.48,16.48,0,0,1-4.62-2.29c-.64-.43-2.56-1.74-2.42-2.66.25-1.68,6.46,1.9,7.21,2.17a17.26,17.26,0,0,0,8.76.5l.66.14a19.3,19.3,0,0,1-6.25.35c-2.89-.34-5.06-1.78-7.69-2.86-.57-.23-2.35-1.08-2.4,0,0,.69,1.83,2,2.23,2.25a16.25,16.25,0,0,0,4.37,2.18c3.57,1.09,7-.54,10.28-1.86A.13.13,0,0,1,634.43,386.65Z" style="fill:#fff"></path><path d="M637.38,388.29c0,.16.06.31.1.46v0a.11.11,0,0,1,0,.1.18.18,0,0,1-.23,0,.13.13,0,0,1,0-.09s0,0,0-.07v-.14h0l0,0c-1.73-2.13-3.11-4.53-4.88-6.65s-3.52-3.92-5-6.06c-1-1.36-5.35-8.35-1.65-8.9,1.64-.24,3.59,1.42,4.71,2.43a17,17,0,0,1,3.62,4.82C636.15,378.63,636.34,383.52,637.38,388.29Z" style="fill:#50F17E"></path><path d="M634.26,378.53a19.84,19.84,0,0,0-2.8-4.82c-.41-.51-2.35-2.93-3.25-2.45-.59.31-.16,1.54,0,2,.54,1.75,1.83,3.2,2.88,4.68a73.83,73.83,0,0,1,5.68,9.42c.07.22.13.45.2.67s.12.37.17.56a1.06,1.06,0,0,1,.06.19c0,.05,0,.09.05.15a.17.17,0,0,0,.22,0l-.12-.43c0,.11.1.22.16.33h0l-.09-.38a.29.29,0,0,0,0-.09c-.08-.18-.17-.37-.26-.55A81.74,81.74,0,0,0,634.26,378.53Zm2.27,8c-1-1.91-2-3.78-3.19-5.59-.92-1.46-1.91-2.88-2.93-4.27a18.26,18.26,0,0,1-1.61-2.46c-.33-.66-1.36-3.22.63-2.25,1.45.72,2.76,3,3.49,4.36a27.09,27.09,0,0,1,2,4.67C635.52,382.85,636,384.71,636.53,386.56Z" style="fill:#fff"></path><path d="M643.85,397.44h0l-.13.08c-3.42,1.33-7.73,3.64-11.51,2.68-2.78-.71-6.25-3-6.83-6.06-.65-3.42,5.18-1.59,6.69-1.19a112.76,112.76,0,0,1,11.77,4.29l.07,0h0C644,397.33,643.92,397.39,643.85,397.44Z" style="fill:#50F17E"></path><path d="M643.92,397.29l-.74-.1c-2.82-.4-5.63-.91-8.39-1.57-.7-.16-6-1.82-6-.37,0,.87,1.89,1.79,2.51,2.11a11.39,11.39,0,0,0,3.56,1.13c2.85.39,5.68-.53,8.51-1l.39-.07h.09C643.92,397.39,644,397.33,643.92,397.29Zm-7.47,1.07a11.28,11.28,0,0,1-3.76-.66c-.8-.28-3.67-1.39-3.52-2.45.09-.56.42-.43,1.07-.41a6.54,6.54,0,0,1,.89.09c.73.12,1.44.32,2.15.49,1.24.33,2.49.62,3.75.88,2.07.44,4.14.79,6.23,1.07C641,397.65,638.75,398.36,636.45,398.36Z" style="fill:#fff"></path><path d="M646.86,387.81a21.67,21.67,0,0,1-1.23,12.58s0,.05,0,.06a.15.15,0,0,1-.2,0,.17.17,0,0,1-.07-.2l.09-.25c-1.48-4.79-2.9-9.58-4.48-14.35-.37-1.12-2.6-8.34,0-8.17,1.6.11,3,2.87,3.62,4.08A21.79,21.79,0,0,1,646.86,387.81Z" style="fill:#50F17E"></path><path d="M642.91,382.26c-.28-.32-.65-.63-1-.17-.59.88.53,4.24.8,5.19,1.08,3.91,1.8,7.83,2.52,11.81.07.34.13.68.19,1,0,.12-.05.24-.08.36a.15.15,0,0,0,.2,0s0-.07,0-.1.07-.33.1-.49h0a25.58,25.58,0,0,0,.41-7.94,23.64,23.64,0,0,0-1-4.93A14,14,0,0,0,642.91,382.26Zm2.64,17.36c0,.08,0,.15,0,.23,0-.14,0-.28,0-.42a72.87,72.87,0,0,0-1.71-9.26c-.4-1.54-.89-3.05-1.24-4.61-.14-.65-.62-2.5-.24-3s.66.18.88.54.39.77.51,1A25.25,25.25,0,0,1,645.55,399.62Z" style="fill:#fff"></path><path d="M650.58,409.94l-.67.3c-.27-.58-.55-1.17-.83-1.74q-1.71-3.51-3.51-7c-.69-1.32-1.39-2.62-2.13-3.89a.83.83,0,0,1-.07-.13,3.21,3.21,0,0,1-.19-.31c-.06-.11-.13-.22-.2-.33a31.65,31.65,0,0,0-6.22-7.7c-.84-.73-1.71-1.43-2.6-2.1l-.25-.19-.07-.05-.27-.2-.2-.15c-2.77-2-5.71-3.83-8.56-5.7l-2.45-1.61a.71.71,0,0,1-.14-.1A.78.78,0,0,1,622,379c-3.61-2.38-7.19-4.81-10.84-7.09-.14-.08,0-.28.14-.19,2.45,1.5,4.94,2.94,7.42,4.4l1,.58,2,1.16c1.3.78,2.59,1.56,3.87,2.37a104.81,104.81,0,0,1,10.63,7.19c.25.2.49.41.73.62l.45.39.52.46a33.81,33.81,0,0,1,7,9.51c.13.25.26.49.38.74l.19.34a1.11,1.11,0,0,0,.09.19c0,.08.08.15.12.24h0l.09.18.32.64c1.16,2.33,2.29,4.68,3.41,7C649.84,408.45,650.21,409.2,650.58,409.94Z" style="fill:#50F17E"></path><path d="M611.31,375.89c-2.93-1.64-7.56-5.67-6-9.52a3.16,3.16,0,0,1,3.7-2c1.89.39,3.4,2.05,4.59,3.46,3.17,3.75,6,7.77,9.39,11.3a4.27,4.27,0,0,1,.37.37c.08.08,0,.18-.12.11l-.34-.35C619,378.46,614.79,377.83,611.31,375.89Z" style="fill:#50F17E"></path><path d="M623,379.12l-.08-.05a32,32,0,0,1-3.14-2.42,65.38,65.38,0,0,1-5.79-5.86c-.71-.8-4.06-4.73-4.86-2.2-.34,1.06.36,2.36.88,3.24a12.54,12.54,0,0,0,3.31,3.61,22.75,22.75,0,0,0,8.93,3.62l.43.1.12.08.08.06h0a.1.1,0,0,0,.11-.12A.08.08,0,0,0,623,379.12ZM622,379a26.62,26.62,0,0,1-7.48-2.86,14.17,14.17,0,0,1-3.21-2.67,11,11,0,0,1-1.11-1.5,8,8,0,0,1-.64-1.23c-.39-.94-.46-2.13,0-2.48s1-.13,1.83.45a6.7,6.7,0,0,1,.77.64,24.37,24.37,0,0,1,1.72,1.8c.92,1,1.84,2,2.8,3,.65.67,1.31,1.33,2,1.95a35.07,35.07,0,0,0,3.76,3Z" style="fill:#fff"></path><path d="M669,353.4c-.48,3.83-1.21,7.63-2,11.42-.43,2.15-.9,4.29-1.33,6.44-.48,2.37-1.19,4.78-.54,7.17h0a1.27,1.27,0,0,1,0,.33.05.05,0,0,1,0,0,.29.29,0,0,1-.5-.09.75.75,0,0,1,0-.16l0-.05a9.76,9.76,0,0,1-.83-2,48.9,48.9,0,0,1-1.9-5.54A48,48,0,0,1,660,359.14a40.69,40.69,0,0,1,1.12-10.66c.68-2.79,1.65-7,3.73-9.08,1.88-1.93,3.45,1.16,4,2.73C670.07,345.68,669.48,349.76,669,353.4Z" style="fill:#50F17E"></path><path d="M665.59,345.25c-1.4,0-2.41,4.52-2.91,6.48a38.78,38.78,0,0,0-1.2,9.41,50.39,50.39,0,0,0,2.9,16.72c.07.22.14.44.22.65l0,.06s0,.1,0,.15a.29.29,0,0,0,.5.09q-.13-.71-.21-1.41c-.06-.43-.1-.85-.13-1.27-.38-4.59.28-9.29.86-13.84C666.38,356.94,667.45,345.26,665.59,345.25Zm-1,31.78c.08.63.17,1.24.29,1.85-.14-.45-.29-.89-.42-1.34a55.63,55.63,0,0,1-2.64-14.75,39.86,39.86,0,0,1,.62-8.44,37.31,37.31,0,0,1,1.08-4.41c.2-.6,1.22-4.38,2.08-4.2.61.14.75,3.54.76,3.61,0,.68,0,1.37,0,2,0,1.41-.12,2.82-.24,4.22-.26,3-.7,6.07-1.07,9.1A52.88,52.88,0,0,0,664.58,377Z" style="fill:#fff"></path><path d="M691.06,364c-2.57,5-6.89,8.85-11.36,12.14-2.4,1.76-4.87,3.41-7.31,5.12a39,39,0,0,0-6.31,4.85l-.24.26a10,10,0,0,0-1.31,1.81.13.13,0,0,1-.12.07,1.43,1.43,0,0,1-.08.22.05.05,0,0,1-.1,0l0-.25v0a.15.15,0,0,1,0-.19l0-.08,0-.24c.74-5.86,4.83-11.78,8.3-16.29s7.74-8.5,13.09-10.56c1.34-.52,4.4-1.95,5.77-.85S691.61,362.93,691.06,364Z" style="fill:#50F17E"></path><path d="M687.09,364c-1.22-1.22-4.81,1.79-5.71,2.49a61.25,61.25,0,0,0-7.44,7.23,53.9,53.9,0,0,0-9.49,13.74h0l-.12.16c0,.09,0,.17,0,.25a.2.2,0,0,0,0,.08.16.16,0,0,0,0,.2c.07-.07.12-.14.18-.21.45-.55.92-1.08,1.4-1.61l.24-.26a114.33,114.33,0,0,1,11.12-9.81,56,56,0,0,0,7.4-7.2C685.16,368.41,688.12,365,687.09,364ZM686,366.7c-3,5-8.28,8.7-12.74,12.37a60.7,60.7,0,0,0-8.46,8,57.27,57.27,0,0,1,8.78-12.36,78.66,78.66,0,0,1,6-6.21,31.32,31.32,0,0,1,3.66-2.93,11.86,11.86,0,0,1,2.48-1.34C687.43,363.76,686.49,365.84,686,366.7Z" style="fill:#fff"></path><path d="M663.72,400.1a.32.32,0,0,1-.26.15l.06.09a.08.08,0,0,1,0,.12.09.09,0,0,1-.13,0c-4.75-4.83-9.32-10.7-11.69-17.1a26.46,26.46,0,0,1-1.69-8.43c-.06-2-.16-5.94,1.52-7.38,3.4-2.88,6.49,9.37,7,11.21.84,3.37,1.4,6.8,2.17,10.18.85,3.7,2,7.33,3.09,11A.27.27,0,0,1,663.72,400.1Z" style="fill:#50F17E"></path><path d="M663.72,400.1c-.19-.31-.37-.63-.54-1a57.11,57.11,0,0,1-6.11-16.45,52.48,52.48,0,0,0-2.26-8.57c-.27-.68-1.12-3.29-2.24-2-.58.68-.1,5.63.13,6.91a36.49,36.49,0,0,0,2.75,8.41,59.83,59.83,0,0,0,7.79,12.64c.09.12.18.24.27.34a.08.08,0,0,0,0-.12.47.47,0,0,0-.06-.09A.32.32,0,0,0,663.72,400.1Zm-6.89-10.53a41.21,41.21,0,0,1-3.26-8.17,28.22,28.22,0,0,1-.72-3.43,19.48,19.48,0,0,1-.23-2.74c0-2.23.2-2.81.57-2.89s.55.19,1.21,1.53a14.65,14.65,0,0,1,1,2.72c.34,1.32.65,2.65.93,4,.58,2.67,1.13,5.35,1.9,8a44.15,44.15,0,0,0,4.72,10.71A68,68,0,0,1,656.83,389.57Z" style="fill:#fff"></path><path d="M679,388.35a16.73,16.73,0,0,1-3.12,6.48c-2.81,3.89-6.42,7.13-9.5,10.81-.46.55-.9,1.11-1.34,1.68,0,.07-.4.88-.39.81s0-.32.15-.85h0c.49-2.58,2.11-10.36,4.13-14.35a34.57,34.57,0,0,1,4.5-7c.87-1,2.92-3.13,4.46-2.66S679.19,387.12,679,388.35Z" style="fill:#50F17E"></path><path d="M676.44,386.78c-1.65-1-5.9,6.57-6.47,7.55a48.24,48.24,0,0,0-4.85,11.58c-.13.45-.25.91-.37,1.37s-.16.83-.16.85.36-.74.4-.81l.23-.3c.36-.47.74-.93,1.11-1.38,1.85-2.76,3.75-5.5,5.54-8.31A44.22,44.22,0,0,0,675.3,391C675.51,390.52,677.16,387.22,676.44,386.78Zm-.47,2.14c-2.35,6.6-7.13,11.81-10.79,17.68l-.18.28c.06-.17.1-.35.15-.52a55.5,55.5,0,0,1,3.88-9.64,51.91,51.91,0,0,1,3.27-5.44,25.61,25.61,0,0,1,2-2.83c.34-.37,1.31-1.36,1.64-1.19S676.12,388.48,676,388.92Z" style="fill:#fff"></path><path d="M695.51,333.83c-4.9,11.26-17.76,16.5-23.34,27.35l0,.06c-.17.33-.33.67-.49,1a.22.22,0,0,1-.37.06.16.16,0,0,1,0-.19,2.56,2.56,0,0,1,.11-.24c.87-6.77,3.65-13.74,6.88-19.71,2.82-5.19,6.68-10.05,12-12.78,1.31-.68,3.88-2.1,5.35-1S696.11,332.44,695.51,333.83Z" style="fill:#50F17E"></path><path d="M691.1,334.31c-.63-.46-1.57.1-2.11.38a19.19,19.19,0,0,0-3.71,2.54,31.07,31.07,0,0,0-5.93,7,64.2,64.2,0,0,0-7,14.17,34.28,34.28,0,0,0-1,3.43c0,.14-.07.28-.1.43a.23.23,0,0,0,.37-.06c.14-.34.31-.65.47-1a.31.31,0,0,1,0-.09,38.13,38.13,0,0,1,3.5-6.42,89.24,89.24,0,0,1,7.33-8.7C684,345,693.25,335.89,691.1,334.31Zm-.79,2.61c-1.49,2.65-3.8,4.8-5.81,7.05s-4.09,4.52-6.09,6.82a42.77,42.77,0,0,0-4.29,5.86,33.3,33.3,0,0,0-2.68,5.42,46.82,46.82,0,0,1,1.92-5.64.09.09,0,0,1,0-.06,84.58,84.58,0,0,1,4.75-9.47l.07-.11a38.26,38.26,0,0,1,5.42-7.57,21.62,21.62,0,0,1,3.86-3.28c1.61-1.05,3-1.72,3.42-1.21C691.18,335.09,690.76,336.14,690.31,336.92Z" style="fill:#fff"></path><path d="M678.39,347c-1.47,3.17-2.88,6.39-4.27,9.62-.66,1.51-1.31,3-2,4.53a.31.31,0,0,0,0,.09l-.71,1.64c-2.12,4.94-4.46,10-5.75,15.23a46.59,46.59,0,0,0-1.18,8.46c0,.29,0,.59,0,.88h0c0,.16,0,.32,0,.48a2.44,2.44,0,0,0,0,.27c-.09,2.47,0,4.95,0,7.36.07,3.36.35,6.69.67,10a1.5,1.5,0,0,0,0,.29c0,.15,0,.3,0,.45l0,.24c0,.14,0,.28,0,.42.1,1.07.2,2.14.29,3.22h-1a65.47,65.47,0,0,1-1.24-9.91,1.41,1.41,0,0,1,0-.21c0-.32,0-.65-.06-1s0-.79,0-1.19c0-1-.06-1.92-.08-2.86-.1-5.5,0-11.22,1.18-16.6,0-.16.07-.3.1-.45a1.8,1.8,0,0,1,0-.19c0-.1,0-.21.07-.32l.13-.51c.08-.3.17-.6.26-.9a2.58,2.58,0,0,0,.08-.26,108.3,108.3,0,0,1,5.66-13.67c.38-.81.75-1.61,1.14-2.42.21-.44.42-.89.64-1.33l1-2a.09.09,0,0,1,0-.06c1.57-3.17,3.2-6.29,4.75-9.47C678.21,346.76,678.46,346.88,678.39,347Z" style="fill:#50F17E"></path><path d="M171.71,363.09c-1.67,2.66-3.51,5.21-5.37,7.74-1.06,1.43-2.13,2.85-3.19,4.29s-2.5,3.12-2.85,5.1h0a.93.93,0,0,1-.1.25l0,0a.23.23,0,0,1-.33-.23.68.68,0,0,1,0-.14.43.43,0,0,1,0-.05,7.42,7.42,0,0,1,.07-1.75,39.87,39.87,0,0,1,.49-4.74,39.12,39.12,0,0,1,2.67-9.36,32.52,32.52,0,0,1,4.47-7.47c1.45-1.82,3.59-4.55,5.85-5.42,2.05-.77,2.15,2,2,3.38C175.11,357.75,173.28,360.56,171.71,363.09Z" style="fill:#50F17E"></path><path d="M172,355.91c-1-.48-3.33,2.51-4.36,3.77a31.43,31.43,0,0,0-4.1,6.53,40.89,40.89,0,0,0-3.58,13.32c0,.18,0,.37-.06.55,0,0,0,0,0,.06a.5.5,0,0,0,0,.12.23.23,0,0,0,.33.24q.15-.57.33-1.11c.11-.34.22-.66.34-1a54.85,54.85,0,0,1,5.36-9.91C168.54,364.79,173.32,356.55,172,355.91ZM160.35,379c-.16.48-.3,1-.42,1.46,0-.38.09-.76.15-1.13a44.93,44.93,0,0,1,3.1-11.78,32,32,0,0,1,3.33-6,30.65,30.65,0,0,1,2.31-2.88c.36-.38,2.4-2.82,3-2.39.4.31-.66,2.87-.68,2.92-.2.51-.44,1-.68,1.52-.49,1-1.05,2-1.61,3-1.24,2.15-2.59,4.23-3.9,6.34A42.86,42.86,0,0,0,160.35,379Z" style="fill:#fff"></path><path d="M184.32,378.43c-3.6,2.81-8.1,4.16-12.52,5.06-2.37.48-4.76.85-7.13,1.27a31.68,31.68,0,0,0-6.31,1.42l-.27.11a8.66,8.66,0,0,0-1.58.88.13.13,0,0,1-.12,0l-.13.13s-.1,0-.07-.05l.11-.17h0a.13.13,0,0,1,.06-.15l.06,0c0-.06.07-.12.11-.17,2.54-4.07,7.58-7,11.68-9.17s8.61-3.62,13.25-3.31c1.17.08,3.91.07,4.55,1.35S185.09,377.83,184.32,378.43Z" style="fill:#50F17E"></path><path d="M181.39,377.09c-.48-1.32-4.16-.32-5.07-.11a49,49,0,0,0-7.95,2.78,43.68,43.68,0,0,0-11.69,6.88h0l-.15.07a1.74,1.74,0,0,0-.11.18s0,0-.06,0a.12.12,0,0,0-.05.15l.2-.09c.51-.25,1.05-.49,1.58-.71l.27-.11a94.57,94.57,0,0,1,11.54-3.43,45.06,45.06,0,0,0,7.92-2.77C178.46,379.67,181.79,378.2,181.39,377.09Zm-1.75,1.59c-3.95,2.67-9.07,3.59-13.61,4.76a49.93,49.93,0,0,0-9,3,46.1,46.1,0,0,1,10.69-6.1,59.46,59.46,0,0,1,6.58-2.52,24.38,24.38,0,0,1,3.7-.91,10.17,10.17,0,0,1,2.28-.14C181.73,377,180.32,378.22,179.64,378.68Z" style="fill:#fff"></path><path d="M151.83,395.69a.26.26,0,0,1-.24,0s0,.06,0,.09a.07.07,0,0,1,0,.09.07.07,0,0,1-.09-.05c-1.85-5.18-3.22-11.07-2.77-16.6a21.49,21.49,0,0,1,1.63-6.79c.63-1.47,1.91-4.43,3.65-4.91,3.49-1,1.58,9.11,1.29,10.63-.53,2.77-1.3,5.49-1.88,8.25-.64,3-1.06,6.07-1.48,9.13A.21.21,0,0,1,151.83,395.69Z" style="fill:#50F17E"></path><path d="M151.83,395.69c0-.29-.06-.59-.07-.88a46.22,46.22,0,0,1,1.12-14.22,42.71,42.71,0,0,0,1.26-7.08c0-.6.3-2.81-1-2.22-.66.3-2,4.12-2.26,5.13a29.75,29.75,0,0,0-.85,7.15,48.39,48.39,0,0,0,1.42,12,3.59,3.59,0,0,0,.08.35.08.08,0,0,0,0-.09s0-.06,0-.09A.25.25,0,0,0,151.83,395.69Zm-1.48-10.12a33.4,33.4,0,0,1,.39-7.13,24.15,24.15,0,0,1,.64-2.77,15,15,0,0,1,.77-2.1c.78-1.64,1.11-2,1.41-1.94s.34.33.37,1.55a11.51,11.51,0,0,1-.23,2.33c-.19,1.09-.42,2.17-.67,3.25-.48,2.16-1,4.33-1.32,6.52a36,36,0,0,0-.19,9.5A55.64,55.64,0,0,1,150.35,385.57Z" style="fill:#fff"></path><path d="M167.07,392.24a13.73,13.73,0,0,1-4.51,3.71c-3.41,1.9-7.17,3.06-10.7,4.72-.52.24-1.05.5-1.56.78-.06,0-.6.51-.57.46l.4-.57h0c1.24-1.73,5.1-6.92,8-9.16a27.63,27.63,0,0,1,5.72-3.65c1-.43,3.22-1.3,4.2-.43S167.67,391.41,167.07,392.24Z" style="fill:#50F17E"></path><path d="M165.76,390.22c-.87-1.32-6.6,2.83-7.35,3.35a39.73,39.73,0,0,0-7.54,6.88c-.25.29-.49.59-.73.89s-.41.55-.41.57.51-.43.57-.46l.27-.14c.43-.23.86-.44,1.29-.64,2.3-1.41,4.64-2.78,6.92-4.23a37,37,0,0,0,4.69-3.48C163.79,392.66,166.14,390.8,165.76,390.22Zm-1.08,1.42c-4,4.06-9.3,6.26-14,9.34l-.23.15.29-.33a43.42,43.42,0,0,1,10.41-8.68,21.32,21.32,0,0,1,2.47-1.38c.38-.17,1.43-.56,1.62-.32S164.94,391.37,164.68,391.64Z" style="fill:#fff"></path><path d="M197.91,357.72c-7.46,6.62-18.73,6.09-26.55,12.18l0,0-.7.58a.18.18,0,0,1-.29-.08.13.13,0,0,1,0-.15l.17-.14A47.77,47.77,0,0,1,182.35,358c3.85-2.86,8.35-5.12,13.22-5.31,1.2-.05,3.58-.22,4.29,1.1S198.83,356.9,197.91,357.72Z" style="fill:#50F17E"></path><path d="M194.49,356.57c-.3-.56-1.19-.47-1.68-.45a15.68,15.68,0,0,0-3.6.61,24.83,24.83,0,0,0-6.78,3.17,51.41,51.41,0,0,0-10,8.05q-1,1.05-1.89,2.19l-.21.29a.18.18,0,0,0,.29.08c.22-.2.45-.37.68-.56,0,0,0,0,.06-.05a30.24,30.24,0,0,1,4.77-3.54,71.61,71.61,0,0,1,8.38-3.9C185.62,362,195.54,358.47,194.49,356.57ZM193,358.22a34.61,34.61,0,0,1-6.69,3.21c-2.27,1-4.56,1.93-6.82,2.94a35.13,35.13,0,0,0-5.16,2.85,27,27,0,0,0-3.83,3.08,38.06,38.06,0,0,1,3.34-3.5l0,0a68.64,68.64,0,0,1,6.73-5.35l.09-.07a32.1,32.1,0,0,1,6.58-3.72,18.28,18.28,0,0,1,4-1.1c1.54-.22,2.81-.24,2.93.28C194.29,357.17,193.62,357.8,193,358.22Z" style="fill:#fff"></path><path d="M180.79,361.59c-2.17,1.84-4.31,3.73-6.44,5.63l-3,2.68s-.05,0-.06.05l-1.08,1a82.57,82.57,0,0,0-9.45,9.25A37.25,37.25,0,0,0,157,386l-.34.63h0c-.06.12-.12.23-.17.35a1.74,1.74,0,0,0-.1.19c-.91,1.79-1.73,3.63-2.52,5.42-1.11,2.5-2,5.06-2.93,7.62a.85.85,0,0,0-.09.22l-.12.35a1.27,1.27,0,0,0-.06.18c-.05.11-.08.22-.12.33-.29.82-.58,1.64-.89,2.47l-.75-.35a53.43,53.43,0,0,1,2.47-7.73,1.11,1.11,0,0,1,.07-.16c.09-.24.19-.49.29-.73s.24-.6.37-.9c.3-.72.61-1.43.92-2.14a56.9,56.9,0,0,1,6.54-11.83l.23-.29.1-.12.16-.21.27-.33c.16-.2.33-.39.5-.58l.15-.17a87.07,87.07,0,0,1,8.84-8.13l1.66-1.4.93-.76,1.43-1.15,0,0c2.23-1.8,4.51-3.54,6.73-5.35C180.75,361.34,180.89,361.51,180.79,361.59Z" style="fill:#50F17E"></path><path d="M450.88,372.15c-.79,2.36-1.41,4.77-2,7.19-.34,1.37-.66,2.74-1,4.12a10.24,10.24,0,0,1-1.67,4.32h0a.7.7,0,0,0-.1.19v0a.18.18,0,0,0,.31.09l.07-.08,0,0a6.46,6.46,0,0,0,1-.93,32.06,32.06,0,0,0,2.64-2.7,30.83,30.83,0,0,0,4.37-6.36,26.42,26.42,0,0,0,2.3-6.51c.37-1.81,1-4.5.34-6.32-.56-1.64-2.33-.28-3.08.48C452.41,367.37,451.62,369.91,450.88,372.15Z" style="fill:#50F17E"></path><path d="M450.35,378.24a42.54,42.54,0,0,1-3.34,8.29c-.13.23-.27.46-.42.7s-.33.51-.51.76a.18.18,0,0,0,.31.09l.07-.08,0,0,.31-.32a32.53,32.53,0,0,0,6.31-8.92,25.37,25.37,0,0,0,1.91-5.81c.25-1.27.91-4.18.1-4.57C454.05,367.85,451.44,374.94,450.35,378.24Zm-.31,1.59c.63-1.87,1.21-3.75,1.9-5.59.32-.85.65-1.69,1-2.52.19-.4.38-.8.58-1.18,0,0,1.05-2,1.44-1.89.56.13.1,2.61.05,3a24.85,24.85,0,0,1-2.57,7.95,35.55,35.55,0,0,1-5.62,7.84c-.2.23-.4.45-.61.67.23-.32.46-.65.68-1A33.79,33.79,0,0,0,450,379.83Z" style="fill:#fff"></path><path d="M435.13,372.21c.1,3.62,1.56,7.05,3.25,10.2.9,1.69,1.89,3.34,2.83,5a24.81,24.81,0,0,1,2.32,4.57,1.42,1.42,0,0,1,.07.22,6.25,6.25,0,0,1,.26,1.41.16.16,0,0,0,.05.08c0,.05,0,.1,0,.15s.05.05.06,0,0-.1.06-.15h0a.09.09,0,0,0,.06-.11v-.06a.88.88,0,0,1,.05-.15c1.19-3.61.45-8.19-.32-11.77a20,20,0,0,0-4.68-9.76c-.64-.68-2-2.35-3.13-2.09S435.1,371.44,435.13,372.21Z" style="fill:#50F17E"></path><path d="M437.48,377a34.81,34.81,0,0,0,2.31,6.23,76,76,0,0,1,3.74,8.79,1.42,1.42,0,0,1,.07.22c.14.44.26.88.37,1.32l0,.17a.09.09,0,0,0,.06-.11v-.06a1.31,1.31,0,0,1,.05-.15l0-.13h0a34.46,34.46,0,0,0-1.72-10.62,39,39,0,0,0-2.32-6.27c-.33-.65-1.58-3.4-2.63-3C436.55,373.63,437.34,376.41,437.48,377Zm.68-3.12a8.42,8.42,0,0,1,1.07,1.46,22,22,0,0,1,1.32,2.72,49,49,0,0,1,1.78,5.29,36.45,36.45,0,0,1,1.69,9.61,38.28,38.28,0,0,0-2.7-7c-1.57-3.36-3.61-7-4-10.72C437.28,374.55,437.3,373.08,438.16,373.84Z" style="fill:#fff"></path><path d="M441,400.78a.21.21,0,0,0,.11.15l-.06,0a.06.06,0,0,0,0,.07.06.06,0,0,0,.08,0,32.68,32.68,0,0,0,11.53-6.71,16.92,16.92,0,0,0,3.32-4.43c.58-1.13,1.74-3.41,1.16-4.72-1.18-2.61-6.37,3.65-7.15,4.6-1.42,1.72-2.69,3.57-4.08,5.32-1.52,1.91-3.17,3.72-4.83,5.52A.21.21,0,0,0,441,400.78Z" style="fill:#50F17E"></path><path d="M441.14,400.93l-.06,0a.05.05,0,0,0,0,.08l.25-.13a38.24,38.24,0,0,0,8-5.19,23.35,23.35,0,0,0,3.93-4.14c.49-.67,2.14-3.42,2-4-.28-1.07-1.5.21-1.85.53a33.42,33.42,0,0,0-3.68,4.36,37.1,37.1,0,0,1-8.11,7.87l-.58.4A.19.19,0,0,0,441.14,400.93Zm.6-.43a28.56,28.56,0,0,0,5.71-4.92c1.17-1.3,2.23-2.71,3.31-4.1.53-.7,1.08-1.39,1.64-2.06a10.21,10.21,0,0,1,1.31-1.32c.76-.59,1-.65,1.13-.56s.14.54-.47,1.85a12.41,12.41,0,0,1-.89,1.53,19.72,19.72,0,0,1-1.37,1.79,27,27,0,0,1-4.15,3.85A44,44,0,0,1,441.74,400.5Z" style="fill:#fff"></path><path d="M435.43,389.73a10.64,10.64,0,0,0,0,4.63c.56,3,1.76,5.92,2.53,8.91.11.45.22.9.31,1.35,0,.05,0,.62,0,.58s.06-.2.14-.53h0c.43-1.63,1.64-6.61,1.57-9.48a22.32,22.32,0,0,0-.67-5.34c-.23-.82-.83-2.63-1.86-2.78S435.63,388.94,435.43,389.73Z" style="fill:#50F17E"></path><path d="M436.81,392.29a28.51,28.51,0,0,0,.25,4.62c.26,2.13.61,4.25.92,6.36.09.37.18.74.26,1.12a1.55,1.55,0,0,1,.05.23c0,.05,0,.58,0,.58s.05-.2.14-.53.12-.6.17-.9a31.26,31.26,0,0,0,.39-8.08c-.06-.73-.43-6.32-1.68-6.18C436.78,389.57,436.83,391.94,436.81,392.29Zm.65-2.37c.24,0,.53.83.63,1.15a18.11,18.11,0,0,1,.4,2.2,34.09,34.09,0,0,1,0,10.75c0,.11,0,.23,0,.34l0-.21c-.5-4.43-1.84-8.78-1.37-13.27C437,390.58,437.13,389.92,437.46,389.92Z" style="fill:#fff"></path><path d="M440.9,353.44c-.27,7.9,5.75,14.51,6,22.36v0c0,.24,0,.48,0,.73a.15.15,0,0,0,.2.13.1.1,0,0,0,.07-.1v-.17a37.72,37.72,0,0,0,1.45-13.37,19.24,19.24,0,0,0-3.44-10.76c-.58-.75-1.68-2.3-2.85-2.05S440.93,352.46,440.9,353.44Z" style="fill:#50F17E"></path><path d="M444.78,364a58.22,58.22,0,0,1,1.86,7.09,23.91,23.91,0,0,1,.25,4.7s0,.05,0,.07c0,.23,0,.46,0,.7a.15.15,0,0,0,.2.13c0-.09.05-.18.07-.27.16-.75.29-1.51.38-2.27A41.18,41.18,0,0,0,447.4,364a19.93,19.93,0,0,0-1.5-5.74,12.05,12.05,0,0,0-1.45-2.51c-.24-.31-.63-.9-1.12-.8C441.63,355.26,444.51,363.09,444.78,364Zm-1.46-8.78c.38-.19,1,.6,1.66,1.65a14.49,14.49,0,0,1,1.33,3,24.62,24.62,0,0,1,1.06,5.9v.09a53.39,53.39,0,0,1,.15,6.82v0a28.69,28.69,0,0,1-.45,3.81,21.19,21.19,0,0,0-.06-3.9,26.55,26.55,0,0,0-.87-4.59c-.52-1.89-1.1-3.77-1.65-5.65a27,27,0,0,1-1.43-5.71C443,356.1,443.06,355.37,443.32,355.23Z" style="fill:#fff"></path><path d="M447.19,365.85c0,2.25-.09,4.51-.18,6.77q0,1.61-.12,3.18s0,.05,0,.07c0,.38,0,.77,0,1.15a65.08,65.08,0,0,1-.87,10.44,30.16,30.16,0,0,1-1.66,5.25c-.08.17-.15.35-.22.53h0c-.05.09-.09.19-.13.28a.77.77,0,0,1-.07.16c-.63,1.46-1.34,2.89-2,4.28-1,1.94-2.06,3.8-3.16,5.64l-.1.17-.15.25-.08.13c0,.08-.09.16-.14.24-.35.59-.71,1.18-1.06,1.79l.6.28a42.94,42.94,0,0,0,3.46-5.42.75.75,0,0,0,.07-.12l.3-.55.36-.68.84-1.64a46,46,0,0,0,3.91-10l.06-.29,0-.12c0-.07,0-.14,0-.21l.07-.33c0-.2.07-.4.09-.59l0-.18a68.93,68.93,0,0,0,.49-9.52c0-.57,0-1.14,0-1.71v-1c0-.48,0-1,0-1.45v0c0-2.28-.12-4.55-.15-6.82A.09.09,0,0,0,447.19,365.85Z" style="fill:#50F17E"></path><path d="M204.21,413.78s-2.86-13.36-8.59-15.42-9.2,3.94-9.2,3.94-1.34-12.77-9.46-16.6-14.2,4-14.2,4-6.22-16.21-17.34-16.21-16.73,23.71-16.73,23.71-6.56-7.06-13.29-3.07-6.73,19.64-6.73,19.64Z" style="fill:#455a64"></path><path d="M481,413.78H390.7s3-12.73,9-13.63,8.77,5,8.77,5-.27-17.76,10.92-20.79S439.92,397,439.92,397s7-8.95,16.57-8.37,12,15.35,12,15.35S477.18,398.88,481,413.78Z" style="fill:#455a64"></path><path d="M115.83,413.78H54.51s.14-9.12,6.17-11.55a8.21,8.21,0,0,1,9.61,2.31S72.75,387.76,84,387.76s16.61,14.47,16.61,14.47,2.52-4.37,8.75-3.56S115.83,413.78,115.83,413.78Z" style="fill:#37474f"></path><path d="M411.83,413.78H350.51s.14-9.12,6.17-11.55a8.21,8.21,0,0,1,9.61,2.31s2.46-16.78,13.69-16.78,16.61,14.47,16.61,14.47,2.52-4.37,8.76-3.56S411.83,413.78,411.83,413.78Z" style="fill:#37474f"></path><path d="M695.49,413.78H622.81s.17-10.82,7.31-13.69a9.72,9.72,0,0,1,11.39,2.73s2.92-19.89,16.24-19.89,19.68,17.16,19.68,17.16,3-5.18,10.38-4.22S695.49,413.78,695.49,413.78Z" style="fill:#37474f"></path><path d="M260.48,413.78H198.79s.15-9.18,6.21-11.62a8.27,8.27,0,0,1,9.67,2.32s2.47-16.88,13.77-16.88,16.71,14.56,16.71,14.56,2.53-4.4,8.81-3.58S260.48,413.78,260.48,413.78Z" style="fill:#37474f"></path></g></svg>